<svg width="416" height="279" viewBox="0 0 416 279" fill="none" xmlns="http://www.w3.org/2000/svg">
<path d="M32 0.000757482L384 6.31236e-05C401.673 2.82614e-05 416 14.3269 416 32.0001L416 163.027C416 168.42 414.637 173.726 412.037 178.451L410.141 181.897C404.656 191.869 404.879 204.003 410.727 213.767L411.451 214.975C414.428 219.944 416 225.628 416 231.42L416 246.366C416 264.039 401.673 278.366 384 278.366L32.0001 278.366C14.327 278.366 0.000171546 264.039 0.000141802 246.366L0.000111939 231.42C8.16747e-05 225.628 1.57219 219.944 4.54876 214.975L5.27291 213.766C11.1214 204.003 11.3445 191.869 5.85879 181.897L3.96288 178.451C1.36321 173.726 8.41792e-05 168.42 8.44154e-05 163.027L9.01517e-05 32.0008C9.09255e-05 14.3277 14.3269 0.000792344 32 0.000757482Z" fill="url(#paint0_linear_2_586)"/>
<defs>
<linearGradient id="paint0_linear_2_586" x1="207.885" y1="278.366" x2="207.885" y2="-3.5915e-06" gradientUnits="userSpaceOnUse">
<stop stop-color="#131313"/>
<stop offset="0.133636" stop-color="#131313"/>
<stop offset="0.258692" stop-color="#0E0E0E"/>
<stop offset="0.435855" stop-color="#131313"/>
<stop offset="1" stop-color="#131313"/>
</linearGradient>
</defs>
</svg>
