<svg width="416" height="279" viewBox="0 0 416 279" fill="none" xmlns="http://www.w3.org/2000/svg">
<path d="M32 0.000269201L384 -0.000425158C401.673 -0.00046002 416 14.3264 416 31.9996L416 163.026C416 168.42 414.637 173.725 412.037 178.451L410.141 181.897C404.656 191.868 404.879 204.003 410.727 213.766L411.451 214.975C414.428 219.944 416 225.627 416 231.419L416 246.365C416 264.038 401.673 278.365 384 278.365L32.0001 278.365C14.327 278.365 0.000171546 264.038 0.000141802 246.365L0.000111939 231.419C8.16747e-05 225.627 1.57219 219.944 4.54876 214.975L5.27291 213.766C11.1214 204.003 11.3445 191.868 5.85879 181.897L3.96288 178.451C1.36321 173.725 8.41792e-05 168.419 8.44154e-05 163.026L9.01517e-05 32.0003C9.09255e-05 14.3272 14.3269 0.000304063 32 0.000269201Z" fill="url(#paint0_linear_2_585)"/>
<defs>
<linearGradient id="paint0_linear_2_585" x1="416.051" y1="130.105" x2="0.0506935" y2="130.105" gradientUnits="userSpaceOnUse">
<stop stop-color="#38C1A5"/>
<stop offset="1" stop-color="#0891D5"/>
</linearGradient>
</defs>
</svg>
