<svg xmlns="http://www.w3.org/2000/svg" width="416" height="278" viewBox="0 0 416 278" fill="none">
  <path
    d="M32 0.000756464L384 6.30388e-05C401.673 2.82235e-05 416 14.3269 416 32.0001L416 162.792C416 168.192 414.634 173.503 412.029 178.232L410.162 181.621C404.664 191.601 404.888 203.751 410.749 213.522L411.442 214.677C414.424 219.649 416 225.339 416 231.137L416 246C416 263.673 401.673 278 384 278L32.0001 278C14.327 278 0.000171562 263.673 0.000141818 246L0.000111951 231.137C8.16873e-05 225.339 1.57561 219.649 4.55828 214.677L5.25136 213.521C11.1122 203.751 11.3357 191.6 5.83819 181.621L3.97146 178.232C1.36626 173.503 8.41892e-05 168.191 8.44256e-05 162.792L9.01517e-05 32.0008C9.09255e-05 14.3277 14.3269 0.00079128 32 0.000756464Z"
    fill="white" />
</svg>