<svg width="586" height="502" viewBox="0 0 586 502" fill="none" xmlns="http://www.w3.org/2000/svg">
  <rect x="46.9839" y="58.1733" width="473.88" height="406.668" fill="#EDEDED" stroke="black" stroke-dasharray="8.98 8.98" />
  <rect x="36.9326" y="51.2637" width="477.02" height="406.668" fill="white" stroke="black" />
  <path d="M184.749 293.461C184.749 404.004 274.362 493.617 384.905 493.617C495.448 493.617 585.061 404.004 585.061 293.461C585.061 182.918 495.448 93.3047 384.905 93.3047C274.362 93.3047 184.749 182.918 184.749 293.461Z" stroke="black" stroke-linecap="round" stroke-linejoin="round" />
  <path d="M493.035 434.567C493.035 451.508 506.597 465.242 523.326 465.242C540.056 465.242 553.618 451.508 553.618 434.567C553.618 417.625 540.056 403.892 523.326 403.892C506.597 403.892 493.035 417.625 493.035 434.567Z" fill="url(#paint0_linear_6690_141)" stroke="black" stroke-linecap="round" stroke-linejoin="round" />
  <path d="M213.882 107.671L196.776 122.446L171.711 105.84L180.844 82.5684C180.844 82.5684 203.506 92.7415 203.887 93.1295C204.269 93.5175 213.89 107.679 213.89 107.679L213.882 107.671Z" fill="black" stroke="black" stroke-linecap="round" stroke-linejoin="round" />
  <path d="M213.892 107.54L188.782 15.8501L105.762 37.6378L136.848 57.7366L107.043 115.656L153.024 145.453L182.713 87.3881L213.892 107.54Z" fill="url(#paint1_linear_6690_141)" stroke="black" stroke-linecap="round" stroke-linejoin="round" />
  <path d="M105.666 36.5557L88.1909 51.138L119.718 71.0653L137.271 56.6589L105.666 36.5557Z" fill="#EDEDED" stroke="black" stroke-linecap="round" stroke-linejoin="round" />
  <path d="M107.559 115.544L89.6558 130.303L137.217 160.79L154.074 145.768L107.559 115.544Z" fill="white" stroke="black" stroke-linecap="round" stroke-linejoin="round" />
  <path d="M120.409 71.2733L89.6558 130.882L107.656 115.947L137.969 56.4946L120.409 71.2733Z" fill="white" stroke="black" stroke-linecap="round" stroke-linejoin="round" />
  <path d="M205.584 143.218H87.8521L63.2295 164.359H180.961L205.584 143.218Z" fill="white" stroke="black" stroke-linecap="round" stroke-linejoin="round" />
  <path d="M180.214 500.512L205.584 479.362V143.218L180.214 164.368V500.512Z" fill="white" stroke="black" stroke-linecap="round" stroke-linejoin="round" />
  <path d="M63.2295 164.359V500.512H180.214V164.359H63.2295ZM148.971 453.472C148.971 458.673 147.525 463.528 145.016 467.669C144.419 467.707 143.815 467.731 143.21 467.731C128.163 467.731 115.969 455.484 115.969 440.373V203.349C115.969 198.155 117.415 193.292 119.924 189.151C120.52 189.113 121.117 189.09 121.722 189.09C129.241 189.09 136.058 192.155 140.992 197.103C145.919 202.058 148.971 208.903 148.971 216.455V453.472Z" fill="white" stroke="black" stroke-linecap="round" stroke-linejoin="round" />
  <path d="M149.205 216.433V453.814C149.205 459.023 147.754 463.886 145.236 468.034C144.637 468.072 144.031 468.095 143.424 468.095C128.322 468.095 116.083 455.83 116.083 440.695V203.306C116.083 198.104 117.535 193.234 120.053 189.086C120.652 189.048 121.251 189.025 121.857 189.025C129.404 189.025 136.245 192.095 141.198 197.05C146.142 202.013 149.205 208.869 149.205 216.433Z" fill="white" stroke="black" stroke-linecap="round" stroke-linejoin="round" />
  <path d="M145.683 468.289C140.824 476.201 132.017 481.485 121.973 481.485C106.657 481.485 94.2378 469.206 94.2378 454.054V216.402C94.2378 201.858 105.676 189.957 120.143 189.025C117.589 193.177 116.118 198.053 116.118 203.26V440.92C116.118 456.072 128.529 468.351 143.845 468.351C144.46 468.351 145.075 468.328 145.683 468.289Z" fill="black" stroke="black" stroke-linecap="round" stroke-linejoin="round" />
  <path d="M128.399 302.959C136.445 302.959 143.754 299.832 149.205 294.733V453.801C149.205 459.015 147.754 463.882 145.236 468.034C144.637 468.072 144.031 468.095 143.424 468.095C128.322 468.095 116.083 455.818 116.083 440.669V300.364C119.846 302.035 124.015 302.959 128.399 302.959Z" fill="url(#paint2_linear_6690_141)" stroke="black" stroke-linecap="round" stroke-linejoin="round" />
  <path d="M149.206 250.12V294.949C143.739 300.057 136.41 303.19 128.341 303.19C123.945 303.19 119.765 302.264 115.992 300.59C105.252 295.829 97.7607 285.057 97.7607 272.534C97.7607 260.011 105.252 249.24 115.992 244.479C119.765 242.805 123.945 241.879 128.341 241.879C136.41 241.879 143.739 245.012 149.206 250.12Z" fill="#EDEDED" stroke="black" stroke-linecap="round" stroke-linejoin="round" />
  <path d="M368.033 183.797H250.3L198.552 226.742H316.285L368.033 183.797Z" fill="white" stroke="black" stroke-linecap="round" stroke-linejoin="round" />
  <path d="M315.886 424.598L368.034 382.179V183.797L315.886 226.216V424.598Z" fill="#EDEDED" stroke="black" stroke-linecap="round" stroke-linejoin="round" />
  <path d="M315.885 226.742H198.552V424.598H315.885V226.742Z" fill="url(#paint3_linear_6690_141)" stroke="black" stroke-linecap="round" stroke-linejoin="round" />
  <path d="M471.564 231.343C488.505 231.343 502.239 217.438 502.239 200.285C502.239 183.132 488.505 169.226 471.564 169.226C454.622 169.226 440.889 183.132 440.889 200.285C440.889 217.438 454.622 231.343 471.564 231.343Z" fill="#EDEDED" stroke="black" stroke-linecap="round" stroke-linejoin="round" />
  <path d="M492.269 238.513C484.197 247.301 472.622 252.816 459.763 252.816C435.36 252.816 415.581 232.974 415.581 208.494C415.581 196.898 420.019 186.333 427.303 178.429C455.866 189.381 479.14 211.038 492.269 238.513Z" fill="white" stroke="black" stroke-linecap="round" stroke-linejoin="round" />
  <path d="M382.604 177.662L308.722 238.245H278.308C292.365 209.568 317.71 187.432 348.544 177.662H382.604Z" fill="white" stroke="black" stroke-linecap="round" stroke-linejoin="round" />
  <path d="M382.605 177.662V409.26C354.607 408.891 328.978 398.633 308.984 381.784V238.549L382.605 177.662Z" fill="#EDEDED" stroke="black" stroke-linecap="round" stroke-linejoin="round" />
  <path d="M308.985 238.245V382.419C282.74 360.538 266.04 327.588 266.04 290.746C266.04 271.907 270.407 254.089 278.18 238.245H308.985Z" fill="url(#paint4_linear_6690_141)" stroke="black" stroke-linecap="round" stroke-linejoin="round" />
  <path d="M384.905 148.521C306.979 148.521 243.799 211.864 243.799 290.01C243.799 368.156 306.971 431.5 384.905 431.5C462.839 431.5 526.011 368.156 526.011 290.01C526.011 211.864 462.839 148.521 384.905 148.521ZM384.905 408.8C319.473 408.8 266.429 355.612 266.429 290.002C266.429 224.393 319.473 171.204 384.905 171.204C450.336 171.204 503.381 224.393 503.381 290.002C503.381 355.612 450.336 408.8 384.905 408.8Z" fill="white" stroke="black" stroke-linecap="round" stroke-linejoin="round" />
  <path d="M292.881 142.385C296.269 142.385 299.016 139.982 299.016 137.017C299.016 134.052 296.269 131.649 292.881 131.649C289.492 131.649 286.746 134.052 286.746 137.017C286.746 139.982 289.492 142.385 292.881 142.385Z" fill="white" stroke="black" stroke-linecap="round" stroke-linejoin="round" />
  <path d="M401.692 172.544C425.926 222.188 371.181 304.248 277.095 358.569C180.896 414.109 79.8742 419.231 51.4559 370.009C23.0376 320.787 77.9843 235.861 174.183 180.32C254.043 134.213 337.228 122.852 379.439 148.484" stroke="black" stroke-linecap="round" stroke-linejoin="round" stroke-dasharray="8.98 8.98" />
  <path d="M384.907 408.493C319.259 408.493 266.04 355.445 266.04 290.01C266.04 224.574 319.259 171.526 384.907 171.526C450.554 171.526 503.773 224.574 503.773 290.01C503.773 355.445 450.554 408.493 384.907 408.493Z" fill="#FFE866" fill-opacity="0.15" stroke="black" stroke-linecap="round" stroke-linejoin="round" />
  <path fill-rule="evenodd" clip-rule="evenodd" d="M461.526 199.288C442.631 186.577 419.878 179.159 395.394 179.159C329.874 179.159 276.757 232.276 276.757 297.796C276.757 334.121 293.084 366.633 318.799 388.395C287.131 367.093 266.296 330.923 266.296 289.888C266.296 224.368 319.412 171.251 384.932 171.251C414.127 171.251 440.859 181.797 461.526 199.288Z" fill="black" />
  <path
    d="M461.526 199.288L461.247 199.703C461.468 199.851 461.765 199.801 461.925 199.589C462.085 199.377 462.052 199.078 461.849 198.906L461.526 199.288ZM318.799 388.395L318.52 388.81C318.74 388.958 319.038 388.909 319.198 388.697C319.358 388.485 319.325 388.185 319.122 388.014L318.799 388.395ZM395.394 179.659C419.776 179.659 442.432 187.046 461.247 199.703L461.805 198.873C442.83 186.108 419.981 178.659 395.394 178.659V179.659ZM277.257 297.796C277.257 232.552 330.15 179.659 395.394 179.659V178.659C329.597 178.659 276.257 231.999 276.257 297.796H277.257ZM319.122 388.014C293.514 366.343 277.257 333.968 277.257 297.796H276.257C276.257 334.274 292.654 366.924 318.476 388.777L319.122 388.014ZM319.078 387.981C287.542 366.767 266.796 330.75 266.796 289.888H265.796C265.796 331.096 286.72 367.419 318.52 388.81L319.078 387.981ZM266.796 289.888C266.796 224.644 319.688 171.751 384.932 171.751V170.751C319.136 170.751 265.796 224.092 265.796 289.888H266.796ZM384.932 171.751C414.004 171.751 440.623 182.253 461.203 199.669L461.849 198.906C441.095 181.342 414.249 170.751 384.932 170.751V171.751Z"
    fill="black" />
  <path d="M384.907 408.493C319.259 408.493 266.04 355.445 266.04 290.01C266.04 224.574 319.259 171.526 384.907 171.526C450.554 171.526 503.773 224.574 503.773 290.01C503.773 355.445 450.554 408.493 384.907 408.493Z" fill="#FFE866" fill-opacity="0.15" stroke="black" stroke-linecap="round" stroke-linejoin="round" />
  <path d="M530.338 71.7107L503.297 138.168C501.54 142.482 498.197 145.699 494.197 147.352C493.205 142.705 491.979 135.13 491.915 125.633C491.833 113.979 495.625 101.222 495.859 100.449C495.865 100.424 495.871 100.411 495.871 100.411L519.886 41.3829C521.067 38.4663 521.225 35.4092 520.543 32.5947L530.18 60.5293C531.684 63.9373 531.868 67.9389 530.338 71.7043V71.7107Z" fill="url(#paint5_linear_6690_141)" stroke="black" stroke-linecap="round" stroke-linejoin="round" />
  <path d="M489.445 148.49C487.302 148.721 485.089 148.535 482.907 147.887L412.623 127.035C407.62 125.553 404.089 121.583 402.873 116.926L392.581 87.5049C394.02 91.7061 397.391 95.1954 402.016 96.568L460.275 113.854C460.275 113.854 460.275 113.854 460.275 113.86C460.275 113.86 460.287 113.867 460.3 113.867C461.055 114.232 473.331 120.242 481.27 131.903C485.185 137.657 487.891 144.141 489.445 148.497V148.49Z" fill="white" stroke="black" stroke-linecap="round" stroke-linejoin="round" />
  <path
    d="M493.992 147.41C493.802 147.481 493.624 147.564 493.434 147.634C493.244 147.704 493.054 147.775 492.87 147.832C492.661 147.902 492.452 147.966 492.249 148.024C491.888 148.132 491.526 148.222 491.159 148.311C490.956 148.349 490.747 148.388 490.538 148.426C490.348 148.458 490.158 148.49 489.974 148.515C489.961 148.515 489.948 148.515 489.936 148.522C489.746 148.541 489.568 148.567 489.378 148.586C489.365 148.586 489.359 148.586 489.346 148.586C487.8 144.255 485.125 137.791 481.247 132.061C473.382 120.449 461.22 114.463 460.472 114.099C460.459 114.099 460.453 114.093 460.447 114.093L472.355 117.644C480.594 120.104 489.346 115.881 492.604 107.865L495.614 100.462C495.38 101.235 491.596 114.01 491.685 125.674C491.761 135.172 492.997 142.76 493.998 147.404L493.992 147.41Z"
    fill="black" stroke="black" stroke-linecap="round" stroke-linejoin="round" />
  <path d="M519.849 41.1389L495.671 100.388L495.658 100.427L492.628 107.848C489.348 115.884 480.538 120.123 472.245 117.652L460.258 114.092L402.153 96.8283C397.547 95.458 394.185 91.9746 392.744 87.7804C391.659 84.6364 391.659 81.089 393.031 77.7337L420.252 11.0178C423.537 2.98167 432.341 -1.2573 440.635 1.21437L510.726 22.0315C514.847 23.2609 517.961 26.168 519.606 29.7602L520.5 32.3151C521.189 35.1326 521.035 38.2062 519.849 41.1325V41.1389Z" fill="white" stroke="black" stroke-linecap="round" stroke-linejoin="round" />
  <path d="M482.04 59.5994L462.488 70.0475L444.83 79.4848L414.79 70.4442L452 50.5588L432.05 13.4688L462.09 22.5093L471.558 40.1106L482.04 59.5994Z" fill="white" stroke="black" stroke-linecap="round" stroke-linejoin="round" />
  <path d="M414.79 70.2305L427.223 81.3573L457.361 90.5906L444.922 79.4572L414.79 70.2305Z" fill="black" stroke="black" stroke-linecap="round" stroke-linejoin="round" />
  <path d="M482.047 59.7417L494.38 70.6634L457.361 90.5903L445.022 79.6622L482.047 59.7417Z" fill="url(#paint6_linear_6690_141)" stroke="black" stroke-linecap="round" stroke-linejoin="round" />
  <path d="M474.598 33.5221L462.297 22.7236L482.086 59.4384L494.38 70.2305L474.598 33.5221Z" fill="url(#paint7_linear_6690_141)" stroke="black" stroke-linecap="round" stroke-linejoin="round" />
  <defs>
    <linearGradient id="paint0_linear_6690_141" x1="523.326" y1="403.892" x2="493.016" y2="447.489" gradientUnits="userSpaceOnUse">
      <stop stop-color="white" />
      <stop offset="0.99" stop-color="#FFE866" />
    </linearGradient>
    <linearGradient id="paint1_linear_6690_141" x1="156.098" y1="45.1033" x2="177.806" y2="155.138" gradientUnits="userSpaceOnUse">
      <stop stop-color="white" />
      <stop offset="1" stop-color="#FFE866" />
    </linearGradient>
    <linearGradient id="paint2_linear_6690_141" x1="133.013" y1="311.846" x2="145.045" y2="468.076" gradientUnits="userSpaceOnUse">
      <stop stop-color="white" />
      <stop offset="0.99" stop-color="#FFE866" />
    </linearGradient>
    <linearGradient id="paint3_linear_6690_141" x1="194.097" y1="294.176" x2="325.26" y2="424.877" gradientUnits="userSpaceOnUse">
      <stop stop-color="white" />
      <stop offset="0.170794" stop-color="white" />
      <stop offset="0.99" stop-color="#FFE866" />
    </linearGradient>
    <linearGradient id="paint4_linear_6690_141" x1="277.341" y1="318.923" x2="308.512" y2="404.628" gradientUnits="userSpaceOnUse">
      <stop stop-color="white" />
      <stop offset="1" stop-color="#FFE866" />
    </linearGradient>
    <linearGradient id="paint5_linear_6690_141" x1="520.912" y1="54.1888" x2="496.541" y2="133.161" gradientUnits="userSpaceOnUse">
      <stop stop-color="white" />
      <stop offset="0.99" stop-color="#FFE866" />
    </linearGradient>
    <linearGradient id="paint6_linear_6690_141" x1="445.022" y1="75.1664" x2="494.38" y2="75.1664" gradientUnits="userSpaceOnUse">
      <stop stop-color="white" />
      <stop offset="0.99" stop-color="#FFE866" />
    </linearGradient>
    <linearGradient id="paint7_linear_6690_141" x1="462.297" y1="46.4777" x2="494.38" y2="46.4777" gradientUnits="userSpaceOnUse">
      <stop stop-color="white" />
      <stop offset="0.99" stop-color="#FFE866" />
    </linearGradient>
  </defs>
</svg>