<svg width="246" height="22" viewBox="0 0 246 22" fill="none" xmlns="http://www.w3.org/2000/svg">
  <g clip-path="url(#clip0_0_31878)">
    <path
      d="M63.255 16.8934H59.2562V5.13074H63.255V16.8934ZM71.2809 5.13074H66.5623L63.255 10.3246V11.0121L66.9049 16.8934H71.6235L67.2538 10.6684L71.2809 5.13074ZM27.8702 5.13074V9.43427H24.7126V5.13074H20.7138V16.8934H24.7126V12.5289H27.8702V16.8934H31.869V5.13074H27.8702ZM53.555 13.804C51.9783 13.804 50.8992 12.55 50.8992 11.0121C50.8992 9.47421 51.9783 8.22016 53.555 8.22016C54.7 8.22016 55.5214 8.83404 55.7435 9.12522L57.7298 6.37639C57.186 5.87287 55.5088 4.73024 53.117 4.73024C48.8773 4.73024 46.7055 8.0404 46.7055 11.0121C46.7055 13.9838 48.8773 17.2939 53.117 17.2939C55.5098 17.2939 57.186 16.1513 57.7298 15.6478L55.7435 12.899C55.5214 13.1901 54.7 13.804 53.555 13.804ZM42.5475 16.8955C41.9367 15.8265 40.8157 15.4365 39.7461 15.4365C38.6765 15.4365 37.5555 15.8265 36.9447 16.8955H33.1555L37.5712 5.12864H41.9231L46.3389 16.8955H42.5496H42.5475ZM41.2704 12.8432L39.7451 8.62276L38.2197 12.8432C38.2197 12.8432 38.8263 12.5826 39.7 12.5826H39.788C40.6628 12.5826 41.2683 12.8432 41.2683 12.8432H41.2704ZM42.5475 16.8955C41.9367 15.8265 40.8157 15.4365 39.7461 15.4365C38.6765 15.4365 37.5555 15.8265 36.9447 16.8955H33.1555L37.5712 5.12864H41.9231L46.3389 16.8955H42.5496H42.5475ZM41.2704 12.8432L39.7451 8.62276L38.2197 12.8432C38.2197 12.8432 38.8263 12.5826 39.7 12.5826H39.788C40.6628 12.5826 41.2683 12.8432 41.2683 12.8432H41.2704ZM133.97 5.13074H123.25V8.20439H126.611V16.8934H130.609V8.20439H133.97V5.13074ZM109.545 8.20439V5.13074H99.3752V16.8934H103.374V16.8892H109.545V13.8156H103.374V12.3418H109.545V9.67919H103.374V8.20544H109.545V8.20439ZM118.288 9.47526H115.99C115.641 9.47526 115.358 9.19145 115.358 8.8414C115.358 8.49136 115.641 8.20754 115.99 8.20754H121.627V5.13389H115.054C112.997 5.13389 111.332 6.82104 111.359 8.89081C111.385 10.929 113.078 12.55 115.11 12.55H117.408C117.757 12.55 118.04 12.8338 118.04 13.1838C118.04 13.5339 117.757 13.8177 117.408 13.8177H111.773V16.8913H118.344C120.401 16.8913 122.066 15.2042 122.039 13.1344C122.012 11.0962 120.319 9.47526 118.288 9.47526ZM93.2424 5.13074V11.894C93.2424 12.7623 92.5405 13.4666 91.6751 13.4666C90.8098 13.4666 90.1079 12.7623 90.1079 11.894V5.13074H86.1091V12.3282C86.1091 15.4081 88.5637 17.2729 91.6332 17.296C94.7269 17.3192 97.2423 15.4975 97.2423 12.3986V5.13074H93.2434H93.2424ZM82.501 14.1803L85.0132 13.2185L84.8016 16.5213C84.8016 16.5213 81.5623 17.2939 78.0339 17.2939C73.5941 17.2939 71.6224 13.6905 71.6224 10.8134C71.6224 7.93634 73.7942 4.73129 78.0339 4.73129C82.2737 4.73129 84.2045 7.60522 84.0871 10.5149C84.0243 12.0853 83.2281 13.4782 82.501 14.0773V14.1803ZM78.035 13.804C79.4692 13.804 80.2518 12.469 80.2518 11.0163C80.2518 9.56356 79.4692 8.22121 78.035 8.22121C76.6008 8.22121 75.8182 9.56356 75.8182 11.0163C75.8182 12.469 76.6008 13.804 78.035 13.804ZM13.6108 5.34308C15.0545 6.7916 15.946 8.78989 15.946 10.9995L15.5741 18.6762L7.97353 18.9989C5.7714 18.9989 3.77881 18.1033 2.33622 16.6559C0.892582 15.2084 0 13.2101 0 11.0005L0.321623 3.37317L7.97353 3C10.1756 3 12.1682 3.8956 13.6108 5.34308ZM11.2652 7.79863C10.4355 6.9661 9.28935 6.44997 8.02381 6.44997C5.49169 6.44997 3.43833 8.51028 3.43833 11.051C3.43833 12.3208 3.95272 13.4708 4.78244 14.3033C5.61216 15.1359 6.75827 15.652 8.02381 15.652C10.5549 15.652 12.6083 13.5927 12.6093 11.051C12.6093 9.78116 12.0949 8.63117 11.2652 7.79863Z"
      fill="#131313" />
  </g>
  <path
    d="M146.498 16H138.808V6.19727H141.891V13.2998H146.498V16ZM150.449 16H147.339L149.93 6.19727H155.535L158.119 16H155.002L154.592 14.4482H150.859L150.449 16ZM152.281 8.9043L151.557 11.7139H153.881L153.149 8.9043H152.281ZM158.536 11.5361V6.19727H161.619V11.2559C161.619 11.8232 161.763 12.2881 162.043 12.6504C162.323 13.0127 162.768 13.1973 163.369 13.1973H163.41C164.019 13.1973 164.463 13.0195 164.743 12.6572C165.023 12.2949 165.16 11.8301 165.16 11.2559V6.19727H168.243V11.5361C168.243 13.0332 167.819 14.1816 166.965 14.9746C166.11 15.7744 164.928 16.1709 163.41 16.1709H163.369C161.852 16.1709 160.669 15.7744 159.814 14.9746C158.96 14.1816 158.536 13.0332 158.536 11.5361ZM172.666 16H169.638V6.19727H172.666L176.46 11.2285V6.19727H179.481V16H176.46L172.666 10.8457V16ZM181.3 13.751C180.828 12.9785 180.596 12.0898 180.596 11.0986C180.596 10.1074 180.828 9.22559 181.286 8.45312C181.744 7.68066 182.38 7.08594 183.193 6.66211C184.007 6.24512 184.937 6.0332 185.976 6.0332H186.017C187.466 6.0332 188.676 6.42969 189.653 7.22949C190.631 8.0293 191.191 9.0957 191.349 10.415H188.156C188.013 9.9707 187.746 9.6084 187.37 9.32812C186.987 9.04785 186.536 8.9043 186.017 8.9043H185.976C185.312 8.9043 184.779 9.10938 184.362 9.51953C183.945 9.93652 183.733 10.4629 183.733 11.0986C183.733 11.748 183.938 12.2744 184.355 12.6846C184.772 13.0947 185.312 13.2998 185.976 13.2998H186.017C186.536 13.2998 186.987 13.1562 187.37 12.876C187.746 12.5957 188.013 12.2334 188.156 11.7891H191.349C191.191 13.1084 190.631 14.168 189.653 14.9678C188.676 15.7676 187.466 16.1709 186.017 16.1709H185.976C184.957 16.1709 184.041 15.959 183.228 15.542C182.414 15.125 181.771 14.5234 181.3 13.751ZM195.553 16H192.47V6.19727H195.553V9.62891H199.08V6.19727H202.163V16H199.08V12.3633H195.553V16ZM206.641 16H203.558V6.19727H208.896C210.127 6.19727 211.207 6.62109 211.918 7.30469C212.629 7.98828 213.053 8.93848 213.053 9.97754C213.053 11.0166 212.629 11.9668 211.918 12.6504C211.207 13.334 210.127 13.7578 208.896 13.7578H206.641V16ZM206.641 8.9043V11.0576H208.896C209.19 11.0576 209.443 10.9551 209.655 10.7432C209.867 10.5312 209.97 10.2783 209.97 9.97754C209.97 9.67676 209.867 9.42383 209.655 9.21191C209.443 9.00684 209.19 8.9043 208.896 8.9043H206.641ZM214.591 13.751C214.119 12.9785 213.887 12.0898 213.887 11.0986C213.887 10.1074 214.119 9.22559 214.577 8.45312C215.035 7.68066 215.671 7.08594 216.484 6.66211C217.298 6.24512 218.228 6.0332 219.267 6.0332H219.308C220.347 6.0332 221.276 6.24512 222.09 6.66211C222.903 7.08594 223.539 7.68066 223.997 8.45312C224.455 9.22559 224.681 10.1074 224.681 11.0986C224.681 12.0967 224.455 12.9785 223.997 13.751C223.539 14.5234 222.903 15.125 222.09 15.542C221.276 15.959 220.347 16.1709 219.308 16.1709H219.267C218.248 16.1709 217.332 15.959 216.519 15.542C215.705 15.125 215.062 14.5234 214.591 13.751ZM217.024 11.0986C217.024 11.748 217.229 12.2744 217.646 12.6846C218.063 13.0947 218.604 13.2998 219.267 13.2998H219.308C219.971 13.2998 220.511 13.0947 220.928 12.6846C221.345 12.2744 221.55 11.748 221.55 11.0986C221.55 10.4629 221.345 9.93652 220.928 9.51953C220.511 9.10938 219.971 8.9043 219.308 8.9043H219.267C218.604 8.9043 218.07 9.10938 217.653 9.51953C217.236 9.93652 217.024 10.4629 217.024 11.0986ZM226.226 13.751C225.754 12.9785 225.521 12.0898 225.521 11.0986C225.521 10.1074 225.754 9.22559 226.212 8.45312C226.67 7.68066 227.306 7.08594 228.119 6.66211C228.933 6.24512 229.862 6.0332 230.901 6.0332H230.942C231.981 6.0332 232.911 6.24512 233.725 6.66211C234.538 7.08594 235.174 7.68066 235.632 8.45312C236.09 9.22559 236.315 10.1074 236.315 11.0986C236.315 12.0967 236.09 12.9785 235.632 13.751C235.174 14.5234 234.538 15.125 233.725 15.542C232.911 15.959 231.981 16.1709 230.942 16.1709H230.901C229.883 16.1709 228.967 15.959 228.153 15.542C227.34 15.125 226.697 14.5234 226.226 13.751ZM228.659 11.0986C228.659 11.748 228.864 12.2744 229.281 12.6846C229.698 13.0947 230.238 13.2998 230.901 13.2998H230.942C231.605 13.2998 232.146 13.0947 232.562 12.6846C232.979 12.2744 233.185 11.748 233.185 11.0986C233.185 10.4629 232.979 9.93652 232.562 9.51953C232.146 9.10938 231.605 8.9043 230.942 8.9043H230.901C230.238 8.9043 229.705 9.10938 229.288 9.51953C228.871 9.93652 228.659 10.4629 228.659 11.0986ZM245.127 16H237.437V6.19727H240.52V13.2998H245.127V16Z"
    fill="#0B0B0B" />
  <defs>
    <clipPath id="clip0_0_31878">
      <rect width="133.97" height="16" fill="white" transform="translate(0 3)" />
    </clipPath>
  </defs>
</svg>