<svg width="35" height="35" viewBox="0 0 35 35" fill="none" xmlns="http://www.w3.org/2000/svg">
<path d="M33.7486 11.5117V29.9584C33.7486 32.3899 31.7795 34.3638 29.3479 34.3638H5.03691C2.60533 34.3638 0.63623 32.3899 0.63623 29.9584V11.5117H33.7486Z" stroke="#231F20" stroke-width="0.5" stroke-linecap="round" stroke-linejoin="round"/>
<path d="M33.7486 5.03691V11.5116H0.63623V5.03691C0.63623 2.60533 2.60533 0.63623 5.03691 0.63623H29.3479C31.7795 0.63623 33.7486 2.60533 33.7486 5.03691Z" fill="url(#paint0_linear_7303_20163)" stroke="#231F20" stroke-width="0.5" stroke-linecap="round" stroke-linejoin="round"/>
<path d="M6.37679 7.78776C7.409 7.78776 8.24577 6.95099 8.24577 5.91878C8.24577 4.88658 7.409 4.0498 6.37679 4.0498C5.34458 4.0498 4.50781 4.88658 4.50781 5.91878C4.50781 6.95099 5.34458 7.78776 6.37679 7.78776Z" fill="white" stroke="#231F20" stroke-width="0.5" stroke-linecap="round" stroke-linejoin="round"/>
<path d="M19.0872 7.78776C20.1195 7.78776 20.9562 6.95099 20.9562 5.91878C20.9562 4.88658 20.1195 4.0498 19.0872 4.0498C18.055 4.0498 17.2183 4.88658 17.2183 5.91878C17.2183 6.95099 18.055 7.78776 19.0872 7.78776Z" fill="white" stroke="#231F20" stroke-width="0.5" stroke-linecap="round" stroke-linejoin="round"/>
<path d="M12.7327 7.78776C13.765 7.78776 14.6017 6.95099 14.6017 5.91878C14.6017 4.88658 13.765 4.0498 12.7327 4.0498C11.7005 4.0498 10.8638 4.88658 10.8638 5.91878C10.8638 6.95099 11.7005 7.78776 12.7327 7.78776Z" fill="white" stroke="#231F20" stroke-width="0.5" stroke-linecap="round" stroke-linejoin="round"/>
<path d="M25.2718 15.1445H4.96094V18.3104H25.2718V15.1445Z" fill="#FFE866" stroke="#231F20" stroke-width="0.5" stroke-linecap="round" stroke-linejoin="round"/>
<path d="M18.368 26.7925H4.96094V29.9583H18.368V26.7925Z" fill="black" stroke="#231F20" stroke-width="0.5" stroke-linecap="round" stroke-linejoin="round"/>
<path d="M25.2718 20.9707H4.96094V24.1365H25.2718V20.9707Z" fill="#EDEDED" stroke="#231F20" stroke-width="0.5" stroke-linecap="round" stroke-linejoin="round"/>
<defs>
<linearGradient id="paint0_linear_7303_20163" x1="0.63623" y1="6.07153" x2="33.7486" y2="6.07153" gradientUnits="userSpaceOnUse">
<stop stop-color="white"/>
<stop offset="1" stop-color="#FFE866"/>
</linearGradient>
</defs>
</svg>
