<svg width="64" height="64" viewBox="0 0 64 64" fill="none" xmlns="http://www.w3.org/2000/svg">
<path d="M62 9H2V55.2824H62V9Z" stroke="black" stroke-miterlimit="10"/>
<path d="M58.3452 21.438H5.65088V51.1571H58.3452V21.438Z" stroke="black" stroke-miterlimit="10" stroke-dasharray="6 6"/>
<path d="M8.88603 17.4215C10.1255 17.4215 11.1302 16.4167 11.1302 15.1773C11.1302 13.9379 10.1255 12.9331 8.88603 12.9331C7.6466 12.9331 6.64185 13.9379 6.64185 15.1773C6.64185 16.4167 7.6466 17.4215 8.88603 17.4215Z" fill="#FFE866" stroke="black" stroke-miterlimit="10"/>
<path d="M22.8248 17.4215C24.0642 17.4215 25.0689 16.4167 25.0689 15.1773C25.0689 13.9379 24.0642 12.9331 22.8248 12.9331C21.5853 12.9331 20.5806 13.9379 20.5806 15.1773C20.5806 16.4167 21.5853 17.4215 22.8248 17.4215Z" stroke="black" stroke-miterlimit="10"/>
<path d="M15.8536 17.4215C17.093 17.4215 18.0977 16.4167 18.0977 15.1773C18.0977 13.9379 17.093 12.9331 15.8536 12.9331C14.6141 12.9331 13.6094 13.9379 13.6094 15.1773C13.6094 16.4167 14.6141 17.4215 15.8536 17.4215Z" fill="#EDEDED" stroke="black" stroke-miterlimit="10"/>
<path d="M48.5965 31.6727C49.5218 35.8682 46.862 40.0361 42.6643 40.9618L35.013 42.6493C34.5906 42.7424 34.1672 42.7998 33.749 42.8201C31.1056 42.9647 28.608 41.7418 27.074 39.6791C26.438 38.8234 25.9678 37.8233 25.7239 36.7171C25.4799 35.6109 25.4857 34.5058 25.7029 33.4619L30.1642 32.478C30.6059 32.3806 31.0485 32.3797 31.4649 32.4632C30.4727 33.1834 29.9451 34.4507 30.2259 35.7242C30.5068 36.9976 31.5185 37.9255 32.7216 38.1615C33.1379 38.2451 33.5784 38.2446 34.0201 38.1472L41.6714 36.4597C43.3865 36.0815 44.4727 34.3807 44.0944 32.6656C43.7162 30.9505 42.0154 29.8644 40.3003 30.2426L37.1103 30.9461C35.5789 28.8851 33.0792 27.6627 30.4375 27.8046C30.8254 27.6472 31.2337 27.5211 31.656 27.428L39.3074 25.7405C43.5051 24.8148 47.6712 27.4772 48.5965 31.6727Z" fill="#EDEDED" stroke="black" stroke-miterlimit="10"/>
<path d="M38.4608 33.9081C38.7047 35.0143 38.6989 36.1194 38.4817 37.1632L34.0204 38.1471C33.5788 38.2445 33.1383 38.245 32.7219 38.1615C33.7137 37.4392 34.2395 36.1744 33.9587 34.901C33.6779 33.6275 32.6688 32.7013 31.4652 32.4631C31.0489 32.3796 30.6062 32.3806 30.1646 32.478L22.5132 34.1654C20.8003 34.5432 19.7119 36.2445 20.0902 37.9595C20.4684 39.6746 22.1714 40.7603 23.8843 40.3825L27.0744 39.679C28.6084 41.7417 31.106 42.9646 33.7493 42.82C33.3593 42.978 32.9509 43.104 32.5286 43.1972L24.8772 44.8846C20.6817 45.8099 16.5134 43.1479 15.5881 38.9524C14.6628 34.7569 17.3248 30.5886 21.5203 29.6633L29.1717 27.9759C29.594 27.8827 30.0175 27.8253 30.4378 27.8046C33.0795 27.6626 35.5792 28.8851 37.1106 30.9461C37.7467 31.8017 38.2168 32.8018 38.4608 33.9081Z" fill="#FFE866" stroke="black" stroke-miterlimit="10"/>
</svg>
