<svg width="64" height="64" viewBox="0 0 64 64" fill="none" xmlns="http://www.w3.org/2000/svg">
<rect x="14.0781" y="13.6597" width="37.4208" height="26.3682" fill="#FFE866" stroke="black"/>
<rect x="11.4468" y="11.0278" width="37.4208" height="26.3682" fill="white" stroke="black" stroke-dasharray="4 4"/>
<path d="M59.9217 33.9474C59.9217 43.1182 52.4873 50.5526 43.3166 50.5526C34.1458 50.5526 26.7114 43.1182 26.7114 33.9474C26.7114 24.7767 34.1458 17.3423 43.3166 17.3423C52.4873 17.3423 59.9217 24.7767 59.9217 33.9474Z" fill="#FFE866" stroke="black"/>
<path d="M61.5003 36.5793C61.5003 45.75 54.0659 53.1844 44.8952 53.1844C35.7244 53.1844 28.29 45.75 28.29 36.5793C28.29 27.4085 35.7244 19.9741 44.8952 19.9741C54.0659 19.9741 61.5003 27.4085 61.5003 36.5793Z" fill="white" stroke="black"/>
<path d="M3.28939 19.8678C3.28939 15.4205 6.89465 11.8153 11.342 11.8153C15.7893 11.8153 19.3945 15.4205 19.3945 19.8678C19.3945 24.3152 15.7893 27.9204 11.342 27.9204C6.89465 27.9204 3.28939 24.3152 3.28939 19.8678Z" fill="#FFE866" stroke="black"/>
<path d="M2.50033 18.5524C2.50033 14.1051 6.10559 10.4998 10.5529 10.4998C15.0002 10.4998 18.6055 14.1051 18.6055 18.5524C18.6055 22.9997 15.0002 26.605 10.5529 26.605C6.10559 26.605 2.50033 22.9997 2.50033 18.5524Z" fill="white" stroke="black"/>
</svg>
