<svg width="35" height="35" viewBox="0 0 35 35" fill="none" xmlns="http://www.w3.org/2000/svg">
<g clip-path="url(#clip0_7303_20228)">
<path d="M23.6901 28.4002C20.2118 29.8609 16.1327 29.8171 12.5281 27.9341C6.43303 24.7485 3.88191 17.4452 6.50707 11.2189C5.84405 9.92815 5.36613 8.71822 5.0952 7.63281C4.8411 8.02995 4.60214 8.44055 4.38002 8.8663C0.273993 16.7233 3.31481 26.4229 11.1735 30.5289C16.4642 33.2938 22.5912 32.8175 27.2812 29.8137C26.1941 29.5428 24.9825 29.0649 23.6901 28.4002Z" fill="url(#paint0_linear_7303_20228)" stroke="#231F20" stroke-width="0.5" stroke-linecap="round" stroke-linejoin="round"/>
<path d="M32.8344 23.7354C32.6123 24.1611 32.3733 24.5717 32.1192 24.9689C30.842 26.9664 29.1794 28.5953 27.2812 29.8136C26.1941 29.5427 24.9825 29.0648 23.6901 28.4001C26.4129 27.2608 28.7671 25.1994 30.2396 22.3791C30.4112 22.0509 30.5677 21.7194 30.7074 21.3828C33.3325 15.1565 30.7814 7.85316 24.6863 4.66762C21.0818 2.78458 17.0027 2.74082 13.5243 4.20149C10.8016 5.34074 8.44734 7.40217 6.9749 10.2225C6.80325 10.5507 6.64675 10.8822 6.50708 11.2187C5.84406 9.92804 5.36615 8.71811 5.09521 7.63271C6.37246 5.63523 8.03506 4.00629 9.93325 2.78794C14.6249 -0.21585 20.7503 -0.692081 26.0427 2.07275C33.8996 6.17878 36.9404 15.8784 32.8344 23.7354Z" fill="url(#paint1_linear_7303_20228)" stroke="#231F20" stroke-width="0.5" stroke-linecap="round" stroke-linejoin="round"/>
<path d="M31.5523 29.2453C24.4021 36.3955 12.811 36.3955 5.66246 29.247C-1.48775 22.0985 -1.48775 10.5057 5.66246 3.35547C4.77562 4.2423 4.62585 5.7484 5.09535 7.63314C5.36628 8.71854 5.8442 9.92847 6.50722 11.2192C8.05707 14.2398 10.62 17.6963 13.9166 20.9929C17.2132 24.2895 20.6696 26.8524 23.6903 28.4005C24.9826 29.0652 26.1943 29.5431 27.2813 29.8141C29.1627 30.2819 30.6671 30.1304 31.5523 29.2453Z" fill="url(#paint2_linear_7303_20228)" stroke="#231F20" stroke-width="0.5" stroke-linecap="round" stroke-linejoin="round"/>
<path d="M9.93338 2.78724C8.03519 4.00558 6.37259 5.63453 5.09534 7.63201C4.62584 5.74728 4.77561 4.24117 5.66245 3.35434C6.54928 2.46751 8.05202 2.31774 9.93338 2.78724Z" fill="#EDEDED" stroke="#231F20" stroke-width="0.5" stroke-linecap="round" stroke-linejoin="round"/>
<path d="M23.6899 28.4008C20.6692 26.8526 17.2128 24.2897 13.9162 20.9931C10.6196 17.6965 8.05669 14.24 6.50684 11.2194C6.64651 10.8828 6.80301 10.5513 6.97465 10.2232C8.4471 7.40283 10.8013 5.3414 13.5241 4.20215C16.5447 5.75032 20.0012 8.31322 23.2978 11.6098C26.5944 14.9064 29.1573 18.3629 30.7071 21.3835C30.5675 21.7201 30.411 22.0516 30.2393 22.3797C28.7669 25.2001 26.4126 27.2615 23.6899 28.4008Z" fill="#EDEDED" stroke="#231F20" stroke-width="0.5" stroke-linecap="round" stroke-linejoin="round"/>
<path d="M31.5522 29.2447C30.667 30.1299 29.1626 30.2813 27.2812 29.8135C29.1794 28.5952 30.842 26.9662 32.1193 24.9688C32.5888 26.8535 32.439 28.3596 31.5522 29.2447Z" fill="#EDEDED" stroke="#231F20" stroke-width="0.5" stroke-linecap="round" stroke-linejoin="round"/>
<path d="M13 11.1611L17.7574 13.6373L19.7556 23.9997L13 11.1611Z" fill="black" stroke="#231F20" stroke-width="0.5" stroke-linecap="round" stroke-linejoin="round"/>
<path d="M13 11.1611L17.7574 13.6373L19.7556 5L13 11.1611Z" fill="#FFE866" stroke="#231F20" stroke-width="0.5" stroke-linecap="round" stroke-linejoin="round"/>
<path d="M27.5898 11.6992L17.7568 13.6372L19.7551 23.9996L27.5898 11.6992Z" fill="#EDEDED" stroke="#231F20" stroke-width="0.5" stroke-linecap="round" stroke-linejoin="round"/>
<path d="M27.5898 11.6992L17.7568 13.6373L19.7551 5L27.5898 11.6992Z" fill="white" stroke="#231F20" stroke-width="0.5" stroke-linecap="round" stroke-linejoin="round"/>
</g>
<defs>
<linearGradient id="paint0_linear_7303_20228" x1="9.78927" y1="19.9357" x2="27.2812" y2="19.9505" gradientUnits="userSpaceOnUse">
<stop stop-color="white"/>
<stop offset="1" stop-color="#FFE866"/>
</linearGradient>
<linearGradient id="paint1_linear_7303_20228" x1="32.2113" y1="16.8512" x2="6.46651" y2="8.77456" gradientUnits="userSpaceOnUse">
<stop stop-color="white"/>
<stop offset="1" stop-color="#FFE866"/>
</linearGradient>
<linearGradient id="paint2_linear_7303_20228" x1="5.8355" y1="15.2231" x2="14.9984" y2="33.4356" gradientUnits="userSpaceOnUse">
<stop stop-color="white"/>
<stop offset="1" stop-color="#FFE866"/>
</linearGradient>
<clipPath id="clip0_7303_20228">
<rect width="35" height="35" fill="white"/>
</clipPath>
</defs>
</svg>
