<svg width="35" height="35" viewBox="0 0 35 35" fill="none" xmlns="http://www.w3.org/2000/svg">
<g clip-path="url(#clip0_11254_24839)">
<rect width="35" height="35" fill="white"/>
<path d="M23.6916 28.4002C20.2132 29.8609 16.1341 29.8171 12.5296 27.9341C6.43449 24.7485 3.88337 17.4452 6.50853 11.2189C5.84551 9.92815 5.3676 8.71822 5.09667 7.63281C4.84257 8.02995 4.60361 8.44055 4.38148 8.8663C0.275458 16.7233 3.31627 26.4229 11.1749 30.5289C16.4656 33.2938 22.5927 32.8175 27.2827 29.8137C26.1956 29.5428 24.984 29.0649 23.6916 28.4002Z" fill="url(#paint0_linear_11254_24839)" stroke="#231F20" stroke-width="0.5" stroke-linecap="round" stroke-linejoin="round"/>
<path d="M32.8349 23.7354C32.6128 24.1611 32.3738 24.5717 32.1197 24.9689C30.8425 26.9664 29.1799 28.5953 27.2817 29.8136C26.1946 29.5427 24.983 29.0648 23.6906 28.4001C26.4134 27.2608 28.7676 25.1994 30.24 22.3791C30.4117 22.0509 30.5682 21.7194 30.7079 21.3828C33.333 15.1565 30.7819 7.85316 24.6868 4.66762C21.0823 2.78458 17.0032 2.74082 13.5248 4.20149C10.8021 5.34074 8.44783 7.40217 6.97539 10.2225C6.80374 10.5507 6.64724 10.8822 6.50757 11.2187C5.84455 9.92804 5.36663 8.71811 5.0957 7.63271C6.37295 5.63523 8.03555 4.00629 9.93374 2.78794C14.6254 -0.21585 20.7508 -0.692081 26.0431 2.07275C33.9001 6.17878 36.9409 15.8784 32.8349 23.7354Z" fill="url(#paint1_linear_11254_24839)" stroke="#231F20" stroke-width="0.5" stroke-linecap="round" stroke-linejoin="round"/>
<path d="M31.5533 29.2453C24.403 36.3955 12.8119 36.3955 5.66343 29.247C-1.48677 22.0985 -1.48677 10.5057 5.66343 3.35547C4.7766 4.2423 4.62683 5.7484 5.09633 7.63314C5.36726 8.71854 5.84517 9.92847 6.5082 11.2192C8.05805 14.2398 10.621 17.6963 13.9175 20.9929C17.2141 24.2895 20.6706 26.8524 23.6912 28.4005C24.9836 29.0652 26.1952 29.5431 27.2823 29.8141C29.1637 30.2819 30.6681 30.1304 31.5533 29.2453Z" fill="url(#paint2_linear_11254_24839)" stroke="#231F20" stroke-width="0.5" stroke-linecap="round" stroke-linejoin="round"/>
<path d="M9.93485 2.78822C8.03665 4.00656 6.37405 5.63551 5.09681 7.63299C4.62731 5.74825 4.77708 4.24215 5.66391 3.35532C6.55074 2.46848 8.05348 2.31872 9.93485 2.78822Z" fill="#EDEDED" stroke="#231F20" stroke-width="0.5" stroke-linecap="round" stroke-linejoin="round"/>
<path d="M23.6908 28.4017C20.6702 26.8536 17.2138 24.2907 13.9172 20.9941C10.6206 17.6975 8.05767 14.241 6.50781 11.2204C6.64748 10.8838 6.80398 10.5523 6.97563 10.2242C8.44808 7.4038 10.8023 5.34238 13.5251 4.20312C16.5457 5.7513 20.0022 8.3142 23.2988 11.6108C26.5954 14.9074 29.1583 18.3639 30.7081 21.3845C30.5684 21.721 30.4119 22.0525 30.2403 22.3807C28.7678 25.2011 26.4136 27.2625 23.6908 28.4017Z" fill="#EDEDED" stroke="#231F20" stroke-width="0.5" stroke-linecap="round" stroke-linejoin="round"/>
<path d="M31.5541 29.2447C30.669 30.1299 29.1646 30.2813 27.2832 29.8135C29.1814 28.5952 30.844 26.9662 32.1212 24.9688C32.5907 26.8535 32.441 28.3596 31.5541 29.2447Z" fill="#EDEDED" stroke="#231F20" stroke-width="0.5" stroke-linecap="round" stroke-linejoin="round"/>
<path d="M13 11.1602L17.7574 13.6363L19.7556 23.9987L13 11.1602Z" fill="black" stroke="#231F20" stroke-width="0.5" stroke-linecap="round" stroke-linejoin="round"/>
<path d="M13 11.1611L17.7574 13.6373L19.7556 5L13 11.1611Z" fill="#FFE866" stroke="#231F20" stroke-width="0.5" stroke-linecap="round" stroke-linejoin="round"/>
<path d="M27.5908 11.6992L17.7578 13.6372L19.7561 23.9996L27.5908 11.6992Z" fill="#EDEDED" stroke="#231F20" stroke-width="0.5" stroke-linecap="round" stroke-linejoin="round"/>
<path d="M27.5908 11.6992L17.7578 13.6373L19.7561 5L27.5908 11.6992Z" fill="white" stroke="#231F20" stroke-width="0.5" stroke-linecap="round" stroke-linejoin="round"/>
</g>
<defs>
<linearGradient id="paint0_linear_11254_24839" x1="9.79073" y1="19.9357" x2="27.2827" y2="19.9505" gradientUnits="userSpaceOnUse">
<stop stop-color="white"/>
<stop offset="1" stop-color="#FFE866"/>
</linearGradient>
<linearGradient id="paint1_linear_11254_24839" x1="32.2118" y1="16.8512" x2="6.467" y2="8.77456" gradientUnits="userSpaceOnUse">
<stop stop-color="white"/>
<stop offset="1" stop-color="#FFE866"/>
</linearGradient>
<linearGradient id="paint2_linear_11254_24839" x1="5.83648" y1="15.2231" x2="14.9994" y2="33.4356" gradientUnits="userSpaceOnUse">
<stop stop-color="white"/>
<stop offset="1" stop-color="#FFE866"/>
</linearGradient>
<clipPath id="clip0_11254_24839">
<rect width="35" height="35" fill="white"/>
</clipPath>
</defs>
</svg>
