<svg width="64" height="64" viewBox="0 0 64 64" fill="none" xmlns="http://www.w3.org/2000/svg">
<path d="M52.3284 52.3285C58.2219 46.435 53.8982 32.5559 42.6711 21.3287C31.444 10.1016 17.5649 5.77789 11.6713 11.6715C5.7777 17.5651 10.1014 31.4442 21.3285 42.6713C32.5557 53.8984 46.4348 58.2221 52.3284 52.3285Z" stroke="black" stroke-linecap="round" stroke-linejoin="round" stroke-dasharray="6 6"/>
<path d="M42.6711 42.6713C53.8982 31.4441 58.2219 17.565 52.3284 11.6715C46.4348 5.77786 32.5557 10.1016 21.3285 21.3287C10.1014 32.5558 5.7777 46.4349 11.6713 52.3285C17.5649 58.2221 31.444 53.8984 42.6711 42.6713Z" stroke="black" stroke-linecap="round" stroke-linejoin="round"/>
<path d="M31.9991 47.0921C47.8767 47.0921 60.748 40.3355 60.748 32.0007C60.748 23.6659 47.8767 16.9092 31.9991 16.9092C16.1216 16.9092 3.25024 23.6659 3.25024 32.0007C3.25024 40.3355 16.1216 47.0921 31.9991 47.0921Z" stroke="black" stroke-linecap="round" stroke-linejoin="round"/>
<path d="M31.999 60.7487C40.3337 60.7487 47.0904 47.8774 47.0904 31.9999C47.0904 16.1223 40.3337 3.25098 31.999 3.25098C23.6642 3.25098 16.9075 16.1223 16.9075 31.9999C16.9075 47.8774 23.6642 60.7487 31.999 60.7487Z" stroke="black" stroke-linecap="round" stroke-linejoin="round"/>
<path d="M31.9988 35.1191C33.721 35.1191 35.1171 33.7229 35.1171 32.0007C35.1171 30.2785 33.721 28.8823 31.9988 28.8823C30.2765 28.8823 28.8804 30.2785 28.8804 32.0007C28.8804 33.7229 30.2765 35.1191 31.9988 35.1191Z" fill="#FFE866" stroke="black" stroke-linecap="round" stroke-linejoin="round"/>
<path d="M31.9991 22.4844C26.7446 22.4844 22.4834 26.7455 22.4834 32.0001C22.4834 37.2547 26.7446 41.5159 31.9991 41.5159C37.2537 41.5159 41.5149 37.2547 41.5149 32.0001C41.5149 26.7455 37.2537 22.4844 31.9991 22.4844ZM31.9991 39.7307C27.7305 39.7307 24.2685 36.2688 24.2685 32.0001C24.2685 27.7315 27.7305 24.2695 31.9991 24.2695C36.2678 24.2695 39.7297 27.7315 39.7297 32.0001C39.7297 36.2688 36.2678 39.7307 31.9991 39.7307Z" fill="#EDEDED" stroke="black" stroke-linecap="round" stroke-linejoin="round"/>
</svg>
