<svg width="35" height="35" viewBox="0 0 35 35" fill="none" xmlns="http://www.w3.org/2000/svg">
<g clip-path="url(#clip0_7303_20012)">
<path d="M34 12V31.8486C34 33.0375 33.0399 34 31.8567 34H3.14586C1.96006 34 1 33.0375 1 31.8486V12H34Z" fill="#EDEDED" stroke="#231F20" stroke-width="0.5" stroke-linecap="round" stroke-linejoin="round"/>
<path d="M30 12V28.3376C30 29.2562 29.2727 30 28.3763 30H6.62565C5.72732 30 5 29.2562 5 28.3376V12H30Z" fill="white" stroke="#231F20" stroke-width="0.5" stroke-linecap="round" stroke-linejoin="round"/>
<path d="M34 3.13444V12H1V3.13444C1 1.95753 1.96006 1 3.14586 1H31.8567C33.0399 1 34 1.95753 34 3.13444Z" fill="url(#paint0_linear_7303_20012)" stroke="#231F20" stroke-width="0.5" stroke-linecap="round" stroke-linejoin="round"/>
<path d="M22.7086 22.5626C22.176 21.8049 21.1299 21.6223 20.3721 22.1549C19.6143 22.6874 19.4317 23.7334 19.9643 24.4911L25.7884 32.2001C26.321 32.9578 27.3671 33.1404 28.1249 32.6078C28.8827 32.0753 29.0653 31.0293 28.5327 30.2716L22.7086 22.5626Z" fill="black" stroke="#231F20" stroke-width="0.5" stroke-linecap="round" stroke-linejoin="round"/>
<path fill-rule="evenodd" clip-rule="evenodd" d="M8.80576 22.6316C5.65416 18.1469 6.73376 11.957 11.2188 8.80562C15.7039 5.65426 21.8943 6.73378 25.0459 11.2185C28.1975 15.7032 27.1179 21.8931 22.6328 25.0445C18.1477 28.1958 11.9574 27.1163 8.80576 22.6316ZM12.0916 20.4498C10.1865 17.7386 10.8391 13.9966 13.5502 12.0916C16.2614 10.1865 20.0034 10.8391 21.9084 13.5502C23.8135 16.2614 23.1609 20.0034 20.4498 21.9084C17.7386 23.8135 13.9966 23.1609 12.0916 20.4498Z" fill="url(#paint1_linear_7303_20012)"/>
<path d="M11.2188 8.80562L11.0751 8.60107L11.2188 8.80562ZM8.80576 22.6316L9.01031 22.4879L8.80576 22.6316ZM25.0459 11.2185L24.8413 11.3622L25.0459 11.2185ZM13.5502 12.0916L13.4065 11.887H13.4065L13.5502 12.0916ZM21.9084 13.5502L21.7039 13.6939L21.9084 13.5502ZM20.4498 21.9084L20.3061 21.7039L20.4498 21.9084ZM11.0751 8.60107C6.47701 11.8318 5.37026 18.1777 8.60122 22.7753L9.01031 22.4879C5.93806 18.1161 6.99051 12.0821 11.3626 9.01018L11.0751 8.60107ZM25.2504 11.0748C22.0194 6.47702 15.6731 5.37037 11.0751 8.60107L11.3626 9.01018C15.7347 5.93815 21.7692 6.99053 24.8413 11.3622L25.2504 11.0748ZM22.7766 25.249C27.3747 22.0183 28.4814 15.6724 25.2504 11.0748L24.8413 11.3622C27.9136 15.734 26.8612 21.768 22.4891 24.8399L22.7766 25.249ZM8.60122 22.7753C11.8322 27.3731 18.1786 28.4797 22.7766 25.249L22.4891 24.8399C18.1169 27.912 12.0825 26.8596 9.01031 22.4879L8.60122 22.7753ZM13.4065 11.887C10.5823 13.8715 9.90256 17.7694 11.887 20.5935L12.2961 20.3061C10.4704 17.7078 11.0958 14.1218 13.6939 12.2961L13.4065 11.887ZM22.113 13.4065C20.1285 10.5823 16.2306 9.90256 13.4065 11.887L13.6939 12.2961C16.2922 10.4704 19.8782 11.0958 21.7039 13.6939L22.113 13.4065ZM20.5935 22.113C23.4177 20.1285 24.0974 16.2306 22.113 13.4065L21.7039 13.6939C23.5296 16.2922 22.9042 19.8782 20.3061 21.7039L20.5935 22.113ZM11.887 20.5935C13.8715 23.4177 17.7694 24.0974 20.5935 22.113L20.3061 21.7039C17.7078 23.5296 14.1218 22.9042 12.2961 20.3061L11.887 20.5935Z" fill="#231F20"/>
</g>
<defs>
<linearGradient id="paint0_linear_7303_20012" x1="0.870263" y1="6.5" x2="1.12974" y2="6.5" gradientUnits="userSpaceOnUse">
<stop stop-color="white"/>
<stop offset="1" stop-color="#FFE866"/>
</linearGradient>
<linearGradient id="paint1_linear_7303_20012" x1="18.1577" y1="12.0771" x2="18.1587" y2="26.0771" gradientUnits="userSpaceOnUse">
<stop stop-color="white"/>
<stop offset="1" stop-color="#FFE866"/>
</linearGradient>
<clipPath id="clip0_7303_20012">
<rect width="35" height="35" fill="white"/>
</clipPath>
</defs>
</svg>
