<svg width="35" height="35" viewBox="0 0 35 35" fill="none" xmlns="http://www.w3.org/2000/svg">
<g clip-path="url(#clip0_11254_24855)">
<rect width="35" height="35" fill="white"/>
<path d="M27.2103 24.2344C31.9008 23.1842 34.8002 18.2997 33.6863 13.3245C32.5724 8.34931 27.867 5.16747 23.1765 6.21764C18.486 7.26781 15.5866 12.1523 16.7005 17.1275C17.8144 22.1027 22.5198 25.2845 27.2103 24.2344Z" fill="#EDEDED" stroke="#231F20" stroke-width="0.5" stroke-linecap="round" stroke-linejoin="round"/>
<path d="M1.16211 30.1055V32.201C1.16211 33.5557 3.55925 34.6533 6.51798 34.6533C9.47671 34.6533 11.8739 33.5557 11.8739 32.201V30.1055H1.16211Z" fill="#EDEDED" stroke="#231F20" stroke-width="0.5" stroke-linecap="round" stroke-linejoin="round"/>
<path d="M6.51798 32.5587C9.47595 32.5587 11.8739 31.4608 11.8739 30.1065C11.8739 28.7522 9.47595 27.6543 6.51798 27.6543C3.56002 27.6543 1.16211 28.7522 1.16211 30.1065C1.16211 31.4608 3.56002 32.5587 6.51798 32.5587Z" fill="#EDEDED" stroke="#231F20" stroke-width="0.5" stroke-linecap="round" stroke-linejoin="round"/>
<path d="M28.868 13.0412C27.7147 10.4458 24.7631 9.73919 22.5843 10.6871L9.32173 16.3058L6.99497 17.2911C2.92456 19.0161 2.00391 22.2894 2.00391 26.7102L2.00391 29.2723C2.00391 30.4601 4.02762 31.4238 6.5253 31.4238C9.02299 31.4238 11.0467 30.4601 11.0467 29.2723V27.6984C11.0467 26.7533 11.6126 26.186 12.483 25.8169L26.4781 19.8779C28.9398 18.8351 30.0616 15.7256 28.8694 13.0412H28.868Z" fill="url(#paint0_linear_11254_24855)" stroke="#231F20" stroke-width="0.5" stroke-linecap="round" stroke-linejoin="round"/>
<path d="M20.58 10.0938V20.6834C20.58 22.2403 19.9494 23.6479 18.9297 24.6691C17.9085 25.6888 16.5009 26.3194 14.944 26.3194C14.088 26.3194 13.2765 26.1269 12.5512 25.7865C14.4155 25.0353 15.5042 22.7143 15.0316 20.2583C14.506 17.5337 12.2596 15.6751 10.0119 16.1089C9.76625 16.1563 9.5307 16.2295 9.30664 16.3258V10.0938C9.30664 11.6851 11.8302 10.4471 14.944 10.4471C18.0579 10.4471 20.58 11.6851 20.58 10.0938Z" fill="url(#paint1_linear_11254_24855)" stroke="#231F20" stroke-width="0.5" stroke-linecap="round" stroke-linejoin="round"/>
<path d="M14.944 7.21289C11.8302 7.21289 9.30664 8.50267 9.30664 10.0941C9.30664 11.6855 11.8302 12.9752 14.944 12.9752C18.0579 12.9752 20.58 11.6855 20.58 10.0941C20.58 8.50267 18.0564 7.21289 14.944 7.21289Z" fill="#EDEDED" stroke="#231F20" stroke-width="0.5" stroke-linecap="round" stroke-linejoin="round"/>
<path d="M14.9002 4.93945C14.2969 4.93945 13.8086 5.42779 13.8086 6.03102V9.44505C13.8086 9.73231 14.2969 9.96498 14.9002 9.96498C15.5034 9.96498 15.9917 9.73231 15.9917 9.44505V6.03102C15.9917 5.42779 15.5034 4.93945 14.9002 4.93945Z" fill="#FFE866" stroke="#231F20" stroke-width="0.5" stroke-linecap="round" stroke-linejoin="round"/>
<path d="M24.557 0.643301C22.4729 0.795547 16.4693 1.85983 16.4693 1.85983H13.4186C13.4186 1.85983 7.41501 0.79411 5.33098 0.643301C3.78123 0.529836 2.33203 1.90004 2.33203 3.45409C2.33203 5.00814 3.78267 6.37835 5.33098 6.26488C7.41501 6.1112 13.4186 5.04836 13.4186 5.04836H16.4693C16.4693 5.04836 22.4729 6.1112 24.557 6.26488C26.1053 6.37691 27.5559 5.00527 27.5559 3.45409C27.5559 1.90292 26.1053 0.529836 24.557 0.643301Z" fill="url(#paint2_linear_11254_24855)" stroke="#231F20" stroke-width="0.5" stroke-linecap="round" stroke-linejoin="round"/>
<path d="M14.9014 6.03123C16.3117 6.03123 17.4551 4.8879 17.4551 3.47753C17.4551 2.06716 16.3117 0.923828 14.9014 0.923828C13.491 0.923828 12.3477 2.06716 12.3477 3.47753C12.3477 4.8879 13.491 6.03123 14.9014 6.03123Z" fill="#EDEDED" stroke="#231F20" stroke-width="0.5" stroke-linecap="round" stroke-linejoin="round"/>
</g>
<defs>
<linearGradient id="paint0_linear_11254_24855" x1="10.0071" y1="20.8037" x2="29.3483" y2="20.8247" gradientUnits="userSpaceOnUse">
<stop stop-color="white"/>
<stop offset="1" stop-color="#FFE866"/>
</linearGradient>
<linearGradient id="paint1_linear_11254_24855" x1="15.3352" y1="14.6372" x2="15.3834" y2="26.0915" gradientUnits="userSpaceOnUse">
<stop stop-color="white"/>
<stop offset="1" stop-color="#FFE866"/>
</linearGradient>
<linearGradient id="paint2_linear_11254_24855" x1="4.83538" y1="3.18217" x2="23.9174" y2="6.10359" gradientUnits="userSpaceOnUse">
<stop stop-color="white"/>
<stop offset="1" stop-color="#FFE866"/>
</linearGradient>
<clipPath id="clip0_11254_24855">
<rect width="35" height="35" fill="white"/>
</clipPath>
</defs>
</svg>
