<svg width="35" height="35" viewBox="0 0 35 35" fill="none" xmlns="http://www.w3.org/2000/svg">
<g id="55*55" clip-path="url(#clip0_7303_20204)">
<g id="Group 427319483">
<path id="Vector" d="M27.2118 24.2339C31.9023 23.1837 34.8017 18.2992 33.6878 13.324C32.5739 8.34883 27.8685 5.16698 23.178 6.21715C18.4875 7.26732 15.5881 12.1518 16.702 17.127C17.8159 22.1022 22.5213 25.284 27.2118 24.2339Z" fill="#EDEDED" stroke="#231F20" stroke-width="0.5" stroke-linecap="round" stroke-linejoin="round"/>
<g id="Group 427319482">
<path id="Vector_2" d="M1.16309 30.1064V32.202C1.16309 33.5567 3.56023 34.6542 6.51896 34.6542C9.47769 34.6542 11.8748 33.5567 11.8748 32.202V30.1064H1.16309Z" fill="#EDEDED" stroke="#231F20" stroke-width="0.5" stroke-linecap="round" stroke-linejoin="round"/>
<path id="Vector_3" d="M6.51896 32.5587C9.47692 32.5587 11.8748 31.4608 11.8748 30.1065C11.8748 28.7522 9.47692 27.6543 6.51896 27.6543C3.56099 27.6543 1.16309 28.7522 1.16309 30.1065C1.16309 31.4608 3.56099 32.5587 6.51896 32.5587Z" fill="#EDEDED" stroke="#231F20" stroke-width="0.5" stroke-linecap="round" stroke-linejoin="round"/>
</g>
<path id="Vector_4" d="M28.87 13.0412C27.7166 10.4458 24.7651 9.73919 22.5863 10.6871L9.32369 16.3058L6.99692 17.2911C2.92651 19.0161 2.00586 22.2894 2.00586 26.7102L2.00586 29.2723C2.00586 30.4601 4.02957 31.4238 6.52726 31.4238C9.02494 31.4238 11.0487 30.4601 11.0487 29.2723V27.6984C11.0487 26.7533 11.6145 26.186 12.4849 25.8169L26.48 19.8779C28.9418 18.8351 30.0635 15.7256 28.8714 13.0412H28.87Z" fill="url(#paint0_linear_7303_20204)" stroke="#231F20" stroke-width="0.5" stroke-linecap="round" stroke-linejoin="round"/>
<path id="Vector_5" d="M20.5809 10.0933V20.6829C20.5809 22.2398 19.9504 23.6474 18.9307 24.6686C17.9095 25.6883 16.5019 26.3189 14.945 26.3189C14.089 26.3189 13.2775 26.1264 12.5522 25.786C14.4165 25.0348 15.5051 22.7138 15.0326 20.2578C14.5069 17.5332 12.2606 15.6746 10.0128 16.1084C9.76723 16.1558 9.53168 16.229 9.30762 16.3253V10.0933C9.30762 11.6847 11.8312 10.4466 14.945 10.4466C18.0588 10.4466 20.5809 11.6847 20.5809 10.0933Z" fill="url(#paint1_linear_7303_20204)" stroke="#231F20" stroke-width="0.5" stroke-linecap="round" stroke-linejoin="round"/>
<path id="Vector_6" d="M14.945 7.21191C11.8312 7.21191 9.30762 8.50169 9.30762 10.0931C9.30762 11.6845 11.8312 12.9743 14.945 12.9743C18.0588 12.9743 20.5809 11.6845 20.5809 10.0931C20.5809 8.50169 18.0574 7.21191 14.945 7.21191Z" fill="#EDEDED" stroke="#231F20" stroke-width="0.5" stroke-linecap="round" stroke-linejoin="round"/>
<g id="Group">
<path id="Vector_7" d="M14.9021 4.93848C14.2989 4.93848 13.8105 5.42681 13.8105 6.03005V9.44407C13.8105 9.73133 14.2989 9.964 14.9021 9.964C15.5054 9.964 15.9937 9.73133 15.9937 9.44407V6.03005C15.9937 5.42681 15.5054 4.93848 14.9021 4.93848Z" fill="#FFE866" stroke="#231F20" stroke-width="0.5" stroke-linecap="round" stroke-linejoin="round"/>
<path id="Vector_8" d="M24.5579 0.642813C22.4739 0.795058 16.4703 1.85934 16.4703 1.85934H13.4196C13.4196 1.85934 7.41599 0.793622 5.33195 0.642813C3.78221 0.529347 2.33301 1.89955 2.33301 3.4536C2.33301 5.00765 3.78365 6.37786 5.33195 6.2644C7.41599 6.11071 13.4196 5.04787 13.4196 5.04787H16.4703C16.4703 5.04787 22.4739 6.11071 24.5579 6.2644C26.1062 6.37643 27.5569 5.00478 27.5569 3.4536C27.5569 1.90243 26.1062 0.529347 24.5579 0.642813Z" fill="url(#paint2_linear_7303_20204)" stroke="#231F20" stroke-width="0.5" stroke-linecap="round" stroke-linejoin="round"/>
<path id="Vector_9" d="M14.9018 6.03025C16.3122 6.03025 17.4555 4.88692 17.4555 3.47655C17.4555 2.06618 16.3122 0.922852 14.9018 0.922852C13.4915 0.922852 12.3481 2.06618 12.3481 3.47655C12.3481 4.88692 13.4915 6.03025 14.9018 6.03025Z" fill="#EDEDED" stroke="#231F20" stroke-width="0.5" stroke-linecap="round" stroke-linejoin="round"/>
</g>
</g>
</g>
<defs>
<linearGradient id="paint0_linear_7303_20204" x1="10.0091" y1="20.8037" x2="29.3502" y2="20.8247" gradientUnits="userSpaceOnUse">
<stop stop-color="white"/>
<stop offset="1" stop-color="#FFE866"/>
</linearGradient>
<linearGradient id="paint1_linear_7303_20204" x1="15.3361" y1="14.6367" x2="15.3843" y2="26.091" gradientUnits="userSpaceOnUse">
<stop stop-color="white"/>
<stop offset="1" stop-color="#FFE866"/>
</linearGradient>
<linearGradient id="paint2_linear_7303_20204" x1="4.83636" y1="3.18169" x2="23.9184" y2="6.1031" gradientUnits="userSpaceOnUse">
<stop stop-color="white"/>
<stop offset="1" stop-color="#FFE866"/>
</linearGradient>
<clipPath id="clip0_7303_20204">
<rect width="35" height="35" fill="white"/>
</clipPath>
</defs>
</svg>
