<svg width="64" height="64" viewBox="0 0 64 64" fill="none" xmlns="http://www.w3.org/2000/svg">
<g clip-path="url(#clip0_10125_100390)">
<path d="M31.9952 32.249C31.9952 23.4335 24.8748 16.2871 16.0914 16.2871C7.3079 16.2871 0.187499 23.4335 0.187499 32.249C0.1875 41.0645 7.3079 48.2109 16.0914 48.2109C24.8748 48.2109 31.9952 41.0645 31.9952 32.249Z" stroke="black" stroke-miterlimit="10"/>
<path d="M31.9959 32.248L16.092 32.248L7.01367 19.1384" stroke="black" stroke-miterlimit="10"/>
<path d="M16.092 32.2478L7.01367 45.3574" stroke="black" stroke-miterlimit="10" stroke-dasharray="4 4"/>
<path d="M10.9481 19.1385C10.9481 16.9574 9.18632 15.1892 7.0131 15.1892C4.83987 15.1892 3.07812 16.9574 3.07812 19.1385C3.07812 21.3197 4.83987 23.0879 7.0131 23.0879C9.18632 23.0879 10.9481 21.3197 10.9481 19.1385Z" fill="#FFE866" stroke="black" stroke-miterlimit="10"/>
<path d="M10.9481 45.3573C10.9481 43.1761 9.18632 41.4079 7.0131 41.4079C4.83987 41.4079 3.07812 43.1761 3.07812 45.3573C3.07812 47.5385 4.83987 49.3066 7.0131 49.3066C9.18632 49.3066 10.9481 47.5385 10.9481 45.3573Z" fill="#FFE866" stroke="black" stroke-miterlimit="10"/>
<path d="M35.9305 32.2479C35.9305 30.0668 34.1687 28.2986 31.9955 28.2986C29.8223 28.2986 28.0605 30.0668 28.0605 32.2479C28.0605 34.4291 29.8223 36.1973 31.9955 36.1973C34.1687 36.1973 35.9305 34.4291 35.9305 32.2479Z" fill="#FFE866" stroke="black" stroke-miterlimit="10"/>
</g>
<g clip-path="url(#clip1_10125_100390)">
<path d="M32.0048 32.2471C32.0048 41.0626 39.1252 48.209 47.9086 48.209C56.6921 48.209 63.8125 41.0626 63.8125 32.2471C63.8125 23.4316 56.6921 16.2852 47.9086 16.2852C39.1252 16.2852 32.0048 23.4316 32.0048 32.2471Z" stroke="black" stroke-miterlimit="10"/>
<path d="M32.0041 32.248L47.908 32.248L56.9863 45.3577" stroke="black" stroke-miterlimit="10"/>
<path d="M47.908 32.2483L56.9863 19.1387" stroke="black" stroke-miterlimit="10" stroke-dasharray="4 4"/>
<path d="M53.0519 45.3575C53.0519 47.5387 54.8137 49.3069 56.9869 49.3069C59.1601 49.3069 60.9219 47.5387 60.9219 45.3575C60.9219 43.1764 59.1601 41.4082 56.9869 41.4082C54.8137 41.4082 53.0519 43.1764 53.0519 45.3575Z" fill="#FFE866" stroke="black" stroke-miterlimit="10"/>
<path d="M53.0519 19.1388C53.0519 21.32 54.8137 23.0881 56.9869 23.0881C59.1601 23.0881 60.9219 21.32 60.9219 19.1388C60.9219 16.9576 59.1601 15.1895 56.9869 15.1895C54.8137 15.1895 53.0519 16.9576 53.0519 19.1388Z" fill="#FFE866" stroke="black" stroke-miterlimit="10"/>
<path d="M28.0695 32.2482C28.0695 34.4293 29.8313 36.1975 32.0045 36.1975C34.1777 36.1975 35.9395 34.4293 35.9395 32.2482C35.9395 30.067 34.1777 28.2988 32.0045 28.2988C29.8313 28.2988 28.0695 30.067 28.0695 32.2482Z" fill="#FFE866" stroke="black" stroke-miterlimit="10"/>
</g>
<defs>
<clipPath id="clip0_10125_100390">
<rect width="34.4958" height="36.1192" fill="white" transform="translate(0 49.4961) rotate(-90)"/>
</clipPath>
<clipPath id="clip1_10125_100390">
<rect width="34.4958" height="36.1192" fill="white" transform="translate(64 15) rotate(90)"/>
</clipPath>
</defs>
</svg>
