<svg width="64" height="64" viewBox="0 0 64 64" fill="none" xmlns="http://www.w3.org/2000/svg">
<path d="M29.3372 22.552C29.3372 19.8944 27.1896 17.7446 24.5428 17.7446H2V44.756H19.5472C22.2515 44.756 24.4458 46.9562 24.4458 49.6678V49.9091H34.2286V49.6678C34.2286 46.9562 36.4229 44.756 39.1272 44.756H56.6744V17.7446H34.1316C31.4812 17.7446 29.3372 19.898 29.3372 22.552Z" fill="white" stroke="black" stroke-miterlimit="10"/>
<path d="M29.5274 18.8074C29.5274 16.1498 27.3798 14 24.733 14H5.5481V41.5443H22.51C25.2142 41.5443 27.4085 43.7445 27.4085 46.4561V46.6974H31.6499V46.4561C31.6499 43.7445 33.8442 41.5443 36.5485 41.5443H53.5103V14H34.3254C31.675 14 29.531 16.1534 29.531 18.8074H29.5274Z" fill="white" stroke="black" stroke-miterlimit="10"/>
<path d="M29.498 19.0264V43.8633" stroke="black" stroke-dasharray="6 6"/>
<path d="M41.6204 29.9673L48.3489 50.3469L51.7594 40.1064L62 36.6958L41.6204 29.9673Z" fill="#FFE866" stroke="black" stroke-miterlimit="10"/>
<path d="M48.9391 37.1625L44.7576 32.981" stroke="black" stroke-miterlimit="10"/>
<path d="M39.3216 27.545L34.7219 22.9453" stroke="black" stroke-miterlimit="10"/>
<path d="M48.5205 23.3633L44.339 27.5448" stroke="black" stroke-miterlimit="10"/>
<path d="M38.9036 32.981L34.7221 37.1625" stroke="black" stroke-miterlimit="10"/>
</svg>
