<svg width="37" height="35" viewBox="0 0 37 35" fill="none" xmlns="http://www.w3.org/2000/svg">
<path d="M13.1523 7.01367L28.6695 8.66168L26.8189 16.2701L14.277 14.9379L13.1523 7.01367Z" fill="black" stroke="#231F20" stroke-width="0.5" stroke-linecap="round" stroke-linejoin="round"/>
<path d="M13.1518 7.01362L22.8469 8.04338L28.6689 8.66162L34.0694 3.55874L13.199 1.34226L3.50391 0.3125L5.95935 8.17928L11.2521 25.1149L17.0835 19.6043L13.1518 7.01362Z" fill="url(#paint0_linear_11254_24824)" stroke="#231F20" stroke-width="0.5" stroke-linecap="round" stroke-linejoin="round"/>
<path d="M3.50486 0.3125L1.6543 7.92088L9.40246 32.7213L11.253 25.1149L3.50486 0.3125Z" fill="#EDEDED" stroke="#231F20" stroke-width="0.5" stroke-linecap="round" stroke-linejoin="round"/>
<path d="M34.0694 3.55859L32.2188 11.167L26.8184 16.2699L28.6689 8.66147L34.0694 3.55859Z" fill="white" stroke="#231F20" stroke-width="0.5" stroke-linecap="round" stroke-linejoin="round"/>
<path d="M35.8107 17.5664L29.3423 34.0177L22.7793 34.6896L29.2496 18.2363L35.8107 17.5664Z" fill="white" stroke="#231F20" stroke-width="0.5" stroke-linecap="round" stroke-linejoin="round"/>
<path d="M29.2492 18.2367L22.7788 34.69L11.1953 27.5295L17.6657 11.0781L29.2492 18.2367Z" fill="#EDEDED" stroke="#231F20" stroke-width="0.5" stroke-linecap="round" stroke-linejoin="round"/>
<path d="M35.8106 17.5667L29.2495 18.2367L17.666 11.0781L24.2309 10.4062L35.8106 17.5667Z" fill="#FFE866" stroke="#231F20" stroke-width="0.5" stroke-linecap="round" stroke-linejoin="round"/>
<path d="M11.2546 34.1386C16.9181 34.1386 21.5093 29.4897 21.5093 23.7549C21.5093 18.0201 16.9181 13.3711 11.2546 13.3711C5.59116 13.3711 1 18.0201 1 23.7549C1 29.4897 5.59116 34.1386 11.2546 34.1386Z" fill="url(#paint1_linear_11254_24824)" stroke="#231F20" stroke-width="0.5" stroke-linecap="round" stroke-linejoin="round"/>
<defs>
<linearGradient id="paint0_linear_11254_24824" x1="18.7059" y1="3.7339" x2="17.8312" y2="22.5646" gradientUnits="userSpaceOnUse">
<stop stop-color="white"/>
<stop offset="1" stop-color="#FFE866"/>
</linearGradient>
<linearGradient id="paint1_linear_11254_24824" x1="6.53467" y1="17.1935" x2="16.5349" y2="30.7522" gradientUnits="userSpaceOnUse">
<stop offset="0.25" stop-color="white"/>
<stop offset="1" stop-color="#FFE866"/>
</linearGradient>
</defs>
</svg>
