<svg width="35" height="35" viewBox="0 0 35 35" fill="none" xmlns="http://www.w3.org/2000/svg">
<g id="55*55" clip-path="url(#clip0_7303_20121)">
<g id="Group 427319460">
<g id="Group">
<path id="Vector" d="M1.03441 14.9142C0.124549 23.832 6.74866 32.3122 15.83 33.8509C24.9091 35.3941 33.0101 29.411 33.92 20.4933C34.8298 11.5755 28.2057 3.09526 19.1244 1.55652C10.0453 0.0133711 1.94426 5.99647 1.03441 14.9142ZM28.8099 19.6275C28.7556 20.1742 28.6581 20.702 28.5282 21.212C27.1864 26.4634 22.0466 29.802 16.3412 28.8334C10.6391 27.864 6.34208 22.9262 6.09837 17.404C6.07554 16.8665 6.08919 16.3231 6.1435 15.7764C6.77097 9.62929 12.355 5.50654 18.6122 6.57048C24.8726 7.63355 29.4364 13.4768 28.809 19.6239L28.8099 19.6275Z" fill="#EDEDED" stroke="#231F20" stroke-width="0.5" stroke-linecap="round" stroke-linejoin="round"/>
</g>
<g id="Group_2">
<path id="Vector_2" d="M34.3309 7.05841L29.9299 3.34299L19.3755 15.8449L12.4961 10.0371L8.78097 14.4413L18.1317 22.3355L20.0613 23.9645L34.3309 7.05841Z" fill="url(#paint0_linear_7303_20121)" stroke="#231F20" stroke-width="0.5" stroke-linecap="round" stroke-linejoin="round"/>
</g>
</g>
</g>
<defs>
<linearGradient id="paint0_linear_7303_20121" x1="27" y1="9" x2="18.0183" y2="22.0126" gradientUnits="userSpaceOnUse">
<stop stop-color="white"/>
<stop offset="1" stop-color="#FFE866"/>
</linearGradient>
<clipPath id="clip0_7303_20121">
<rect width="35" height="35" fill="white"/>
</clipPath>
</defs>
</svg>
