<svg width="35" height="35" viewBox="0 0 35 35" fill="none" xmlns="http://www.w3.org/2000/svg">
<g clip-path="url(#clip0_11254_24926)">
<path opacity="0.97" d="M15.8304 6.54417C8.72985 5.35528 2.00649 10.1518 0.817604 17.2605C-0.371283 24.3693 4.42526 31.0926 11.534 32.2733C18.6427 33.4622 25.3661 28.6657 26.5467 21.5569C27.7356 14.4482 22.9391 7.72485 15.8304 6.54417ZM22.4143 20.8682C21.6108 25.6893 17.0439 28.9444 12.2227 28.1409C7.40157 27.3374 4.14649 22.7704 4.95001 17.9493C5.75353 13.1281 10.3205 9.87305 15.1416 10.6766C19.9628 11.4801 23.2179 16.0471 22.4143 20.8682Z" fill="url(#paint0_linear_11254_24926)" stroke="#231F20" stroke-width="0.5" stroke-linecap="round" stroke-linejoin="round"/>
<path d="M22.4307 9.66904L26.1592 0.682763L15.2475 0.636719L11.0117 15.7852L17.3574 16.0231L11.7204 29.9822L31.627 9.70741L22.4307 9.66904Z" fill="url(#paint1_linear_11254_24926)" stroke="#231F20" stroke-width="0.5" stroke-linecap="round" stroke-linejoin="round"/>
<path d="M26.1601 0.683594L28.9061 5.06546L27.054 9.68521L22.4316 9.66987L26.1601 0.683594Z" fill="#EDEDED" stroke="#231F20" stroke-width="0.5" stroke-linecap="round" stroke-linejoin="round"/>
<path d="M31.6274 9.70703L34.3654 14.0889L14.4587 34.3636L11.7207 29.9818L31.6274 9.70703Z" fill="#EDEDED" stroke="#231F20" stroke-width="0.5" stroke-linecap="round" stroke-linejoin="round"/>
<path d="M11.0117 15.7852L13.6531 20.7656L15.3844 20.9267L17.3574 16.0231L11.0117 15.7852Z" fill="black" stroke="#231F20" stroke-width="0.5" stroke-linecap="round" stroke-linejoin="round"/>
</g>
<defs>
<linearGradient id="paint0_linear_11254_24926" x1="6.12174" y1="15.1926" x2="24.8903" y2="28.7059" gradientUnits="userSpaceOnUse">
<stop stop-color="white"/>
<stop offset="1" stop-color="#FFE866"/>
</linearGradient>
<linearGradient id="paint1_linear_11254_24926" x1="22.5665" y1="5.02154" x2="19.475" y2="26.0831" gradientUnits="userSpaceOnUse">
<stop stop-color="white"/>
<stop offset="1" stop-color="#FFE866"/>
</linearGradient>
<clipPath id="clip0_11254_24926">
<rect width="35" height="35" fill="white"/>
</clipPath>
</defs>
</svg>
