<svg width="55" height="55" viewBox="0 0 55 55" fill="none" xmlns="http://www.w3.org/2000/svg">
<g id="55*55" clip-path="url(#clip0_2512_777)">
<path id="Vector" d="M5.49219 31.4126L16.9382 27.2697L23.0786 44.2342C24.2249 47.4012 22.5902 50.899 19.4327 52.0418C16.2736 53.1853 12.7799 51.542 11.6342 48.3766L5.49377 31.412L5.49219 31.4126Z" fill="#FFE866" stroke="#231F20" stroke-width="0.5" stroke-linecap="round" stroke-linejoin="round"/>
<path id="Vector_2" d="M3.55578 23.3103C0.487023 24.4211 -0.53852 29.359 1.26346 34.3375C3.06543 39.3159 7.01393 42.4535 10.0827 41.3427L20.5031 37.571L13.9762 19.5386L3.55578 23.3103Z" fill="white" stroke="#231F20" stroke-width="0.5" stroke-miterlimit="10"/>
<path id="Vector_3" d="M52.7212 15.711C56.462 26.0461 54.2184 36.3313 47.7116 38.6865C46.4499 39.1432 45.1202 39.2686 43.7689 39.0964C40.2336 38.6507 36.5533 36.1798 33.559 32.3303C34.916 31.2155 36.8342 29.6405 39.5414 27.4169C40.3831 26.7259 41.302 25.9709 42.304 25.1482C43.7054 23.9975 44.5797 21.7868 43.5783 19.0203C42.5769 16.2538 40.4902 15.1148 38.6765 15.1261C37.38 15.1353 36.1908 15.1434 35.1018 15.1512C31.5986 15.1755 29.1166 15.1932 27.361 15.2068C27.1977 10.3325 28.4439 6.07856 30.8749 3.47332C31.803 2.47603 32.9049 1.72135 34.1666 1.26466C40.6734 -1.09052 48.9809 5.37749 52.7212 15.711Z" fill="#EDEDED" stroke="#231F20" stroke-width="0.5" stroke-linecap="round" stroke-linejoin="round"/>
<path id="Vector_4" d="M43.5827 19.0199C44.5841 21.7864 43.7098 23.9971 42.3084 25.1477C41.3065 25.9705 40.3875 26.7255 39.5459 27.4165C36.8387 29.6401 34.9204 31.215 33.5634 32.3298C31.8029 30.0663 30.2784 27.3256 29.1615 24.2397C28.0445 21.1538 27.4616 18.0723 27.3655 15.2064C29.121 15.1928 31.603 15.1751 35.1062 15.1507C36.1952 15.143 37.3844 15.1348 38.6809 15.1257C40.4947 15.1144 42.5808 16.2518 43.5827 19.0199Z" fill="white" stroke="#231F20" stroke-width="0.5" stroke-miterlimit="10"/>
<path id="Vector_5" d="M27.3632 15.206C27.4594 18.0719 28.0423 21.1534 29.1592 24.2393C30.2762 27.3252 31.8007 30.0659 33.5612 32.3294C36.5555 36.179 40.2357 38.6498 43.7711 39.0955L20.5011 37.5706C17.4324 38.6813 13.4845 35.5454 11.6819 30.5653C9.87936 25.5853 10.9061 20.6505 13.9748 19.5398L30.8766 3.47089C28.4461 6.07773 27.1999 10.3317 27.3632 15.206Z" fill="url(#paint0_linear_2512_777)" stroke="#231F20" stroke-width="0.5" stroke-linecap="round" stroke-linejoin="round"/>
<path id="Vector_6" d="M41.1132 24.2801C42.5192 23.7712 43.0334 21.6306 42.2618 19.4989C41.4903 17.3672 39.725 16.0516 38.3191 16.5605C36.9132 17.0694 36.3989 19.21 37.1705 21.3417C37.9421 23.4734 39.7073 24.7889 41.1132 24.2801Z" fill="black" stroke="#231F20" stroke-width="0.5" stroke-linecap="round" stroke-linejoin="round"/>
</g>
<defs>
<linearGradient id="paint0_linear_2512_777" x1="16.5088" y1="21.5659" x2="38.1058" y2="37.9725" gradientUnits="userSpaceOnUse">
<stop stop-color="white"/>
<stop offset="1" stop-color="#FFE866"/>
</linearGradient>
<clipPath id="clip0_2512_777">
<rect width="55" height="55" fill="white"/>
</clipPath>
</defs>
</svg>
