<svg width="35" height="35" viewBox="0 0 35 35" fill="none" xmlns="http://www.w3.org/2000/svg">
<g clip-path="url(#clip0_11254_24873)">
<path d="M34.6703 16.1738L32.6396 17.0358L32.5155 16.8105L27.3047 14.9568L32.7411 12.6523L34.6703 16.1738Z" fill="white" stroke="#231F20" stroke-width="0.5" stroke-linecap="round" stroke-linejoin="round"/>
<path d="M2.82031 25.3429L4.7495 28.8658L5.90307 28.3756L8.25533 23.0371L2.82031 25.3429Z" fill="white" stroke="#231F20" stroke-width="0.5" stroke-linecap="round" stroke-linejoin="round"/>
<path d="M5.77734 28.1504L7.70654 31.6732L15.2724 34.3636L13.3432 30.8408L5.77734 28.1504Z" fill="#EDEDED" stroke="#231F20" stroke-width="0.5" stroke-linecap="round" stroke-linejoin="round"/>
<path d="M17.7539 30.6515L19.6831 34.1743L27.5747 30.8275L25.6455 27.3047L17.7539 30.6515Z" fill="#EDEDED" stroke="#231F20" stroke-width="0.5" stroke-linecap="round" stroke-linejoin="round"/>
<path d="M34.4457 20.332L30.8511 27.7566L28.9219 24.2323L31.3446 19.2291L32.3473 17.1599L32.5165 16.8105L32.6406 17.0359L34.4457 20.332Z" fill="#EDEDED" stroke="#231F20" stroke-width="0.5" stroke-linecap="round" stroke-linejoin="round"/>
<path d="M34.67 16.1728L32.7408 12.6513L31.3926 9.22145L29.9316 5.5L31.8608 9.02143L34.67 16.1728Z" fill="#EDEDED" stroke="#231F20" stroke-width="0.5" stroke-linecap="round" stroke-linejoin="round"/>
<path d="M0.236328 14.0332L2.33475 17.2067L5.44712 15.8869L0.236328 14.0332Z" fill="black" stroke="#231F20" stroke-width="0.5" stroke-linecap="round" stroke-linejoin="round"/>
<path d="M17.4025 4.14473L14.998 0.189453L16.9315 5.11524L17.4025 4.14473Z" fill="black" stroke="#231F20" stroke-width="0.5" stroke-linecap="round" stroke-linejoin="round"/>
<path d="M26.9744 2.69336L28.5468 6.08802L24.498 7.80507L26.9744 2.69336Z" fill="black" stroke="#231F20" stroke-width="0.5" stroke-linecap="round" stroke-linejoin="round"/>
<path d="M25.6401 25.9023L23.7109 22.3809L28.9217 24.2331L30.8509 27.756L25.6401 25.9023Z" fill="white" stroke="#231F20" stroke-width="0.5" stroke-linecap="round" stroke-linejoin="round"/>
<path d="M27.575 30.8281L25.6458 27.3052L23.7109 22.3809L25.6401 25.9023L27.575 30.8281Z" fill="#EDEDED" stroke="#231F20" stroke-width="0.5" stroke-linecap="round" stroke-linejoin="round"/>
<path d="M15.2729 34.3645L17.4475 29.8739L15.8201 25.7285L13.3438 30.8416L15.2729 34.3645Z" fill="white" stroke="#231F20" stroke-width="0.5" stroke-linecap="round" stroke-linejoin="round"/>
<path d="M27.3053 14.9562L32.7403 12.6504L31.3921 9.22052L29.9311 5.49907L28.5434 6.08645L24.4947 7.8035L25.7977 5.11031L26.9696 2.69038L19.4038 0L17.3984 4.14262L16.9288 5.11312L16.455 3.90738L14.994 0.187341L7.10234 3.53411L8.91731 8.15564L9.03718 8.45849L8.89192 8.40778L3.82638 6.60762L0.235945 14.0336L3.33704 15.1365L5.44674 15.8859L2.33436 17.2057L0.0117188 18.1917L2.81807 25.3431L3.28486 25.1445L8.25309 23.0372L5.77814 28.1489L6.13634 28.2771L8.88064 29.2519L13.3454 30.8393L15.6963 25.984L15.8204 25.7262L15.9431 26.0403L17.4478 29.8702L17.7538 30.6506L18.2206 30.452L25.644 27.3038L24.0505 23.2443L23.7106 22.3766L24.5144 22.6625L28.92 24.2289L31.3428 19.2256L32.3454 17.155L32.5146 16.8057L27.3039 14.9534L27.3053 14.9562ZM13.069 22.2526C12.1481 21.9259 11.3542 21.4385 10.7041 20.8328C8.63949 18.9143 8.02463 15.8169 9.41371 12.9476C11.24 9.17545 15.8387 7.22458 19.683 8.59089C22.0423 9.42899 23.5696 11.3235 23.9757 13.5336C24.231 14.9238 24.042 16.4395 23.3369 17.8959C21.5106 21.6681 16.9133 23.619 13.069 22.2512V22.2526Z" fill="url(#paint0_linear_11254_24873)" stroke="#231F20" stroke-width="0.5" stroke-linecap="round" stroke-linejoin="round"/>
<path d="M23.9751 13.5345C23.325 12.9303 22.531 12.4415 21.6101 12.1147C17.7659 10.7484 13.1685 12.6978 11.3423 16.47C10.6372 17.9265 10.4482 19.4421 10.7034 20.8324C8.63887 18.9139 8.02401 15.8164 9.41308 12.9472C11.2393 9.175 15.8381 7.22413 19.6824 8.59045C22.0417 9.42855 23.5689 11.3231 23.9751 13.5331V13.5345Z" fill="black" stroke="#231F20" stroke-width="0.5" stroke-linecap="round" stroke-linejoin="round"/>
</g>
<defs>
<linearGradient id="paint0_linear_11254_24873" x1="9.59078" y1="15.3455" x2="21.9567" y2="28.2627" gradientUnits="userSpaceOnUse">
<stop stop-color="white"/>
<stop offset="1" stop-color="#FFE866"/>
</linearGradient>
<clipPath id="clip0_11254_24873">
<rect width="35" height="35" fill="white"/>
</clipPath>
</defs>
</svg>
