<svg width="64" height="64" viewBox="0 0 64 64" fill="none" xmlns="http://www.w3.org/2000/svg">
<path d="M15.1647 41.6703H48.3351V41.6715H48.8351C49.9911 41.6715 50.927 40.732 50.927 39.5762V17.0089C50.927 15.853 49.9911 14.9136 48.8351 14.9136H15.1647C14.0087 14.9136 13.0728 15.853 13.0728 17.0089V39.5751C13.0728 40.7309 14.0087 41.6703 15.1647 41.6703ZM10.3247 41.2989V15.285C10.3247 13.7463 11.569 12.5 13.1027 12.5H50.8971C52.4299 12.5 53.6751 13.7454 53.6751 15.285V41.2989C53.6751 42.8377 52.4308 44.0839 50.8971 44.0839H13.1027C11.5699 44.0839 10.3247 42.8386 10.3247 41.2989Z" fill="white" stroke="black"/>
<path d="M39.9531 47.4312H62.4712C62.2258 49.5467 60.4425 51.183 58.286 51.183H5.71404C3.55748 51.183 1.77419 49.5467 1.5288 47.4312H24.048C24.2796 48.639 25.3345 49.5551 26.6077 49.5551H37.3934C38.6666 49.5551 39.7215 48.6389 39.9531 47.4312Z" fill="white" stroke="black"/>
<path d="M48.9612 15.394H15.2643C14.3844 15.394 13.6711 16.1093 13.6711 16.9917V39.592C13.6711 40.4744 14.3844 41.1897 15.2643 41.1897H48.9612C49.8411 41.1897 50.5544 40.4744 50.5544 39.592V16.9917C50.5544 16.1093 49.8411 15.394 48.9612 15.394Z" fill="#EDEDED"/>
</svg>
