<svg width="64" height="64" viewBox="0 0 64 64" fill="none" xmlns="http://www.w3.org/2000/svg">
<path d="M37.3404 43.0661C37.3404 47.4361 35.6824 51.416 32.9578 54.4174C29.8683 51.0133 25.4071 48.8771 20.4488 48.8771C15.4905 48.8771 11.0292 51.0133 7.93971 54.4174C5.21829 51.416 3.55713 47.4361 3.55713 43.0661C3.55713 38.6961 5.21829 34.7163 7.93971 31.7148C11.0292 35.119 15.4905 37.2552 20.4488 37.2552C25.4071 37.2552 29.8683 35.119 32.9578 31.7148C35.6824 34.7131 37.3404 38.6993 37.3404 43.0661Z" stroke="black" stroke-miterlimit="10"/>
<path d="M32.9581 31.7144C29.8686 35.1185 25.4073 37.2548 20.449 37.2548C15.4907 37.2548 11.0295 35.1185 7.93994 31.7144C11.0263 28.3103 15.4907 26.1709 20.449 26.1709C25.4073 26.1709 29.8686 28.3071 32.9581 31.7144Z" stroke="black" stroke-miterlimit="10"/>
<path d="M32.9581 54.4134C29.8686 57.8175 25.4073 59.9538 20.449 59.9538C15.4907 59.9538 11.0295 57.8175 7.93994 54.4134C11.0295 51.0093 15.4907 48.873 20.449 48.873C25.4073 48.873 29.8686 51.0093 32.9581 54.4134Z" stroke="black" stroke-miterlimit="10"/>
<path d="M37.3404 43.063H3.55713" stroke="black" stroke-miterlimit="10"/>
<path d="M20.4491 59.9542C25.3907 59.9542 29.3967 52.3915 29.3967 43.0625C29.3967 33.7335 25.3907 26.1709 20.4491 26.1709C15.5075 26.1709 11.5015 33.7335 11.5015 43.0625C11.5015 52.3915 15.5075 59.9542 20.4491 59.9542Z" stroke="black" stroke-miterlimit="10"/>
<path d="M46.9048 37.2549H59.7222C60.9806 37.2549 62 38.2742 62 39.5327V50.3743C62 55.169 58.1082 59.0608 53.3135 59.0608C48.5187 59.0608 44.627 55.169 44.627 50.3743V39.5327C44.627 38.2742 45.6463 37.2549 46.9048 37.2549Z" stroke="black" stroke-miterlimit="10"/>
<path d="M62 44.7236H44.627" stroke="black" stroke-miterlimit="10"/>
<path d="M20.4036 7.70053C20.4036 5.65484 18.7553 4 16.724 4H2V25.2025H15.0178C17.0933 25.2025 18.7774 26.8962 18.7774 28.9834V29.1692H22.0325V28.9834C22.0325 26.8962 23.7166 25.2025 25.7921 25.2025H38.8099V4H24.0859C22.0518 4 20.4063 5.65762 20.4063 7.70053H20.4036Z" fill="white" stroke="black" stroke-miterlimit="10"/>
<path d="M20.4492 7.30371V59.9544" stroke="black" stroke-miterlimit="10"/>
</svg>
