<svg width="35" height="35" viewBox="0 0 35 35" fill="none" xmlns="http://www.w3.org/2000/svg">
<g id="55*55" clip-path="url(#clip0_7303_20133)">
<g id="Group 427319464">
<path id="Vector" d="M18.202 18.4689C12.7507 23.9202 10.5569 30.5588 13.2989 33.3009C13.5393 33.5412 13.8117 33.7442 14.1094 33.9084C17.1968 35.631 23.1577 33.3683 28.1295 28.3965C33.1013 23.4247 35.3667 17.4611 33.6441 14.3737C33.4785 14.0746 33.2769 13.8036 33.0365 13.5632C30.2945 10.8212 23.6532 13.0177 18.202 18.4689ZM31.4833 16.0323C31.5062 16.0873 31.5278 16.1462 31.5467 16.2052C32.3351 18.5107 30.2903 22.8786 26.451 26.7179C22.6116 30.5573 18.2437 32.6021 15.9382 31.8137C15.8792 31.7948 15.8216 31.7719 15.7653 31.7503C15.4958 31.6384 15.2584 31.4811 15.0583 31.281C13.2589 29.4816 15.0309 24.7634 19.0151 20.5107C19.2114 20.301 19.4116 20.0926 19.6186 19.8856C19.8256 19.6786 20.034 19.4783 20.2437 19.2821C24.4978 15.2966 29.2146 13.5259 31.014 15.3253C31.2141 15.5254 31.3727 15.7615 31.4833 16.0323Z" fill="#EDEDED" stroke="#231F20" stroke-width="0.5" stroke-linecap="round" stroke-linejoin="round"/>
<path id="Vector_2" d="M31.0138 15.3251C31.2139 15.5252 31.3726 15.7613 31.4831 16.0321C31.506 16.0871 31.5276 16.146 31.5465 16.205C29.2384 15.4219 24.8745 17.4654 21.0365 21.3035C17.1985 25.1415 15.155 29.5054 15.9381 31.8135C15.8791 31.7946 15.8214 31.7717 15.7651 31.7501C15.4957 31.6382 15.2582 31.4809 15.0581 31.2808C13.2587 29.4814 15.0307 24.7632 19.0149 20.5105C19.2112 20.3008 19.4115 20.0924 19.6185 19.8854C19.8255 19.6784 20.0338 19.4781 20.2435 19.2819C24.4976 15.2964 29.2144 13.5257 31.0138 15.3251Z" fill="black" stroke="#231F20" stroke-width="0.5" stroke-linecap="round" stroke-linejoin="round"/>
<path id="Vector_3" d="M8.91767 9.18438C1.38585 16.7162 -1.64868 25.8928 2.14078 29.6823C5.9289 33.4704 15.1055 30.4359 22.6374 22.9041C30.1705 15.3709 33.205 6.19427 29.4169 2.40615C25.6288 -1.38197 16.4508 1.65122 8.91767 9.18438ZM27.8978 5.6145C29.2673 8.85092 26.327 15.296 20.6782 20.9449C15.0306 26.5924 8.58555 29.5327 5.34913 28.1632C4.96168 28.0028 4.62092 27.7769 4.33356 27.4895C1.62642 24.7824 4.55628 17.4641 10.8769 11.1436C17.1988 4.82164 24.517 1.89179 27.2241 4.59893C27.5115 4.88629 27.7374 5.22705 27.8978 5.6145Z" fill="url(#paint0_linear_7303_20133)" stroke="#231F20" stroke-width="0.5" stroke-linecap="round" stroke-linejoin="round"/>
<path id="Vector_4" d="M27.224 4.59961C27.5114 4.88697 27.7373 5.22773 27.8977 5.61518C24.66 4.24703 18.2162 7.18868 12.5687 12.8362C6.92253 18.4824 3.98088 24.9261 5.34903 28.1639C4.96158 28.0035 4.62082 27.7776 4.33345 27.4902C1.62631 24.783 4.55617 17.4648 10.8768 11.1442C17.1987 4.82232 24.5169 1.89246 27.224 4.59961Z" fill="black" stroke="#231F20" stroke-width="0.5" stroke-linecap="round" stroke-linejoin="round"/>
<path id="Vector_5" d="M21.6398 6.45213C24.2892 9.10153 25.3104 12.7588 24.6984 16.1745C23.5874 17.769 22.2353 19.387 20.6782 20.9441C19.1211 22.5012 17.5045 23.8519 15.9113 24.9617C12.4956 25.5736 8.83698 24.5538 6.18757 21.9044C5.55645 21.2732 5.01756 20.5848 4.57095 19.8551C3.93602 18.8168 3.487 17.6974 3.22671 16.5451C2.42685 13.0049 3.39912 9.15362 6.14476 6.40797C8.8904 3.66233 12.7404 2.6914 16.2805 3.49126C17.4329 3.75155 18.5536 4.19924 19.5905 4.8355C20.3202 5.28211 21.0087 5.821 21.6398 6.45213Z" fill="url(#paint1_linear_7303_20133)" stroke="#231F20" stroke-width="0.5" stroke-linecap="round" stroke-linejoin="round"/>
</g>
</g>
<defs>
<linearGradient id="paint0_linear_7303_20133" x1="9.76522" y1="22.0552" x2="29.4156" y2="2.40481" gradientUnits="userSpaceOnUse">
<stop stop-color="white"/>
<stop offset="1" stop-color="#FFE866"/>
</linearGradient>
<linearGradient id="paint1_linear_7303_20133" x1="20.4946" y1="8.00931" x2="20.4946" y2="21.4022" gradientUnits="userSpaceOnUse">
<stop stop-color="white"/>
<stop offset="1" stop-color="#FFE866"/>
</linearGradient>
<clipPath id="clip0_7303_20133">
<rect width="35" height="35" fill="white"/>
</clipPath>
</defs>
</svg>
