<svg width="35" height="35" viewBox="0 0 35 35" fill="none" xmlns="http://www.w3.org/2000/svg">
<g clip-path="url(#clip0_11254_24915)">
<rect width="35" height="35" fill="white"/>
<path d="M18.2034 18.4685C12.7522 23.9197 10.5583 30.5583 13.3004 33.3004C13.5407 33.5407 13.8131 33.7437 14.1109 33.9079C17.1983 35.6305 23.1591 33.3678 28.131 28.396C33.1028 23.4242 35.3681 17.4607 33.6455 14.3732C33.48 14.0742 33.2784 13.8031 33.038 13.5627C30.296 10.8207 23.6546 13.0172 18.2034 18.4685ZM31.4848 16.0318C31.5077 16.0868 31.5293 16.1457 31.5482 16.2047C32.3366 18.5102 30.2918 22.8781 26.4524 26.7174C22.6131 30.5568 18.2451 32.6016 15.9397 31.8132C15.8807 31.7943 15.8231 31.7714 15.7668 31.7498C15.4973 31.6379 15.2598 31.4806 15.0598 31.2805C13.2604 29.4811 15.0324 24.7629 19.0165 20.5102C19.2128 20.3005 19.4131 20.0921 19.6201 19.8851C19.8271 19.6781 20.0354 19.4779 20.2451 19.2816C24.4992 15.2961 29.2161 13.5254 31.0155 15.3248C31.2155 15.5249 31.3742 15.761 31.4848 16.0318Z" fill="#EDEDED" stroke="#231F20" stroke-width="0.5" stroke-linecap="round" stroke-linejoin="round"/>
<path d="M31.0138 15.3251C31.2139 15.5252 31.3726 15.7613 31.4831 16.0321C31.506 16.0871 31.5276 16.146 31.5465 16.205C29.2384 15.4219 24.8745 17.4654 21.0365 21.3035C17.1985 25.1415 15.155 29.5054 15.9381 31.8135C15.8791 31.7946 15.8214 31.7717 15.7651 31.7501C15.4957 31.6382 15.2582 31.4809 15.0581 31.2808C13.2587 29.4814 15.0307 24.7632 19.0149 20.5105C19.2112 20.3008 19.4115 20.0924 19.6185 19.8854C19.8255 19.6784 20.0338 19.4781 20.2435 19.2819C24.4976 15.2964 29.2144 13.5257 31.0138 15.3251Z" fill="black" stroke="#231F20" stroke-width="0.5" stroke-linecap="round" stroke-linejoin="round"/>
<path d="M8.91865 9.18291C1.38683 16.7147 -1.6477 25.8914 2.14176 29.6808C5.92988 33.4689 15.1065 30.4344 22.6383 22.9026C30.1715 15.3694 33.206 6.19281 29.4179 2.40469C25.6298 -1.38343 16.4518 1.64976 8.91865 9.18291ZM27.8988 5.61304C29.2683 8.84945 26.328 15.2945 20.6791 20.9434C15.0316 26.5909 8.58653 29.5312 5.35011 28.1618C4.96266 28.0013 4.6219 27.7754 4.33454 27.488C1.62739 24.7809 4.55725 17.4627 10.8778 11.1421C17.1998 4.82018 24.518 1.89032 27.2251 4.59746C27.5125 4.88483 27.7384 5.22559 27.8988 5.61304Z" fill="url(#paint0_linear_11254_24915)" stroke="#231F20" stroke-width="0.5" stroke-linecap="round" stroke-linejoin="round"/>
<path d="M27.2255 4.59863C27.5129 4.88599 27.7388 5.22676 27.8992 5.6142C24.6615 4.24605 18.2177 7.1877 12.5702 12.8352C6.92399 18.4814 3.98234 24.9252 5.35049 28.1629C4.96304 28.0025 4.62228 27.7766 4.33492 27.4892C1.62778 24.7821 4.55763 17.4639 10.8782 11.1433C17.2001 4.82135 24.5184 1.89149 27.2255 4.59863Z" fill="black" stroke="#231F20" stroke-width="0.5" stroke-linecap="round" stroke-linejoin="round"/>
<path d="M21.6418 6.45213C24.2912 9.10153 25.3123 12.7588 24.7004 16.1745C23.5893 17.769 22.2373 19.387 20.6802 20.9441C19.123 22.5012 17.5064 23.8519 15.9133 24.9617C12.4975 25.5736 8.83893 24.5538 6.18953 21.9044C5.5584 21.2732 5.01951 20.5848 4.57291 19.8551C3.93797 18.8168 3.48895 17.6974 3.22866 16.5451C2.4288 13.0049 3.40107 9.15362 6.14671 6.40797C8.89235 3.66233 12.7423 2.6914 16.2825 3.49126C17.4348 3.75155 18.5556 4.19924 19.5925 4.8355C20.3222 5.28211 21.0106 5.821 21.6418 6.45213Z" fill="url(#paint1_linear_11254_24915)" stroke="#231F20" stroke-width="0.5" stroke-linecap="round" stroke-linejoin="round"/>
</g>
<defs>
<linearGradient id="paint0_linear_11254_24915" x1="9.76619" y1="22.0537" x2="29.4166" y2="2.40335" gradientUnits="userSpaceOnUse">
<stop stop-color="white"/>
<stop offset="1" stop-color="#FFE866"/>
</linearGradient>
<linearGradient id="paint1_linear_11254_24915" x1="20.4966" y1="8.00931" x2="20.4966" y2="21.4022" gradientUnits="userSpaceOnUse">
<stop stop-color="white"/>
<stop offset="1" stop-color="#FFE866"/>
</linearGradient>
<clipPath id="clip0_11254_24915">
<rect width="35" height="35" fill="white"/>
</clipPath>
</defs>
</svg>
