<svg width="416" height="278" viewBox="0 0 416 278" fill="none" xmlns="http://www.w3.org/2000/svg">
<path d="M1.57233e-07 238.001L9.35541e-07 40.0001C1.02238e-06 17.9087 17.9086 5.94695e-05 40 5.75382e-05L229.45 4.0976e-05C238.544 4.0181e-05 247.367 3.09913 254.464 8.78632L283.573 32.1139C290.67 37.8011 299.493 40.9002 308.587 40.9002L376 40.9002C398.091 40.9002 416 58.8088 416 80.9002L416 238.001C416 260.092 398.091 278.001 376 278.001L40 278.001C17.9086 278.001 -1.56562e-06 260.092 1.57233e-07 238.001Z" fill="url(#paint0_linear_2_522)"/>
<defs>
<linearGradient id="paint0_linear_2_522" x1="208" y1="278.001" x2="208" y2="4.28512e-05" gradientUnits="userSpaceOnUse">
<stop stop-color="#D9E313"/>
<stop offset="1" stop-color="#3CBC34"/>
</linearGradient>
</defs>
</svg>
