<svg width="32" height="32" viewBox="0 0 32 32" fill="none" xmlns="http://www.w3.org/2000/svg">
<g clip-path="url(#clip0_5647_27531)">
<path fill-rule="evenodd" clip-rule="evenodd" d="M32 16C32 24.8366 24.8366 32 16 32C7.16344 32 0 24.8366 0 16C0 7.16344 7.16344 0 16 0C24.8366 0 32 7.16344 32 16ZM16.5734 11.8119C15.0171 12.4592 11.9068 13.7989 7.24252 15.8311C6.48511 16.1323 6.08834 16.427 6.05222 16.7151C5.99118 17.202 6.60095 17.3937 7.43129 17.6548C7.54424 17.6903 7.66127 17.7271 7.78125 17.7661C8.59818 18.0317 9.6971 18.3424 10.2684 18.3547C10.7866 18.3659 11.365 18.1523 12.0035 17.7138C16.3615 14.772 18.6112 13.2851 18.7524 13.253C18.8521 13.2304 18.9901 13.202 19.0837 13.2851C19.1772 13.3683 19.168 13.5258 19.1581 13.568C19.0977 13.8255 16.7042 16.0508 15.4655 17.2024C15.0793 17.5614 14.8054 17.816 14.7494 17.8742C14.624 18.0045 14.4962 18.1277 14.3733 18.2461C13.6144 18.9778 13.0452 19.5264 14.4048 20.4224C15.0582 20.8529 15.581 21.209 16.1026 21.5642C16.6722 21.9521 17.2404 22.339 17.9755 22.8209C18.1628 22.9437 18.3416 23.0712 18.5159 23.1954C19.1788 23.668 19.7743 24.0926 20.5101 24.0248C20.9377 23.9855 21.3793 23.5835 21.6036 22.3845C22.1336 19.5509 23.1755 13.4113 23.4163 10.8813C23.4374 10.6596 23.4108 10.376 23.3895 10.2514C23.3682 10.1269 23.3237 9.94948 23.1618 9.81813C22.9701 9.66258 22.6742 9.62978 22.5418 9.63211C21.94 9.64271 21.0167 9.96376 16.5734 11.8119Z" fill="#8C8C8C"/>
</g>
<defs>
<clipPath id="clip0_5647_27531">
<rect width="32" height="32" fill="white"/>
</clipPath>
</defs>
</svg>
