<svg width="66" height="66" viewBox="0 0 66 66" fill="none" xmlns="http://www.w3.org/2000/svg">
<path d="M32.9993 29.796C35.4459 29.796 37.4292 27.8126 37.4292 25.366C37.4292 22.9194 35.4459 20.936 32.9993 20.936C30.5526 20.936 28.5693 22.9194 28.5693 25.366C28.5693 27.8126 30.5526 29.796 32.9993 29.796Z" fill="#24EAAF" stroke="black" stroke-miterlimit="10"/>
<path d="M43.0985 35.3603V43.0408H38.9389V40.9397C38.9389 40.519 38.7661 40.1384 38.4932 39.8629C38.2177 39.5849 37.8371 39.4172 37.4164 39.4172C36.5749 39.4172 35.8913 40.0983 35.8913 40.9422V43.0433H30.114V40.9422C30.114 40.5215 29.9412 40.1409 29.6683 39.8654C29.3928 39.5874 29.0122 39.4197 28.5915 39.4197C27.75 39.4197 27.0664 40.1008 27.0664 40.9447V43.0458H22.9069V35.3653C22.9069 34.0806 23.9511 33.0364 25.2358 33.0364H40.7745C42.0617 33.0364 43.1035 34.0806 43.1035 35.3653L43.0985 35.3603Z" fill="#24EAAF" stroke="black" stroke-miterlimit="10"/>
<path d="M14.0195 51.9805H1V65H14.0195V51.9805Z" stroke="black" stroke-miterlimit="10"/>
<path d="M65 51.9805H51.9805V65H65V51.9805Z" fill="#EDEDED" stroke="black" stroke-miterlimit="10"/>
<path d="M39.5104 51.9805H26.4909V65H39.5104V51.9805Z" stroke="black" stroke-miterlimit="10" stroke-dasharray="6 6"/>
<path d="M14.0195 26.491H1V39.5105H14.0195V26.491Z" stroke="black" stroke-miterlimit="10"/>
<path d="M65 26.491H51.9805V39.5105H65V26.491Z" stroke="black" stroke-miterlimit="10"/>
<path d="M14.0195 1H1V14.0195H14.0195V1Z" stroke="black" stroke-miterlimit="10" stroke-dasharray="6 6"/>
<path d="M65 1H51.9805V14.0195H65V1Z" stroke="black" stroke-miterlimit="10"/>
<path d="M39.5104 1H26.4909V14.0195H39.5104V1Z" fill="#EDEDED" stroke="black" stroke-miterlimit="10"/>
<path d="M7.86365 47.6508C9.04754 47.6508 10.0073 46.691 10.0073 45.5071C10.0073 44.3233 9.04754 43.3635 7.86365 43.3635C6.67976 43.3635 5.72003 44.3233 5.72003 45.5071C5.72003 46.691 6.67976 47.6508 7.86365 47.6508Z" fill="black" stroke="black" stroke-miterlimit="10"/>
<path d="M58.8455 47.6508C60.0294 47.6508 60.9891 46.691 60.9891 45.5071C60.9891 44.3233 60.0294 43.3635 58.8455 43.3635C57.6616 43.3635 56.7018 44.3233 56.7018 45.5071C56.7018 46.691 57.6616 47.6508 58.8455 47.6508Z" fill="black" stroke="black" stroke-miterlimit="10"/>
<path d="M7.86365 22.161C9.04754 22.161 10.0073 21.2013 10.0073 20.0174C10.0073 18.8335 9.04754 17.8738 7.86365 17.8738C6.67976 17.8738 5.72003 18.8335 5.72003 20.0174C5.72003 21.2013 6.67976 22.161 7.86365 22.161Z" fill="#EDEDED" stroke="black" stroke-miterlimit="10"/>
<path d="M58.8455 22.161C60.0294 22.161 60.9891 21.2013 60.9891 20.0174C60.9891 18.8335 60.0294 17.8738 58.8455 17.8738C57.6616 17.8738 56.7018 18.8335 56.7018 20.0174C56.7018 21.2013 57.6616 22.161 58.8455 22.161Z" fill="#EDEDED" stroke="black" stroke-miterlimit="10"/>
<path d="M46.0991 60.3951C47.283 60.3951 48.2427 59.4354 48.2427 58.2515C48.2427 57.0676 47.283 56.1079 46.0991 56.1079C44.9152 56.1079 43.9554 57.0676 43.9554 58.2515C43.9554 59.4354 44.9152 60.3951 46.0991 60.3951Z" fill="#EDEDED" stroke="black" stroke-miterlimit="10"/>
<path d="M46.0991 9.41468C47.283 9.41468 48.2427 8.45495 48.2427 7.27106C48.2427 6.08717 47.283 5.12744 46.0991 5.12744C44.9152 5.12744 43.9554 6.08717 43.9554 7.27106C43.9554 8.45495 44.9152 9.41468 46.0991 9.41468Z" fill="#EDEDED" stroke="black" stroke-miterlimit="10"/>
<path d="M20.6081 60.3951C21.792 60.3951 22.7517 59.4354 22.7517 58.2515C22.7517 57.0676 21.792 56.1079 20.6081 56.1079C19.4242 56.1079 18.4645 57.0676 18.4645 58.2515C18.4645 59.4354 19.4242 60.3951 20.6081 60.3951Z" fill="#EDEDED" stroke="black" stroke-miterlimit="10"/>
<path d="M20.6081 9.41468C21.792 9.41468 22.7517 8.45495 22.7517 7.27106C22.7517 6.08717 21.792 5.12744 20.6081 5.12744C19.4242 5.12744 18.4645 6.08717 18.4645 7.27106C18.4645 8.45495 19.4242 9.41468 20.6081 9.41468Z" stroke="black" stroke-miterlimit="10"/>
<path d="M20.6081 9.41468C21.792 9.41468 22.7517 8.45495 22.7517 7.27106C22.7517 6.08717 21.792 5.12744 20.6081 5.12744C19.4242 5.12744 18.4645 6.08717 18.4645 7.27106C18.4645 8.45495 19.4242 9.41468 20.6081 9.41468Z" fill="black" stroke="black" stroke-miterlimit="10"/>
</svg>
