<svg width="416" height="278" viewBox="0 0 416 278" fill="none" xmlns="http://www.w3.org/2000/svg">
<path d="M1.57233e-07 238L9.35541e-07 39.9995C1.02238e-06 17.9081 17.9086 -0.000550882 40 -0.000552813L91.2915 -0.000557297C99.5372 -0.000558018 107.581 2.54772 114.323 7.29552L134.64 21.6035C141.382 26.3513 149.426 28.8996 157.671 28.8996L259.431 28.8996C268.537 28.8996 277.37 25.7925 284.471 20.092L298.529 8.80707C305.63 3.10651 314.463 -0.00054629 323.569 -0.000547086L376 -0.00055167C398.091 -0.000553601 416 17.908 416 39.9994L416 238C416 260.091 398.091 278 376 278L40 278C17.9086 278 -1.56562e-06 260.091 1.57233e-07 238Z" fill="url(#paint0_linear_5450_97104)"/>
<defs>
<linearGradient id="paint0_linear_5450_97104" x1="217.043" y1="243.318" x2="217.043" y2="-34.6828" gradientUnits="userSpaceOnUse">
<stop stop-color="#1B7DEC"/>
<stop offset="1" stop-color="#5C1DE6"/>
</linearGradient>
</defs>
</svg>
