<svg width="417" height="278" viewBox="0 0 417 278" fill="none" xmlns="http://www.w3.org/2000/svg">
<path d="M31.9999 0L384.001 -1.38868e-06C401.674 -6.2174e-07 416.001 14.3268 416.001 31.9999L416.001 78.1226C416.001 84.5537 414.032 90.8306 410.358 96.1092L409.39 97.5011C402.176 107.866 402.456 121.697 410.083 131.762C413.923 136.829 416.001 143.012 416.001 149.37L416.001 246.001C416.001 263.674 401.674 278.001 384.001 278.001L31.9998 278C14.3267 278 -0.000164197 263.673 -0.000132901 246L5.44586e-05 149.369C8.52561e-05 143.011 2.0783 136.828 5.91809 131.761C13.5453 121.696 13.8252 107.865 6.6116 97.5L5.64291 96.1081C1.9693 90.8295 8.783e-05 84.5527 5.75955e-05 78.1216L-9.29617e-05 32.0001C-0.000153219 14.3269 14.3268 0 31.9999 0Z" fill="#131313"/>
</svg>
