<svg xmlns="http://www.w3.org/2000/svg" width="416" height="278" viewBox="0 0 416 278" fill="none">
  <path
    d="M31.9996 0L384.001 -1.38868e-06C401.674 -6.2174e-07 416.001 14.3268 416.001 31.9999L416.001 78.1226C416.001 84.5537 414.032 90.8306 410.358 96.1092L409.389 97.5011C402.176 107.866 402.456 121.697 410.083 131.762C413.923 136.829 416.001 143.012 416.001 149.37L416.001 246.001C416.001 263.674 401.674 278.001 384.001 278.001L31.9994 278C14.3263 278 -0.000530408 263.673 -0.000499112 246L-0.000311752 149.369C-0.000280955 143.011 2.07794 136.828 5.91772 131.761C13.5449 121.696 13.8249 107.865 6.61123 97.5L5.64254 96.1081C1.96893 90.8295 -0.000278381 84.5527 -0.000308615 78.1216L-0.000459173 32.0001C-0.00051943 14.3269 14.3264 0 31.9996 0Z"
    fill="white" />
</svg>