<svg width="107" height="35" viewBox="0 0 107 35" fill="none" xmlns="http://www.w3.org/2000/svg">
<path d="M55.9477 5.75085V17.1511H52.137V12.9489H47.5607V17.1511H43.75V5.75085H47.5607V9.93663H52.137V5.75085H55.9477Z" fill="white"/>
<path d="M64.7354 15.9949H63.0253C62.3196 15.9949 61.7009 16.4695 61.5192 17.1511H57.5615L60.884 5.75085H66.8766L70.1991 17.1511H66.2415C66.0588 16.4686 65.441 15.9949 64.7354 15.9949ZM65.1182 12.9498L64.0113 8.76404H63.7503L62.6434 12.9498H65.1182Z" fill="white"/>
<path d="M71.2298 11.4355C71.2298 8.19418 73.8679 5.57251 77.1092 5.57251C78.7864 5.57251 80.2848 6.2724 81.3598 7.38023L78.7052 10.0676C78.3147 9.61136 77.7444 9.33489 77.1092 9.33489C75.9531 9.33489 75.0086 10.2793 75.0086 11.4355C75.0086 12.5917 75.9531 13.5526 77.1092 13.5526C77.7279 13.5526 78.2983 13.2761 78.6724 12.8363L81.3598 15.5072C80.2848 16.615 78.77 17.3149 77.1092 17.3149C73.8689 17.3149 71.2298 14.6933 71.2298 11.4355Z" fill="white"/>
<path d="M87.8552 13.8383L87.2037 14.6368V17.1444H83.393V5.74414H87.2037V9.45721H87.3178L90.0864 5.74414H94.3698L90.2981 10.8086L94.6298 17.1434H90.1347L87.9364 13.8373H87.8552V13.8383Z" fill="white"/>
<path d="M57.9847 29.2693V22.6194H61.7954V29.2045C61.7954 30.6381 62.5446 31.3873 63.7008 31.3873C64.857 31.3873 65.5569 30.6381 65.5569 29.2045V22.6194H69.3676V29.2693C69.3676 33.1128 66.6647 34.5619 63.6186 34.5619C60.5726 34.5619 57.9838 33.1128 57.9838 29.2693H57.9847Z" fill="white"/>
<path d="M75.6408 25.6164V26.8054H81.8943V29.8176H75.6408V31.0231H81.8943V34.0199H71.8301V22.6196H81.8943V25.6164H75.6408Z" fill="white"/>
<path d="M84.2104 31.2136H90.1546C90.6592 31.2136 90.9038 30.9854 90.9038 30.6104C90.9038 30.2353 90.6602 30.0236 90.1382 30.0236H87.4343C85.5289 30.0236 83.9822 28.7205 83.9822 26.4246C83.9822 23.7865 85.79 22.8256 87.6141 22.8256H94.3568V25.8388H88.5431C88.1033 25.8388 87.7939 26.0012 87.7939 26.4081C87.7939 26.8151 88.1033 27.0114 88.5431 27.0114H91.0836C93.2664 27.0114 94.7154 28.298 94.7154 30.5939C94.7154 32.7603 93.0875 34.2258 90.9695 34.2258H84.1621L84.2114 31.2136H84.2104Z" fill="white"/>
<path d="M99.552 25.8388H96.1647V22.8256H106.75V25.8388H103.363V34.2258H99.552V25.8388Z" fill="white"/>
<path d="M53.8094 24.0429L53.8075 24.0449C52.7393 22.9786 51.266 22.3184 49.6439 22.3184L44.0091 22.5774L43.75 28.2113C43.75 29.8315 44.4035 31.2989 45.462 32.3642L45.4639 32.3623C46.5331 33.4382 48.0131 34.1053 49.6439 34.1053L55.2788 33.8462L55.5379 28.2123C55.5379 26.5834 54.8776 25.1102 53.8094 24.0429ZM52.4841 29.6034C52.2018 30.2501 51.6827 30.7702 51.035 31.0524C48.2558 32.2637 45.5925 29.5995 46.8038 26.8203C47.0861 26.1735 47.6052 25.6535 48.2529 25.3712C51.0321 24.1599 53.6953 26.8241 52.4841 29.6024V29.6034Z" fill="white"/>
<path d="M29.8689 5.12012L29.8632 5.12589C26.6924 1.95884 22.3171 0 17.5 0L0.767962 0.770111L0 17.4996C0 22.3101 1.94084 26.6674 5.08269 29.8308L5.08847 29.825C8.26281 33.021 12.6584 35 17.5 35L34.232 34.2299L35 17.4996C35 12.6639 33.039 8.28718 29.8682 5.1194L29.8689 5.12012ZM27.9938 22.6407C26.9523 25.0304 25.0317 26.951 22.6412 27.9932C12.3747 32.4674 2.53269 22.6255 7.00693 12.3593C8.04844 9.96958 9.96907 8.049 12.3588 7.00751C22.6253 2.53336 32.4673 12.3752 27.9931 22.6414L27.9938 22.6407Z" fill="white"/>
</svg>
