<svg width="192" height="21" viewBox="0 0 192 21" fill="none" xmlns="http://www.w3.org/2000/svg">
  <path d="M19.9283 0.789062V19.4144H13.7025V12.5489H6.22582V19.4144H0V0.789062H6.22582V7.62765H13.7025V0.789062H19.9283Z" fill="#F5F5F5" />
  <path d="M34.2846 17.5255H31.4907C30.3378 17.5255 29.327 18.3009 29.0301 19.4144H22.5642L27.9924 0.789062H37.7829L43.2111 19.4144H36.7452C36.4467 18.2993 35.4375 17.5255 34.2846 17.5255ZM34.91 12.5505L33.1017 5.71191H32.6752L30.8669 12.5505H34.91Z" fill="#F5F5F5" />
  <path d="M45.3438 10.0788C45.3438 4.7832 49.6538 0.5 54.9494 0.5C57.6896 0.5 60.1376 1.64345 61.8938 3.45339L57.5569 7.84401C56.9188 7.09855 55.987 6.64685 54.9494 6.64685C53.0605 6.64685 51.5174 8.18987 51.5174 10.0788C51.5174 11.9677 53.0605 13.5376 54.9494 13.5376C55.9602 13.5376 56.892 13.0859 57.5032 12.3673L61.8938 16.731C60.1376 18.541 57.6627 19.6844 54.9494 19.6844C49.6554 19.6844 45.3438 15.4012 45.3438 10.0788Z" fill="#F5F5F5" />
  <path d="M72.73 14.0032L71.6655 15.3078V19.4046H65.4397V0.779297H71.6655V6.84559H71.8519L76.3751 0.779297H83.3733L76.721 9.05352L83.7981 19.403H76.4541L72.8627 14.0017H72.73V14.0032Z" fill="#F5F5F5" />
  <path d="M112.721 11.8546V0.990234H118.947V11.7488C118.947 14.091 120.171 15.315 122.06 15.315C123.948 15.315 125.092 14.091 125.092 11.7488V0.990234H131.318V11.8546C131.318 18.1341 126.902 20.5016 121.925 20.5016C116.949 20.5016 112.719 18.1341 112.719 11.8546H112.721Z" fill="#F5F5F5" />
  <path d="M141.567 5.88623V7.82884H151.784V12.7501H141.567V14.7196H151.784V19.6156H135.342V0.990234H151.784V5.88623H141.567Z" fill="#F5F5F5" />
  <path d="M155.343 14.6943H165.055C165.879 14.6943 166.279 14.3216 166.279 13.7088C166.279 13.096 165.881 12.7501 165.028 12.7501H160.61C157.497 12.7501 154.97 10.6212 154.97 6.87019C154.97 2.56013 157.924 0.990234 160.904 0.990234H171.92V5.91309H162.422C161.703 5.91309 161.198 6.17842 161.198 6.84333C161.198 7.50824 161.703 7.82884 162.422 7.82884H166.572C170.139 7.82884 172.506 9.93097 172.506 13.6819C172.506 17.2213 169.846 19.6156 166.386 19.6156H155.264L155.345 14.6943H155.343Z" fill="#F5F5F5" />
  <path d="M180.24 5.91309H174.706V0.990234H192V5.91309H186.466V19.6156H180.24V5.91309Z" fill="#F5F5F5" />
  <path d="M105.899 3.31563L105.896 3.31879C104.151 1.57676 101.744 0.498047 99.0939 0.498047L89.8879 0.921322L89.4646 10.1258C89.4646 12.7728 90.5322 15.1703 92.2616 16.9107L92.2648 16.9075C94.0116 18.6654 96.4295 19.7551 99.0939 19.7551L108.3 19.3318L108.723 10.1274C108.723 7.46617 107.645 5.05924 105.899 3.31563ZM103.734 12.4001C103.273 13.4567 102.425 14.3064 101.367 14.7675C96.826 16.7465 92.4748 12.3938 94.4538 7.85311C94.9149 6.79652 95.7631 5.94683 96.8212 5.48566C101.362 3.50673 105.713 7.85943 103.734 12.3985V12.4001Z" fill="#F5F5F5" />
</svg>
