<svg width="123" height="14" viewBox="0 0 123 14" fill="none" xmlns="http://www.w3.org/2000/svg">
  <path d="M12.7405 0.792969V12.7005H8.76026V8.31127H3.98029V12.7005H0V0.792969H3.98029V5.16501H8.76026V0.792969H12.7405Z" fill='black' />
  <path d="M21.9188 11.4929H20.1327C19.3956 11.4929 18.7494 11.9886 18.5595 12.7005H14.4258L17.8962 0.792969H24.1554L27.6257 12.7005H23.492C23.3011 11.9876 22.6559 11.4929 21.9188 11.4929ZM22.3187 8.31228L21.1626 3.94024H20.89L19.7338 8.31228H22.3187Z" fill='black' />
  <path d="M28.7026 6.73132C28.7026 3.34575 31.4581 0.607422 34.8437 0.607422C36.5956 0.607422 38.1606 1.33845 39.2834 2.49558L36.5107 5.30258C36.1028 4.826 35.5071 4.53722 34.8437 4.53722C33.6361 4.53722 32.6496 5.5237 32.6496 6.73132C32.6496 7.93893 33.6361 8.94259 34.8437 8.94259C35.4899 8.94259 36.0856 8.65382 36.4764 8.1944L39.2834 10.9842C38.1606 12.1413 36.5784 12.8724 34.8437 12.8724C31.4592 12.8724 28.7026 10.134 28.7026 6.73132Z" fill='black' />
  <path d="M46.0676 9.23947L45.387 10.0735V12.6927H41.4067V0.785156H45.387V4.66345H45.5062L48.398 0.785156H52.872L48.6191 6.07503L53.1436 12.6917H48.4485L46.1524 9.23846H46.0676V9.23947Z" fill='black' />
  <path d="M72.0645 7.86573V0.919922H76.0448V7.79807C76.0448 9.29548 76.8273 10.078 78.0349 10.078C79.2425 10.078 79.9736 9.29548 79.9736 7.79807V0.919922H83.9538V7.86573C83.9538 11.8803 81.1307 13.3939 77.9491 13.3939C74.7675 13.3939 72.0635 11.8803 72.0635 7.86573H72.0645Z" fill='black' />
  <path d="M90.5069 4.05003V5.29198H97.0387V8.43824H90.5069V9.69735H97.0387V12.8275H86.5266V0.919922H97.0387V4.05003H90.5069Z" fill='black' />
  <path d="M99.4573 9.89603H105.666C106.193 9.89603 106.449 9.65774 106.449 9.26597C106.449 8.87421 106.194 8.65308 105.649 8.65308H102.825C100.835 8.65308 99.219 7.292 99.219 4.89393C99.219 2.13843 101.107 1.13477 103.012 1.13477H110.055V4.28204H103.983C103.523 4.28204 103.2 4.45167 103.2 4.87676C103.2 5.30185 103.523 5.50682 103.983 5.50682H106.636C108.916 5.50682 110.43 6.85075 110.43 9.24882C110.43 11.5116 108.729 13.0423 106.517 13.0423H99.4068L99.4583 9.89603H99.4573Z" fill='black' />
  <path d="M115.482 4.28204H111.944V1.13477H123V4.28204H119.462V13.0423H115.482V4.28204Z" fill='black' />
  <path d="M67.7036 2.4068L67.7016 2.40882C66.5858 1.29511 65.047 0.605469 63.3527 0.605469L57.4671 0.876077L57.1965 6.76068C57.1965 8.45295 57.8791 9.98569 58.9847 11.0984L58.9867 11.0964C60.1035 12.2202 61.6494 12.9169 63.3527 12.9169L69.2383 12.6463L69.509 6.76169C69.509 5.06032 68.8193 3.52152 67.7036 2.4068ZM66.3193 8.21466C66.0244 8.89016 65.4822 9.43338 64.8057 9.72822C61.9028 10.9934 59.121 8.21062 60.3862 5.3077C60.681 4.6322 61.2233 4.08898 61.8998 3.79414C64.8027 2.52898 67.5844 5.31174 66.3193 8.21365V8.21466Z" fill='black' />
</svg>