<svg width="134" height="16" viewBox="0 0 134 16" fill="none" xmlns="http://www.w3.org/2000/svg">
  <g clip-path="url(#clip0_4865_17877)">
    <path
      d="M63.255 13.8934H59.2562V2.13074H63.255V13.8934ZM71.2809 2.13074H66.5623L63.255 7.32462V8.01209L66.9049 13.8934H71.6235L67.2538 7.66835L71.2809 2.13074ZM27.8702 2.13074V6.43427H24.7126V2.13074H20.7138V13.8934H24.7126V9.52894H27.8702V13.8934H31.869V2.13074H27.8702ZM53.555 10.804C51.9783 10.804 50.8992 9.54996 50.8992 8.01209C50.8992 6.47421 51.9783 5.22016 53.555 5.22016C54.7 5.22016 55.5214 5.83404 55.7435 6.12522L57.7298 3.37639C57.186 2.87287 55.5088 1.73024 53.117 1.73024C48.8773 1.73024 46.7055 5.0404 46.7055 8.01209C46.7055 10.9838 48.8773 14.2939 53.117 14.2939C55.5098 14.2939 57.186 13.1513 57.7298 12.6478L55.7435 9.89895C55.5214 10.1901 54.7 10.804 53.555 10.804ZM42.5475 13.8955C41.9367 12.8265 40.8157 12.4365 39.7461 12.4365C38.6765 12.4365 37.5555 12.8265 36.9447 13.8955H33.1555L37.5712 2.12864H41.9231L46.3389 13.8955H42.5496H42.5475ZM41.2704 9.84324L39.7451 5.62276L38.2197 9.84324C38.2197 9.84324 38.8263 9.58255 39.7 9.58255H39.788C40.6628 9.58255 41.2683 9.84324 41.2683 9.84324H41.2704ZM42.5475 13.8955C41.9367 12.8265 40.8157 12.4365 39.7461 12.4365C38.6765 12.4365 37.5555 12.8265 36.9447 13.8955H33.1555L37.5712 2.12864H41.9231L46.3389 13.8955H42.5496H42.5475ZM41.2704 9.84324L39.7451 5.62276L38.2197 9.84324C38.2197 9.84324 38.8263 9.58255 39.7 9.58255H39.788C40.6628 9.58255 41.2683 9.84324 41.2683 9.84324H41.2704ZM133.97 2.13074H123.25V5.20439H126.611V13.8934H130.609V5.20439H133.97V2.13074ZM109.545 5.20439V2.13074H99.3752V13.8934H103.374V13.8892H109.545V10.8156H103.374V9.34183H109.545V6.67919H103.374V5.20544H109.545V5.20439ZM118.288 6.47526H115.99C115.641 6.47526 115.358 6.19145 115.358 5.8414C115.358 5.49136 115.641 5.20754 115.99 5.20754H121.627V2.13389H115.054C112.997 2.13389 111.332 3.82104 111.359 5.89081C111.385 7.92904 113.078 9.54996 115.11 9.54996H117.408C117.757 9.54996 118.04 9.83378 118.04 10.1838C118.04 10.5339 117.757 10.8177 117.408 10.8177H111.773V13.8913H118.344C120.401 13.8913 122.066 12.2042 122.039 10.1344C122.012 8.09618 120.319 6.47526 118.288 6.47526ZM93.2424 2.13074V8.89403C93.2424 9.7623 92.5405 10.4666 91.6751 10.4666C90.8098 10.4666 90.1079 9.7623 90.1079 8.89403V2.13074H86.1091V9.32816C86.1091 12.4081 88.5637 14.2729 91.6332 14.296C94.7269 14.3192 97.2423 12.4975 97.2423 9.39859V2.13074H93.2434H93.2424ZM82.501 11.1803L85.0132 10.2185L84.8016 13.5213C84.8016 13.5213 81.5623 14.2939 78.0339 14.2939C73.5941 14.2939 71.6224 10.6905 71.6224 7.81342C71.6224 4.93634 73.7942 1.73129 78.0339 1.73129C82.2737 1.73129 84.2045 4.60522 84.0871 7.51488C84.0243 9.08534 83.2281 10.4782 82.501 11.0773V11.1803ZM78.035 10.804C79.4692 10.804 80.2518 9.46902 80.2518 8.01629C80.2518 6.56356 79.4692 5.22121 78.035 5.22121C76.6008 5.22121 75.8182 6.56356 75.8182 8.01629C75.8182 9.46902 76.6008 10.804 78.035 10.804ZM13.6108 2.34308C15.0545 3.7916 15.946 5.78989 15.946 7.99947L15.5741 15.6762L7.97353 15.9989C5.7714 15.9989 3.77881 15.1033 2.33622 13.6559C0.892582 12.2084 0 10.2101 0 8.00052L0.321623 0.373169L7.97353 0C10.1756 0 12.1682 0.895605 13.6108 2.34308ZM11.2652 4.79863C10.4355 3.9661 9.28935 3.44997 8.02381 3.44997C5.49169 3.44997 3.43833 5.51028 3.43833 8.05098C3.43833 9.32081 3.95272 10.4708 4.78244 11.3033C5.61216 12.1359 6.75827 12.652 8.02381 12.652C10.5549 12.652 12.6083 10.5927 12.6093 8.05098C12.6093 6.78116 12.0949 5.63117 11.2652 4.79863Z"
      fill="white" />
  </g>
  <defs>
    <clipPath id="clip0_4865_17877">
      <rect width="133.97" height="16" fill="white" />
    </clipPath>
  </defs>
</svg>