<svg width="416" height="278" viewBox="0 0 416 278" fill="#1A1A1A" xmlns="http://www.w3.org/2000/svg">
  <svg fill="none" x="0" y="0" width="416" height="278" xmlns="http://www.w3.org/2000/svg">
    <path d="M9.84105 74.0607L69.211 11.2673C76.0109 4.07514 85.4721 0 95.3699 0H380C399.882 0 416 16.1178 416 36V212.596C416 232.478 399.882 248.596 380 248.596H266.218C256.32 248.596 246.859 252.671 240.059 259.863L233.564 266.733C226.764 273.925 217.303 278 207.405 278H36C16.1177 278 0 261.882 0 242V98.7935C0 89.5947 3.52131 80.7449 9.84105 74.0607Z" fill="#1A1A1A" />
  </svg>
  <mask id="mask0_9401_1882" style="mask-type:alpha" maskUnits="userSpaceOnUse" x="0" y="0" width="416" height="278">
    <path d="M9.84105 74.0607L69.211 11.2673C76.0109 4.07514 85.4721 0 95.3699 0H380C399.882 0 416 16.1178 416 36V212.596C416 232.478 399.882 248.596 380 248.596H266.218C256.32 248.596 246.859 252.671 240.059 259.863L233.564 266.733C226.764 273.925 217.303 278 207.405 278H36C16.1177 278 0 261.882 0 242V98.7935C0 89.5947 3.52131 80.7449 9.84105 74.0607Z" fill="#1A1A1A" />
  </mask>
  <g mask="url(#mask0_9401_1882)">
    <path d="M136.987 -52.392C136.987 64.8721 47.1153 159.885 -63.6891 159.885C-174.493 159.885 -264.365 64.8721 -264.365 -52.392C-264.365 -169.656 -174.493 -264.669 -63.6891 -264.669C47.1153 -264.669 136.987 -169.656 136.987 -52.392Z" stroke="#2B2B2B" />
    <path opacity="0.7" d="M170.348 -52.3926C170.348 84.3587 65.54 195.169 -63.689 195.169C-192.918 195.169 -297.726 84.3587 -297.726 -52.3926C-297.726 -189.144 -192.918 -299.954 -63.689 -299.954C65.54 -299.954 170.348 -189.144 170.348 -52.3926Z" stroke="#2B2B2B" />
    <path d="M194.611 -52.3922C194.611 98.5316 78.9401 220.831 -63.6888 220.831C-206.318 220.831 -321.988 98.5316 -321.988 -52.3922C-321.988 -203.316 -206.318 -325.615 -63.6888 -325.615C78.9401 -325.615 194.611 -203.316 194.611 -52.3922Z" stroke="#2B2B2B" />
    <path d="M236.059 -52.3926C236.059 122.742 101.831 264.669 -63.6891 264.669C-229.209 264.669 -363.437 122.742 -363.437 -52.3926C-363.437 -227.528 -229.209 -369.454 -63.6891 -369.454C101.831 -369.454 236.059 -227.528 236.059 -52.3926Z" stroke="#2B2B2B" />
    <path d="M194.611 -52.3922C194.611 98.5316 78.9401 220.831 -63.6888 220.831C-206.318 220.831 -321.988 98.5316 -321.988 -52.3922C-321.988 -203.316 -206.318 -325.615 -63.6888 -325.615C78.9401 -325.615 194.611 -203.316 194.611 -52.3922Z" stroke="#2B2B2B" />
    <path opacity="0.7" d="M422.071 -52.3924C422.071 231.398 204.563 461.408 -63.6887 461.408C-331.941 461.408 -549.449 231.398 -549.449 -52.3924C-549.449 -336.183 -331.941 -566.192 -63.6887 -566.192C204.563 -566.192 422.071 -336.183 422.071 -52.3924Z" stroke="#2B2B2B" />
    <path d="M439.257 -52.3922C439.257 241.437 214.055 479.585 -63.6888 479.585C-341.432 479.585 -566.635 241.437 -566.635 -52.3922C-566.635 -346.222 -341.432 -584.369 -63.6888 -584.369C214.055 -584.369 439.257 -346.222 439.257 -52.3922Z" stroke="#2B2B2B" />
    <path opacity="0.3" d="M391.743 -52.3922C391.743 213.683 187.813 429.331 -63.6891 429.331C-315.191 429.331 -519.121 213.683 -519.121 -52.3922C-519.121 -318.467 -315.191 -534.115 -63.6891 -534.115C187.813 -534.115 391.743 -318.467 391.743 -52.3922Z" stroke="#9EFA13" />
    <path d="M312.89 -52.3927C312.89 167.622 144.264 345.93 -63.6891 345.93C-271.642 345.93 -440.268 167.622 -440.268 -52.3927C-440.268 -272.407 -271.642 -450.716 -63.6891 -450.716C144.264 -450.716 312.89 -272.407 312.89 -52.3927Z" stroke="#2B2B2B" />
    <path d="M285.595 -52.3918C285.595 151.679 129.189 317.062 -63.6889 317.062C-256.567 317.062 -412.973 151.679 -412.973 -52.3918C-412.973 -256.462 -256.567 -421.846 -63.6889 -421.846C129.189 -421.846 285.595 -256.462 285.595 -52.3918Z" stroke="#2B2B2B" />
    <ellipse cx="279.018" cy="19.2458" rx="3.03281" ry="3.20769" fill="#3E3E3E" />
    <ellipse cx="266.887" cy="70.569" rx="3.03281" ry="3.20769" fill="#3E3E3E" />
    <ellipse cx="231.504" cy="195.669" rx="3.03281" ry="3.20769" fill="#3E3E3E" />
    <ellipse cx="146.586" cy="174.284" rx="3.03281" ry="3.20769" fill="#3E3E3E" />
    <ellipse cx="64.6998" cy="234.161" rx="3.03281" ry="3.20769" fill="#3E3E3E" />
    <ellipse cx="155.684" cy="93.0221" rx="3.03281" ry="3.20769" fill="#3E3E3E" />
    <ellipse cx="143.047" cy="62.5491" rx="2.52734" ry="2.67308" fill="#3E3E3E" />
    <ellipse cx="178.936" cy="40.6305" rx="3.03281" ry="3.20769" fill="#9EFA13" />
    <ellipse cx="126.367" cy="16.0378" rx="3.03281" ry="3.20769" fill="#3E3E3E" />
    <ellipse cx="7.07675" cy="146.484" rx="3.03281" ry="3.20769" fill="#3E3E3E" />
    <ellipse cx="402.352" cy="148.623" rx="3.03281" ry="3.20769" fill="#3E3E3E" />
    <ellipse cx="368.991" cy="180.699" rx="3.03281" ry="3.20769" fill="#3E3E3E" />
    <ellipse cx="351.806" cy="142.207" rx="3.03281" ry="3.20769" fill="#9EFA13" />
    <ellipse cx="349.278" cy="217.588" rx="1.5164" ry="1.60385" fill="#3E3E3E" />
    <ellipse cx="159.222" cy="158.78" rx="1.5164" ry="1.60385" fill="#3E3E3E" />
    <ellipse cx="77.3367" cy="144.88" rx="1.5164" ry="1.60385" fill="#3E3E3E" />
    <ellipse cx="78.3475" cy="97.8343" rx="1.5164" ry="1.60385" fill="#3E3E3E" />
    <ellipse cx="85.4241" cy="89.2796" rx="1.5164" ry="1.60385" fill="#3E3E3E" />
  </g>
</svg>
