<svg width="150" height="87" viewBox="0 0 150 87" fill="none" xmlns="http://www.w3.org/2000/svg">
  <g clip-path="url(#clip0_2017_2279)">
    <path
      d="M16.4228 68.8761C15.34 68.8761 14.333 67.2522 13.68 65.8889L14.0591 65.7009C14.9481 67.5471 15.8456 68.5642 16.5407 68.4359L16.625 68.8547H16.6039C16.5534 68.8676 16.486 68.8718 16.4228 68.8718V68.8761ZM18.3187 65.0129L17.8974 64.9744C17.9101 64.8419 17.9185 64.7009 17.9269 64.5642L18.3482 64.5898C18.3398 64.7351 18.3272 64.8761 18.3145 65.0129H18.3187ZM12.2137 61.953C12.1758 61.8206 12.1337 61.6838 12.0958 61.5513L12.5002 61.4317C12.5382 61.5642 12.5761 61.7009 12.614 61.8291L12.2095 61.953H12.2137ZM17.8553 60.4189C17.7457 59.0898 17.5604 57.7052 17.3033 56.2992L17.712 56.1924V56.2265C17.9733 57.6368 18.1628 59.0385 18.2724 60.3804L17.8511 60.4146L17.8553 60.4189ZM11.1562 57.4659V57.4317C10.895 56.0342 10.7096 54.6368 10.5959 53.2992L11.0172 53.265C11.1267 54.5898 11.3121 55.9744 11.5691 57.3718L11.1562 57.4659ZM16.368 52.2265L16.2542 51.8291L16.6587 51.7052L16.7767 52.1069L16.3722 52.2265H16.368ZM10.9413 49.1197L10.52 49.0941C10.5284 48.9488 10.5411 48.8077 10.5537 48.671L10.9751 48.7095C10.9624 48.8419 10.954 48.983 10.9456 49.1197H10.9413ZM14.8049 47.953C13.9201 46.1112 13.0143 45.0983 12.3317 45.2308L12.2348 44.8163H12.2559C12.3191 44.7992 12.3823 44.7949 12.4455 44.7949C13.5241 44.7949 14.531 46.4103 15.1841 47.7693L14.8049 47.9573V47.953Z"
      fill="black" />
    <path d="M91.8277 40.5385L90.2688 42.4146C90.214 42.4787 90.1129 42.4146 90.1508 42.3377L90.926 40.7394C90.9429 40.7094 90.9345 40.671 90.905 40.6496L89.5188 39.5556C89.4514 39.5043 89.5146 39.3975 89.5905 39.4317L91.8024 40.4231C91.8445 40.4445 91.8572 40.5 91.8277 40.5342V40.5385Z" fill="#131313" />
    <path d="M94.0767 40.0088L92.5178 41.8849C92.463 41.949 92.3619 41.8849 92.3998 41.8079L93.1751 40.2096C93.1919 40.1797 93.1835 40.1413 93.154 40.1199L91.7678 39.0259C91.7004 38.9746 91.7636 38.8678 91.8395 38.9019L94.0514 39.8934C94.0936 39.9148 94.1062 39.9703 94.0767 40.0045V40.0088Z" fill="#131313" />
    <path d="M96.3272 39.4828L94.7683 41.3588C94.7135 41.423 94.6124 41.3588 94.6503 41.2819L95.4256 39.6836C95.4424 39.6537 95.434 39.6153 95.4045 39.5939L94.0183 38.4999C93.9509 38.4486 94.0141 38.3418 94.09 38.3759L96.3019 39.3674C96.3441 39.3888 96.3567 39.4443 96.3272 39.4785V39.4828Z" fill="#131313" />
    <path d="M98.5777 38.9531L97.0188 40.8291C96.964 40.8932 96.8629 40.8291 96.9008 40.7522L97.676 39.1539C97.6929 39.124 97.6845 39.0855 97.655 39.0642L96.2688 37.9702C96.2014 37.9189 96.2646 37.812 96.3405 37.8462L98.5524 38.8377C98.5945 38.859 98.6072 38.9146 98.5777 38.9488V38.9531Z" fill="#131313" />
    <path d="M100.832 38.4274L99.2727 40.3035C99.2179 40.3676 99.1168 40.3035 99.1547 40.2266L99.93 38.6283C99.9468 38.5984 99.9384 38.5599 99.9089 38.5385L98.5227 37.4445C98.4553 37.3932 98.5185 37.2864 98.5944 37.3206L100.806 38.312C100.848 38.3334 100.861 38.389 100.832 38.4231V38.4274Z" fill="#131313" />
    <path d="M103.082 37.8973L101.523 39.7733C101.468 39.8374 101.367 39.7733 101.405 39.6964L102.18 38.0981C102.197 38.0682 102.189 38.0298 102.159 38.0084L100.773 36.9144C100.706 36.8631 100.769 36.7562 100.845 36.7904L103.057 37.7819C103.099 37.8033 103.112 37.8588 103.082 37.893V37.8973Z" fill="#131313" />
    <path d="M105.331 37.3718L103.772 39.2479C103.717 39.312 103.616 39.2479 103.654 39.171L104.429 37.5727C104.446 37.5428 104.437 37.5043 104.408 37.4829L103.022 36.3889C102.954 36.3376 103.018 36.2308 103.093 36.265L105.305 37.2564C105.347 37.2778 105.36 37.3334 105.331 37.3675V37.3718Z" fill="#131313" />
    <path d="M107.58 36.8419L106.021 38.718C105.966 38.7821 105.865 38.718 105.903 38.6411L106.678 37.0428C106.695 37.0129 106.686 36.9744 106.657 36.953L105.271 35.859C105.203 35.8077 105.267 35.7009 105.342 35.7351L107.554 36.7265C107.596 36.7479 107.609 36.8034 107.58 36.8376V36.8419Z" fill="#131313" />
    <path d="M109.83 36.3163L108.271 38.1924C108.216 38.2565 108.115 38.1924 108.153 38.1155L108.928 36.5172C108.945 36.4873 108.937 36.4488 108.907 36.4274L107.521 35.3334C107.454 35.2822 107.517 35.1753 107.593 35.2095L109.805 36.201C109.847 36.2223 109.86 36.2779 109.83 36.3121V36.3163Z" fill="#131313" />
    <path d="M112.081 35.7865L110.522 37.6626C110.467 37.7267 110.366 37.6626 110.404 37.5856L111.179 35.9873C111.196 35.9574 111.188 35.919 111.158 35.8976L109.772 34.8036C109.705 34.7523 109.768 34.6455 109.844 34.6797L112.056 35.6711C112.098 35.6925 112.111 35.748 112.081 35.7822V35.7865Z" fill="#131313" />
    <path d="M114.332 35.2606L112.773 37.1366C112.718 37.2007 112.617 37.1366 112.655 37.0597L113.43 35.4614C113.447 35.4315 113.438 35.393 113.409 35.3717L112.023 34.2776C111.955 34.2264 112.019 34.1195 112.094 34.1537L114.306 35.1452C114.348 35.1665 114.361 35.2221 114.332 35.2563V35.2606Z" fill="#131313" />
    <path d="M116.58 34.735L115.021 36.611C114.966 36.6751 114.865 36.611 114.903 36.5341L115.678 34.9358C115.695 34.9059 115.687 34.8675 115.657 34.8461L114.271 33.7521C114.204 33.7008 114.267 33.594 114.343 33.6281L116.555 34.6196C116.597 34.641 116.61 34.6965 116.58 34.7307V34.735Z" fill="#131313" />
    <path d="M118.829 34.2052L117.27 36.0813C117.215 36.1454 117.114 36.0813 117.152 36.0043L117.928 34.4061C117.944 34.3761 117.936 34.3377 117.906 34.3163L116.52 33.2223C116.453 33.171 116.516 33.0642 116.592 33.0984L118.804 34.0898C118.846 34.1112 118.859 34.1667 118.829 34.2009V34.2052Z" fill="#131313" />
    <path d="M121.085 33.6796L119.526 35.5557C119.471 35.6198 119.37 35.5557 119.408 35.4788L120.183 33.8805C120.2 33.8506 120.191 33.8121 120.162 33.7907L118.776 32.6967C118.708 32.6454 118.771 32.5386 118.847 32.5728L121.059 33.5642C121.101 33.5856 121.114 33.6412 121.085 33.6753V33.6796Z" fill="#131313" />
    <path d="M123.335 33.1498L121.776 35.0259C121.721 35.09 121.62 35.0259 121.658 34.949L122.433 33.3507C122.45 33.3208 122.442 33.2823 122.412 33.2609L121.026 32.1669C120.959 32.1156 121.022 32.0088 121.098 32.043L123.31 33.0344C123.352 33.0558 123.365 33.1114 123.335 33.1456V33.1498Z" fill="#131313" />
    <path d="M125.584 32.6239L124.025 34.5C123.97 34.5641 123.869 34.5 123.907 34.423L124.682 32.8247C124.699 32.7948 124.691 32.7564 124.661 32.735L123.275 31.641C123.208 31.5897 123.271 31.4829 123.347 31.5171L125.559 32.5085C125.601 32.5299 125.614 32.5854 125.584 32.6196V32.6239Z" fill="#131313" />
    <path d="M127.835 32.0941L126.276 33.9702C126.221 34.0343 126.12 33.9702 126.158 33.8933L126.933 32.295C126.95 32.265 126.941 32.2266 126.912 32.2052L125.526 31.1112C125.458 31.0599 125.521 30.9531 125.597 30.9873L127.809 31.9787C127.851 32.0001 127.864 32.0556 127.835 32.0898V32.0941Z" fill="#131313" />
    <path d="M130.084 31.5685L128.525 33.4446C128.47 33.5087 128.369 33.4446 128.407 33.3677L129.182 31.7694C129.199 31.7395 129.19 31.701 129.161 31.6796L127.775 30.5856C127.707 30.5343 127.77 30.4275 127.846 30.4617L130.058 31.4532C130.1 31.4745 130.113 31.5301 130.084 31.5643V31.5685Z" fill="#131313" />
    <path d="M132.304 31.0471L130.745 32.9231C130.69 32.9872 130.589 32.9231 130.627 32.8462L131.402 31.2479C131.419 31.218 131.411 31.1795 131.381 31.1582L129.995 30.0641C129.927 30.0129 129.991 29.906 130.067 29.9402L132.278 30.9317C132.321 30.953 132.333 31.0086 132.304 31.0428V31.0471Z" fill="#131313" />
    <path d="M134.555 30.5215L132.996 32.3975C132.941 32.4616 132.84 32.3975 132.878 32.3206L133.653 30.7223C133.67 30.6924 133.662 30.654 133.632 30.6326L132.246 29.5386C132.178 29.4873 132.242 29.3805 132.317 29.4146L134.529 30.4061C134.572 30.4275 134.584 30.483 134.555 30.5172V30.5215Z" fill="#131313" />
    <path d="M136.805 29.9913L135.246 31.8674C135.192 31.9315 135.09 31.8674 135.128 31.7905L135.904 30.1922C135.92 30.1623 135.912 30.1238 135.883 30.1024L134.496 29.0084C134.429 28.9571 134.492 28.8503 134.568 28.8845L136.78 29.8759C136.822 29.8973 136.835 29.9529 136.805 29.9871V29.9913Z" fill="#131313" />
    <path d="M139.054 29.4658L137.495 31.3418C137.44 31.4059 137.339 31.3418 137.377 31.2649L138.152 29.6666C138.169 29.6367 138.161 29.5982 138.131 29.5769L136.745 28.4828C136.677 28.4316 136.741 28.3247 136.817 28.3589L139.028 29.3504C139.071 29.3717 139.083 29.4273 139.054 29.4615V29.4658Z" fill="#131313" />
    <path d="M141.303 28.936L139.744 30.812C139.689 30.8761 139.588 30.812 139.626 30.7351L140.401 29.1368C140.418 29.1069 140.41 29.0684 140.38 29.0471L138.994 27.9531C138.927 27.9018 138.99 27.7949 139.066 27.8291L141.278 28.8206C141.32 28.8419 141.332 28.8975 141.303 28.9317V28.936Z" fill="#131313" />
    <path d="M80.4459 40.6452L74.5895 47.8632C74.3873 48.111 74.0039 47.8632 74.1387 47.5726L77.0206 41.4444C77.0753 41.329 77.0416 41.188 76.9405 41.111L71.6065 37.0085C71.3538 36.8119 71.5813 36.4144 71.8762 36.5384L80.349 40.2221C80.5133 40.2948 80.5639 40.5042 80.4501 40.6452H80.4459Z" fill="black" />
    <path d="M74.8405 41.8164L0 60.2794L0.0497857 60.487L74.8903 42.024L74.8405 41.8164Z" fill="black" />
    <path d="M34.1516 49.7481L34.1011 49.5429L109.742 30.8848L109.792 31.09L34.1516 49.7481Z" fill="black" />
    <path d="M109.914 31.778C110.34 31.6711 110.601 31.2395 110.496 30.8079C110.39 30.3762 109.965 30.1113 109.539 30.2181C109.114 30.325 108.853 30.7566 108.958 31.1882C109.063 31.6198 109.489 31.8848 109.914 31.778Z" fill="black" />
    <path d="M40.8847 38.8332L40.8594 38.7306L78.3151 29.4913L78.3404 29.5982L40.8847 38.8332Z" fill="black" />
    <path d="M78.4734 30.3332C78.8989 30.2264 79.1602 29.7947 79.0548 29.3631C78.9495 28.9315 78.524 28.6665 78.0984 28.7734C77.6729 28.8802 77.4117 29.3118 77.517 29.7435C77.6223 30.1751 78.0479 30.44 78.4734 30.3332Z" fill="black" />
    <path d="M58.9769 65.8676L58.9517 65.7651L96.4074 56.5258L96.4327 56.6283L58.9769 65.8676Z" fill="black" />
    <path d="M96.5676 57.3676C96.9932 57.2608 97.2544 56.8292 97.1491 56.3975C97.0437 55.9659 96.6182 55.701 96.1927 55.8078C95.7671 55.9146 95.5059 56.3463 95.6112 56.7779C95.7166 57.2095 96.1421 57.4745 96.5676 57.3676Z" fill="black" />
    <path d="M41.9941 52.5255L41.9478 52.3161L89.5574 40.8204L89.6038 41.0255L41.9941 52.5255Z" fill="black" />
    <path d="M141.732 25.7896L81.4868 40.2686L81.5354 40.4765L141.781 25.9975L141.732 25.7896Z" fill="black" />
    <path d="M38.0082 74.6881L37.9829 74.5855L90.7412 61.6325L90.7665 61.7351L38.0082 74.6881Z" fill="black" />
    <path d="M146.946 24.4784L149.684 23.8032L149.748 24.0725L147.009 24.7477L147.666 27.487L147.388 27.5554L146.731 24.8161L143.992 25.4913L143.929 25.222L146.668 24.5468L146.015 21.8203L146.293 21.752L146.946 24.4784Z" fill="black" stroke="black" stroke-width="1.39599" stroke-miterlimit="10" />
    <path d="M26.2411 31.9658L26.2158 31.8632L90.8217 15.923L90.847 16.0299L26.2411 31.9658Z" fill="black" />
    <path d="M92.6544 15.4744L93.6824 15.2223L93.7077 15.3206L92.6796 15.5727L92.9282 16.6026L92.8229 16.6283L92.5743 15.5984L91.5463 15.8505L91.521 15.7522L92.549 15.5001L92.3047 14.4744L92.41 14.4488L92.6544 15.4744Z" fill="black" />
    <path d="M92.7428 16.7564L92.4942 15.7265L91.4662 15.9829L91.3945 15.6752L92.4226 15.4188L92.1782 14.3974L92.4858 14.3205L92.7301 15.3461L93.7582 15.0897L93.8298 15.3974L92.8018 15.6538L93.0503 16.6795L92.7428 16.7564Z" fill="black" />
    <path d="M20.35 41.9615L20.3247 41.859L84.7579 25.9658L84.779 26.0684L20.35 41.9615Z" fill="black" />
    <path d="M86.971 25.4103L88.1928 25.1069L88.2223 25.2265L87.0005 25.5299L87.2954 26.7522L87.1732 26.7821L86.8783 25.5598L85.6564 25.8633L85.627 25.7436L86.8488 25.4402L86.5581 24.2222L86.6803 24.1923L86.971 25.4103Z" fill="black" stroke="black" stroke-width="0.697994" stroke-miterlimit="10" />
    <path d="M93.1516 61.03L94.3735 60.7266L94.403 60.8463L93.1811 61.1497L93.4761 62.3719L93.3539 62.4018L93.059 61.1796L91.8371 61.483L91.8076 61.3634L93.0295 61.0599L92.7387 59.842L92.8609 59.8121L93.1516 61.03Z" fill="black" stroke="black" stroke-width="0.697994" stroke-miterlimit="10" />
    <path d="M34.9717 48.1707L34.997 43.9784L35.216 43.9229L35.1866 48.1152L34.9717 48.1664V48.1707Z" fill="black" />
    <path d="M36.4849 47.799L36.5101 43.6067L36.7292 43.5554L36.6997 47.7477L36.4849 47.799Z" fill="black" />
    <path d="M37.9961 47.4226L38.0214 43.2303L38.2405 43.1747L38.211 47.3671L37.9961 47.4183V47.4226Z" fill="black" />
    <path d="M39.5093 47.0513L39.5346 42.859L39.7536 42.8034L39.7242 46.9957L39.5093 47.047V47.0513Z" fill="black" />
    <path d="M41.0259 46.6791L41.0512 42.4868L41.2702 42.4355L41.2408 46.6278L41.0301 46.6791H41.0259Z" fill="black" />
    <path d="M42.5391 46.3031L42.5643 42.1108L42.7834 42.0552L42.7539 46.2475L42.5391 46.2988V46.3031Z" fill="black" />
    <path d="M44.0503 45.9315L44.0756 41.7392L44.2947 41.6879L44.2652 45.8802L44.0545 45.9315H44.0503Z" fill="black" />
    <path d="M45.5635 45.5554L45.5888 41.3631L45.8078 41.3118L45.7784 45.5041L45.5677 45.5554H45.5635Z" fill="black" />
    <path d="M47.0815 45.1837L47.1068 40.9913L47.3259 40.9358L47.2964 45.1281L47.0858 45.1794L47.0815 45.1837Z" fill="black" />
    <path d="M48.5933 44.8116L48.6185 40.6193L48.8376 40.568L48.8081 44.7603L48.5975 44.8116H48.5933Z" fill="black" />
    <path d="M50.1045 44.436L50.1298 40.2437L50.3489 40.1882L50.3194 44.3805L50.1087 44.4318L50.1045 44.436Z" fill="black" />
    <path d="M51.6177 44.0639L51.643 39.8716L51.862 39.816L51.8325 44.0083L51.6177 44.0596V44.0639Z" fill="black" />
    <path d="M53.1343 43.6921L53.1596 39.4998L53.3786 39.4485L53.3492 43.6409L53.1385 43.6921H53.1343Z" fill="black" />
    <path d="M54.647 43.3162L54.6723 39.1239L54.8913 39.0683L54.8619 43.2606L54.6512 43.3119L54.647 43.3162Z" fill="black" />
    <path d="M56.1602 42.9443L56.1854 38.752L56.4045 38.6964L56.375 42.8887L56.1602 42.94V42.9443Z" fill="black" />
    <path d="M57.6719 42.5726L57.6972 38.3803L57.9162 38.329L57.8867 42.5213L57.6761 42.5726H57.6719Z" fill="black" />
    <path d="M59.1899 42.1962L59.2152 38.0039L59.4343 37.9484L59.4048 42.1407L59.1899 42.192V42.1962Z" fill="black" />
    <path d="M60.7012 41.8246L60.7265 37.6323L60.9455 37.5767L60.916 41.769L60.7012 41.8203V41.8246Z" fill="black" />
    <path d="M62.2144 41.4485L62.2396 37.2562L62.4587 37.2049L62.4292 41.3972L62.2144 41.4485Z" fill="black" />
    <path d="M63.7275 41.0768L63.7528 36.8845L63.9719 36.8289L63.9424 41.0212L63.7275 41.0725V41.0768Z" fill="black" />
    <path d="M65.2437 40.7049L65.2689 36.5126L65.488 36.4613L65.4585 40.6536L65.2479 40.7049H65.2437Z" fill="black" />
    <path d="M66.7554 40.3288L66.7806 36.1365L66.9997 36.0809L66.9702 40.2732L66.7554 40.3245V40.3288Z" fill="black" />
    <path d="M68.2686 39.9568L68.2938 35.7645L68.5129 35.709L68.4834 39.9013L68.2686 39.9526V39.9568Z" fill="black" />
    <path d="M69.7817 39.5853L69.807 35.393L70.0261 35.3417L69.9966 39.534L69.786 39.5853H69.7817Z" fill="black" />
    <path d="M34.1005 49.551L30.7168 52.7004L30.8592 52.8578L34.243 49.7084L34.1005 49.551Z" fill="black" />
    <path d="M41.9974 52.5216L37.9526 51.107L38.02 50.9062L42.0648 52.3207L41.9974 52.5216Z" fill="black" />
    <path d="M19.7391 29.2308L20.6913 27.6282L20.843 27.7223L19.8908 29.3248L21.4623 30.2821L21.3654 30.4445L19.7939 29.4872L18.8417 31.0898L18.69 30.9958L19.6422 29.3932L18.0791 28.4402L18.176 28.2778L19.7391 29.2308Z" fill="black" />
    <path d="M26.4042 27.5769L27.3564 25.9743L27.508 26.0683L26.5558 27.6709L28.1274 28.6282L28.0305 28.7905L26.4589 27.8333L25.5067 29.4358L25.3551 29.3418L26.3073 27.7393L24.7441 26.7863L24.841 26.6239L26.4042 27.5769Z" fill="black" />
    <path d="M33.0707 25.9276L34.0229 24.325L34.1745 24.419L33.2223 26.0216L34.7939 26.9789L34.697 27.1413L33.1254 26.184L32.1732 27.7866L32.0216 27.6925L32.9738 26.09L31.4106 25.137L31.5075 24.9746L33.0707 25.9276Z" fill="black" />
    <path d="M39.7357 24.2779L40.6879 22.6754L40.8396 22.7694L39.8874 24.3719L41.4589 25.3292L41.362 25.4916L39.7905 24.5343L38.8383 26.1369L38.6866 26.0429L39.6388 24.4403L38.0757 23.4873L38.1726 23.3249L39.7357 24.2779Z" fill="black" />
    <path d="M46.4007 22.6237L47.3529 21.0211L47.5046 21.1151L46.5524 22.7177L48.124 23.675L48.0271 23.8374L46.4555 22.8801L45.5033 24.4827L45.3516 24.3886L46.3038 22.7861L44.7407 21.8331L44.8376 21.6707L46.4007 22.6237Z" fill="black" />
    <path d="M53.0658 20.974L54.018 19.3715L54.1697 19.4655L53.2175 21.068L54.789 22.0253L54.6921 22.1877L53.1206 21.2304L52.1684 22.833L52.0167 22.739L52.9689 21.1364L51.4058 20.1834L51.5027 20.021L53.0658 20.974Z" fill="black" />
    <path d="M59.7308 19.3248L60.683 17.7222L60.8347 17.8162L59.8825 19.4188L61.454 20.3761L61.3571 20.5385L59.7856 19.5812L58.8334 21.1838L58.6817 21.0897L59.6339 19.4872L58.0708 18.5342L58.1677 18.3718L59.7308 19.3248Z" fill="black" />
    <path d="M66.3959 17.671L67.3481 16.0684L67.4997 16.1624L66.5475 17.765L68.1191 18.7223L68.0222 18.8847L66.4506 17.9274L65.4984 19.53L65.3468 19.4359L66.299 17.8334L64.7358 16.8804L64.8327 16.718L66.3959 17.671Z" fill="black" />
    <path
      d="M75.4459 84.8718C74.224 84.5128 72.96 83.8889 71.6919 83.0171L71.9278 82.6624C73.1581 83.5128 74.3799 84.1154 75.5638 84.4615L75.4459 84.8718ZM83.312 83.0086L83.0297 82.6923C85.3807 80.5256 87.1882 76.7051 88.2541 71.6453L88.667 71.735C87.5842 76.8846 85.7304 80.7821 83.312 83.0128V83.0086ZM65.747 77.141C63.4507 74.1752 61.2851 70.5513 59.3007 66.3675L59.6799 66.1838C61.6475 70.3419 63.8004 73.9402 66.0756 76.8803L65.7428 77.1453L65.747 77.141ZM89.6993 63.3889L89.2779 63.3675C89.3369 62.188 89.3664 60.9658 89.3664 59.7308V59.188H89.7878V59.7308C89.7878 60.9701 89.7583 62.2051 89.6993 63.3889ZM56.0986 58.6154C55.6352 57.3248 55.1844 55.9829 54.763 54.6368L55.1633 54.5085C55.5846 55.8504 56.0312 57.1838 56.4947 58.4701L56.0986 58.6154ZM88.8945 50.8376C88.4732 46.7863 87.7822 42.6239 86.8343 38.4701L86.8216 38.4103L87.2345 38.3162L87.2472 38.3632C88.1994 42.5427 88.8945 46.7222 89.3159 50.7906L88.8988 50.8333L88.8945 50.8376ZM52.5764 46.5299V46.5C51.6242 42.3419 50.929 38.1709 50.5077 34.1111L50.9248 34.0684C51.3461 38.1111 52.0371 42.265 52.9808 46.4103L52.7828 46.4872L52.5764 46.5342V46.5299ZM84.6434 30.3419C84.222 29 83.7755 27.6667 83.312 26.3803L83.708 26.235C84.1715 27.5256 84.6223 28.8632 85.0478 30.2137L84.6476 30.3419H84.6434ZM50.0273 25.7222V25.1496C50.0273 23.9188 50.0568 22.6966 50.1158 21.5171L50.5371 21.5385C50.4782 22.7094 50.4487 23.9231 50.4487 25.1496V25.7179H50.0273V25.7222ZM80.1184 18.6709C78.1466 14.5128 75.9936 10.9145 73.7184 7.97863L74.0513 7.71368C76.3475 10.6752 78.5173 14.2991 80.5018 18.4872L80.1226 18.6709H80.1184ZM51.5525 13.2607L51.1396 13.1709C52.2224 8.02564 54.0678 4.12393 56.4778 1.88462L56.7601 2.20085C54.4133 4.37607 52.6143 8.20086 51.5483 13.2607H51.5525ZM67.862 2.20085C66.6275 1.3547 65.4057 0.752137 64.2218 0.410256L64.3355 0C65.5616 0.354701 66.8256 0.974359 68.0937 1.84615L67.8578 2.20085H67.862Z"
      fill="black" />
    <path
      d="M70.1388 87C69.6922 87 69.2287 86.9615 68.7695 86.8803H68.7484L68.8032 86.5641H68.82C69.8397 86.7393 70.8382 86.7137 71.7862 86.4914C73.9602 85.9786 75.8477 84.4658 77.4024 81.9829L77.4151 81.9658L77.6805 82.1367L77.6679 82.1538C76.0753 84.7094 74.1161 86.2692 71.8578 86.8034C71.2974 86.9316 70.7202 87 70.1388 87ZM64.8301 85.3419L64.8132 85.3333C64.236 84.9829 63.6462 84.5726 63.0605 84.1154L63.0437 84.1026L63.2375 83.8504L63.2543 83.8632C63.8274 84.312 64.4046 84.7137 64.9734 85.0555L64.986 85.0769V85.0855L64.8301 85.3419ZM59.9638 81.2179L59.9512 81.2008C57.8277 78.8803 55.7716 75.9487 53.8293 72.4872L53.8209 72.4701L54.0947 72.312L54.1032 72.3291C56.0328 75.7692 58.0763 78.6795 60.1829 80.9829L60.1955 81L59.9638 81.2179ZM79.5175 78.312L79.2226 78.1966V78.1795C79.4585 77.5555 79.6818 76.8803 79.884 76.1795L79.7871 76.1496H79.9304L80.2 76.235V76.2521C79.9894 76.9615 79.7618 77.6453 79.5259 78.2906L79.5175 78.312ZM81.148 72.094L80.8362 72.0385V72.0171C81.3924 68.8632 81.6747 65.3419 81.6747 61.5427V61.3889H81.9907V61.5427C81.9907 65.359 81.7084 68.9017 81.1522 72.0769V72.094H81.148ZM51.8702 68.7137L51.8617 68.6966C51.5626 68.0812 51.2592 67.4316 50.9559 66.7607L50.9475 66.7436L51.2382 66.6111L51.2466 66.6282C51.5415 67.2906 51.8449 67.9402 52.144 68.5555L52.1524 68.5769L51.8702 68.7137ZM49.3085 62.8419V62.8205C48.0445 59.6111 46.9196 56.1966 45.9632 52.6752V52.6538L46.2623 52.5684V52.5897C47.2187 56.0897 48.3395 59.4957 49.595 62.7051L49.6034 62.7222L49.3085 62.8419ZM81.5525 57.1667V57.1453C81.5146 56.4359 81.4682 55.7179 81.4134 55.0171V55L81.7252 54.9744V54.9914C81.78 55.6667 81.8263 56.3632 81.8685 57.1282V57.1496L81.5525 57.1667ZM80.9879 50.7949V50.7735C80.5582 47.3205 79.9388 43.7906 79.1383 40.2778C78.4684 37.3376 77.6763 34.4273 76.7831 31.6282V31.6111L77.078 31.5128V31.5299C77.9796 34.3291 78.7717 37.2479 79.4459 40.2051C80.2464 43.7222 80.8699 47.265 81.2997 50.735V50.7564L80.9879 50.7949ZM44.9267 48.547V48.5256H44.9394H44.9225C44.9057 48.4573 44.8888 48.3846 44.8719 48.3162C44.7287 47.6923 44.5939 47.0598 44.4633 46.4402V46.4188L44.7666 46.3547V46.3761C44.893 46.9573 45.0278 47.5684 45.1795 48.2436C45.1964 48.3162 45.2132 48.3846 45.2301 48.4573V48.4829H45.2132L44.9267 48.5513V48.547ZM43.6712 42.2521V42.2308C43.0645 38.6282 42.6558 35.0513 42.462 31.6068V31.5855L42.778 31.5684V31.5897C42.9718 35.0214 43.3762 38.5855 43.9787 42.1795V42.1966L43.6712 42.2521ZM75.4096 27.6197L75.4011 27.5983C75.1568 26.9316 74.8998 26.265 74.6428 25.6068L74.6343 25.5897L74.9293 25.4701L74.9377 25.4914C75.2073 26.1709 75.4601 26.8461 75.6961 27.4872L75.7045 27.5043L75.4096 27.6197ZM42.3314 27.3462V27.1496C42.3314 27.0897 42.3271 27.0299 42.3271 26.9701C42.3271 26.3932 42.3356 25.8077 42.3524 25.1838V25.1667H42.6684V25.1923C42.6516 25.7521 42.6474 26.3504 42.6474 26.9701V27.3462H42.3314ZM72.9912 21.7051L72.9827 21.688C71.4154 18.2222 69.7006 15.0897 67.8889 12.3761L67.8763 12.3632L68.1375 12.1838L68.1501 12.2008C69.966 14.9188 71.6893 18.0641 73.2734 21.5556L73.2819 21.5726L72.9912 21.7051ZM42.9002 20.9573L42.5842 20.9273V20.9103C42.9465 16.8889 43.6627 13.3632 44.7203 10.4316V10.4145L45.0236 10.5214L45.0152 10.5427C43.9661 13.4487 43.2583 16.9444 42.9002 20.9359V20.9573ZM65.3905 8.9829L65.3778 8.97008C64.9144 8.40598 64.4467 7.86752 63.9917 7.37179L63.979 7.35897L64.2065 7.14102L64.2192 7.15384C64.6953 7.66239 65.1629 8.20512 65.6222 8.76495L65.6348 8.77777L65.3905 8.9829ZM46.7932 6.73504L46.5235 6.5641L46.5362 6.547C46.9238 5.91025 47.3409 5.32051 47.7749 4.79487L47.7875 4.78205L48.0319 4.98717L48.0192 5.00427C47.5937 5.51709 47.185 6.08974 46.8058 6.71794L46.7932 6.73504ZM60.9118 4.53418L60.8949 4.52136C57.9583 2.2735 55.1186 1.4188 52.5358 2.02564C52.0977 2.1282 51.6679 2.2735 51.2592 2.45726H51.2382L51.116 2.17094L51.1328 2.16239C51.5584 1.97435 52.005 1.82051 52.4642 1.71367C55.1438 1.08974 58.0721 1.96153 61.0887 4.26495L61.1014 4.27777L60.9118 4.53418Z"
      fill="black" />
  </g>
  <defs>
    <clipPath id="clip0_2017_2279">
      <rect width="150" height="87" fill="white" />
    </clipPath>
  </defs>
</svg>