<svg width="136" height="85" viewBox="0 0 136 85" fill="none" xmlns="http://www.w3.org/2000/svg">
  <g clip-path="url(#clip0_2017_2394)">
    <path d="M7.91385 9.6667L9.38143 11.1269L8.99642 11.5099L7.52884 10.0498L6.05672 11.5144L5.64453 11.1043L7.11664 9.63966L5.64453 8.175L6.02955 7.79193L7.50166 9.25659L8.96924 7.79644L9.38143 8.20654L7.91385 9.6667Z" fill="black" />
    <path d="M14.6673 9.6667L16.1349 11.1269L15.7498 11.5099L14.2823 10.0498L12.8101 11.5144L12.3979 11.1043L13.8701 9.63966L12.3979 8.175L12.783 7.79193L14.2551 9.25659L15.7227 7.79644L16.1349 8.20654L14.6673 9.6667Z" fill="black" />
    <path d="M21.4178 9.6667L22.8853 11.1269L22.5003 11.5099L21.0327 10.0498L19.5606 11.5144L19.1484 11.1043L20.6206 9.63966L19.1484 8.175L19.5335 7.79193L21.0056 9.25659L22.4731 7.79644L22.8853 8.20654L21.4178 9.6667Z" fill="black" />
    <path d="M28.1712 9.6667L29.6388 11.1269L29.2537 11.5099L27.7862 10.0498L26.314 11.5144L25.9019 11.1043L27.374 9.63966L25.9019 8.175L26.2869 7.79193L27.759 9.25659L29.2266 7.79644L29.6388 8.20654L28.1712 9.6667Z" fill="black" />
    <path d="M34.9251 9.6667L36.3927 11.1269L36.0077 11.5099L34.5401 10.0498L33.068 11.5144L32.6558 11.1043L34.1279 9.63966L32.6558 8.175L33.0408 7.79193L34.5129 9.25659L35.9805 7.79644L36.3927 8.20654L34.9251 9.6667Z" fill="black" />
    <path d="M41.6717 9.6667L43.1392 11.1269L42.7542 11.5099L41.2867 10.0498L39.8145 11.5144L39.4023 11.1043L40.8745 9.63966L39.4023 8.175L39.7874 7.79193L41.2595 9.25659L42.7271 7.79644L43.1392 8.20654L41.6717 9.6667Z" fill="black" />
    <path d="M48.4251 9.6667L49.8927 11.1269L49.5077 11.5099L48.0401 10.0498L46.568 11.5144L46.1558 11.1043L47.6279 9.63966L46.1558 8.175L46.5408 7.79193L48.0129 9.25659L49.4805 7.79644L49.8927 8.20654L48.4251 9.6667Z" fill="black" />
    <path d="M55.1751 9.6667L56.6427 11.1269L56.2576 11.5099L54.7901 10.0498L53.318 11.5144L52.9058 11.1043L54.3779 9.63966L52.9058 8.175L53.2908 7.79193L54.7629 9.25659L56.2305 7.79644L56.6427 8.20654L55.1751 9.6667Z" fill="black" />
    <path d="M61.929 9.6667L63.3966 11.1269L63.0116 11.5099L61.544 10.0498L60.0719 11.5144L59.6597 11.1043L61.1318 9.63966L59.6597 8.175L60.0447 7.79193L61.5168 9.25659L62.9844 7.79644L63.3966 8.20654L61.929 9.6667Z" fill="black" />
    <path d="M68.679 9.6667L70.1466 11.1269L69.7616 11.5099L68.294 10.0498L66.8219 11.5144L66.4097 11.1043L67.8818 9.63966L66.4097 8.175L66.7947 7.79193L68.2668 9.25659L69.7344 7.79644L70.1466 8.20654L68.679 9.6667Z" fill="black" />
    <path d="M75.4309 9.6667L76.8985 11.1269L76.5135 11.5099L75.0459 10.0498L73.5738 11.5144L73.1616 11.1043L74.6337 9.63966L73.1616 8.175L73.5466 7.79193L75.0187 9.25659L76.4863 7.79644L76.8985 8.20654L75.4309 9.6667Z" fill="black" />
    <path d="M82.1809 9.6667L83.6485 11.1269L83.2635 11.5099L81.7959 10.0498L80.3238 11.5144L79.9116 11.1043L81.3837 9.63966L79.9116 8.175L80.2966 7.79193L81.7688 9.25659L83.2363 7.79644L83.6485 8.20654L82.1809 9.6667Z" fill="black" />
    <path d="M4.61054 26.9543L2.08826 28.8364L3.27552 27.3885L3.27554 27.3885L3.27854 27.3848C3.48002 27.1342 3.48002 26.7789 3.27854 26.5283L3.27856 26.5283L3.27572 26.5249L2.08273 25.068L4.61054 26.9543Z" stroke="#212121" />
    <path d="M9.20423 26.5245L8.01697 25.0766L10.5362 26.9565L8.01697 28.8363L9.20423 27.3884L9.20425 27.3884L9.20725 27.3847C9.40873 27.1341 9.40873 26.7788 9.20725 26.5282L9.20727 26.5282L9.20423 26.5245Z" stroke="#212121" />
    <path d="M15.1295 26.5245L13.9423 25.0766L16.4615 26.9565L13.9423 28.8363L15.1295 27.3884L15.1295 27.3884L15.1325 27.3847C15.334 27.1341 15.334 26.7788 15.1325 26.5282L15.1326 26.5282L15.1295 26.5245Z" stroke="#212121" />
    <path d="M21.0587 26.5246L19.8715 25.0767L22.3907 26.9566L19.8715 28.8365L21.0587 27.3885L21.0587 27.3885L21.0617 27.3848C21.2632 27.1342 21.2632 26.7789 21.0617 26.5283L21.0618 26.5283L21.0587 26.5246Z" stroke="#212121" />
    <path d="M26.984 26.5245L25.7968 25.0766L28.316 26.9565L25.7968 28.8363L26.984 27.3884L26.984 27.3884L26.987 27.3847C27.1885 27.1341 27.1885 26.7788 26.987 26.5282L26.9871 26.5282L26.984 26.5245Z" stroke="#212121" />
    <path d="M32.9127 26.5245L31.7255 25.0766L34.2447 26.9565L31.7255 28.8363L32.9127 27.3884L32.9127 27.3884L32.9158 27.3847C33.1172 27.1341 33.1172 26.7788 32.9158 26.5282L32.9158 26.5282L32.9127 26.5245Z" stroke="#212121" />
    <path d="M38.838 26.5245L37.6508 25.0766L40.17 26.9565L37.6508 28.8363L38.838 27.3884L38.838 27.3884L38.841 27.3847C39.0425 27.1341 39.0425 26.7788 38.841 26.5282L38.8411 26.5282L38.838 26.5245Z" stroke="#212121" />
    <path d="M43.578 25.0766L46.0973 26.9565L43.578 28.8363L44.7653 27.3884L44.7653 27.3884L44.7683 27.3847C44.9698 27.1341 44.9698 26.7788 44.7683 26.5282L44.7683 26.5282L44.7653 26.5245L43.578 25.0766Z" stroke="#212121" />
    <path d="M50.6906 26.5245L49.5033 25.0766L52.0226 26.9565L49.5033 28.8363L50.6906 27.3884L50.6906 27.3884L50.6936 27.3847C50.8951 27.1341 50.8951 26.7788 50.6936 26.5282L50.6936 26.5282L50.6906 26.5245Z" stroke="#212121" />
    <path d="M55.4325 25.0766L57.9518 26.9565L55.4325 28.8363L56.6198 27.3884L56.6198 27.3884L56.6228 27.3847C56.8243 27.1341 56.8243 26.7788 56.6228 26.5282L56.6228 26.5282L56.6198 26.5245L55.4325 25.0766Z" stroke="#212121" />
    <path d="M61.3593 25.0766L63.8785 26.9565L61.3593 28.8363L62.5465 27.3884L62.5465 27.3884L62.5495 27.3847C62.751 27.1341 62.751 26.7788 62.5495 26.5282L62.5496 26.5282L62.5465 26.5245L61.3593 25.0766Z" stroke="#212121" />
    <path d="M67.2865 25.0766L69.8058 26.9565L67.2865 28.8363L68.4738 27.3884L68.4738 27.3884L68.4768 27.3847C68.6783 27.1341 68.6783 26.7788 68.4768 26.5282L68.4768 26.5282L68.4738 26.5245L67.2865 25.0766Z" stroke="#212121" />
    <path d="M73.2118 25.0767L75.7311 26.9566L73.2118 28.8365L74.3991 27.3885L74.3991 27.3885L74.4021 27.3848C74.6036 27.1342 74.6036 26.7789 74.4021 26.5283L74.4021 26.5283L74.3991 26.5246L73.2118 25.0767Z" stroke="#212121" />
    <path d="M79.141 28.8365L80.3283 27.3885L80.3283 27.3885L80.3313 27.3848C80.5328 27.1342 80.5328 26.7789 80.3313 26.5283L80.3313 26.5283L80.3283 26.5246L79.141 25.0767L81.6603 26.9566L79.141 28.8365Z" stroke="#212121" />
    <path d="M85.0658 25.0767L87.5851 26.9566L85.0658 28.8365L86.2531 27.3885L86.2531 27.3885L86.2561 27.3848C86.4576 27.1342 86.4576 26.7789 86.2561 26.5283L86.2561 26.5283L86.2531 26.5246L85.0658 25.0767Z" stroke="#212121" />
    <path d="M90.995 28.8363L92.1823 27.3884L92.1823 27.3884L92.1853 27.3847C92.3868 27.1341 92.3868 26.7788 92.1853 26.5282L92.1853 26.5282L92.1823 26.5245L90.995 25.0766L93.5143 26.9565L90.995 28.8363Z" stroke="#212121" />
    <path d="M96.9183 28.8363L98.1056 27.3884L98.1056 27.3884L98.1086 27.3847C98.3101 27.1341 98.3101 26.7788 98.1086 26.5282L98.1086 26.5282L98.1056 26.5245L96.9183 25.0766L99.4376 26.9565L96.9183 28.8363Z" stroke="#212121" />
    <path d="M102.849 28.8363L104.036 27.3884L104.036 27.3884L104.039 27.3847C104.241 27.1341 104.241 26.7788 104.039 26.5282L104.039 26.5282L104.036 26.5245L102.849 25.0766L105.368 26.9565L102.849 28.8363Z" stroke="#212121" />
    <path d="M108.691 25.0766L111.211 26.9565L108.691 28.8363L109.879 27.3884L109.879 27.3884L109.882 27.3847C110.083 27.1341 110.083 26.7788 109.882 26.5282L109.882 26.5282L109.879 26.5245L108.691 25.0766Z" stroke="#212121" />
    <path d="M114.617 25.0767L117.136 26.9566L114.617 28.8365L115.804 27.3885L115.804 27.3885L115.807 27.3848C116.008 27.1342 116.008 26.7789 115.807 26.5283L115.807 26.5283L115.804 26.5246L114.617 25.0767Z" stroke="#212121" />
    <path d="M120.546 25.0766L123.065 26.9565L120.546 28.8363L121.733 27.3884L121.733 27.3884L121.736 27.3847C121.938 27.1341 121.938 26.7788 121.736 26.5282L121.736 26.5282L121.733 26.5245L120.546 25.0766Z" stroke="#212121" />
    <path d="M126.469 25.0766L128.988 26.9565L126.469 28.8363L127.656 27.3884L127.656 27.3884L127.659 27.3847C127.861 27.1341 127.861 26.7788 127.659 26.5282L127.659 26.5282L127.656 26.5245L126.469 25.0766Z" stroke="#212121" />
    <path d="M132.4 25.0766L134.919 26.9565L132.4 28.8363L133.587 27.3884L133.587 27.3884L133.59 27.3847C133.792 27.1341 133.792 26.7788 133.59 26.5282L133.59 26.5282L133.587 26.5245L132.4 25.0766Z" stroke="#212121" />
    <path d="M130.084 14.8729H27.0342V14.9995H130.084V14.8729Z" fill="black" />
    <path d="M130.002 15.4984C130.377 15.4984 130.682 15.1958 130.682 14.8224C130.682 14.4491 130.377 14.1464 130.002 14.1464C129.627 14.1464 129.323 14.4491 129.323 14.8224C129.323 15.1958 129.627 15.4984 130.002 15.4984Z" fill="black" />
    <path d="M109.092 17.0881H15.2666V17.1514H109.092V17.0881Z" fill="black" />
    <path d="M15.2515 17.2651C15.369 17.2651 15.4644 17.1702 15.4644 17.0532C15.4644 16.9363 15.369 16.8414 15.2515 16.8414C15.1339 16.8414 15.0386 16.9363 15.0386 17.0532C15.0386 17.1702 15.1339 17.2651 15.2515 17.2651Z" fill="black" />
    <path d="M109.17 17.2649C109.288 17.2649 109.383 17.1701 109.383 17.0531C109.383 16.9361 109.288 16.8413 109.17 16.8413C109.053 16.8413 108.958 16.9361 108.958 17.0531C108.958 17.1701 109.053 17.2649 109.17 17.2649Z" fill="black" />
    <path d="M109.171 17.2921C109.04 17.2921 108.931 17.1839 108.931 17.0532C108.931 16.9226 109.04 16.8144 109.171 16.8144C109.303 16.8144 109.411 16.9226 109.411 17.0532C109.411 17.1839 109.303 17.2921 109.171 17.2921C109.303 17.2921 109.04 17.2921 109.171 17.2921ZM109.171 16.8685C109.072 16.8685 108.986 16.9496 108.986 17.0532C108.986 17.1569 109.067 17.238 109.171 17.238C109.275 17.238 109.357 17.1569 109.357 17.0532C109.357 16.9496 109.275 16.8685 109.171 16.8685C109.271 16.8685 109.067 16.8685 109.171 16.8685Z" fill="black" />
    <path d="M117.361 19.3032H23.5352V19.4297H117.361V19.3032Z" fill="black" />
    <path d="M117.297 20.3522C117.768 20.3522 118.149 19.9728 118.149 19.5049C118.149 19.037 117.768 18.6577 117.297 18.6577C116.827 18.6577 116.446 19.037 116.446 19.5049C116.446 19.9728 116.827 20.3522 117.297 20.3522Z" fill="black" />
    <path d="M117.297 20.4648C116.767 20.4648 116.333 20.0322 116.333 19.5049C116.333 18.9776 116.767 18.545 117.297 18.545C117.827 18.545 118.262 18.9776 118.262 19.5049C118.262 20.0322 117.827 20.4648 117.297 20.4648C117.827 20.4648 116.767 20.4648 117.297 20.4648ZM117.297 18.7703C116.89 18.7703 116.559 19.0993 116.559 19.5049C116.559 19.9105 116.89 20.2395 117.297 20.2395C117.705 20.2395 118.036 19.9105 118.036 19.5049C118.036 19.0993 117.705 18.7703 117.297 18.7703C117.705 18.7703 116.89 18.7703 117.297 18.7703Z" fill="black" />
    <path d="M23.549 19.6309L21.5786 17.1207L21.7553 16.9855L23.7256 19.4912L23.549 19.6309Z" fill="black" />
    <path d="M88.7395 77.3478C96.707 71.0159 101.871 61.2996 101.943 50.4746C101.807 31.5241 86.0988 15.9852 67.0338 15.9852C47.9688 15.9852 32.2466 31.5331 32.1152 50.4746C32.1922 61.3897 37.442 71.1827 45.5273 77.5145" stroke="black" stroke-width="0.712078" stroke-miterlimit="10" />
    <path d="M34.7924 77.5504C28.2563 71.0473 25.3392 64.0801 24.3472 61.4572C23.2329 58.5188 21.4302 52.8314 21.4302 45.4721C21.4302 41.6955 21.8922 38.0361 22.7664 34.5344C27.681 14.7637 45.6227 0.11261 67.0204 0.11261C88.4181 0.11261 106.337 14.7502 111.261 34.5074C112.14 38.0181 112.602 41.691 112.602 45.4721C112.602 51.1144 111.569 56.5224 109.666 61.5113C108.652 64.1747 105.803 70.9257 99.4884 77.3026" stroke="black" stroke-width="0.712078" stroke-miterlimit="10" />
    <path
      d="M39.6839 27.3104C39.462 27.5763 39.2446 27.7205 39.0271 27.7476C38.8097 27.7746 38.5742 27.6845 38.3251 27.4817L37.8902 27.1211C37.6909 26.9589 37.5143 26.8823 37.3603 26.8913C37.2063 26.9003 37.0568 26.9949 36.9118 27.1707L36.5857 26.9003C36.7306 26.7245 36.7941 26.5623 36.7714 26.4091C36.7488 26.2558 36.6401 26.0981 36.4453 25.9359L35.9969 25.5663C35.7477 25.3635 35.6164 25.1517 35.6028 24.9309C35.5892 24.7101 35.6888 24.4712 35.9108 24.2053L36.2369 24.4757C36.1101 24.6289 36.0512 24.7687 36.0603 24.8948C36.0693 25.021 36.1509 25.1472 36.3049 25.2734L36.7533 25.6429C36.939 25.7962 37.0613 25.9494 37.1157 26.0981C37.17 26.2468 37.1655 26.4091 37.0975 26.5848L37.1247 26.6074C37.2923 26.5082 37.4509 26.4722 37.6094 26.4992C37.7634 26.5217 37.9355 26.6119 38.1258 26.7696L38.5606 27.1301C38.7146 27.2563 38.855 27.3149 38.9818 27.3014C39.1087 27.2879 39.2355 27.2068 39.3623 27.049L39.6885 27.3194L39.6839 27.3104Z"
      fill="black" />
    <path d="M38.2666 24.8992L39.4262 23.6779L39.7342 23.9663L38.5746 25.1876L38.2666 24.8992Z" fill="black" />
    <path d="M39.2585 21.6905C39.0275 21.4427 38.9732 21.1497 39.1 20.8162L39.3265 20.8929C39.2766 21.0235 39.2585 21.1407 39.2721 21.2399C39.2857 21.3435 39.3401 21.4382 39.4261 21.5373L39.639 21.3435L39.9878 21.7221L39.6073 22.0691L39.254 21.6905H39.2585ZM39.7975 21.1993C39.5665 20.9514 39.5122 20.6585 39.639 20.325L39.8655 20.4016C39.8157 20.5323 39.7975 20.6495 39.8111 20.7486C39.8247 20.8523 39.8791 20.9469 39.9651 21.0461L40.178 20.8523L40.5313 21.2309L40.1508 21.5779L39.8021 21.1993H39.7975Z" fill="black" />
    <path d="M41.5588 20.1358C41.6176 20.0096 41.6448 19.8925 41.6358 19.7933C41.6267 19.6897 41.5814 19.5905 41.4999 19.4869L41.2734 19.6671L40.9473 19.266L41.3504 18.9461L41.672 19.3472C41.8849 19.6131 41.9166 19.906 41.7671 20.2305L41.5497 20.1403L41.5588 20.1358ZM42.1295 19.6807C42.1884 19.5545 42.2155 19.4373 42.2065 19.3381C42.1974 19.2345 42.1521 19.1353 42.0706 19.0317L41.8441 19.212L41.518 18.8109L41.9211 18.4864L42.2473 18.8875C42.4601 19.1534 42.4919 19.4463 42.3424 19.7708L42.125 19.6807H42.1295Z" fill="black" />
    <path d="M44.3174 19.487L45.7034 18.527L45.948 18.8741L44.562 19.834L44.3174 19.487Z" fill="black" />
    <path d="M48.8888 16.4585L46.7508 17.6753L46.5425 17.3148L48.6804 16.098L48.8888 16.4585ZM49.4912 17.504L47.3533 18.7208L47.1449 18.3603L49.2829 17.1435L49.4912 17.504Z" fill="black" />
    <path d="M50.1562 15.9987L51.6918 15.2957L51.8684 15.6787L50.3329 16.3818L50.1562 15.9987Z" fill="black" />
    <path d="M54.292 14.3132L55.2342 13.9752L55.3746 14.3673L54.4324 14.7053L54.7767 15.6652L54.3509 15.8184L54.0067 14.8585L53.0555 15.1965L52.915 14.8044L53.8663 14.4664L53.5265 13.5155L53.9523 13.3623L54.292 14.3132Z" fill="black" />
    <path d="M55.882 11.8526L55.7778 11.465L56.9691 11.1495L58.2238 15.868L57.0325 16.179L56.9283 15.7914L57.6803 15.5931L56.6339 11.6498L55.882 11.8481V11.8526Z" fill="black" />
    <path d="M61.5931 12.3394L59.1652 12.763L59.0928 12.3529L61.5206 11.9293L61.5931 12.3394ZM61.8015 13.5246L59.3736 13.9482L59.3011 13.5381L61.729 13.119L61.8015 13.5291V13.5246Z" fill="black" />
    <path d="M62.9706 11.154C63.0929 11.0819 63.179 11.0008 63.2288 10.9107C63.2786 10.8205 63.3013 10.7124 63.2877 10.5817L63.0023 10.6042L62.957 10.0905L63.4734 10.0454L63.5187 10.5592C63.5459 10.8972 63.41 11.1585 63.1065 11.3433L62.9751 11.1495L62.9706 11.154ZM63.6999 11.0909C63.8222 11.0188 63.9082 10.9377 63.9581 10.8476C64.0079 10.7574 64.0305 10.6493 64.017 10.5186L63.7271 10.5411L63.6818 10.0274L64.1981 9.9823L64.2434 10.4961C64.2706 10.8341 64.1347 11.0954 63.8312 11.2802L63.6999 11.0864V11.0909Z" fill="black" />
    <path d="M67.3823 12.1589L68.3833 12.177V12.5961L67.3732 12.5781L67.3551 13.5966L66.9021 13.5876L66.9203 12.5691L65.9102 12.551L65.9192 12.1319L66.9293 12.1499L66.9474 11.1404L67.4004 11.1495L67.3823 12.1589Z" fill="black" />
    <path d="M71.3854 12.4023L72.3819 12.5104L72.3366 12.925L71.3401 12.8169L71.2314 13.8309L70.783 13.7813L70.8917 12.7673L69.8906 12.6592L69.9359 12.2445L70.937 12.3527L71.0457 11.3477L71.4941 11.3973L71.3854 12.3978V12.4023Z" fill="black" />
    <path d="M75.3714 13.0693L76.3498 13.2811L76.2592 13.6912L75.2808 13.4794L75.0634 14.4754L74.6195 14.3808L74.8369 13.3848L73.854 13.173L73.9446 12.7629L74.9275 12.9747L75.1404 11.9877L75.5843 12.0824L75.3714 13.0693Z" fill="black" />
    <path d="M48.1047 79.3532C47.2169 78.7764 46.3562 78.1635 45.5273 77.5145C37.442 71.1827 32.1922 61.3897 32.1152 50.4746C32.2466 31.5331 47.9552 15.9852 67.0338 15.9852C86.1124 15.9852 101.807 31.5241 101.943 50.4746C101.871 61.2996 96.707 71.0159 88.7395 77.3478C87.8472 78.0643 86.9186 78.7313 85.9584 79.3532" stroke="black" stroke-width="0.356039" stroke-miterlimit="10" />
    <path d="M24.3563 61.4619C23.4776 62.0117 22.4403 62.3272 21.3306 62.3272C18.1689 62.3272 15.5825 59.7539 15.5825 56.6127V40.0643C15.5825 36.9186 18.1689 34.3453 21.3306 34.3453C21.8288 34.3453 22.3135 34.4084 22.7755 34.5346C21.9058 38.0363 21.4393 41.7002 21.4393 45.4723C21.4393 51.0966 22.4675 56.4865 24.3563 61.4574V61.4619Z" stroke="black" stroke-width="0.712078" stroke-miterlimit="10" stroke-dasharray="4 4" />
    <path d="M118.363 40.0641V56.6125C118.363 59.7492 115.777 62.327 112.615 62.327C111.546 62.327 110.536 62.0295 109.68 61.5158C111.582 56.5269 112.615 51.1189 112.615 45.4721C112.615 41.691 112.153 38.0181 111.274 34.5074C111.704 34.3992 112.153 34.3452 112.615 34.3452C114.196 34.3452 115.632 34.9896 116.673 36.0261C117.715 37.0627 118.363 38.4913 118.363 40.0641Z" stroke="black" stroke-width="0.712078" stroke-miterlimit="10" stroke-dasharray="4 4" />
    <path d="M36.8811 56.0087C36.5188 54.1655 36.324 52.2727 36.3149 50.3844H36.5414C36.555 52.2547 36.7453 54.1339 37.1076 55.9636L36.8857 56.0087H36.8811Z" fill="black" />
    <path d="M38.8552 61.7232H38.7374L38.8416 61.6691L38.8552 61.7232ZM37.6956 59.1905C37.6413 59.0147 37.5869 58.8435 37.5371 58.6677L37.7545 58.6046C37.8044 58.7804 37.8587 58.9516 37.9131 59.1274L37.6956 59.195V59.1905Z" fill="black" />
    <path d="M45.9536 72.3137L45.9355 72.3002L45.9083 72.2731L46.0125 72.1965L46.0578 72.1109L46.0215 72.1875L46.0759 72.1199L46.017 72.201L46.1031 72.1424L46.017 72.2055L45.9627 72.3092L45.9536 72.3137ZM44.0149 70.3217C43.8926 70.1866 43.7749 70.0468 43.6526 69.9071L43.8247 69.7629C43.9425 69.9026 44.0602 70.0378 44.1825 70.173L44.0104 70.3217H44.0149ZM41.963 67.7485C40.6313 65.8827 39.5125 63.8682 38.6338 61.7681L38.8421 61.6825C39.7118 63.7646 40.8261 65.761 42.1442 67.6178L41.9585 67.7485H41.963Z" fill="black" />
    <path d="M50.3788 75.7928C48.798 74.7698 47.2987 73.5891 45.9263 72.2911L46.0803 72.1289C47.4437 73.4178 48.9294 74.585 50.5011 75.6035L50.3788 75.7928Z" fill="black" />
    <path d="M97.5193 50.3889C97.5057 48.5141 97.3155 46.6394 96.9531 44.8097L97.1751 44.7646C97.5374 46.6078 97.7322 48.5006 97.7458 50.3844H97.5193V50.3889Z" fill="black" />
    <path d="M95.9245 40.9655C95.8385 40.7131 95.7479 40.4653 95.6573 40.2174L95.8702 40.1408C95.9653 40.3932 96.0514 40.641 96.1374 40.8979L95.9245 40.97V40.9655ZM94.0493 36.6121L94.1127 36.549L94.0357 36.5986L94.1308 36.5355H94.1263H94.1354L94.1218 36.5445L94.0538 36.6121H94.0493ZM94.2441 36.5355H94.1308L94.2214 36.4769L94.2441 36.5355ZM94.1535 36.5129L94.2124 36.4543L94.2214 36.4769L94.1535 36.5129Z" fill="black" />
    <path
      d="M37.1038 44.8096L36.8818 44.7646L37.0676 44.7826L37.0087 44.7646H36.8818V44.724L36.9951 44.7601H37.1083H37.0087L37.1083 44.7826V44.8096H37.1038ZM38.1411 40.9429L37.9282 40.8708C38.0142 40.6185 38.1048 40.3661 38.1954 40.1182L38.4083 40.1948C38.3177 40.4427 38.2271 40.6906 38.1411 40.9429ZM94.027 36.5805C92.4688 33.6422 90.4487 30.9877 88.0253 28.6848L88.1839 28.5226C90.6298 30.8435 92.6636 33.5205 94.2309 36.4768L94.0316 36.5805H94.027ZM40.0344 36.567L39.8351 36.4633C41.4024 33.507 43.4407 30.83 45.8866 28.5136L45.9591 28.5902L45.8912 28.5091L46.0452 28.6713H46.0406V28.6758C43.6128 30.9787 41.5926 33.6331 40.0344 36.5715V36.567ZM84.9588 26.1296C84.7459 25.9718 84.5285 25.8186 84.3065 25.6699L84.4379 25.4851C84.6599 25.6383 84.8773 25.7916 85.0947 25.9493L84.9633 26.1296H84.9588ZM49.1026 26.1206L48.9713 25.9403C49.1887 25.7826 49.4061 25.6293 49.6281 25.4761L49.7594 25.6609C49.542 25.8141 49.3246 25.9673 49.1072 26.1251L49.1026 26.1206ZM80.8867 23.6194L80.9501 23.4887L80.8867 23.6149C77.9062 22.0826 74.7174 21.0596 71.4154 20.5819L71.4471 20.3565C74.7718 20.8433 77.9832 21.8708 80.9864 23.4121L80.8867 23.6149V23.6194ZM53.1793 23.6103L53.0751 23.4121C56.0782 21.8708 59.2897 20.8433 62.6189 20.361L62.6597 20.5819L62.6416 20.4737L62.6597 20.5864C59.3576 21.0686 56.1733 22.0871 53.1883 23.6149L53.1793 23.6103ZM67.4339 20.2664C67.1666 20.2664 66.8994 20.2664 66.6321 20.2664V20.0411C66.8994 20.0411 67.1666 20.0411 67.4339 20.0411V20.2664Z"
      fill="black" />
    <path d="M36.5414 50.3889H36.3149C36.3285 48.5006 36.5188 46.6078 36.8811 44.7646L37.1031 44.8097C36.7407 46.6394 36.5505 48.5186 36.5414 50.3889Z" fill="black" />
    <path d="M83.6809 75.7929L83.5586 75.6037C85.1304 74.5852 86.6161 73.4179 87.9795 72.129L88.1335 72.2913C86.761 73.5892 85.2617 74.7654 83.6809 75.7929Z" fill="black" />
    <path d="M90.0447 70.3218L89.8726 70.1731C89.9949 70.0379 90.1126 69.8982 90.2304 69.763L90.4025 69.9072C90.2847 70.0469 90.1624 70.1821 90.0402 70.3218H90.0447ZM92.0196 67.708L91.9833 67.6809H91.8882L91.9199 67.6314L91.9063 67.6223L91.9245 67.6043L91.9335 67.6133L91.9516 67.5818L92.0015 67.6854L92.015 67.7125L92.0196 67.708Z" fill="black" />
    <path d="M92.0983 67.7439L91.9126 67.6132C93.2352 65.761 94.345 63.7646 95.2147 61.678L95.423 61.7636C94.5443 63.8637 93.4255 65.8737 92.0938 67.7394L92.0983 67.7439ZM96.3652 59.1903L96.1478 59.1227C96.2021 58.9515 96.2565 58.7757 96.3063 58.6044L96.5237 58.6675C96.4694 58.8433 96.4195 59.0191 96.3652 59.1903ZM97.1488 56.0627L97.0718 55.9861H96.954L96.9676 55.932H96.9767L96.9903 55.9005L97.0718 55.9816H97.185H97.0763L97.1533 56.0582L97.1488 56.0627Z" fill="black" />
    <path d="M97.1746 56.0087L96.9526 55.9636C97.315 54.1339 97.5052 52.2547 97.5143 50.3844H97.7408C97.7272 52.2727 97.537 54.1655 97.1746 56.0087Z" fill="black" />
    <path d="M18.1821 44.3409V52.3357" stroke="black" stroke-width="0.712078" stroke-miterlimit="10" />
    <path d="M15.5845 44.3409V52.3357" stroke="black" stroke-width="0.712078" stroke-miterlimit="10" />
    <path d="M115.768 44.3409V52.3357" stroke="black" stroke-width="0.712078" stroke-miterlimit="10" />
    <path d="M118.362 44.3409V52.3357" stroke="black" stroke-width="0.712078" stroke-miterlimit="10" />
    <path d="M72.9626 74.878C72.881 74.5625 72.9716 74.2921 73.2343 74.0713L73.3883 74.238C73.2842 74.3237 73.2162 74.4138 73.18 74.5084C73.1437 74.6031 73.1437 74.7067 73.1755 74.8284L73.4427 74.7608L73.565 75.2385L73.0849 75.3602L72.9626 74.8825V74.878Z" fill="black" />
    <path d="M74.832 75.9099L76.363 75.3961L76.4944 75.7792L74.9634 76.2929L74.832 75.9099Z" fill="black" />
    <path d="M78.6384 74.4542L79.5081 74.0486L79.6802 74.4091L78.8105 74.8147L79.2272 75.698L78.8332 75.8828L78.4164 74.9995L77.5422 75.4096L77.3701 75.0491L78.2443 74.639L77.8321 73.7647L78.2217 73.5799L78.6339 74.4542H78.6384Z" fill="black" />
    <path d="M82.4986 72.0252L80.5192 73.2961L80.3018 72.9626L82.2812 71.6917L82.4986 72.0297V72.0252ZM83.1282 72.9941L81.1488 74.265L80.9314 73.927L82.9108 72.6561L83.1282 72.9941Z" fill="black" />
    <path d="M85.283 69.7629L83.4893 71.2862L83.2266 70.9842L85.0203 69.461L85.283 69.7629ZM86.0349 70.6372L84.2412 72.1605L83.9785 71.8585L85.7722 70.3353L86.0349 70.6372Z" fill="black" />
    <path d="M85.4012 68.2442C85.442 68.1181 85.4556 68.0054 85.433 67.9062C85.4103 67.8116 85.356 67.717 85.2654 67.6313L85.0751 67.8296L84.7173 67.4871L85.0615 67.1311L85.4194 67.4736C85.6549 67.6989 85.7229 67.9738 85.6232 68.2983L85.4058 68.2397L85.4012 68.2442Z" fill="black" />
    <path d="M88.3275 66.6578L88.9209 65.9052L89.238 66.1531L88.6446 66.9057L89.4146 67.5096L89.1474 67.8476L88.3774 67.2437L87.7795 67.9963L87.4624 67.7484L88.0603 66.9958L87.2993 66.4009L87.5666 66.0629L88.3275 66.6578Z" fill="black" />
    <path d="M36.7584 79.272L32.2832 83.7291" stroke="black" stroke-width="0.712078" stroke-miterlimit="10" />
    <path d="M49.0242 82.0707L46.2158 84.8693" stroke="black" stroke-width="0.712078" stroke-miterlimit="10" />
    <path d="M67.0281 80.9666L63.1055 84.8694" stroke="black" stroke-width="0.712078" stroke-miterlimit="10" />
    <path d="M57.9047 79.2764C67.9287 79.2764 88.7693 79.2764 98.7932 79.2764C100.442 79.5964 101.606 80.8267 101.606 82.0841C101.606 82.8547 101.294 83.5623 100.782 84.0625C100.27 84.5763 99.5633 84.8872 98.7932 84.8872H34.5819C33.0373 84.8872 31.769 83.6254 31.769 82.0796C31.769 81.3089 32.0906 80.6104 32.5934 80.1011C33.1053 79.5919 33.8074 79.2764 34.5819 79.2764C42.8801 79.2764 43.5278 79.2764 51.8306 79.2764" stroke="black" stroke-width="0.712078" stroke-miterlimit="10" />
    <mask id="mask0_2017_2394" style="mask-type:luminance" maskUnits="userSpaceOnUse" x="32" y="15" width="70" height="65">
      <path d="M48.1047 79.3532C47.2169 78.7764 46.3562 78.1635 45.5273 77.5145C37.442 71.1827 32.1922 61.3897 32.1152 50.4746C32.2466 31.5331 47.9552 15.9852 67.0338 15.9852C86.1124 15.9852 101.807 31.5241 101.943 50.4746C101.871 61.2996 96.707 71.0159 88.7395 77.3478C87.8472 78.0643 86.9186 78.7313 85.9584 79.3532" fill="white" />
    </mask>
    <g mask="url(#mask0_2017_2394)">
      <path d="M60.4814 55.8128H62.5462V56.0097H60.4814V58.0363H60.2744V56.0097H58.2065V55.8128H60.2744V53.7955H60.4814V55.8128Z" fill="black" />
      <path d="M67.3657 55.8128H69.4304V56.0097H67.3657V58.0363H67.1586V56.0097H65.0908V55.8128H67.1586V53.7955H67.3657V55.8128Z" fill="black" />
      <path d="M74.25 55.8128H76.3147V56.0097H74.25V58.0363H74.0429V56.0097H71.9751V55.8128H74.0429V53.7955H74.25V55.8128Z" fill="black" />
      <path d="M81.1328 55.8128H83.1975V56.0097H81.1328V58.0363H80.9257V56.0097H78.8579V55.8128H80.9257V53.7955H81.1328V55.8128Z" fill="black" />
      <path d="M94.9014 55.8128H96.9661V56.0097H94.9014V58.0363H94.6943V56.0097H92.6265V55.8128H94.6943V53.7955H94.9014V55.8128Z" fill="black" />
      <path d="M88.0171 55.8128H90.0818V56.0097H88.0171V58.0363H87.81V56.0097H85.7422V55.8128H87.81V53.7955H88.0171V55.8128Z" fill="black" />
      <path d="M70.7957 42.6106H48.7275V42.7233H70.7957V42.6106Z" fill="black" />
      <path d="M45.9182 42.6104H23.8501V42.7231H45.9182V42.6104Z" fill="black" />
      <path d="M71.9809 43.2008C72.2786 43.2008 72.5199 42.9607 72.5199 42.6645C72.5199 42.3683 72.2786 42.1282 71.9809 42.1282C71.6832 42.1282 71.4419 42.3683 71.4419 42.6645C71.4419 42.9607 71.6832 43.2008 71.9809 43.2008Z" fill="black" />
      <path d="M47.3134 43.2008C47.6111 43.2008 47.8525 42.9607 47.8525 42.6645C47.8525 42.3683 47.6111 42.1282 47.3134 42.1282C47.0157 42.1282 46.7744 42.3683 46.7744 42.6645C46.7744 42.9607 47.0157 43.2008 47.3134 43.2008Z" fill="black" />
      <path d="M85.1036 44.7827H21.1143V44.8953H85.1036V44.7827Z" fill="black" />
      <path d="M85.6117 44.5076L85.041 44.8411L85.6117 45.1791V44.5076Z" fill="black" />
      <path d="M78.8801 47.0721H69.8209V46.9594H78.8801V47.0721ZM65.2913 47.0721H56.2322V46.9594H65.2913V47.0721ZM51.7026 47.0721H42.6434V46.9594H51.7026V47.0721ZM38.1138 47.0721H29.0547V46.9594H38.1138V47.0721Z" fill="black" />
    </g>
    <ellipse cx="90.9626" cy="6.96171" rx="0.318054" ry="0.316444" fill="#DADADA" />
    <ellipse cx="28.3996" cy="70.0093" rx="0.318054" ry="0.316444" fill="#DADADA" />
  </g>
  <defs>
    <clipPath id="clip0_2017_2394">
      <rect width="135.638" height="85" fill="white" />
    </clipPath>
  </defs>
</svg>