<svg width="20" height="20" viewBox="0 0 20 20" fill="none" xmlns="http://www.w3.org/2000/svg">
<g id="Group">
<g id="Layer_23">
<path id="Shape" fill-rule="evenodd" clip-rule="evenodd" d="M3 0H17C18.6569 0 20 1.34315 20 3V17C20 18.6569 18.6569 20 17 20H3C1.34315 20 0 18.6569 0 17V3C0 1.34315 1.34315 0 3 0ZM10.7096 12.7205L14.7096 8.72047C14.9633 8.4686 15.0633 8.10053 14.972 7.75492C14.8807 7.40931 14.6119 7.13866 14.267 7.04492C13.922 6.95118 13.5533 7.0486 13.2996 7.30047L9.99961 10.5805L6.70961 7.30047C6.45774 7.04681 6.08967 6.94679 5.74406 7.03809C5.39845 7.12939 5.1278 7.39813 5.03406 7.74309C4.94032 8.08805 5.03774 8.45681 5.28961 8.71047L9.28961 12.7105C9.47833 12.8977 9.73381 13.002 9.99961 13.0005C10.264 13.0047 10.5193 12.904 10.7096 12.7205Z" fill="#0B0B0B"/>
</g>
</g>
</svg>
