<svg width="20" height="20" viewBox="0 0 20 20" fill="none" xmlns="http://www.w3.org/2000/svg">
<g id="Group">
<g id="Layer_21">
<path id="Shape" fill-rule="evenodd" clip-rule="evenodd" d="M3 0H17C18.6569 0 20 1.34315 20 3V17C20 18.6569 18.6569 20 17 20H3C1.34315 20 0 18.6569 0 17V3C0 1.34315 1.34315 0 3 0ZM13.9997 13.0001C14.2649 12.9937 14.5168 12.8821 14.6997 12.6901C15.0875 12.3 15.0875 11.6701 14.6997 11.2801L10.6997 7.28005C10.3097 6.89233 9.67976 6.89233 9.28973 7.28005L5.28973 11.2801C5.03607 11.5319 4.93605 11.9 5.02735 12.2456C5.11865 12.5912 5.38739 12.8619 5.73235 12.9556C6.0773 13.0493 6.44607 12.9519 6.69973 12.7001L9.99973 9.42005L13.2997 12.7101C13.486 12.8948 13.7374 12.9989 13.9997 13.0001Z" fill="#0B0B0B"/>
</g>
</g>
</svg>
