<svg width="20" height="20" viewBox="0 0 20 20" fill="none" xmlns="http://www.w3.org/2000/svg">
<g id="Group">
<g id="Layer_23">
<path id="Shape" fill-rule="evenodd" clip-rule="evenodd" d="M20 3V17C20 18.6569 18.6569 20 17 20H3C1.34315 20 0 18.6569 0 17V3C0 1.34315 1.34315 0 3 0H17C18.6569 0 20 1.34315 20 3ZM14.7196 7.31045C15.1073 7.70048 15.1073 8.33041 14.7196 8.72045L10.7196 12.7204C10.5268 12.9065 10.2674 13.0073 9.99959 13.0004C9.73378 13.002 9.4783 12.8976 9.28959 12.7104L5.28959 8.71045C4.90023 8.31832 4.90246 7.68481 5.29459 7.29545C5.68671 6.90608 6.32023 6.90832 6.70959 7.30045L9.99959 10.5804L13.2996 7.30045C13.4887 7.11245 13.745 7.00776 14.0117 7.00964C14.2783 7.01151 14.5332 7.1198 14.7196 7.31045ZM17 2C17.5523 2 18 2.44772 18 3V17C18 17.5523 17.5523 18 17 18H3C2.44772 18 2 17.5523 2 17V3C2 2.44772 2.44772 2 3 2H17Z" fill="#0B0B0B"/>
</g>
</g>
</svg>
