<svg width="64" height="64" viewBox="0 0 64 64" fill="none" xmlns="http://www.w3.org/2000/svg">
<path d="M30.3278 60.4911C14.6835 59.6582 2.67632 46.3008 3.50914 30.6565M33.3438 3.83775C48.9881 4.67057 60.9953 18.028 60.1625 33.6724" stroke="black" stroke-linecap="round" stroke-linejoin="round" stroke-dasharray="6 6"/>
<path d="M31.837 56.6838C45.3788 56.6838 56.3566 45.706 56.3566 32.1642C56.3566 18.6223 45.3788 7.64453 31.837 7.64453C18.2952 7.64453 7.31738 18.6223 7.31738 32.1642C7.31738 45.706 18.2952 56.6838 31.837 56.6838Z" stroke="black" stroke-linecap="round" stroke-linejoin="round"/>
<path d="M17.5695 12.2246L29.2054 21.453L26.7685 28.7815L34.0822 37.4818L32.7516 48.1942H28.099L25.8244 41.5473L17.5695 41.7685L7.31738 34.8472" stroke="black" stroke-linecap="round" stroke-linejoin="round"/>
<path d="M49.9454 15.6367L41.8381 20.4958V28.7801L37.1855 31.1315V34.8459H46.0481L55.2382 39.5073" stroke="black" stroke-linecap="round" stroke-linejoin="round"/>
<path d="M9.53017 3.21734C6.03706 5.48609 5.04282 10.1534 7.31158 13.6465C10.8637 19.1192 19.2572 20.5885 21.0568 20.972C21.0568 20.972 23.5144 10.9087 19.9593 5.43593C17.6935 1.94282 13.0233 0.948586 9.53017 3.21734ZM15.8408 12.9355C13.9644 14.154 11.4596 13.62 10.2412 11.7436C9.02273 9.86723 9.55672 7.36245 11.4331 6.144C13.3095 4.92554 15.8142 5.45954 17.0327 7.3359C18.2511 9.21227 17.7172 11.717 15.8408 12.9355Z" fill="#FFE866" stroke="black" stroke-miterlimit="10"/>
<path d="M55.8731 10.4162C51.8578 9.31279 47.7068 11.67 46.6034 15.6854C44.8716 21.9753 49.3501 29.2241 50.2587 30.8261C50.2587 30.8261 59.4134 25.9759 61.1423 19.6859C62.2456 15.6706 59.8884 11.5196 55.8731 10.4162ZM52.7989 21.5888C50.6423 20.9958 49.3766 18.7684 49.9696 16.6117C50.5626 14.4551 52.7901 13.1894 54.9467 13.7824C57.1033 14.3754 58.369 16.6029 57.776 18.7595C57.183 20.9162 54.9556 22.1818 52.7989 21.5888Z" fill="#EDEDED" stroke="black" stroke-miterlimit="10"/>
<path d="M34.1947 21.0784C30.1145 20.2434 26.1317 22.8751 25.2968 26.9553C23.9898 33.3485 28.9403 40.2816 29.9552 41.8158C29.9552 41.8158 38.7647 36.3666 40.0717 29.9734C40.9066 25.8932 38.275 21.9103 34.1947 21.0754V21.0784ZM31.8758 32.431C29.6867 31.9825 28.2736 29.8466 28.722 27.6545C29.1704 25.4625 31.3064 24.0522 33.4985 24.5007C35.6905 24.9491 37.1007 27.0851 36.6523 29.2772C36.2039 31.4662 34.0679 32.8794 31.8758 32.431Z" fill="white" stroke="black" stroke-miterlimit="10"/>
</svg>
