<svg width="827" height="239" viewBox="0 0 827 239" fill="none" xmlns="http://www.w3.org/2000/svg">
<g clip-path="url(#clip0_1117_606)">
<path d="M661.291 108.358H626.409V6.58817H661.291V108.347V108.358ZM731.297 6.59917H690.137L661.291 51.5285V57.4788L693.133 108.358H734.292L696.172 54.4982L731.297 6.58817V6.59917ZM350.805 6.59917V43.8295H323.262V6.58817H288.381V108.347H323.262V70.5891H350.805V108.347H385.686V6.58817H350.805V6.59917ZM576.684 81.6317C562.924 81.6317 553.518 70.7871 553.518 57.4788C553.518 44.1705 562.924 33.3258 576.684 33.3258C586.675 33.3258 593.837 38.6381 595.772 41.1568L613.091 17.3778C608.349 13.0224 593.716 3.13461 572.849 3.13461C535.867 3.13461 516.923 31.775 516.923 57.4788C516.923 83.1826 535.867 111.823 572.849 111.823C593.716 111.823 608.338 101.946 613.091 97.5797L595.772 73.8007C593.837 76.3194 586.675 81.6317 576.684 81.6317ZM479.754 108.38C474.427 99.1306 464.645 95.754 455.317 95.754C445.989 95.754 436.207 99.1306 430.88 108.38H393.257L436.329 6.57717H474.294L517.376 108.369H479.754V108.38ZM468.613 73.3278L455.306 36.8124L441.999 73.3278C441.999 73.3278 447.293 71.0731 454.919 71.0731H455.693C463.319 71.0731 468.613 73.3278 468.613 73.3278ZM827 129.135H733.496V155.729H762.807V230.905H797.689V155.729H827V129.135ZM613.942 155.729V129.135H525.235V230.894H560.116V230.861H613.942V204.266H560.116V191.519H613.942V168.477H560.116V155.729H613.942ZM690.215 166.717H670.166C667.115 166.717 664.65 164.264 664.65 161.229C664.65 158.193 667.115 155.74 670.166 155.74H719.338V129.146H661.998C644.049 129.146 629.526 143.741 629.769 161.647C630.001 179.277 644.767 193.301 662.484 193.301H682.533C685.584 193.301 688.049 195.753 688.049 198.789C688.049 201.825 685.584 204.277 682.533 204.277H633.383V230.872H690.69C708.639 230.872 723.162 216.277 722.919 198.371C722.687 180.74 707.921 166.717 690.204 166.717H690.215ZM471.741 129.135V187.636C471.741 195.148 465.618 201.242 458.069 201.242C450.52 201.242 444.397 195.148 444.397 187.636V129.135H409.516V191.398C409.516 218.037 430.935 234.172 457.704 234.37C484.694 234.568 506.634 218.807 506.634 192.003V129.135H471.752H471.741ZM378.049 207.423L399.966 199.108L398.121 227.682C398.121 227.682 369.859 234.37 339.089 234.37C300.362 234.37 283.164 203.188 283.164 178.299C283.164 153.409 302.108 125.681 339.089 125.681C376.071 125.681 392.915 150.549 391.887 175.714C391.334 189.308 384.393 201.341 378.049 206.532V207.423ZM339.089 204.167C351.601 204.167 358.431 192.619 358.431 180.047C358.431 167.476 351.601 155.861 339.089 155.861C326.578 155.861 319.748 167.476 319.748 180.047C319.748 192.619 326.578 204.167 339.089 204.167ZM205.001 35.0086C226.741 56.6429 240.181 86.5041 240.181 119.511L234.577 234.183L120.096 239.011C86.9276 239.011 56.9201 225.637 35.18 204.002C13.4398 182.368 0 152.507 0 119.5L4.85203 5.5763L120.085 0C153.253 0 183.261 13.3743 205.001 35.0086ZM169.677 71.689C157.188 59.2606 139.924 51.5505 120.859 51.5505C82.7166 51.5615 51.8029 82.3357 51.8029 120.27C51.8029 139.243 59.5506 156.422 72.0399 168.851C84.5292 181.279 101.793 188.989 120.859 188.989C158.99 188.989 189.903 158.226 189.914 120.27C189.914 101.297 182.167 84.1174 169.677 71.689Z" fill="white"/>
</g>
<defs>
<clipPath id="clip0_1117_606">
<rect width="827" height="239" fill="white"/>
</clipPath>
</defs>
</svg>
