<svg width="48" height="50" viewBox="0 0 48 50" fill="none" xmlns="http://www.w3.org/2000/svg">
<g style="mix-blend-mode:multiply">
<path d="M24.0002 49C10.7454 49 0.000244141 38.2548 0.000244141 25C0.000244141 11.7452 10.7454 1 24.0002 1C37.2551 1 48.0002 11.7452 48.0002 25C48.0002 38.2548 37.2551 49 24.0002 49Z" fill="url(#paint0_radial_5339_32381)"/>
</g>
<path d="M25.1693 13.3086L22.6121 25.6004" stroke="#3E3E3E" stroke-width="0.5" stroke-linecap="round" stroke-linejoin="round"/>
<path d="M27.7291 1.01562L26.2294 8.22317" stroke="#3E3E3E" stroke-width="0.5" stroke-linecap="round" stroke-linejoin="round"/>
<path d="M41.5149 41.3763L22.6116 25.6016L0.997185 32.9822L19.7879 48.9437L41.5149 41.3763Z" fill="url(#paint1_linear_5339_32381)" stroke="#3E3E3E" stroke-width="0.5" stroke-linecap="round" stroke-linejoin="round"/>
<path d="M7.74375 35.3105L14.0641 40.6805" stroke="#3E3E3E" stroke-width="0.5" stroke-linecap="round" stroke-linejoin="round"/>
<path d="M19.7874 48.9436L0.996643 32.9821L6.11389 8.39844" stroke="#3E3E3E" stroke-width="0.5" stroke-linecap="round" stroke-linejoin="round"/>
<path d="M11.4475 34.4276L12.928 37.6853C12.928 37.6853 17.3338 37.5919 19.8416 37.5534C22.3494 37.515 26.107 37.7512 29.8729 35.3313C34.0754 32.6284 35.1384 29.7965 35.4955 27.9809C35.8526 26.1653 36.814 20.7843 36.814 20.7843L35.4076 17.5898C35.3829 17.7162 35.2648 18.3727 34.6468 21.7375C34.0122 25.1874 34.1853 27.7749 30.0239 30.9996C25.8626 34.2216 21.9045 34.3012 19.8856 34.326C18.0205 34.3507 12.3045 34.4138 11.4475 34.4248V34.4276Z" fill="url(#paint2_linear_5339_32381)" stroke="#3E3E3E" stroke-width="0.5" stroke-linecap="round" stroke-linejoin="round"/>
<path d="M12.8021 27.1561C13.3184 24.1868 15.0379 22.2998 17.7023 20.3248C20.3667 18.3499 23.9567 17.7456 25.3795 17.7209C26.8024 17.6962 35.4053 17.5918 35.4053 17.5918C35.3806 17.7181 35.2624 18.3746 34.6444 21.7394C34.0099 25.1894 34.1829 27.7768 30.0216 31.0016C25.8602 34.2235 21.9021 34.3032 19.8832 34.3279C18.0182 34.3526 12.412 34.4158 11.5578 34.4268C11.4863 34.4268 11.4479 34.4268 11.4479 34.4268C11.4479 34.4268 12.2884 30.1281 12.8048 27.1588L12.8021 27.1561ZM17.5347 28.4745C18.2626 30.2352 20.4793 31.0757 22.9569 30.7241C23.6546 30.6253 24.3742 30.4302 25.0884 30.1363C27.5275 29.1283 29.1866 27.2247 29.4585 25.3844C29.5491 24.7801 29.4887 24.1841 29.258 23.6265C28.3241 21.3686 24.9428 20.6242 21.7071 21.9647C18.4686 23.3051 16.6036 26.2194 17.5375 28.4773L17.5347 28.4745Z" fill="white" stroke="#3E3E3E" stroke-width="0.5" stroke-linecap="round" stroke-linejoin="round"/>
<path d="M21.7065 21.9656C24.9422 20.6251 28.3235 21.3695 29.2574 23.6274C29.4881 24.185 29.5485 24.781 29.4579 25.3853C29.4524 25.4292 29.4442 25.4704 29.4359 25.5144C27.9362 24.4294 25.4394 24.2674 23.0222 25.2672C20.6435 26.2505 19.0037 28.0881 18.6713 29.89C18.1631 29.5219 17.7704 29.0467 17.5341 28.4754C16.6002 26.2203 18.468 23.3032 21.7037 21.9628L21.7065 21.9656Z" fill="white" stroke="#3E3E3E" stroke-width="0.5" stroke-linecap="round" stroke-linejoin="round"/>
<path d="M17.5382 28.4762C16.6482 26.3254 18.3018 23.5759 21.2628 22.1641C21.2628 22.1641 18.4886 23.705 17.9832 26.9187C17.5711 29.5364 18.6781 29.8907 18.6781 29.8907C18.1699 29.5227 17.7772 29.0475 17.5409 28.4762H17.5382Z" fill="black" stroke="#3E3E3E" stroke-width="0.5" stroke-linecap="round" stroke-linejoin="round"/>
<path d="M21.2582 27.8533C17.7584 27.8533 14.9213 25.0162 14.9213 21.5165C14.9213 18.0168 17.7584 15.1797 21.2582 15.1797C24.7579 15.1797 27.595 18.0168 27.595 21.5165C27.595 25.0162 24.7579 27.8533 21.2582 27.8533Z" fill="url(#paint3_linear_5339_32381)" stroke="#3E3E3E" stroke-width="0.5" stroke-linecap="round" stroke-linejoin="round"/>
<path d="M19.7877 48.944L41.5147 41.3766L46.632 16.793L24.905 24.3603L19.7877 48.944Z" stroke="#3E3E3E" stroke-width="0.5" stroke-linecap="round" stroke-linejoin="round"/>
<path d="M11.3194 12.8213L20.2382 20.3969L24.905 24.3605L46.632 16.7931L27.7286 1.01562L6.11425 8.39896L9.06703 10.9068" stroke="#3E3E3E" stroke-width="0.5" stroke-linecap="round" stroke-linejoin="round"/>
<path d="M39.881 14.6172L38.2219 22.5911" stroke="#3E3E3E" stroke-width="0.5" stroke-linecap="round" stroke-linejoin="round"/>
<defs>
<radialGradient id="paint0_radial_5339_32381" cx="0" cy="0" r="1" gradientUnits="userSpaceOnUse" gradientTransform="translate(24.0002 25) rotate(180) scale(28.5773)">
<stop stop-color="#FFE866"/>
<stop offset="0.697917" stop-color="white"/>
</radialGradient>
<linearGradient id="paint1_linear_5339_32381" x1="-7.03359" y1="37.2257" x2="33.0925" y2="36.8755" gradientUnits="userSpaceOnUse">
<stop stop-color="white"/>
<stop offset="1" stop-color="#FFE766"/>
</linearGradient>
<linearGradient id="paint2_linear_5339_32381" x1="26.4752" y1="29.016" x2="10.4537" y2="35.446" gradientUnits="userSpaceOnUse">
<stop stop-color="white"/>
<stop offset="0.2" stop-color="#FFF7DD"/>
<stop offset="0.99" stop-color="#FFE566"/>
</linearGradient>
<linearGradient id="paint3_linear_5339_32381" x1="14.9215" y1="21.5607" x2="27.5919" y2="21.4523" gradientUnits="userSpaceOnUse">
<stop stop-color="white"/>
<stop offset="1" stop-color="#FFE766"/>
</linearGradient>
</defs>
</svg>
