<svg width="33" height="32" viewBox="0 0 33 32" fill="none" xmlns="http://www.w3.org/2000/svg">
<path d="M2.86688 21.0273C3.70331 21.7236 4.86738 22.1068 6.14444 22.1068C8.92619 22.1068 10.8688 20.3583 10.8688 17.8546C10.8688 17.6076 10.6855 17.3991 10.4406 17.3671L6.85684 7.75958H14.2162C14.4838 8.47733 15.0956 9.01127 15.8427 9.17952V22.1508H14.7716C13.6168 22.1508 12.6498 23.0118 12.4222 24.0573H12.2274C11.9496 24.0651 11.7271 24.2899 11.7223 24.5678V26.7941C11.7223 27.0658 11.9559 27.2553 12.2276 27.2553H20.442C20.7137 27.2553 20.9474 27.0656 20.9474 26.7941V24.5678C20.9425 24.2899 20.7198 24.0648 20.442 24.0573H20.2472C20.0196 23.0118 19.0529 22.1508 17.8978 22.1508H16.827V9.17952C17.5741 9.01131 18.1859 8.4774 18.4534 7.75958H25.8128L22.2291 17.3671C21.9842 17.3991 21.8011 17.6076 21.8008 17.8546C21.8008 19.1588 22.2908 20.256 23.2176 21.0273C24.054 21.7236 25.2181 22.1068 26.4951 22.1068C29.2769 22.1068 31.2195 20.3583 31.2195 17.8546C31.2195 17.6198 31.0535 17.4176 30.8233 17.372L26.9863 7.08572C26.9844 7.08059 26.982 7.07595 26.9802 7.07082C26.9768 7.06277 26.9736 7.05447 26.9697 7.04665C26.9661 7.03884 26.9624 7.03201 26.9585 7.02492C26.9546 7.01784 26.9512 7.0115 26.9473 7.00466C26.9434 6.99807 26.938 6.99001 26.9331 6.98269C26.929 6.97659 26.9251 6.97048 26.9209 6.96487C26.9158 6.95803 26.9104 6.95119 26.905 6.9446C26.8997 6.93801 26.8953 6.93288 26.8902 6.92727C26.885 6.92165 26.8792 6.91555 26.8736 6.90993C26.8679 6.90432 26.8618 6.89846 26.8557 6.89284C26.8496 6.88723 26.8447 6.88332 26.8391 6.87868C26.8323 6.87307 26.8255 6.86745 26.8181 6.86208C26.8125 6.85793 26.8069 6.85403 26.801 6.85012C26.7935 6.84499 26.7859 6.84011 26.7781 6.83547C26.772 6.83181 26.7659 6.82839 26.7595 6.82497C26.7517 6.82082 26.7442 6.81667 26.7361 6.81277C26.729 6.80935 26.7217 6.80666 26.7144 6.80325C26.7088 6.8008 26.7034 6.79812 26.6978 6.79617C26.6956 6.79543 26.6936 6.79494 26.6917 6.79421C26.6839 6.79153 26.676 6.78909 26.6682 6.78689C26.6604 6.78445 26.6526 6.78201 26.6448 6.78005C26.637 6.7781 26.6301 6.77688 26.6226 6.77541C26.614 6.7737 26.6057 6.77175 26.5972 6.77053C26.5903 6.76955 26.5833 6.76907 26.5764 6.76833C26.5674 6.76736 26.5584 6.76638 26.5493 6.76589C26.5425 6.7654 26.5354 6.76589 26.5286 6.76589H26.5015C26.4944 6.76638 26.4871 6.76736 26.4798 6.76784C26.471 6.76858 26.4624 6.76931 26.4536 6.77053C26.4463 6.77151 26.439 6.77322 26.4317 6.77468H26.4302L18.5852 6.77517C18.5183 6.01811 18.0754 5.34548 17.4068 4.98511C16.7378 4.62476 15.9324 4.62476 15.2637 4.98511C14.5948 5.34546 14.1519 6.01804 14.0853 6.77517H6.24025C6.2322 6.77346 6.22414 6.77175 6.21608 6.77053C6.20925 6.76955 6.20241 6.76907 6.19533 6.76833C6.1863 6.76736 6.17727 6.76638 6.16823 6.76589C6.1614 6.7654 6.15432 6.76589 6.14748 6.76589H6.12038C6.1133 6.76638 6.10598 6.76736 6.0989 6.76784C6.09011 6.76858 6.08156 6.76931 6.07277 6.77053C6.06545 6.77151 6.05813 6.77322 6.0508 6.77468C6.04226 6.77639 6.03371 6.77785 6.02541 6.78005C6.01833 6.78176 6.01125 6.7842 6.00417 6.78616C5.99563 6.78884 5.98708 6.79128 5.97878 6.79421C5.97683 6.79494 5.97487 6.79543 5.97268 6.79617C5.96731 6.79812 5.96218 6.8008 5.95681 6.803C5.94924 6.80618 5.94167 6.80911 5.9341 6.81277C5.92678 6.81643 5.91872 6.82058 5.91115 6.82473C5.90505 6.82815 5.89846 6.83157 5.89211 6.83523C5.8843 6.83987 5.87673 6.84499 5.86916 6.84988C5.86355 6.85378 5.85769 6.85769 5.85207 6.86184C5.84499 6.86721 5.83791 6.87258 5.83107 6.87844C5.82546 6.88308 5.81984 6.88772 5.81447 6.8926C5.8091 6.89748 5.80227 6.90408 5.79641 6.90994C5.79079 6.9158 5.78542 6.92117 5.78005 6.92703C5.77468 6.93288 5.7698 6.93874 5.76491 6.9446C5.76003 6.95046 5.75417 6.95754 5.74929 6.96438C5.74416 6.97122 5.74074 6.97659 5.73659 6.98293C5.73195 6.99001 5.72707 6.99709 5.72268 7.00442C5.71828 7.01174 5.71486 7.01809 5.7112 7.02493C5.70754 7.03176 5.70363 7.03909 5.70022 7.04641C5.6968 7.05374 5.69314 7.06277 5.68972 7.07107C5.68777 7.07595 5.68532 7.08083 5.68361 7.08572L1.84668 17.372C1.61645 17.4176 1.45044 17.6198 1.45044 17.8546C1.45044 19.1588 1.94043 20.2558 2.86719 21.0273L2.86688 21.0273ZM26.495 21.1183C25.4476 21.1183 24.5072 20.8136 23.8471 20.2641C23.2692 19.7834 22.9181 19.1371 22.8161 18.3376H30.2042C29.9513 20.2441 28.2159 21.1183 26.4954 21.1183H26.495ZM26.5253 8.65645L29.7697 17.3539H23.2815L26.5253 8.65645ZM19.9634 25.0414V26.2714H12.7065V25.0414H19.9634ZM17.898 23.1349C18.5059 23.1349 19.0254 23.5654 19.2256 24.0576L13.4443 24.0573C13.6445 23.5654 14.1638 23.1347 14.772 23.1347L17.898 23.1349ZM16.335 5.69995C16.6731 5.70019 16.9971 5.83471 17.2361 6.07373C17.4753 6.31274 17.6099 6.63696 17.6101 6.9751C17.6101 7.00806 17.6077 7.04053 17.6052 7.073C17.5786 7.13453 17.5647 7.20093 17.5649 7.26807C17.5649 7.27906 17.5659 7.2898 17.5667 7.30054C17.4849 7.60914 17.2905 7.87574 17.022 8.04786C16.7532 8.21997 16.4297 8.28492 16.1155 8.23023C15.801 8.1753 15.5186 8.00464 15.324 7.75172C15.1294 7.49903 15.0369 7.18214 15.0645 6.86428C15.092 6.54641 15.2378 6.25051 15.4729 6.03491C15.7083 5.81933 16.0159 5.6997 16.335 5.69995ZM6.14434 8.65695L9.38871 17.3544H2.89996L6.14434 8.65695ZM9.85334 18.3382C9.60016 20.2447 7.86509 21.1189 6.14459 21.1189C5.09721 21.1189 4.15677 20.8143 3.49665 20.2647C2.91877 19.784 2.56746 19.1378 2.4654 18.3382H9.85334Z" fill="black"/>
</svg>
