<svg width="33" height="32" viewBox="0 0 33 32" fill="none" xmlns="http://www.w3.org/2000/svg">
<path d="M20.0571 19.9363H22.3279L21.1924 16.8926L20.0571 19.9363Z" fill="#3E3E3E"/>
<path d="M17.0971 16.6759V26.7015H24.354V11.8184H8.979V26.7015H16.2359V16.6759C15.9666 16.5709 15.742 16.3756 15.6004 16.1231H12.7713L14.2126 19.9871C14.3586 20.0599 14.4512 20.209 14.4514 20.3721C14.4514 21.6087 13.5015 22.4724 12.1413 22.4724C10.789 22.4724 9.84471 21.6089 9.84471 20.3721V20.3724C9.84471 20.2156 9.92967 20.0714 10.0669 19.9957L11.6873 15.6522C11.6968 15.5501 11.7427 15.4549 11.8164 15.3839C11.8184 15.3817 11.8203 15.3797 11.8225 15.3778L11.8372 15.3624C11.842 15.3575 11.8472 15.3524 11.8525 15.3477C11.8579 15.3431 11.8625 15.3389 11.8674 15.3348C11.8726 15.3306 11.8791 15.3253 11.8853 15.3209C11.8904 15.317 11.8958 15.3135 11.9009 15.3099C11.907 15.3057 11.9131 15.3016 11.9199 15.2977C11.9268 15.2938 11.9316 15.2911 11.9377 15.2877C11.9436 15.2845 11.9499 15.2811 11.9568 15.2779C11.9634 15.2747 11.9707 15.2718 11.978 15.2689C11.9824 15.2672 11.9866 15.265 11.991 15.2633C11.9927 15.2625 11.9941 15.2623 11.9958 15.2615C12.0034 15.2589 12.0112 15.2564 12.019 15.2542C12.0251 15.2525 12.0308 15.2506 12.0366 15.2491C12.0442 15.2471 12.0518 15.2457 12.0596 15.2442C12.0657 15.243 12.0718 15.2415 12.0784 15.2405C12.0847 15.2396 12.0928 15.2388 12.1001 15.2381C12.1074 15.2374 12.1135 15.2366 12.1201 15.2362C12.1267 15.2359 12.1343 15.2362 12.1414 15.2362H12.1621C12.1689 15.2362 12.1758 15.2374 12.1826 15.2381C12.1895 15.2388 12.197 15.2393 12.2041 15.2403C12.2112 15.2415 12.2168 15.2427 12.2234 15.244C12.231 15.2454 12.2385 15.2469 12.2458 15.2486C12.252 15.2501 12.2581 15.252 12.2639 15.254C12.2715 15.2562 12.2793 15.2584 12.2866 15.2611L12.2869 15.2615C12.2878 15.262 12.2891 15.2623 12.2903 15.2623H15.4848C15.5686 14.9041 15.8103 14.6033 16.1421 14.4444C16.4739 14.2855 16.8596 14.2855 17.1914 14.4444C17.523 14.6033 17.7646 14.9041 17.8487 15.2623H21.0432C21.0444 15.2623 21.0454 15.262 21.0464 15.2615C21.0542 15.2586 21.0623 15.2564 21.0701 15.2542C21.0757 15.2525 21.0815 15.2508 21.0872 15.2493C21.0947 15.2474 21.1025 15.2459 21.1104 15.2445C21.1165 15.2432 21.1226 15.2418 21.1289 15.241C21.1362 15.2398 21.1436 15.2393 21.1509 15.2386C21.1582 15.2379 21.1641 15.2371 21.1709 15.2366C21.1775 15.2364 21.1851 15.2366 21.1921 15.2366H21.2129C21.2197 15.2366 21.2263 15.2379 21.2332 15.2386C21.24 15.2393 21.2476 15.2398 21.2549 15.241C21.262 15.2423 21.2676 15.2435 21.2739 15.2447C21.2815 15.2462 21.2891 15.2476 21.2964 15.2493C21.3025 15.2508 21.3084 15.2528 21.3145 15.2547C21.322 15.2569 21.3298 15.2593 21.3374 15.262C21.3391 15.2628 21.3408 15.263 21.3425 15.2637C21.3472 15.2655 21.3516 15.2676 21.356 15.2696C21.3628 15.2725 21.3696 15.2752 21.3765 15.2784C21.3833 15.2816 21.3897 15.285 21.396 15.2884C21.4023 15.2918 21.4075 15.2945 21.4131 15.2979C21.4199 15.3021 21.4263 15.3062 21.4329 15.3106C21.438 15.314 21.4431 15.3175 21.448 15.3211C21.4541 15.3258 21.4602 15.3306 21.4666 15.3355C21.4714 15.3394 21.4763 15.3436 21.481 15.3477C21.4856 15.3519 21.4917 15.3577 21.4968 15.3629C21.502 15.368 21.5064 15.3726 21.511 15.3778C21.5129 15.38 21.5151 15.3819 21.5171 15.3841C21.5908 15.4551 21.6365 15.5504 21.6462 15.6522L23.2666 19.9957C23.4036 20.0716 23.4885 20.2159 23.4888 20.3724C23.4888 21.6089 22.5389 22.4727 21.1787 22.4727C19.8264 22.4727 18.8821 21.6089 18.8821 20.3724C18.8821 20.209 18.9746 20.0599 19.1209 19.9871L20.5618 16.1231H17.7327C17.5911 16.3756 17.3665 16.5709 17.0969 16.6759H17.0971Z" fill="#3E3E3E"/>
<path d="M25.2134 11.8184H26.9353V26.7015H25.2134V11.8184Z" fill="#3E3E3E"/>
<path d="M16.667 2.22266L4.7876 10.9564H28.5463L16.667 2.22266ZM16.667 9.55953C15.3628 9.55953 14.3017 8.53197 14.3017 7.26878C14.3017 6.00584 15.3628 4.97847 16.667 4.97847C17.9712 4.97847 19.0322 6.00603 19.0322 7.26897C19.032 8.53216 17.9712 9.55972 16.667 9.55972V9.55953Z" fill="#3E3E3E"/>
<path d="M18.1708 7.26953C18.1708 8.05909 17.4973 8.69922 16.6667 8.69922C15.8359 8.69922 15.1626 8.05909 15.1626 7.26953C15.1626 6.47997 15.8359 5.83984 16.6667 5.83984C17.4973 5.83984 18.1708 6.47997 18.1708 7.26953Z" fill="#3E3E3E"/>
<path d="M21.1768 21.6057C21.9815 21.6057 22.3958 21.2273 22.5513 20.7969H19.811C19.9624 21.2275 20.3733 21.6057 21.1768 21.6057Z" fill="#3E3E3E"/>
<path d="M16.6657 15.1855C16.5385 15.1853 16.4213 15.2532 16.3581 15.3633C16.2949 15.4734 16.2954 15.6091 16.3596 15.7188C16.4235 15.8284 16.5414 15.8953 16.6684 15.894C16.7953 15.8931 16.912 15.824 16.9743 15.7134C16.9738 15.7063 16.9731 15.6992 16.9731 15.6921C16.9731 15.626 16.9885 15.561 17.0178 15.502C16.9982 15.322 16.8466 15.1858 16.6657 15.1855Z" fill="#3E3E3E"/>
<path d="M6.39697 11.8184H8.11891V26.7015H6.39697V11.8184Z" fill="#3E3E3E"/>
<path d="M4.36572 27.5605H28.9657V29.7747H4.36572V27.5605Z" fill="#3E3E3E"/>
<path d="M12.1416 21.6057C12.9463 21.6057 13.3606 21.2273 13.5161 20.7969H10.7759C10.9272 21.2275 11.3381 21.6057 12.1416 21.6057Z" fill="#3E3E3E"/>
<path d="M11.0063 19.9363H13.2768L12.1416 16.8926L11.0063 19.9363Z" fill="#3E3E3E"/>
</svg>
