<svg width="32" height="32" viewBox="0 0 32 32" fill="none" xmlns="http://www.w3.org/2000/svg">
<path d="M21.1221 15.7537L20.1372 13.1133L19.1523 15.7537H21.1221Z" fill="#3E3E3E"/>
<path d="M16.2849 11.7363C16.2849 12.1189 15.7109 12.1189 15.7109 11.7363C15.7109 11.3535 16.2849 11.3535 16.2849 11.7363Z" fill="#3E3E3E"/>
<path d="M14.4023 3.56187V3.63829H17.6003V3.56187C17.6003 2.99059 17.2957 2.46275 16.8008 2.17712C16.3061 1.89148 15.6965 1.89148 15.2019 2.17712C14.707 2.46277 14.4023 2.99062 14.4023 3.56187Z" fill="#3E3E3E"/>
<path d="M20.1245 17.281C20.5981 17.281 21.1348 17.0456 21.3333 16.6152H18.9297C19.0774 16.9226 19.4412 17.281 20.1245 17.281Z" fill="#3E3E3E"/>
<path d="M20.1202 5.42531C20.1158 5.18166 20.0172 4.94899 19.8448 4.77637C19.6724 4.60376 19.44 4.50488 19.1961 4.5H12.803C12.5593 4.50488 12.3267 4.60376 12.1545 4.77637C11.9822 4.94897 11.8833 5.18164 11.8789 5.42531V8.31324H20.1202L20.1202 5.42531Z" fill="#3E3E3E"/>
<path d="M11.864 13.1133L10.8789 15.7537H12.8489L11.864 13.1133Z" fill="#3E3E3E"/>
<path d="M24.0228 6.77539H20.9824V8.76514C20.9824 9.00293 20.7671 9.17383 20.5296 9.17383H11.4727C11.2349 9.17383 11.0198 9.00293 11.0198 8.76514L11.0196 6.77539H7.97925C7.5105 6.77856 7.06225 6.96753 6.73294 7.30127C6.4036 7.63477 6.22 8.08521 6.22269 8.55396V28.2552C6.22049 28.7227 6.40432 29.172 6.73392 29.5035C7.06375 29.8353 7.51173 30.0221 7.97929 30.0226H24.023C24.4906 30.0221 24.9388 29.8353 25.2684 29.5035C25.598 29.172 25.7821 28.7228 25.7796 28.2552V8.55396C25.7823 8.08521 25.599 7.63477 25.2694 7.30127C24.94 6.96753 24.4918 6.77857 24.0231 6.77539H24.0228ZM9.93714 15.7854L11.4606 11.7019C11.4623 11.6977 11.4642 11.6936 11.4659 11.6897C11.4689 11.6824 11.472 11.675 11.4755 11.668C11.4786 11.6609 11.4816 11.6557 11.485 11.6494C11.4884 11.6433 11.4916 11.6372 11.4952 11.6308C11.4989 11.6247 11.5031 11.6186 11.5072 11.6123C11.5114 11.6062 11.5145 11.6013 11.5184 11.5959C11.5223 11.5906 11.5275 11.5845 11.5321 11.5788C11.5367 11.5732 11.5409 11.5683 11.5453 11.5635C11.5499 11.5583 11.5548 11.5535 11.5595 11.5486C11.5643 11.5437 11.5699 11.5383 11.5753 11.5334C11.5807 11.5285 11.5851 11.5249 11.59 11.5212C11.5961 11.5163 11.6019 11.5115 11.608 11.5071C11.6132 11.5034 11.6183 11.5 11.6234 11.4963C11.6295 11.4919 11.6361 11.4878 11.6429 11.4841C11.6486 11.4807 11.6544 11.4775 11.6603 11.4744C11.6661 11.4712 11.673 11.4675 11.6796 11.4643C11.6862 11.4612 11.6935 11.4582 11.7006 11.4553C11.705 11.4536 11.7091 11.4514 11.7137 11.4497C11.7155 11.449 11.7172 11.4487 11.7186 11.4482C11.7262 11.4455 11.734 11.4433 11.7416 11.4409C11.7477 11.4392 11.7538 11.4372 11.7596 11.4355C11.767 11.4338 11.7743 11.4324 11.7819 11.4309C11.7892 11.4294 11.7948 11.4282 11.8014 11.4272C11.808 11.4263 11.8156 11.4255 11.8226 11.425C11.8297 11.4243 11.8363 11.4236 11.8431 11.4231C11.85 11.4226 11.8571 11.4231 11.8641 11.4231H11.8851C11.892 11.4231 11.8988 11.4243 11.9056 11.425C11.9125 11.4258 11.92 11.4263 11.9269 11.4272C11.934 11.4285 11.9398 11.4297 11.9464 11.4309C11.954 11.4324 11.9613 11.4336 11.9686 11.4355C11.9747 11.437 11.9803 11.4389 11.9865 11.4407C11.9943 11.4431 12.0021 11.4453 12.0099 11.448C12.0114 11.4487 12.0131 11.449 12.0148 11.4494L12.0157 11.4499H14.8917L14.8913 11.4497C14.9765 11.1191 15.2045 10.8437 15.5136 10.6984C15.8227 10.5529 16.1803 10.5529 16.4891 10.6984C16.7982 10.8437 17.0262 11.1191 17.1114 11.4497H19.9874L19.9884 11.4492C19.9901 11.4485 19.9916 11.4482 19.9933 11.4477C20.0011 11.4451 20.0089 11.4426 20.0167 11.4404C20.0228 11.4387 20.0285 11.4368 20.0343 11.4353C20.0416 11.4333 20.0492 11.4321 20.057 11.4306C20.0631 11.4294 20.0697 11.428 20.0761 11.427C20.0824 11.426 20.0905 11.4253 20.0978 11.4245C20.1051 11.4238 20.1112 11.4231 20.1181 11.4226C20.1249 11.4223 20.132 11.4226 20.1391 11.4226H20.1601C20.1669 11.4226 20.1735 11.4238 20.1801 11.4245C20.1867 11.4253 20.1947 11.4258 20.2018 11.427C20.2089 11.4282 20.214 11.4294 20.2206 11.4306C20.2282 11.4321 20.236 11.4336 20.2436 11.4353C20.2492 11.4368 20.255 11.4387 20.2606 11.4404C20.2687 11.4429 20.2768 11.4451 20.2846 11.448C20.286 11.4485 20.2877 11.449 20.2892 11.4494C20.2934 11.4512 20.2975 11.4531 20.3014 11.4548C20.3087 11.4577 20.3161 11.4609 20.3231 11.4643C20.3302 11.4675 20.3353 11.4704 20.3417 11.4739C20.3478 11.4773 20.3539 11.4805 20.3598 11.4839C20.3656 11.4875 20.3725 11.4917 20.3786 11.4961C20.3847 11.5005 20.3893 11.5034 20.3944 11.5073C20.3998 11.5112 20.4061 11.5163 20.412 11.521C20.4176 11.5256 20.4223 11.5295 20.4271 11.5339C20.432 11.5383 20.4374 11.5437 20.4425 11.5486C20.4474 11.5535 20.4525 11.5586 20.4572 11.5639C20.4618 11.5693 20.466 11.574 20.4701 11.5791C20.4743 11.5842 20.4794 11.5906 20.484 11.5967C20.4884 11.6025 20.4916 11.6074 20.495 11.6125C20.4987 11.6179 20.5033 11.6247 20.5072 11.6313C20.5111 11.6379 20.5141 11.6433 20.5175 11.6494C20.5209 11.6555 20.5241 11.6616 20.527 11.668C20.5299 11.6741 20.5331 11.6824 20.5365 11.6897C20.5382 11.6938 20.5404 11.698 20.5419 11.7019L22.0653 15.7854L22.0656 15.7856C22.1957 15.8633 22.2753 16.0034 22.2755 16.1548C22.2755 17.3071 21.3917 18.112 20.1266 18.112C18.8685 18.112 17.9898 17.3071 17.9898 16.1548C17.9898 15.9966 18.0765 15.8511 18.2157 15.7759L19.5079 12.3101H16.9942C16.8663 12.5315 16.6683 12.7041 16.4315 12.8008V18.5217H17.2506C17.4884 18.5217 17.681 18.7143 17.681 18.9521C17.681 19.1899 17.4884 19.3826 17.2506 19.3826H14.7513C14.5135 19.3826 14.3209 19.1899 14.3209 18.9521C14.3209 18.7143 14.5135 18.5217 14.7513 18.5217H15.5704V12.8008C15.3336 12.7041 15.1356 12.5315 15.0076 12.3101H12.4939L13.7869 15.7756C13.9261 15.8508 14.0128 15.9963 14.0128 16.1545C14.0128 17.3069 13.129 18.1118 11.8638 18.1118C10.6058 18.1118 9.72709 17.3068 9.72709 16.1545C9.72709 16.0032 9.80692 15.8628 9.93705 15.7854L9.93714 15.7854ZM9.64734 21.8428H15.8612C16.0988 21.8428 16.2916 22.0354 16.2916 22.2732C16.2916 22.511 16.0988 22.7036 15.8612 22.7036H9.64734C9.40955 22.7036 9.21692 22.511 9.21692 22.2732C9.21692 22.0354 9.40955 21.8428 9.64734 21.8428ZM22.3548 26.0249L9.64734 26.0246C9.40955 26.0246 9.21692 25.832 9.21692 25.5942C9.21692 25.3564 9.40955 25.1636 9.64734 25.1636H22.3548C22.5926 25.1636 22.7855 25.3564 22.7855 25.5942C22.7855 25.832 22.5926 26.0246 22.3548 26.0246V26.0249Z" fill="#3E3E3E"/>
<path d="M11.863 17.281C12.3367 17.281 12.873 17.0456 13.0718 16.6152H10.668C10.8159 16.9226 11.1794 17.281 11.863 17.281Z" fill="#3E3E3E"/>
</svg>
