<svg width="20" height="21" viewBox="0 0 20 21" fill="none" xmlns="http://www.w3.org/2000/svg">
<g id="Group">
<g id="Layer_46">
<path id="Shape" fill-rule="evenodd" clip-rule="evenodd" d="M3 0.5H17C18.6569 0.5 20 1.84315 20 3.5V17.5C20 19.1569 18.6569 20.5 17 20.5H3C1.34315 20.5 0 19.1569 0 17.5V3.5C0 1.84315 1.34315 0.5 3 0.5ZM8.24967 15.1297L15.7097 7.18974C16.0481 6.79735 16.0308 6.21141 15.6697 5.83974C15.4819 5.65043 15.2263 5.54395 14.9597 5.54395C14.693 5.54395 14.4374 5.65043 14.2497 5.83974L7.51967 12.9997L5.75967 11.1297C5.52271 10.8398 5.14366 10.7066 4.77741 10.7844C4.41117 10.8623 4.11912 11.1383 4.02061 11.4995C3.9221 11.8607 4.03365 12.2467 4.30967 12.4997L6.78967 15.1297C6.97987 15.3293 7.24401 15.4414 7.51967 15.4397C7.79533 15.4414 8.05946 15.3293 8.24967 15.1297Z" fill="#00C365"/>
</g>
</g>
</svg>
