<svg width="20" height="21" viewBox="0 0 20 21" fill="none" xmlns="http://www.w3.org/2000/svg">
<g id="Group">
<g id="Layer_90">
<path id="Shape" fill-rule="evenodd" clip-rule="evenodd" d="M17 0.5H3C1.34315 0.5 0 1.84315 0 3.5V17.5C0 19.1569 1.34315 20.5 3 20.5H17C18.6569 20.5 20 19.1569 20 17.5V3.5C20 1.84315 18.6569 0.5 17 0.5ZM9.29 4.79C9.57609 4.50154 10.0083 4.41484 10.3835 4.57063C10.7587 4.72642 11.0024 5.09373 11 5.5C10.9974 5.95137 10.6927 6.34502 10.2564 6.46076C9.82013 6.57649 9.3604 6.38561 9.1344 5.99489C8.90839 5.60417 8.97215 5.11048 9.29 4.79ZM8.86035 16.5H11.1404C11.6926 16.5 12.1404 16.0523 12.1404 15.5C12.1404 14.9477 11.6926 14.5 11.1404 14.5H11.0004V8.5C11.0004 7.94772 10.5526 7.5 10.0004 7.5H9.00035C8.44807 7.5 8.00035 7.94772 8.00035 8.5C8.00035 9.05229 8.44807 9.5 9.00035 9.5V14.5H8.86035C8.30807 14.5 7.86035 14.9477 7.86035 15.5C7.86035 16.0523 8.30807 16.5 8.86035 16.5Z" fill="#FF624C"/>
</g>
</g>
</svg>
