<svg width="25" height="24" viewBox="0 0 25 24" fill="none" xmlns="http://www.w3.org/2000/svg">
  <g clip-path="url(#clip0_690_4332)">
    <path fill-rule="evenodd" clip-rule="evenodd"
      d="M12.5099 0C5.86875 0 0.5 5.40833 0.5 12.0992C0.5 17.4475 3.93994 21.9748 8.71205 23.5771C9.30869 23.6976 9.52724 23.3168 9.52724 22.9965C9.52724 22.716 9.50757 21.7545 9.50757 20.7527C6.1667 21.474 5.47099 19.3104 5.47099 19.3104C4.93409 17.9082 4.13858 17.5478 4.13858 17.5478C3.04511 16.8066 4.21823 16.8066 4.21823 16.8066C5.43117 16.8868 6.06763 18.0486 6.06763 18.0486C7.14118 19.8913 8.87111 19.3707 9.56706 19.0501C9.66638 18.2688 9.98473 17.728 10.3228 17.4276C7.65817 17.1471 4.85469 16.1055 4.85469 11.458C4.85469 10.1359 5.3316 9.05428 6.08729 8.21304C5.96807 7.91263 5.5504 6.67043 6.20677 5.00787C6.20677 5.00787 7.22083 4.6873 9.50732 6.24981C10.4863 5.98497 11.4958 5.85024 12.5099 5.84911C13.524 5.84911 14.5577 5.98948 15.5123 6.24981C17.799 4.6873 18.8131 5.00787 18.8131 5.00787C19.4695 6.67043 19.0515 7.91263 18.9323 8.21304C19.7079 9.05428 20.1652 10.1359 20.1652 11.458C20.1652 16.1055 17.3617 17.1269 14.6772 17.4276C15.1148 17.8081 15.4924 18.5292 15.4924 19.6711C15.4924 21.2936 15.4727 22.5957 15.4727 22.9962C15.4727 23.3168 15.6915 23.6976 16.2879 23.5774C21.06 21.9745 24.4999 17.4475 24.4999 12.0992C24.5196 5.40833 19.1312 0 12.5099 0Z"
      fill="#24292F" />
  </g>
  <defs>
    <clipPath id="clip0_690_4332">
      <rect width="24" height="24" fill="white" transform="translate(0.5)" />
    </clipPath>
  </defs>
</svg>