<svg width="952" height="846" viewBox="0 0 952 846" fill="none" xmlns="http://www.w3.org/2000/svg">
  <path
    d="M-225.616 595.233C-220.103 617.004 -204.675 635.195 -181.443 649.44C-158.21 663.686 -127.19 673.974 -90.5426 679.937C-17.2484 691.863 78.4947 686.482 179.307 660.953C280.119 635.424 366.884 594.588 425.668 549.215C455.061 526.528 477.446 502.717 491.098 479.13C504.75 455.545 509.661 432.204 504.147 410.432C498.634 388.66 483.206 370.47 459.974 356.225C436.741 341.979 405.721 331.691 369.074 325.728C295.779 313.802 200.036 319.183 99.224 344.712C-1.58835 370.241 -88.3529 411.077 -147.137 456.45C-176.53 479.137 -198.914 502.948 -212.567 526.535C-226.219 550.12 -231.129 573.461 -225.616 595.233Z"
    stroke="url(#paint0_linear_9573_17962)" stroke-width="0.634695" />
  <path
    d="M-178.553 584.456C-174.965 598.624 -164.923 610.471 -149.783 619.754C-134.642 629.038 -114.42 635.746 -90.5194 639.635C-42.7201 647.413 19.7275 643.905 85.4869 627.252C151.246 610.6 207.837 583.964 246.174 554.373C265.342 539.578 279.935 524.054 288.832 508.682C297.729 493.312 300.922 478.113 297.334 463.945C293.746 449.777 283.704 437.93 268.565 428.647C253.424 419.363 233.201 412.654 209.301 408.766C161.502 400.988 99.0539 404.496 33.2945 421.149C-32.4648 437.801 -89.0557 464.437 -127.392 494.028C-146.561 508.823 -161.153 524.347 -170.051 539.719C-178.947 555.089 -182.141 570.287 -178.553 584.456Z"
    stroke="url(#paint1_linear_9573_17962)" stroke-width="0.634695" />
  <path
    d="M-391.022 637.118C-383 668.797 -360.553 695.255 -326.778 715.965C-293.001 736.676 -247.912 751.628 -194.653 760.294C-88.1382 777.626 50.9901 769.805 197.478 732.709C343.966 695.614 470.048 636.274 555.476 570.336C598.191 537.367 630.729 502.757 650.578 468.466C670.426 434.176 677.575 400.224 669.552 368.545C661.53 336.866 639.083 310.408 605.308 289.698C571.531 268.986 526.442 254.035 473.184 245.369C366.669 228.037 227.54 235.858 81.0523 272.953C-65.4356 310.049 -191.518 369.388 -276.946 435.327C-319.661 468.296 -352.199 502.906 -372.048 537.197C-391.895 571.487 -399.044 605.439 -391.022 637.118Z"
    stroke="url(#paint2_linear_9573_17962)" stroke-width="0.634695" />
  <path
    d="M-592.29 688.087C-581.215 731.822 -550.228 768.338 -503.623 796.916C-457.015 825.495 -394.806 846.122 -321.336 858.076C-174.398 881.986 17.5224 871.196 219.589 820.026C421.655 768.856 595.579 687.002 713.429 596.039C772.354 550.557 817.247 502.808 844.635 455.492C872.022 408.177 881.895 361.314 870.82 317.579C859.745 273.844 828.758 237.328 782.152 208.75C735.545 180.171 673.336 159.544 599.866 147.59C452.927 123.68 261.007 134.47 58.9409 185.64C-143.126 236.81 -317.05 318.664 -434.899 409.627C-493.824 455.108 -538.718 502.858 -566.106 550.174C-593.493 597.489 -603.365 644.352 -592.29 688.087Z"
    stroke="url(#paint3_linear_9573_17962)" stroke-width="0.634695" />
  <g opacity="0.5">
    <circle cx="9.44366" cy="9.44366" r="9.44366" transform="matrix(-0.961393 -0.275179 -0.275179 0.961393 374.448 317.199)" fill="#0B0B0B" />
    <path
      d="M336.361 319.249L336.158 318.63L334.98 319.016L334.614 319.28L334.736 318.853V317.614H334.096V318.853L334.228 319.29L333.873 319.026L332.685 318.65L332.492 319.259L333.67 319.645L334.106 319.665L333.761 319.909L333.04 320.915L333.558 321.29L334.289 320.295L334.431 319.879L334.584 320.285L335.315 321.29L335.833 320.915L335.101 319.909L334.746 319.655L335.173 319.635L336.361 319.249ZM328.167 317.817C326.177 317.817 325.131 319.391 325.131 321.493C325.131 323.606 326.177 325.18 328.167 325.18C330.178 325.18 331.224 323.606 331.224 321.493C331.224 319.391 330.178 317.817 328.167 317.817ZM328.167 318.528C329.66 318.528 330.401 319.767 330.401 321.493C330.401 322.164 330.29 322.753 330.076 323.23L326.705 319.117C327.07 318.741 327.548 318.528 328.167 318.528ZM328.167 324.469C326.685 324.469 325.953 323.23 325.953 321.493C325.953 320.823 326.065 320.234 326.278 319.757L329.65 323.87C329.284 324.256 328.797 324.469 328.167 324.469ZM320.987 317.817C318.997 317.817 317.951 319.391 317.951 321.493C317.951 323.606 318.997 325.18 320.987 325.18C322.998 325.18 324.044 323.606 324.044 321.493C324.044 319.391 322.998 317.817 320.987 317.817ZM320.987 318.528C322.48 318.528 323.221 319.767 323.221 321.493C323.221 322.164 323.11 322.753 322.896 323.23L319.525 319.117C319.89 318.741 320.368 318.528 320.987 318.528ZM320.987 324.469C319.505 324.469 318.773 323.23 318.773 321.493C318.773 320.823 318.885 320.234 319.098 319.757L322.47 323.87C322.104 324.256 321.617 324.469 320.987 324.469ZM316.896 321.097C315.535 320.549 315.068 319.33 315.048 317.919H313.362V325.078H314.195V318.731L314.053 318.152H314.296C314.398 319.737 314.855 321.229 316.632 321.808L316.896 321.097Z"
      fill="#0B0B0B" />
    <circle cx="14.2955" cy="14.2955" r="14.2955" transform="matrix(-0.961393 -0.275179 -0.275179 0.961393 489.327 496.312)" fill="#0B0B0B" />
    <path
      d="M443.624 499.503L443.421 498.884L442.243 499.269L441.878 499.533L442 499.107V497.868H441.36V499.107L441.492 499.544L441.136 499.28L439.948 498.904L439.755 499.513L440.933 499.899L441.37 499.919L441.025 500.163L440.304 501.168L440.822 501.544L441.553 500.549L441.695 500.133L441.847 500.539L442.578 501.544L443.096 501.168L442.365 500.163L442.01 499.909L442.436 499.889L443.624 499.503ZM438.609 503.362C438.609 502.326 437.99 501.798 436.903 501.514V501.27C437.706 501.036 438.203 500.64 438.203 499.767C438.203 498.599 437.117 498.071 435.705 498.071C434.304 498.071 433.217 498.599 433.217 499.767C433.217 500.64 433.715 501.036 434.517 501.27V501.514C433.43 501.798 432.811 502.346 432.811 503.362C432.811 504.581 433.877 505.434 435.705 505.434C437.553 505.434 438.609 504.581 438.609 503.362ZM437.371 499.909C437.371 500.772 436.751 501.047 435.705 501.047C434.669 501.047 434.05 500.772 434.05 499.909C434.05 499.066 434.669 498.782 435.705 498.782C436.751 498.782 437.371 499.066 437.371 499.909ZM437.777 503.24C437.777 504.134 437.137 504.723 435.705 504.723C434.283 504.723 433.644 504.134 433.644 503.24C433.644 502.357 434.283 501.757 435.705 501.757C437.137 501.757 437.777 502.357 437.777 503.24ZM431.196 505.332C431.196 502.235 429.967 500.244 427.438 498.985V498.752L428.007 498.884H432.435V498.173H427.195V499.574C429.327 500.651 430.353 502.438 430.353 505.332H431.196ZM426.381 501.625C426.381 499.046 425.02 498.071 423.304 498.071C421.781 498.071 420.745 498.914 420.745 500.478C420.745 502.803 423.081 504.052 426.036 504.52V504.753L425.447 504.621H420.745V505.332H426.279V503.88C425.548 503.778 421.578 503.088 421.578 500.468C421.578 499.361 422.197 498.782 423.284 498.782C424.604 498.782 425.548 499.493 425.548 501.625H426.381Z"
      fill="#0B0B0B" />
  </g>
  <defs>
    <linearGradient id="paint0_linear_9573_17962" x1="478.876" y1="397.823" x2="-153.318" y2="660.098" gradientUnits="userSpaceOnUse">
      <stop />
      <stop offset="0.491388" stop-color="#D8D8D8" stop-opacity="0.36" />
      <stop offset="1" />
    </linearGradient>
    <linearGradient id="paint1_linear_9573_17962" x1="280.954" y1="455.692" x2="-131.492" y2="626.801" gradientUnits="userSpaceOnUse">
      <stop />
      <stop offset="0.491388" stop-color="#D8D8D8" stop-opacity="0.36" />
      <stop offset="1" />
    </linearGradient>
    <linearGradient id="paint2_linear_9573_17962" x1="632.695" y1="350.261" x2="-285.839" y2="731.327" gradientUnits="userSpaceOnUse">
      <stop />
      <stop offset="0.491388" stop-color="#D8D8D8" stop-opacity="0.36" />
      <stop offset="1" />
    </linearGradient>
    <linearGradient id="paint3_linear_9573_17962" x1="819.865" y1="292.388" x2="-447.091" y2="818.003" gradientUnits="userSpaceOnUse">
      <stop />
      <stop offset="0.491388" stop-color="#D8D8D8" stop-opacity="0.36" />
      <stop offset="1" />
    </linearGradient>
  </defs>
</svg>