<svg width="750" height="675" viewBox="0 0 750 675" fill="none" xmlns="http://www.w3.org/2000/svg">
  <circle cx="274.5" cy="475.473" r="474" stroke="#656464" />
  <path d="M266.585 597.492L271.083 582.148C271.497 580.733 273.518 580.782 273.864 582.215L277.538 597.433C277.604 597.708 277.75 597.957 277.957 598.149L288.392 607.852C289.554 608.933 288.369 610.824 286.889 610.249L273.117 604.896C272.784 604.766 272.414 604.765 272.08 604.893L257.506 610.48C256.045 611.04 254.865 609.198 255.984 608.105L266.21 598.118C266.386 597.945 266.516 597.73 266.585 597.492Z" stroke="#F2F2F2" strokeWidth="2" stroke-dasharray="4 4" />
  <path d="M-193.749 546.949C-213.73 561.769 -246.904 599.949 -219.754 634.108C-192.603 668.267 -57.9966 645.699 5.91295 630.146C83.9267 605.495 268.251 542.107 381.437 485.762C494.623 429.417 610.189 347.541 653.824 313.646C715 266.125 765.156 209.449 744 172.473C726.811 142.43 660.834 164.111 641 172.474" stroke="#656464" />
  <path d="M260.047 532.557L275.993 531.369C277.463 531.259 278.128 533.168 276.908 533.996L263.962 542.784C263.724 542.945 263.54 543.174 263.434 543.441L258.097 556.784C257.506 558.261 255.309 557.831 255.32 556.24L255.418 541.272C255.42 540.917 255.291 540.573 255.055 540.307L244.696 528.627C243.658 527.457 244.967 525.704 246.383 526.367L259.33 532.425C259.554 532.53 259.801 532.575 260.047 532.557Z" fill="white" />
  <path d="M249.478 542.646C249.615 542.791 249.686 542.985 249.674 543.184L249.059 553.644C249.013 554.42 247.94 554.583 247.666 553.855L240.742 535.431C240.466 534.696 241.399 534.112 241.939 534.683L249.478 542.646Z" fill="white" />
  <path d="M85.5861 464.491L90.0836 449.147C90.4983 447.732 92.5193 447.781 92.8652 449.214L96.5367 464.425C96.6041 464.704 96.7535 464.957 96.9656 465.15L107.579 474.84C108.753 475.913 107.578 477.818 106.092 477.248L92.1156 471.891C91.7837 471.764 91.4165 471.764 91.0847 471.891L76.5065 477.479C75.0463 478.039 73.8662 476.197 74.9849 475.104L85.2105 465.117C85.3873 464.944 85.5166 464.729 85.5861 464.491Z" fill="#F2F2F2" />
  <path
    d="M113.676 462.386C113.676 463.79 114.989 465.103 116.809 465.103C118.577 465.103 119.63 464.063 119.799 462.763C119.994 461.32 119.084 460.384 117.407 459.955L116.237 459.669C115.106 459.396 114.963 458.811 114.963 458.421C114.963 457.602 115.756 457.069 116.64 457.069C117.628 457.069 118.33 457.641 118.33 458.538H119.539C119.539 456.926 118.278 455.912 116.653 455.912C115.132 455.912 113.754 456.926 113.754 458.434C113.754 459.214 114.027 460.293 115.938 460.774L117.095 461.06C117.901 461.242 118.681 461.697 118.616 462.659C118.512 463.335 117.953 463.972 116.809 463.972C115.678 463.972 114.885 463.166 114.885 462.386H113.676ZM121.336 464.297C121.336 464.765 121.726 465.103 122.181 465.103C122.649 465.103 123.039 464.765 123.039 464.297C123.039 463.829 122.649 463.478 122.181 463.478C121.726 463.478 121.336 463.829 121.336 464.297ZM124.685 464.453V464.973H129.924V463.803H126.687C127.87 462.412 127.883 462.36 128.988 461.086C129.547 460.462 129.911 459.721 129.911 458.889C129.911 457.394 128.728 456.38 127.246 456.38C125.933 456.38 124.789 457.238 124.581 458.616L125.712 458.889C125.829 458.044 126.466 457.55 127.246 457.55C128.078 457.55 128.754 458.057 128.754 458.889C128.754 459.37 128.507 459.825 128.13 460.28L124.685 464.453ZM135.035 461.372V462.503H139.559V461.372H135.035ZM145.761 464.973H146.931V456.406L144.383 457.329V458.447L145.761 457.966V464.973ZM154.289 456.016H153.002L148.582 464.973H149.869L154.289 456.016ZM155.316 463.166C155.836 464.349 156.954 465.103 158.137 465.103C160.035 465.103 161.322 463.985 161.322 462.243C161.322 460.475 159.983 459.526 158.423 459.526C157.916 459.526 157.214 459.734 156.824 460.02L157.292 457.615H160.854V456.497H156.33L155.589 460.722L156.317 461.32C157.188 460.8 157.695 460.618 158.423 460.618C159.359 460.618 160.178 461.151 160.178 462.243C160.178 463.192 159.567 463.972 158.137 463.972C157.318 463.972 156.642 463.452 156.317 462.62L155.316 463.166Z"
    fill="#F2F2F2" />
  <path d="M143.586 344.491L148.084 329.147C148.498 327.732 150.519 327.781 150.865 329.214L154.537 344.425C154.604 344.704 154.753 344.957 154.966 345.15L165.579 354.84C166.753 355.913 165.578 357.818 164.092 357.248L150.116 351.891C149.784 351.764 149.417 351.764 149.085 351.891L134.507 357.479C133.046 358.039 131.866 356.197 132.985 355.104L143.21 345.117C143.387 344.944 143.517 344.729 143.586 344.491Z" fill="#F2F2F2" />
  <path
    d="M174.676 343.386C174.676 344.79 175.989 346.103 177.809 346.103C179.577 346.103 180.63 345.063 180.799 343.763C180.994 342.32 180.084 341.384 178.407 340.955L177.237 340.669C176.106 340.396 175.963 339.811 175.963 339.421C175.963 338.602 176.756 338.069 177.64 338.069C178.628 338.069 179.33 338.641 179.33 339.538H180.539C180.539 337.926 179.278 336.912 177.653 336.912C176.132 336.912 174.754 337.926 174.754 339.434C174.754 340.214 175.027 341.293 176.938 341.774L178.095 342.06C178.901 342.242 179.681 342.697 179.616 343.659C179.512 344.335 178.953 344.972 177.809 344.972C176.678 344.972 175.885 344.166 175.885 343.386H174.676ZM182.336 345.297C182.336 345.765 182.726 346.103 183.181 346.103C183.649 346.103 184.039 345.765 184.039 345.297C184.039 344.829 183.649 344.478 183.181 344.478C182.726 344.478 182.336 344.829 182.336 345.297ZM185.685 345.453V345.973H190.924V344.803H187.687C188.87 343.412 188.883 343.36 189.988 342.086C190.547 341.462 190.911 340.721 190.911 339.889C190.911 338.394 189.728 337.38 188.246 337.38C186.933 337.38 185.789 338.238 185.581 339.616L186.712 339.889C186.829 339.044 187.466 338.55 188.246 338.55C189.078 338.55 189.754 339.057 189.754 339.889C189.754 340.37 189.507 340.825 189.13 341.28L185.685 345.453ZM196.035 342.372V343.503H200.559V342.372H196.035ZM205.617 345.453V345.973H210.856V344.803H207.619C208.802 343.412 208.815 343.36 209.92 342.086C210.479 341.462 210.843 340.721 210.843 339.889C210.843 338.394 209.66 337.38 208.178 337.38C206.865 337.38 205.721 338.238 205.513 339.616L206.644 339.889C206.761 339.044 207.398 338.55 208.178 338.55C209.01 338.55 209.686 339.057 209.686 339.889C209.686 340.37 209.439 340.825 209.062 341.28L205.617 345.453ZM217.803 337.016H216.516L212.096 345.973H213.383L217.803 337.016ZM218.829 344.166C219.349 345.349 220.467 346.103 221.65 346.103C223.548 346.103 224.835 344.985 224.835 343.243C224.835 341.475 223.496 340.526 221.936 340.526C221.429 340.526 220.727 340.734 220.337 341.02L220.805 338.615H224.367V337.497H219.843L219.102 341.722L219.83 342.32C220.701 341.8 221.208 341.618 221.936 341.618C222.872 341.618 223.691 342.151 223.691 343.243C223.691 344.192 223.08 344.972 221.65 344.972C220.831 344.972 220.155 344.452 219.83 343.62L218.829 344.166Z"
    fill="#F2F2F2" />
  <path d="M447.586 522.492L452.083 507.147C452.498 505.732 454.519 505.781 454.865 507.215L458.538 522.432C458.604 522.707 458.75 522.956 458.957 523.149L469.392 532.852C470.554 533.932 469.369 535.823 467.89 535.248L454.118 529.895C453.784 529.765 453.415 529.764 453.081 529.892L438.506 535.479C437.046 536.039 435.866 534.197 436.984 533.105L447.21 523.117C447.387 522.944 447.516 522.729 447.586 522.492Z" stroke="#F2F2F2" strokeWidth="2" stroke-dasharray="4 4" />
  <path
    d="M475.676 520.386C475.676 521.79 476.989 523.103 478.809 523.103C480.577 523.103 481.63 522.063 481.799 520.763C481.994 519.32 481.084 518.384 479.407 517.955L478.237 517.669C477.106 517.396 476.963 516.811 476.963 516.421C476.963 515.602 477.756 515.069 478.64 515.069C479.628 515.069 480.33 515.641 480.33 516.538H481.539C481.539 514.926 480.278 513.912 478.653 513.912C477.132 513.912 475.754 514.926 475.754 516.434C475.754 517.214 476.027 518.293 477.938 518.774L479.095 519.06C479.901 519.242 480.681 519.697 480.616 520.659C480.512 521.335 479.953 521.972 478.809 521.972C477.678 521.972 476.885 521.166 476.885 520.386H475.676ZM483.336 522.297C483.336 522.765 483.726 523.103 484.181 523.103C484.649 523.103 485.039 522.765 485.039 522.297C485.039 521.829 484.649 521.478 484.181 521.478C483.726 521.478 483.336 521.829 483.336 522.297ZM486.685 522.453V522.973H491.924V521.803H488.687C489.87 520.412 489.883 520.36 490.988 519.086C491.547 518.462 491.911 517.721 491.911 516.889C491.911 515.394 490.728 514.38 489.246 514.38C487.933 514.38 486.789 515.238 486.581 516.616L487.712 516.889C487.829 516.044 488.466 515.55 489.246 515.55C490.078 515.55 490.754 516.057 490.754 516.889C490.754 517.37 490.507 517.825 490.13 518.28L486.685 522.453ZM497.034 519.372V520.503H501.558V519.372H497.034ZM511.752 521.231H512.974V520.126H511.752V514.484H510.881L506.175 521.231H510.595V522.973H511.752V521.231ZM508.164 520.126L510.595 516.59V520.126H508.164ZM519.64 514.016H518.353L513.933 522.973H515.22L519.64 514.016ZM520.667 521.166C521.187 522.349 522.305 523.103 523.488 523.103C525.386 523.103 526.673 521.985 526.673 520.243C526.673 518.475 525.334 517.526 523.774 517.526C523.267 517.526 522.565 517.734 522.175 518.02L522.643 515.615H526.205V514.497H521.681L520.94 518.722L521.668 519.32C522.539 518.8 523.046 518.618 523.774 518.618C524.71 518.618 525.529 519.151 525.529 520.243C525.529 521.192 524.918 521.972 523.488 521.972C522.669 521.972 521.993 521.452 521.668 520.62L520.667 521.166Z"
    fill="#F2F2F2" />
  <path
    d="M296.676 595.387C296.676 596.791 297.989 598.104 299.809 598.104C301.577 598.104 302.63 597.064 302.799 595.764C302.994 594.321 302.084 593.385 300.407 592.956L299.237 592.67C298.106 592.397 297.963 591.812 297.963 591.422C297.963 590.603 298.756 590.07 299.64 590.07C300.628 590.07 301.33 590.642 301.33 591.539H302.539C302.539 589.927 301.278 588.913 299.653 588.913C298.132 588.913 296.754 589.927 296.754 591.435C296.754 592.215 297.027 593.294 298.938 593.775L300.095 594.061C300.901 594.243 301.681 594.698 301.616 595.66C301.512 596.336 300.953 596.973 299.809 596.973C298.678 596.973 297.885 596.167 297.885 595.387H296.676ZM304.336 597.298C304.336 597.766 304.726 598.104 305.181 598.104C305.649 598.104 306.039 597.766 306.039 597.298C306.039 596.83 305.649 596.479 305.181 596.479C304.726 596.479 304.336 596.83 304.336 597.298ZM307.685 597.454V597.974H312.924V596.804H309.687C310.87 595.413 310.883 595.361 311.988 594.087C312.547 593.463 312.911 592.722 312.911 591.89C312.911 590.395 311.728 589.381 310.246 589.381C308.933 589.381 307.789 590.239 307.581 591.617L308.712 591.89C308.829 591.045 309.466 590.551 310.246 590.551C311.078 590.551 311.754 591.058 311.754 591.89C311.754 592.371 311.507 592.826 311.13 593.281L307.685 597.454ZM318.034 594.373V595.504H322.558V594.373H318.034ZM327.461 596.167C327.981 597.35 329.099 598.104 330.282 598.104C332.18 598.104 333.467 596.986 333.467 595.244C333.467 593.476 332.128 592.527 330.568 592.527C330.061 592.527 329.359 592.735 328.969 593.021L329.437 590.616H332.999V589.498H328.475L327.734 593.723L328.462 594.321C329.333 593.801 329.84 593.619 330.568 593.619C331.504 593.619 332.323 594.152 332.323 595.244C332.323 596.193 331.712 596.973 330.282 596.973C329.463 596.973 328.787 596.453 328.462 595.621L327.461 596.167ZM340.284 589.017H338.997L334.577 597.974H335.864L340.284 589.017ZM341.311 596.167C341.831 597.35 342.949 598.104 344.132 598.104C346.03 598.104 347.317 596.986 347.317 595.244C347.317 593.476 345.978 592.527 344.418 592.527C343.911 592.527 343.209 592.735 342.819 593.021L343.287 590.616H346.849V589.498H342.325L341.584 593.723L342.312 594.321C343.183 593.801 343.69 593.619 344.418 593.619C345.354 593.619 346.173 594.152 346.173 595.244C346.173 596.193 345.562 596.973 344.132 596.973C343.313 596.973 342.637 596.453 342.312 595.621L341.311 596.167Z"
    fill="#F2F2F2" />
  <path d="M326.586 403.491L331.083 388.147C331.498 386.732 333.519 386.781 333.865 388.214L337.538 403.432C337.604 403.707 337.75 403.956 337.957 404.148L348.392 413.851C349.554 414.932 348.369 416.823 346.89 416.248L333.118 410.895C332.784 410.765 332.415 410.764 332.081 410.892L317.506 416.479C316.046 417.039 314.866 415.197 315.984 414.104L326.21 404.117C326.387 403.944 326.516 403.729 326.586 403.491Z" stroke="#FEFEFE" strokeWidth="2" stroke-dasharray="4 4" />
  <path
    d="M354.676 401.386C354.676 402.79 355.989 404.103 357.809 404.103C359.577 404.103 360.63 403.063 360.799 401.763C360.994 400.32 360.084 399.384 358.407 398.955L357.237 398.669C356.106 398.396 355.963 397.811 355.963 397.421C355.963 396.602 356.756 396.069 357.64 396.069C358.628 396.069 359.33 396.641 359.33 397.538H360.539C360.539 395.926 359.278 394.912 357.653 394.912C356.132 394.912 354.754 395.926 354.754 397.434C354.754 398.214 355.027 399.293 356.938 399.774L358.095 400.06C358.901 400.242 359.681 400.697 359.616 401.659C359.512 402.335 358.953 402.972 357.809 402.972C356.678 402.972 355.885 402.166 355.885 401.386H354.676ZM362.336 403.297C362.336 403.765 362.726 404.103 363.181 404.103C363.649 404.103 364.039 403.765 364.039 403.297C364.039 402.829 363.649 402.478 363.181 402.478C362.726 402.478 362.336 402.829 362.336 403.297ZM365.685 403.453V403.973H370.924V402.803H367.687C368.87 401.412 368.883 401.36 369.988 400.086C370.547 399.462 370.911 398.721 370.911 397.889C370.911 396.394 369.728 395.38 368.246 395.38C366.933 395.38 365.789 396.238 365.581 397.616L366.712 397.889C366.829 397.044 367.466 396.55 368.246 396.55C369.078 396.55 369.754 397.057 369.754 397.889C369.754 398.37 369.507 398.825 369.13 399.28L365.685 403.453ZM376.034 400.372V401.503H380.558V400.372H376.034ZM386.761 397.304C387.112 396.784 387.58 396.485 388.243 396.537C388.659 396.576 389.036 396.758 389.231 397.031C389.426 397.304 389.426 397.603 389.374 397.902C389.27 398.461 388.815 398.89 388.204 398.877H387.242V400.008H388.204C389.088 400.008 389.881 400.71 389.842 401.529C389.803 402.348 388.919 402.985 387.996 402.92H388.009C387.32 402.868 386.683 402.335 386.423 401.75L385.396 402.309C385.851 403.297 386.787 403.986 387.918 404.077C389.504 404.181 390.882 403.141 391.025 401.685C391.09 400.788 390.557 399.709 389.686 399.397C390.141 399.137 390.466 398.708 390.609 398.24C390.661 398.058 390.687 397.889 390.687 397.72C390.726 396.537 389.738 395.432 388.347 395.367C387.294 395.302 386.358 395.796 385.89 396.615L386.761 397.304ZM397.904 395.016H396.617L392.197 403.973H393.484L397.904 395.016ZM398.93 402.166C399.45 403.349 400.568 404.103 401.751 404.103C403.649 404.103 404.936 402.985 404.936 401.243C404.936 399.475 403.597 398.526 402.037 398.526C401.53 398.526 400.828 398.734 400.438 399.02L400.906 396.615H404.468V395.497H399.944L399.203 399.722L399.931 400.32C400.802 399.8 401.309 399.618 402.037 399.618C402.973 399.618 403.792 400.151 403.792 401.243C403.792 402.192 403.181 402.972 401.751 402.972C400.932 402.972 400.256 402.452 399.931 401.62L398.93 402.166Z"
    fill="#FEFEFE" />
  <path
    d="M354.676 401.386V400.98H354.269V401.386H354.676ZM360.799 401.763L360.396 401.709L360.396 401.711L360.799 401.763ZM358.407 398.955L358.507 398.562L358.503 398.561L358.407 398.955ZM357.237 398.669L357.333 398.275L357.332 398.274L357.237 398.669ZM359.33 397.538H358.923V397.944H359.33V397.538ZM360.539 397.538V397.944H360.945V397.538H360.539ZM356.938 399.774L356.838 400.168L356.84 400.169L356.938 399.774ZM358.095 400.06L357.997 400.455L358.005 400.456L358.095 400.06ZM359.616 401.659L360.017 401.721L360.02 401.704L360.021 401.687L359.616 401.659ZM355.885 401.386H356.291V400.98H355.885V401.386ZM354.269 401.386C354.269 403.051 355.803 404.509 357.809 404.509V403.697C356.175 403.697 355.082 402.529 355.082 401.386H354.269ZM357.809 404.509C358.774 404.509 359.575 404.224 360.164 403.732C360.752 403.241 361.105 402.561 361.201 401.816L360.396 401.711C360.324 402.266 360.065 402.756 359.643 403.109C359.22 403.462 358.611 403.697 357.809 403.697V404.509ZM361.201 401.818C361.313 400.99 361.107 400.275 360.609 399.71C360.123 399.159 359.391 398.788 358.507 398.562L358.306 399.349C359.1 399.552 359.66 399.863 360 400.248C360.328 400.619 360.479 401.093 360.396 401.709L361.201 401.818ZM358.503 398.561L357.333 398.275L357.14 399.064L358.31 399.35L358.503 398.561ZM357.332 398.274C356.825 398.152 356.601 397.975 356.497 397.841C356.395 397.708 356.369 397.565 356.369 397.421H355.556C355.556 397.667 355.602 398.011 355.854 398.337C356.105 398.662 356.517 398.913 357.141 399.064L357.332 398.274ZM356.369 397.421C356.369 396.922 356.871 396.475 357.64 396.475V395.663C356.64 395.663 355.556 396.283 355.556 397.421H356.369ZM357.64 396.475C358.058 396.475 358.38 396.596 358.591 396.776C358.797 396.951 358.923 397.204 358.923 397.538H359.736C359.736 396.975 359.512 396.493 359.119 396.158C358.732 395.828 358.21 395.663 357.64 395.663V396.475ZM359.33 397.944H360.539V397.132H359.33V397.944ZM360.945 397.538C360.945 396.618 360.582 395.85 359.973 395.315C359.369 394.786 358.548 394.506 357.653 394.506V395.318C358.382 395.318 359.004 395.546 359.437 395.926C359.865 396.302 360.132 396.846 360.132 397.538H360.945ZM357.653 394.506C355.983 394.506 354.347 395.633 354.347 397.434H355.16C355.16 396.219 356.28 395.318 357.653 395.318V394.506ZM354.347 397.434C354.347 397.87 354.424 398.431 354.799 398.953C355.177 399.479 355.817 399.911 356.838 400.168L357.037 399.38C356.147 399.156 355.696 398.809 355.459 398.479C355.22 398.147 355.16 397.778 355.16 397.434H354.347ZM356.84 400.169L357.997 400.455L358.192 399.666L357.035 399.38L356.84 400.169ZM358.005 400.456C358.373 400.539 358.695 400.677 358.911 400.87C359.111 401.049 359.234 401.284 359.21 401.632L360.021 401.687C360.062 401.073 359.827 400.599 359.452 400.264C359.093 399.944 358.622 399.763 358.184 399.664L358.005 400.456ZM359.214 401.597C359.176 401.846 359.056 402.081 358.844 402.256C358.633 402.429 358.303 402.566 357.809 402.566V403.378C358.458 403.378 358.98 403.196 359.361 402.883C359.74 402.57 359.951 402.149 360.017 401.721L359.214 401.597ZM357.809 402.566C356.852 402.566 356.291 401.895 356.291 401.386H355.478C355.478 402.438 356.503 403.378 357.809 403.378V402.566ZM355.885 400.98H354.676V401.792H355.885V400.98ZM361.93 403.297C361.93 404.018 362.531 404.509 363.181 404.509V403.697C362.92 403.697 362.742 403.512 362.742 403.297H361.93ZM363.181 404.509C363.839 404.509 364.445 404.022 364.445 403.297H363.633C363.633 403.508 363.458 403.697 363.181 403.697V404.509ZM364.445 403.297C364.445 402.58 363.848 402.072 363.181 402.072V402.884C363.45 402.884 363.633 403.078 363.633 403.297H364.445ZM363.181 402.072C362.522 402.072 361.93 402.584 361.93 403.297H362.742C362.742 403.074 362.929 402.884 363.181 402.884V402.072ZM365.685 403.453L365.372 403.195L365.279 403.307V403.453H365.685ZM365.685 403.973H365.279V404.379H365.685V403.973ZM370.924 403.973V404.379H371.33V403.973H370.924ZM370.924 402.803H371.33V402.397H370.924V402.803ZM367.687 402.803L367.377 402.54L366.808 403.209H367.687V402.803ZM369.988 400.086L369.685 399.815L369.681 399.82L369.988 400.086ZM365.581 397.616L365.179 397.556L365.124 397.924L365.486 398.011L365.581 397.616ZM366.712 397.889L366.617 398.284L367.053 398.389L367.114 397.945L366.712 397.889ZM369.13 399.28L368.817 399.021L368.817 399.022L369.13 399.28ZM365.279 403.453V403.973H366.091V403.453H365.279ZM365.685 404.379H370.924V403.567H365.685V404.379ZM371.33 403.973V402.803H370.518V403.973H371.33ZM370.924 402.397H367.687V403.209H370.924V402.397ZM367.996 403.066C369.19 401.663 369.189 401.627 370.295 400.352L369.681 399.82C368.577 401.093 368.55 401.161 367.377 402.54L367.996 403.066ZM370.29 400.357C370.897 399.681 371.317 398.847 371.317 397.889H370.505C370.505 398.595 370.197 399.244 369.685 399.815L370.29 400.357ZM371.317 397.889C371.317 396.137 369.918 394.974 368.246 394.974V395.786C369.538 395.786 370.505 396.652 370.505 397.889H371.317ZM368.246 394.974C366.753 394.974 365.42 395.959 365.179 397.556L365.983 397.677C366.158 396.517 367.113 395.786 368.246 395.786V394.974ZM365.486 398.011L366.617 398.284L366.807 397.494L365.676 397.221L365.486 398.011ZM367.114 397.945C367.202 397.312 367.658 396.956 368.246 396.956V396.144C367.274 396.144 366.456 396.777 366.309 397.833L367.114 397.945ZM368.246 396.956C368.582 396.956 368.861 397.059 369.05 397.218C369.231 397.371 369.348 397.593 369.348 397.889H370.16C370.16 397.354 369.938 396.905 369.574 396.597C369.216 396.295 368.742 396.144 368.246 396.144V396.956ZM369.348 397.889C369.348 398.228 369.173 398.591 368.817 399.021L369.443 399.539C369.841 399.059 370.16 398.512 370.16 397.889H369.348ZM368.817 399.022L365.372 403.195L365.998 403.712L369.443 399.539L368.817 399.022ZM376.034 400.372V399.966H375.628V400.372H376.034ZM376.034 401.503H375.628V401.909H376.034V401.503ZM380.558 401.503V401.909H380.965V401.503H380.558ZM380.558 400.372H380.965V399.966H380.558V400.372ZM375.628 400.372V401.503H376.441V400.372H375.628ZM376.034 401.909H380.558V401.097H376.034V401.909ZM380.965 401.503V400.372H380.152V401.503H380.965ZM380.558 399.966H376.034V400.778H380.558V399.966ZM386.761 397.304L386.509 397.623L386.852 397.895L387.097 397.531L386.761 397.304ZM388.243 396.537L388.28 396.133L388.274 396.132L388.243 396.537ZM389.231 397.031L389.561 396.795V396.795L389.231 397.031ZM389.374 397.902L389.773 397.976L389.774 397.972L389.374 397.902ZM388.204 398.877L388.212 398.471H388.204V398.877ZM387.242 398.877V398.471H386.835V398.877H387.242ZM387.242 400.008H386.835V400.414H387.242V400.008ZM387.996 402.92V402.514L387.967 403.325L387.996 402.92ZM388.009 402.92V403.326L388.039 402.515L388.009 402.92ZM386.423 401.75L386.794 401.585L386.615 401.183L386.228 401.393L386.423 401.75ZM385.396 402.309L385.201 401.952L384.868 402.134L385.027 402.479L385.396 402.309ZM387.918 404.077L387.885 404.482L387.891 404.483L387.918 404.077ZM391.025 401.685L391.429 401.725L391.43 401.715L391.025 401.685ZM389.686 399.397L389.484 399.044L388.718 399.482L389.549 399.78L389.686 399.397ZM390.609 398.24L390.997 398.359L390.999 398.352L390.609 398.24ZM390.687 397.72L390.28 397.707V397.72H390.687ZM388.347 395.367L388.322 395.773L388.328 395.773L388.347 395.367ZM385.89 396.615L385.537 396.414L385.363 396.717L385.638 396.934L385.89 396.615ZM387.097 397.531C387.247 397.31 387.407 397.157 387.579 397.063C387.748 396.97 387.951 396.922 388.211 396.942L388.274 396.132C387.871 396.1 387.508 396.176 387.19 396.35C386.875 396.522 386.625 396.778 386.424 397.077L387.097 397.531ZM388.205 396.942C388.543 396.973 388.794 397.118 388.9 397.267L389.561 396.795C389.278 396.398 388.774 396.179 388.28 396.133L388.205 396.942ZM388.9 397.267C389.001 397.409 389.018 397.574 388.973 397.833L389.774 397.972C389.833 397.632 389.85 397.199 389.561 396.795L388.9 397.267ZM388.974 397.828C388.903 398.212 388.603 398.479 388.212 398.471L388.195 399.283C389.026 399.301 389.636 398.71 389.773 397.976L388.974 397.828ZM388.204 398.471H387.242V399.283H388.204V398.471ZM386.835 398.877V400.008H387.648V398.877H386.835ZM387.242 400.414H388.204V399.602H387.242V400.414ZM388.204 400.414C388.911 400.414 389.461 400.974 389.436 401.51L390.247 401.548C390.3 400.446 389.264 399.602 388.204 399.602V400.414ZM389.436 401.51C389.423 401.773 389.274 402.033 389.008 402.23C388.742 402.427 388.386 402.54 388.024 402.515L387.967 403.325C388.528 403.365 389.075 403.192 389.492 402.882C389.909 402.573 390.221 402.105 390.247 401.548L389.436 401.51ZM387.996 403.326H388.009V402.514H387.996V403.326ZM388.039 402.515C387.523 402.476 387.004 402.057 386.794 401.585L386.051 401.915C386.362 402.613 387.116 403.26 387.978 403.325L388.039 402.515ZM386.228 401.393L385.201 401.952L385.59 402.666L386.617 402.107L386.228 401.393ZM385.027 402.479C385.541 403.596 386.603 404.379 387.885 404.482L387.95 403.672C386.97 403.593 386.16 402.998 385.765 402.139L385.027 402.479ZM387.891 404.483C389.657 404.598 391.261 403.436 391.429 401.725L390.62 401.645C390.502 402.846 389.35 403.764 387.944 403.672L387.891 404.483ZM391.43 401.715C391.468 401.18 391.33 400.608 391.061 400.124C390.792 399.641 390.373 399.212 389.823 399.015L389.549 399.78C389.869 399.894 390.152 400.161 390.351 400.519C390.55 400.877 390.646 401.293 390.619 401.656L391.43 401.715ZM389.887 399.75C390.436 399.436 390.825 398.922 390.997 398.359L390.22 398.121C390.106 398.495 389.845 398.838 389.484 399.044L389.887 399.75ZM390.999 398.352C391.06 398.139 391.093 397.933 391.093 397.72H390.28C390.28 397.846 390.261 397.977 390.218 398.129L390.999 398.352ZM391.093 397.734C391.139 396.313 389.963 395.036 388.366 394.961L388.328 395.773C389.513 395.828 390.312 396.761 390.281 397.707L391.093 397.734ZM388.372 394.962C387.177 394.888 386.088 395.449 385.537 396.414L386.242 396.817C386.627 396.143 387.41 395.716 388.322 395.773L388.372 394.962ZM385.638 396.934L386.509 397.623L387.013 396.986L386.142 396.297L385.638 396.934ZM397.904 395.016L398.268 395.196L398.557 394.61H397.904V395.016ZM396.617 395.016V394.61H396.364L396.252 394.836L396.617 395.016ZM392.197 403.973L391.832 403.793L391.543 404.379H392.197V403.973ZM393.484 403.973V404.379H393.736L393.848 404.153L393.484 403.973ZM397.904 394.61H396.617V395.422H397.904V394.61ZM396.252 394.836L391.832 403.793L392.561 404.153L396.981 395.196L396.252 394.836ZM392.197 404.379H393.484V403.567H392.197V404.379ZM393.848 404.153L398.268 395.196L397.539 394.836L393.119 403.793L393.848 404.153ZM398.93 402.166L398.736 401.809L398.408 401.988L398.558 402.33L398.93 402.166ZM400.438 399.02L400.04 398.943L399.841 399.962L400.679 399.348L400.438 399.02ZM400.906 396.615V396.209H400.571L400.508 396.538L400.906 396.615ZM404.468 396.615V397.021H404.875V396.615H404.468ZM404.468 395.497H404.875V395.091H404.468V395.497ZM399.944 395.497V395.091H399.603L399.544 395.427L399.944 395.497ZM399.203 399.722L398.803 399.652L398.762 399.886L398.945 400.036L399.203 399.722ZM399.931 400.32L399.673 400.634L399.894 400.815L400.14 400.669L399.931 400.32ZM399.931 401.62L400.31 401.472L400.142 401.043L399.737 401.263L399.931 401.62ZM398.558 402.33C399.138 403.648 400.394 404.509 401.751 404.509V403.697C400.743 403.697 399.763 403.051 399.302 402.003L398.558 402.33ZM401.751 404.509C402.779 404.509 403.678 404.206 404.326 403.63C404.978 403.049 405.343 402.22 405.343 401.243H404.53C404.53 402.008 404.251 402.609 403.786 403.023C403.315 403.441 402.622 403.697 401.751 403.697V404.509ZM405.343 401.243C405.343 400.248 404.961 399.454 404.338 398.914C403.721 398.381 402.896 398.12 402.037 398.12V398.932C402.738 398.932 403.363 399.146 403.806 399.529C404.242 399.906 404.53 400.471 404.53 401.243H405.343ZM402.037 398.12C401.734 398.12 401.392 398.181 401.075 398.277C400.761 398.373 400.442 398.514 400.198 398.693L400.679 399.348C400.825 399.241 401.052 399.134 401.312 399.054C401.572 398.975 401.833 398.932 402.037 398.932V398.12ZM400.837 399.098L401.305 396.693L400.508 396.538L400.04 398.943L400.837 399.098ZM400.906 397.021H404.468V396.209H400.906V397.021ZM404.875 396.615V395.497H404.062V396.615H404.875ZM404.468 395.091H399.944V395.903H404.468V395.091ZM399.544 395.427L398.803 399.652L399.603 399.792L400.344 395.567L399.544 395.427ZM398.945 400.036L399.673 400.634L400.189 400.006L399.461 399.408L398.945 400.036ZM400.14 400.669C400.978 400.168 401.411 400.024 402.037 400.024V399.212C401.207 399.212 400.627 399.432 399.723 399.971L400.14 400.669ZM402.037 400.024C402.433 400.024 402.772 400.137 403.005 400.332C403.228 400.52 403.386 400.809 403.386 401.243H404.199C404.199 400.586 403.947 400.062 403.527 399.71C403.116 399.366 402.578 399.212 402.037 399.212V400.024ZM403.386 401.243C403.386 401.63 403.263 401.946 403.029 402.168C402.793 402.392 402.394 402.566 401.751 402.566V403.378C402.539 403.378 403.16 403.163 403.587 402.759C404.016 402.353 404.199 401.805 404.199 401.243H403.386ZM401.751 402.566C401.128 402.566 400.585 402.176 400.31 401.472L399.553 401.768C399.928 402.728 400.737 403.378 401.751 403.378V402.566ZM399.737 401.263L398.736 401.809L399.125 402.523L400.126 401.977L399.737 401.263Z"
    fill="#1D1D1D" />
  <path d="M314 376.973H307.4C307.179 376.973 307 377.152 307 377.373V383.973" stroke="white" strokeWidth="2" />
  <path d="M413 383.973L413 377.373C413 377.152 412.821 376.973 412.6 376.973L406 376.973" stroke="white" strokeWidth="2" />
  <path d="M413 418.973L413 425.573C413 425.794 412.821 425.973 412.6 425.973L406 425.973" stroke="white" strokeWidth="2" />
  <path d="M314 425.973H307.4C307.179 425.973 307 425.794 307 425.573V418.973" stroke="white" strokeWidth="2" />
</svg>
