<svg width="16" height="16" viewBox="0 0 16 16" fill="none" xmlns="http://www.w3.org/2000/svg">
  <circle cx="8" cy="8" r="8" fill="#FFE866" />
  <g filter="url(#filter0_i_4780_43257)">
    <circle cx="8.00001" cy="7.99961" r="6.4" fill="#FAD81C" />
  </g>
  <g filter="url(#filter1_d_4780_43257)">
    <path fill-rule="evenodd" clip-rule="evenodd"
      d="M10.64 5.36336L10.6413 5.36213L10.6414 5.36228C10.3976 5.1182 10.1201 4.90773 9.81661 4.73839C9.27906 4.43846 8.65974 4.26758 8.00042 4.26758L4.43146 4.4314L4.26718 8.00065C4.26718 9.03346 4.68936 9.97111 5.37112 10.6483L5.36989 10.6495C5.5357 10.8142 5.71688 10.9634 5.91109 11.0948C6.50732 11.4982 7.22636 11.7337 8.00042 11.7337L11.5692 11.5699L11.7335 8.00065C11.7335 6.97308 11.3156 6.03973 10.64 5.36336ZM8.0186 10.2175C9.27286 10.2175 10.2196 9.30345 10.2196 7.99174C10.2196 6.68003 9.27286 5.76601 8.0186 5.76601C6.76434 5.76601 5.81762 6.68003 5.81762 7.99174C5.81762 9.30345 6.76434 10.2175 8.0186 10.2175Z"
      fill="#FFE866" />
  </g>
  <defs>
    <filter id="filter0_i_4780_43257" x="1.60001" y="1.59961" width="12.8" height="12.8008" filterUnits="userSpaceOnUse" color-interpolation-filters="sRGB">
      <feFlood flood-opacity="0" result="BackgroundImageFix" />
      <feBlend mode="normal" in="SourceGraphic" in2="BackgroundImageFix" result="shape" />
      <feColorMatrix in="SourceAlpha" type="matrix" values="0 0 0 0 0 0 0 0 0 0 0 0 0 0 0 0 0 0 127 0" result="hardAlpha" />
      <feOffset />
      <feGaussianBlur stdDeviation="1" />
      <feComposite in2="hardAlpha" operator="arithmetic" k2="-1" k3="1" />
      <feColorMatrix type="matrix" values="0 0 0 0 0 0 0 0 0 0 0 0 0 0 0 0 0 0 0.12 0" />
      <feBlend mode="normal" in2="shape" result="effect1_innerShadow_4780_43257" />
    </filter>
    <filter id="filter1_d_4780_43257" x="0.267181" y="0.267578" width="15.4663" height="15.4668" filterUnits="userSpaceOnUse" color-interpolation-filters="sRGB">
      <feFlood flood-opacity="0" result="BackgroundImageFix" />
      <feColorMatrix in="SourceAlpha" type="matrix" values="0 0 0 0 0 0 0 0 0 0 0 0 0 0 0 0 0 0 127 0" result="hardAlpha" />
      <feOffset />
      <feGaussianBlur stdDeviation="2" />
      <feComposite in2="hardAlpha" operator="out" />
      <feColorMatrix type="matrix" values="0 0 0 0 0 0 0 0 0 0 0 0 0 0 0 0 0 0 0.12 0" />
      <feBlend mode="normal" in2="BackgroundImageFix" result="effect1_dropShadow_4780_43257" />
      <feBlend mode="normal" in="SourceGraphic" in2="effect1_dropShadow_4780_43257" result="shape" />
    </filter>
  </defs>
</svg>