<svg xmlns="http://www.w3.org/2000/svg" width="27" height="26" viewBox="0 0 27 26" fill="none">
  <g clip-path="url(#clip0_11_18514)">
    <path d="M26.3745 0L14.7891 8.80523L16.9435 3.61606L26.3745 0Z" fill="#E17726"/>
    <path d="M0.65266 0.00976562L10.0585 3.61607L12.1041 8.87327L0.65266 0.00976562ZM21.7115 18.7257L26.8321 18.8258L25.0425 25.0703L18.7942 23.3033L21.7115 18.7257ZM5.2878 18.7257L8.1942 23.3033L1.95646 25.0704L0.177734 18.8258L5.2878 18.7257Z" fill="#E27625"/>
    <path d="M11.826 7.53449L12.0352 14.4768L5.77344 14.1842L7.55459 11.4241L7.57716 11.3975L11.826 7.53449ZM15.1085 7.45703L19.4221 11.3978L19.4445 11.4242L21.2257 14.1843L14.9653 14.4768L15.1085 7.45703ZM8.37757 18.7461L11.7967 21.4825L7.82491 23.4521L8.37757 18.7461ZM18.6224 18.7457L19.1635 23.4522L15.2029 21.4823L18.6224 18.7457Z" fill="#E27625"/>
    <path d="M15.2911 21.2246L19.3101 23.2236L15.5716 25.0486L15.6104 23.8424L15.2911 21.2246ZM11.7086 21.2255L11.4018 23.8227L11.427 25.0472L7.67969 23.2236L11.7086 21.2255Z" fill="#D5BFB2"/>
    <path d="M10.5469 15.3828L11.5972 17.65L8.02148 16.574L10.5469 15.3828ZM16.4516 15.383L18.989 16.574L15.4016 17.6497L16.4516 15.383Z" fill="#233447"/>
    <path d="M8.65051 18.7229L8.07254 23.6022L4.97461 18.8296L8.65051 18.7229ZM18.3484 18.723L22.0244 18.8296L18.9148 23.6024L18.3484 18.723ZM21.3158 13.9082L18.6406 16.7087L16.578 15.7406L15.5905 17.873L14.9431 14.206L21.3158 13.9082ZM5.68146 13.9082L12.0555 14.206L11.408 17.873L10.4203 15.7409L8.36859 16.7088L5.68146 13.9082Z" fill="#CC6228"/>
    <path d="M5.50195 13.3338L8.5287 16.4885L8.63353 19.603L5.50195 13.3338ZM21.5012 13.3281L18.364 19.6085L18.4821 16.4885L21.5012 13.3281ZM11.9082 13.5259L12.03 14.3135L12.3311 16.2756L12.1375 22.3016L11.2226 17.4607L11.2223 17.4107L11.9082 13.5259ZM15.0903 13.515L15.7781 17.4107L15.7778 17.4607L14.8605 22.3137L14.8242 21.0999L14.6811 16.2398L15.0903 13.515Z" fill="#E27525"/>
    <path d="M18.7508 16.3633L18.6484 19.0692L15.4555 21.6245L14.81 21.1561L15.5335 17.3281L18.7508 16.3633ZM8.25977 16.3633L11.4659 17.3281L12.1894 21.1561L11.544 21.6245L8.35089 19.069L8.25977 16.3633Z" fill="#F5841F"/>
    <path d="M7.06836 22.627L11.1534 24.6151L11.1361 23.7661L11.4779 23.4579H15.5209L15.8751 23.765L15.8489 24.6134L19.9081 22.6319L17.9329 24.3085L15.5446 25.9934H11.4451L9.05834 24.3016L7.06836 22.627Z" fill="#C0AC9D"/>
    <path d="M14.9991 20.9609L15.5766 21.3801L15.915 24.1538L15.4253 23.7291H11.5782L11.0977 24.1624L11.425 21.3803L12.0028 20.9609H14.9991Z" fill="#161616"/>
    <path d="M25.6093 0.244141L27 4.52948L26.1315 8.86249L26.7499 9.35248L25.913 10.0083L26.5421 10.5073L25.7092 11.2863L26.2205 11.6667L24.8635 13.2945L19.2979 11.63L19.2497 11.6034L15.2391 8.12832L25.6093 0.244141ZM1.39071 0.244141L11.761 8.12832L7.75027 11.6034L7.70207 11.63L2.13648 13.2945L0.779519 11.6667L1.29041 11.2867L0.458051 10.5073L1.0858 10.0089L0.236355 9.35118L0.878133 8.86087L0 4.5297L1.39071 0.244141Z" fill="#763E1A"/>
    <path d="M19.0256 11.2663L24.9226 13.0299L26.8385 19.095H21.784L18.3014 19.1401L20.8342 14.0693L19.0256 11.2663ZM7.97414 11.2663L6.16524 14.0693L8.69829 19.1401L5.21729 19.095H0.171875L2.07696 13.03L7.97414 11.2663ZM17.2318 3.58789L15.5823 8.16378L15.2323 14.3453L15.0983 16.2828L15.0877 21.2324H11.9119L11.9016 16.2921L11.7672 14.3437L11.4171 8.16378L9.76784 3.58789H17.2318Z" fill="#F5841F"/>
  </g>
  <defs>
    <clipPath id="clip0_11_18514">
      <rect width="27" height="26" fill="white"/>
    </clipPath>
  </defs>
</svg>