<svg xmlns="http://www.w3.org/2000/svg" width="92" height="169" viewBox="0 0 92 169" fill="none">
  <g clip-path="url(#clip0_2018_247)">
    <path d="M41.0317 133.283L32.2319 131.072V130.58L41.0317 132.8V133.283Z" fill="black"/>
    <path d="M41.0317 129.855L32.2319 127.644V127.152L41.0317 129.372V129.855Z" fill="black"/>
    <path d="M41.0317 126.418L32.2319 124.207V123.715L41.0317 125.935V126.418Z" fill="black"/>
    <path d="M41.0317 122.981L32.2319 120.77V120.278L41.0317 122.498V122.981Z" fill="black"/>
    <path d="M41.0317 119.544L32.2319 117.333V116.841L41.0317 119.061V119.544Z" fill="black"/>
    <path d="M41.0317 116.116L32.2319 113.905V113.413L41.0317 115.633V116.116Z" fill="black"/>
    <path d="M41.0317 112.679L32.2319 110.468V109.976L41.0317 112.196V112.679Z" fill="black"/>
    <path d="M41.0317 109.242L32.2319 107.031V106.539L41.0317 108.759V109.242Z" fill="black"/>
    <path d="M41.0317 105.814L32.2319 103.603V103.111L41.0317 105.331V105.814Z" fill="black"/>
    <path d="M41.0317 102.377L32.2319 100.166V99.6741L41.0317 101.894V102.377Z" fill="black"/>
    <path d="M41.0317 98.9402L32.2319 96.7293V96.237L41.0317 98.4571V98.9402Z" fill="black"/>
    <path d="M41.0317 95.5125L32.2319 93.3016V92.8093L41.0317 95.0294V95.5125Z" fill="black"/>
    <path d="M43.3885 117.918H43.37C41.9096 117.918 40.4491 117.9 39.0164 117.872C38.9517 117.872 38.9054 117.816 38.9054 117.751C38.9054 117.686 38.9609 117.64 39.0164 117.64C40.4398 117.667 41.9003 117.686 43.3608 117.686C43.4255 117.686 43.4902 117.742 43.4902 117.797C43.4902 117.853 43.4532 117.909 43.3885 117.909V117.918ZM52.1236 117.723C52.0589 117.723 52.0126 117.677 52.0126 117.612C52.0126 117.547 52.0589 117.491 52.1236 117.491C58.6402 117.194 64.6392 116.571 69.4828 115.689C69.5567 115.67 69.6029 115.717 69.6214 115.782C69.6307 115.847 69.5937 115.902 69.529 115.921C64.6762 116.813 58.6679 117.435 52.1421 117.732L52.1236 117.723ZM30.2906 117.472C23.358 116.989 17.3775 116.125 12.9868 114.992C12.9221 114.974 12.8851 114.909 12.9036 114.853C12.9221 114.788 12.9776 114.751 13.0423 114.769C17.4144 115.902 23.3857 116.757 30.309 117.24C30.3737 117.24 30.42 117.296 30.42 117.361C30.42 117.426 30.3645 117.472 30.309 117.472H30.2906ZM77.922 113.608C77.922 113.608 77.8388 113.58 77.8203 113.543C77.7926 113.487 77.8203 113.413 77.8758 113.385C79.8262 112.53 80.8522 111.592 80.8522 110.682V110.617C80.8522 110.552 80.8984 110.496 80.9631 110.496C81.0093 110.496 81.0833 110.543 81.0833 110.608V110.682C81.0833 111.713 80.0388 112.688 77.9682 113.599C77.9498 113.599 77.9405 113.608 77.922 113.608ZM5.77694 110.831C5.71223 110.831 5.66602 110.775 5.66602 110.719V110.682C5.66602 109.66 6.70128 108.685 8.75333 107.774C8.80879 107.746 8.88273 107.774 8.91046 107.83C8.93819 107.886 8.91046 107.96 8.855 107.979C6.92312 108.833 5.90634 109.762 5.90634 110.673V110.71C5.90634 110.775 5.85088 110.821 5.79542 110.821L5.77694 110.831ZM73.707 106.595C73.707 106.595 73.6885 106.595 73.6793 106.595C69.2979 105.461 63.3266 104.616 56.4125 104.124C56.3478 104.124 56.3016 104.068 56.3016 104.003C56.3016 103.938 56.3571 103.891 56.4125 103.891C63.3451 104.374 69.3256 105.229 73.7163 106.362C73.781 106.381 73.8179 106.446 73.7994 106.502C73.7902 106.557 73.7347 106.585 73.6885 106.585L73.707 106.595ZM17.2111 105.694C17.1556 105.694 17.1094 105.656 17.1002 105.601C17.0909 105.536 17.1279 105.48 17.1926 105.461C22.0454 104.57 28.0536 103.947 34.5795 103.65C34.635 103.65 34.6997 103.696 34.6997 103.761C34.6997 103.826 34.6535 103.882 34.5887 103.882C28.0721 104.179 22.0731 104.802 17.2296 105.694H17.2111ZM47.696 103.733C46.2632 103.706 44.812 103.687 43.3793 103.687H43.3238C43.2591 103.687 43.2129 103.631 43.2129 103.576C43.2129 103.52 43.2683 103.464 43.3238 103.464H43.3793C44.812 103.464 46.2632 103.483 47.696 103.511C47.7607 103.511 47.8069 103.566 47.8069 103.631C47.8069 103.696 47.7514 103.743 47.696 103.743V103.733Z" fill="black"/>
    <path d="M64.2976 110.533H63.8354V161.113H64.2976V110.533Z" fill="black"/>
    <path d="M64.1866 166.436V168.768H63.9647V166.436H61.6724V166.204H63.9647V163.872H64.1866V166.204H66.4697V166.436H64.1866Z" fill="black"/>
    <path d="M64.4178 169H63.7338V166.668H61.4414V165.972H63.7338V163.64H64.4178V165.972H66.6917V166.668H64.4178V169Z" fill="black"/>
    <path d="M58.1692 91.3044H57.707V133.134H58.1692V91.3044Z" fill="black"/>
    <path d="M57.938 134.788C58.8977 134.788 59.6757 134.006 59.6757 133.041C59.6757 132.077 58.8977 131.295 57.938 131.295C56.9782 131.295 56.2002 132.077 56.2002 133.041C56.2002 134.006 56.9782 134.788 57.938 134.788Z" fill="black"/>
    <path d="M23.7742 106.818H23.312V150.561H23.7742V106.818Z" fill="black"/>
    <path d="M21.8052 150.468C21.8052 151.434 22.5816 152.214 23.5429 152.214C24.5043 152.214 25.2807 151.434 25.2807 150.468C25.2807 149.502 24.5043 148.721 23.5429 148.721C22.5816 148.721 21.8052 149.502 21.8052 150.468Z" fill="black"/>
    <path d="M43.398 125.953H43.3703C40.3015 125.953 37.2974 125.833 34.4411 125.582L34.5151 124.653C37.3436 124.894 40.32 125.015 43.3611 125.015L43.3888 125.944L43.398 125.953ZM52.3549 125.582L52.2717 124.653L53.1591 124.569L53.2515 125.498L52.3549 125.582ZM25.5582 124.309C25.2624 124.244 24.9666 124.179 24.6801 124.105L24.8927 123.204C25.17 123.269 25.4565 123.334 25.7523 123.399L25.5582 124.309ZM62.1252 124.096L61.9127 123.195C66.2848 122.145 68.9007 120.724 68.9007 119.414H69.825C69.825 121.755 65.6378 123.26 62.1252 124.105V124.096ZM16.9248 119.451V119.404C16.9248 117.064 21.0936 115.568 24.5969 114.723L24.8095 115.624C20.4558 116.673 17.8491 118.085 17.8491 119.404L16.9248 119.451ZM61.8849 115.614C61.6076 115.549 61.3211 115.484 61.0253 115.419L61.2194 114.509C61.5152 114.574 61.811 114.639 62.0975 114.713L61.8849 115.614ZM33.5538 114.24L33.4613 113.311L34.3579 113.227L34.4411 114.156L33.5538 114.24ZM52.2532 114.156C49.4155 113.915 46.4299 113.794 43.3795 113.794L43.3148 112.865H43.3795C46.4576 112.865 49.471 112.986 52.3364 113.236L52.2625 114.165L52.2532 114.156Z" fill="black"/>
    <path d="M45.9584 22.285H45.9492C42.6031 22.285 39.3309 22.1085 36.4932 21.7834C36.4284 21.7834 36.3822 21.7184 36.3915 21.6533C36.3915 21.5883 36.4562 21.5419 36.5209 21.5511C39.3494 21.8763 42.6123 22.0528 45.9492 22.0528C46.0139 22.0528 46.0694 22.1085 46.0694 22.1642C46.0694 22.22 46.0231 22.2757 45.9584 22.2757V22.285ZM55.4145 21.7834C55.359 21.7834 55.3036 21.7369 55.3036 21.6812C55.3036 21.6162 55.3405 21.5604 55.4052 21.5511C63.5395 20.6036 63.9554 19.043 63.9554 18.7458V18.6993C63.9554 18.6343 64.0016 18.5786 64.0663 18.5786C64.1403 18.5786 64.1865 18.625 64.1865 18.69C64.1865 18.7086 64.1865 18.7272 64.1865 18.7458C64.1865 20.5665 58.0673 21.4768 55.433 21.7834C55.433 21.7834 55.433 21.7834 55.4237 21.7834H55.4145ZM27.8136 18.8665C27.7489 18.8665 27.7026 18.8294 27.7026 18.7644C27.7026 16.9158 33.8033 16.0054 36.4284 15.6989C36.4932 15.6989 36.5486 15.7361 36.5579 15.8011C36.5671 15.8661 36.5209 15.9218 36.4562 15.9311C28.3404 16.8786 27.9337 18.4392 27.9337 18.7365C27.9337 18.8015 27.8783 18.8665 27.8228 18.8665H27.8136ZM55.359 15.9218C55.359 15.9218 55.359 15.9218 55.3498 15.9218C52.5213 15.5967 49.2676 15.4202 45.94 15.4202H45.903C45.8383 15.4202 45.7921 15.3645 45.7921 15.3087C45.7921 15.253 45.8475 15.1973 45.903 15.1973H45.94C49.2768 15.1973 52.5398 15.3738 55.3775 15.6989C55.4422 15.6989 55.4884 15.7639 55.4792 15.8289C55.4792 15.8847 55.4237 15.9311 55.3683 15.9311L55.359 15.9218Z" fill="black"/>
    <path d="M89.3103 96.1534C88.9776 96.1534 88.6356 96.0977 88.3028 95.9769L69.9453 89.5116L70.1024 89.075L88.4599 95.5403C88.7465 95.6425 89.033 95.689 89.3196 95.689C90.6599 95.689 91.5565 94.6021 91.5565 93.5803C91.5565 93.0136 91.2977 92.5027 90.8078 92.094L84.9474 87.18L85.2432 86.827L91.1036 91.741C91.8615 92.3727 92.0187 93.0973 92.0187 93.5896C92.0187 94.983 90.78 96.1627 89.3196 96.1627L89.3103 96.1534ZM6.39663 95.3545L6.23949 94.918L10.2142 93.5153L10.3713 93.9519L6.39663 95.3545ZM0.471585 93.3016L0.0463867 93.1344C0.185038 92.7721 0.416124 92.447 0.739645 92.1683L25.0776 70.3385L25.3827 70.6822L1.03544 92.512C0.776619 92.7443 0.582506 93.0137 0.462342 93.3016H0.471585ZM18.3299 91.1558L18.1728 90.7192L45.4964 81.0955C46.125 80.8726 46.8182 80.8818 47.4283 81.0955L50.2013 82.0709L50.0442 82.5075L47.2711 81.5321C46.7535 81.3463 46.1712 81.3463 45.6443 81.5321L18.3207 91.1558H18.3299ZM61.9867 86.7155L58.012 85.3128L58.1692 84.8762L62.1438 86.2789L61.9867 86.7155ZM78.4678 81.755L75.2326 79.0426L75.5284 78.6896L78.7636 81.402L78.4678 81.755ZM68.7621 73.6176L59.5372 65.8796C59.1305 65.5359 58.8439 65.0993 58.7145 64.607L53.529 44.8766L53.9726 44.7558L59.1582 64.4862C59.2599 64.8857 59.491 65.248 59.8237 65.5266L69.0487 73.2646L68.7529 73.6176H68.7621ZM31.5111 64.7278L31.28 64.6906L31.0581 64.6163V64.5791L32.3522 60.5569L32.7959 60.6962L31.5111 64.7278ZM35.3748 52.6331L34.9311 52.4938L43.6292 25.2483C43.9805 24.1522 45.0065 23.4369 46.2359 23.4369C47.0493 23.4369 47.8073 23.7527 48.3157 24.3101L47.9736 24.6259C47.5577 24.1707 46.9199 23.9013 46.2359 23.9013C45.4502 23.9013 44.4149 24.2915 44.0637 25.3876L35.3656 52.6331H35.3748ZM51.3937 36.6927L50.3215 32.5961L50.7652 32.4754L51.8374 36.5719L51.3937 36.6927Z" fill="black"/>
    <path d="M73.1065 99.0424H54.8507V98.5779H73.1065C73.7628 98.5779 74.1233 98.0949 74.1233 97.649C74.1233 97.2867 73.9015 96.9801 73.5225 96.8315L58.8809 90.8585L59.0565 90.4312L73.6981 96.4042C74.2527 96.6272 74.5855 97.1009 74.5855 97.6583C74.5855 98.3364 74.0679 99.0517 73.1065 99.0517V99.0424ZM45.5241 99.0424H40.8654V98.5779H45.5241V99.0424ZM31.5295 99.0424H18.2929C17.3316 99.0424 16.814 98.3271 16.814 97.649C16.814 97.0823 17.156 96.6086 17.7291 96.3856L37.1403 88.8799L37.3067 89.3165L17.8954 96.8222C17.5072 96.9709 17.2761 97.2774 17.2761 97.649C17.2761 98.0949 17.6366 98.5779 18.2929 98.5779H31.5295V99.0424ZM50.2475 87.3286L46.8644 85.9445C46.6056 85.8423 46.3006 85.833 46.051 85.9445L45.9401 85.7401L45.8569 85.5265H45.8846C46.2451 85.3685 46.6703 85.3778 47.04 85.5265L50.4231 86.9106L50.2475 87.3379V87.3286Z" fill="black"/>
    <path d="M54.4993 12.4755L46.4482 5.88013C46.365 5.8151 46.2726 5.78723 46.1802 5.78723V0.232239C46.3096 0.232239 46.4297 0.287975 46.5129 0.399446L55.1001 11.8996C55.3959 12.2897 54.8783 12.7821 54.4993 12.4755Z" fill="#3E3E3E"/>
    <path d="M54.7582 12.8006C54.6196 12.8006 54.4717 12.7542 54.3515 12.652L46.3005 6.05662C46.2635 6.02875 46.2265 6.01946 46.1803 6.01946H45.9492V0H46.1803C46.3837 0 46.5778 0.0928929 46.6979 0.2601L55.2851 11.7602C55.4885 12.0296 55.4607 12.3733 55.2204 12.6149C55.091 12.7449 54.9246 12.8099 54.7675 12.8099L54.7582 12.8006ZM54.6381 12.2897C54.7675 12.3919 54.8691 12.2897 54.8876 12.2711C54.9246 12.234 54.9986 12.1411 54.9061 12.0296L46.4114 0.65025V5.59215C46.4761 5.62002 46.5316 5.64789 46.587 5.69433L54.6381 12.2897Z" fill="#3E3E3E"/>
    <path d="M37.6022 12.8006C37.4451 12.8006 37.2787 12.7356 37.1493 12.6056C36.9089 12.3733 36.8812 12.0203 37.0846 11.7509L45.6625 0.2601C45.7826 0.0928929 45.9768 0 46.1801 0H46.4112V6.01946H46.1801C46.1801 6.01946 46.1062 6.01946 46.0692 6.05662L37.9997 12.6613C37.8795 12.7635 37.7316 12.8099 37.593 12.8099L37.6022 12.8006ZM45.949 0.65025L37.4543 12.0389C37.3619 12.1597 37.4451 12.2526 37.4728 12.2804C37.5005 12.3083 37.6022 12.3919 37.7131 12.2897L45.7734 5.69433C45.8196 5.64789 45.8843 5.62002 45.949 5.59215V0.65025Z" fill="#3E3E3E"/>
    <path d="M48.1123 24.4122L51.061 69.1402" stroke="black" stroke-width="0.910448" stroke-miterlimit="10" stroke-linecap="round"/>
    <path d="M54.4253 72.7909L89.7999 93.4595" stroke="black" stroke-width="0.910448" stroke-miterlimit="10" stroke-linecap="round"/>
    <path d="M0.230957 93.2737L42.871 71.7969" stroke="black" stroke-width="0.910448" stroke-miterlimit="10" stroke-linecap="round"/>
  </g>
  <defs>
    <clipPath id="clip0_2018_247">
      <rect width="92" height="169" fill="white"/>
    </clipPath>
  </defs>
</svg>