<svg width="1275" height="486" viewBox="0 0 1275 486" fill="none" xmlns="http://www.w3.org/2000/svg">
  <circle cx="323.682" cy="242.759" r="226.879" transform="rotate(2.87167 323.682 242.759)" stroke="url(#paint0_linear_317_4416)" />
  <path d="M38.4793 299.146C25.2552 307.963 -6.28608 338.395 9.94512 361.06C26.1763 383.726 121.941 366.503 163.219 358.624C213.788 345.392 333.433 310.844 407.46 278.514C481.486 246.184 557.849 197.638 586.777 177.407C605.453 164.827 651.483 128.711 639.167 104.44C629.16 84.7192 597.456 85.8024 584.532 90.5044" stroke="url(#paint1_linear_317_4416)" />
  <path d="M223.901 336.08L239.171 336.066C240.579 336.065 241.079 337.929 239.859 338.632L226.913 346.094C226.675 346.231 226.484 346.436 226.364 346.683L220.345 359.017C219.679 360.383 217.617 359.819 217.739 358.304L218.881 344.056C218.909 343.717 218.81 343.381 218.604 343.111L209.556 331.26C208.649 330.073 210.019 328.496 211.321 329.227L223.227 335.904C223.433 336.019 223.665 336.08 223.901 336.08Z" fill="white" />
  <path d="M213.128 344.95C213.249 345.097 213.302 345.288 213.277 345.476L211.958 355.395C211.861 356.131 210.827 356.211 210.617 355.498L205.314 337.466C205.102 336.746 206.032 336.256 206.506 336.837L213.128 344.95Z" fill="white" />
  <path
    d="M1192.1 423.519C1195.19 423.182 1197.84 422.812 1200.1 422.333C1203.51 421.61 1206.09 420.629 1208.06 419.092L1208.06 419.092C1210.43 417.238 1211.87 414.656 1212.86 410.963C1213.57 408.309 1214.06 405.053 1214.5 401.041C1214.9 404.611 1215.33 407.578 1215.92 410.052C1216.77 413.606 1217.96 416.196 1219.87 418.111C1221.79 420.025 1224.39 421.222 1227.95 422.075C1230.41 422.665 1233.35 423.096 1236.88 423.481C1233.78 423.819 1231.14 424.19 1228.88 424.672C1225.47 425.4 1222.89 426.391 1220.9 427.947C1218.55 429.782 1217.12 432.366 1216.14 436.057C1215.43 438.704 1214.94 441.949 1214.5 445.939C1214.04 441.748 1213.52 438.383 1212.75 435.668C1211.7 431.927 1210.14 429.37 1207.57 427.579C1205.58 426.189 1203.02 425.289 1199.68 424.617C1197.51 424.18 1195.01 423.836 1192.1 423.519Z"
    fill="#EDEDED" stroke="white" />
  <path
    d="M1243.83 446.013C1245.24 445.836 1246.5 445.641 1247.61 445.405C1249.85 444.93 1251.57 444.28 1252.89 443.251L1252.89 443.251C1254.48 442.006 1255.44 440.278 1256.09 437.839C1256.47 436.427 1256.76 434.759 1257 432.785C1257.22 434.489 1257.46 435.962 1257.76 437.238C1258.32 439.579 1259.11 441.31 1260.4 442.595C1261.68 443.879 1263.42 444.673 1265.76 445.235C1267.03 445.538 1268.48 445.777 1270.16 445.988C1268.75 446.164 1267.49 446.36 1266.38 446.598C1264.13 447.077 1262.41 447.733 1261.08 448.775C1259.5 450.007 1258.56 451.737 1257.9 454.175C1257.53 455.58 1257.25 457.24 1257 459.2C1256.74 457.118 1256.44 455.376 1256.02 453.918C1255.32 451.445 1254.29 449.731 1252.56 448.528C1251.23 447.599 1249.53 447.004 1247.33 446.562C1246.29 446.352 1245.13 446.174 1243.83 446.013Z"
    fill="#EDEDED" stroke="white" />
  <defs>
    <linearGradient id="paint0_linear_317_4416" x1="85.0422" y1="245.23" x2="235" y2="60.9864" gradientUnits="userSpaceOnUse">
      <stop stop-color="#D3D3D3" />
      <stop offset="1" stop-color="#D3D3D3" stop-opacity="0" />
    </linearGradient>
    <linearGradient id="paint1_linear_317_4416" x1="89.4372" y1="255.66" x2="719.224" y2="136.028" gradientUnits="userSpaceOnUse">
      <stop stop-color="#D3D3D3" />
      <stop offset="1" stop-color="#D3D3D3" stop-opacity="0" />
    </linearGradient>
  </defs>
</svg>