<svg width="144" height="120" viewBox="0 0 144 120" fill="none" xmlns="http://www.w3.org/2000/svg">
  <g clip-path="url(#clip0_9976_3824)">
    <path d="M130.273 55.2432H13.7268V113.001H130.273V55.2432Z" fill="#B04C00" />
    <path d="M128.485 69.8579H13.0999V75.9102H128.485V69.8579Z" fill="#8E3900" />
    <path d="M128.485 93.1392H13.0999V99.1914H128.485V93.1392Z" fill="#8E3900" />
    <path d="M138.833 57.7534V119.826H5.16206V57.7534H15.3771V109.492H128.623V57.7534H138.833Z" fill="#FFCE00" />
    <path d="M24.7854 48.0225C24.7854 59.0955 15.9948 68.0774 5.16206 68.0774V48.0225H24.7854Z" fill="#B2B2B2" />
    <path d="M24.7854 120C24.7854 108.927 15.9948 99.9448 5.16206 99.9448V120H24.7854Z" fill="#B2B2B2" />
    <path d="M119.215 48.0225C119.215 59.0955 128.005 68.0774 138.838 68.0774V48.0225H119.215Z" fill="#B2B2B2" />
    <path d="M26.6155 0H117.385C129.222 0 138.833 9.82024 138.833 21.9154V51.1783H5.16206V21.9154C5.16206 9.82024 14.7732 0 26.6155 0Z" fill="#FFCE00" />
    <path d="M119.215 120C119.215 108.927 128.005 99.9448 138.838 99.9448V120H119.215Z" fill="#B2B2B2" />
    <path d="M33.8619 9.26904H110.138C120.086 9.26904 128.162 17.5209 128.162 27.6849V52.2756H15.8381V27.6849C15.8381 17.5209 23.9142 9.26904 33.8619 9.26904Z" fill="#B04C00" />
    <path d="M24.7854 48.0227C24.7854 36.9496 15.9948 27.9678 5.16206 27.9678V48.0227H24.7854Z" fill="#B2B2B2" />
    <path d="M119.215 48.0227C119.215 36.9496 128.005 27.9678 138.838 27.9678V48.0227H119.215Z" fill="#B2B2B2" />
    <path d="M143.111 41.0376H0.888893V55.2428H143.111V41.0376Z" fill="#FFCE00" />
    <g style="mix-blend-mode:multiply">
      <path d="M138.833 55.2432H5.16206V62.0349H138.833V55.2432Z" fill="#B2B2B2" />
    </g>
    <path d="M59.4824 46.751H82.1021V65.7556C82.1021 72.1329 77.0361 77.3091 70.7946 77.3091C64.5531 77.3091 59.487 72.1329 59.487 65.7556V46.751H59.4824Z" fill="#FFCE00" />
    <path d="M73.9476 53.26C73.9476 51.4782 72.5349 50.0337 70.7923 50.0337C69.0496 50.0337 67.6369 51.4782 67.6369 53.26V66.6033C67.6369 68.3851 69.0496 69.8296 70.7923 69.8296C72.5349 69.8296 73.9476 68.3851 73.9476 66.6033V53.26Z" fill="black" />
    <path d="M15.8381 27.6849V28.1465H128.162V27.6849C128.162 25.735 127.862 23.8558 127.314 22.0942H16.6862C16.1377 23.8605 15.8381 25.735 15.8381 27.6849Z" fill="#8E3900" />
  </g>
  <defs>
    <clipPath id="clip0_9976_3824">
      <rect width="142.222" height="120" fill="white" transform="translate(0.888893)" />
    </clipPath>
  </defs>
</svg>
