<svg width="36" height="36" viewBox="0 0 36 36" fill="none" xmlns="http://www.w3.org/2000/svg">
  <circle cx="18" cy="18" r="18" fill="#FFFEFE" />
  <path
    d="M23.1257 26.5808C22.6816 26.5356 22.3457 26.3514 22.0984 26.0178C21.4386 25.1264 21.6533 23.4723 21.7184 23.0667C23.3619 22.0063 24.2153 20.4801 24.6525 19.1029C24.8889 18.3578 25.0222 17.5956 25.079 16.8644C25.4728 16.7129 26.4675 16.1342 26.3446 14.1679C26.3012 13.4708 26.0828 12.9737 25.7123 12.6657C25.7472 11.9444 25.8087 7.40161 22.0044 5.43885C19.4464 4.11908 14.3766 5.18332 10.6918 6.91624C9.66679 7.39811 7.25406 8.65252 6.98406 9.88809C6.84531 10.5232 6.94272 11.0916 7.27344 11.5779C7.73981 12.2633 8.56477 12.6256 9.12726 12.8026C8.97843 12.8145 8.82108 12.8522 8.6689 12.945C8.24723 13.2031 8.02451 13.7655 8.0064 14.6166C7.9878 15.4953 8.19218 16.1405 8.61333 16.534C8.92932 16.8288 9.2833 16.8993 9.4812 16.9143C9.65845 18.9691 10.2083 20.9429 11.4371 22.356C12.267 23.3107 13.3535 23.9274 14.6691 24.2148C14.5916 24.8491 14.1937 27.0923 12.4225 27.4245C9.02924 28.0606 7.24904 29.4321 6.98063 31.6167C6.96668 31.7293 7.04703 31.8321 7.15994 31.8458C7.16847 31.8471 7.17673 31.8474 7.18526 31.8474C7.28784 31.8474 7.3762 31.7709 7.38912 31.6668C7.6294 29.7132 9.25742 28.4673 12.3584 27.8578C12.7328 28.4572 14.4614 30.8671 18.0628 30.8671C21.7263 30.8671 23.6006 27.7948 23.9711 27.1134C25.9944 27.4633 29.0618 28.5079 28.7822 31.6234C28.7722 31.7368 28.8559 31.8365 28.9688 31.8469C28.9753 31.8474 28.9812 31.8477 28.9877 31.8477C29.0928 31.8477 29.1825 31.7673 29.1923 31.6603C29.5499 27.6713 25.0689 26.7791 23.1256 26.5807L23.1257 26.5808ZM25.3723 12.9075C25.7051 13.1264 25.894 13.5592 25.9338 14.1934C26.0239 15.6313 25.4573 16.1886 25.1052 16.3953C25.161 14.7846 24.8553 13.3871 24.4791 12.7569C24.7251 12.7202 25.079 12.7151 25.3723 12.9075ZM9.44683 16.4976C9.30447 16.4775 9.0864 16.4152 8.88823 16.2276C8.56035 15.9168 8.40196 15.3776 8.41747 14.6252C8.43194 13.9348 8.59239 13.4754 8.88073 13.2971C9.0957 13.1643 9.35046 13.2051 9.50032 13.2483C9.41273 14.2986 9.37914 15.4039 9.44683 16.4976ZM11.7471 22.0855C9.84138 19.8939 9.64341 16.2377 9.92327 13.1203C9.92327 13.119 9.92353 13.1177 9.92353 13.1167C9.96693 12.6338 10.0209 12.163 10.0827 11.7137C10.4798 11.4024 12.6341 9.75269 13.7377 9.67332C13.7542 9.67203 13.7682 9.67203 13.7803 9.67203C13.8136 9.67203 13.8307 9.67513 13.8346 9.6728C13.8687 9.80871 13.6015 10.319 13.4411 10.6257C13.0902 11.2959 12.7272 11.9888 12.9884 12.4201C13.115 12.6296 13.3622 12.7358 13.7227 12.7358C14.8374 12.7358 15.2497 11.7943 15.6132 10.9636C15.9755 10.1368 16.2318 9.64102 16.8266 9.67177C17.0255 9.68366 17.0718 9.75239 17.087 9.77486C17.2232 9.97717 17.034 10.5404 16.8816 10.9931C16.669 11.6246 16.4685 12.2209 16.7659 12.5614C16.9423 12.7627 17.2462 12.819 17.6947 12.732C18.8008 12.5188 19.5359 11.6561 20.0725 11.0262C20.3986 10.643 20.6926 10.2696 20.913 10.296C21.0373 10.3043 21.1667 10.4655 21.253 10.5996C21.577 11.1014 21.978 11.3967 22.4451 11.4771C22.8604 11.5486 23.2417 11.4313 23.4986 11.3104C23.5055 11.898 23.5872 12.4754 23.9616 12.7702C23.9618 12.7707 23.9623 12.771 23.9629 12.7713C23.974 12.7798 23.9825 12.7906 23.9941 12.7989C24.3254 13.0327 24.8062 14.6675 24.6812 16.6686C24.6796 16.6753 24.6809 16.6823 24.6801 16.6893C24.6328 17.4209 24.507 18.1997 24.2597 18.9784C23.5335 21.2663 21.5923 23.9937 16.466 23.9937C14.4362 23.993 12.8485 23.3512 11.7473 22.0851L11.7471 22.0855ZM17.7357 28.2603C15.4772 28.2603 14.56 26.8928 14.3445 26.5024C14.8559 25.681 15.0236 24.7222 15.0752 24.294C15.5158 24.3648 15.9772 24.4051 16.466 24.4051C18.5116 24.4051 20.0722 23.986 21.2661 23.3354C21.1917 23.994 21.1428 25.244 21.665 26.1032C21.356 26.5455 20.0125 28.2603 17.7357 28.2603Z"
    fill="black" />
  <path d="M14.8639 15.5827C14.8639 15.9543 14.5629 16.2553 14.1914 16.2553C13.8198 16.2553 13.5188 15.9543 13.5188 15.5827C13.5188 15.2114 13.8198 14.9102 14.1914 14.9102C14.5629 14.9102 14.8639 15.2114 14.8639 15.5827Z" fill="black" />
  <path
    d="M16.4139 15.7907H17.2661C17.3705 16.926 18.327 17.8184 19.4891 17.8184C20.7205 17.8184 21.7225 16.8164 21.7225 15.585C21.7225 14.3535 20.7206 13.3516 19.4891 13.3516C18.3272 13.3516 17.3704 14.244 17.2661 15.3793H16.4139C16.3096 14.244 15.3531 13.3516 14.1909 13.3516C12.959 13.3516 11.957 14.3535 11.957 15.585C11.957 16.8164 12.959 17.8184 14.1909 17.8184C15.3531 17.8184 16.3096 16.926 16.4139 15.7907ZM19.4891 13.763C20.4939 13.763 21.3109 14.5802 21.3109 15.5848C21.3109 16.5894 20.4937 17.4066 19.4891 17.4066C18.4843 17.4066 17.6673 16.5894 17.6673 15.5848C17.667 14.5802 18.4843 13.763 19.4891 13.763ZM12.3687 15.5848C12.3687 14.5802 13.1862 13.763 14.191 13.763C15.1958 13.763 16.0128 14.5802 16.0128 15.5848C16.0128 16.5894 15.1958 17.4066 14.191 17.4066C13.1862 17.4068 12.3687 16.5894 12.3687 15.5848Z"
    fill="black" />
  <path d="M20.1603 15.5827C20.1603 15.9543 19.8593 16.2553 19.4877 16.2553C19.1165 16.2553 18.8152 15.9543 18.8152 15.5827C18.8152 15.2112 19.1165 14.9102 19.4877 14.9102C19.8593 14.9102 20.1603 15.2112 20.1603 15.5827Z" fill="black" />
  <path d="M20.1481 20.1927C20.269 20.2043 20.3584 20.1121 20.3649 19.9987C20.3714 19.885 20.2845 19.7881 20.1709 19.7819C15.995 19.5491 14.1755 20.4141 14.1004 20.4511C13.9983 20.5012 13.9564 20.6239 14.0058 20.726C14.0417 20.7991 14.1148 20.8415 14.191 20.8415C14.2213 20.8415 14.2518 20.8348 14.2807 20.8211C14.2983 20.8125 16.0929 19.97 20.1481 20.1927Z" fill="black" />
  <path d="M16.6707 17.4265C16.5673 17.3823 16.4459 17.4306 16.4017 17.5353C16.3906 17.5616 16.1309 18.1864 16.435 18.6326C16.6156 18.8977 16.9399 19.0318 17.3993 19.0318C17.4212 19.0318 17.444 19.0315 17.4667 19.031C17.5804 19.0279 17.67 18.9331 17.6669 18.8197C17.6638 18.7081 17.5726 18.6194 17.4613 18.6194H17.4556C17.1112 18.6308 16.8812 18.5556 16.7756 18.4019C16.6278 18.1864 16.7293 17.819 16.7807 17.6957C16.8246 17.5911 16.7756 17.4707 16.6707 17.4265Z" fill="black" />
</svg>
