<svg width="36" height="36" viewBox="0 0 36 36" fill="none" xmlns="http://www.w3.org/2000/svg">
  <circle cx="18" cy="18" r="18" fill="white" />
  <path d="M15.5288 16.8882C15.5288 16.4567 15.1775 16.1055 14.7461 16.1055C14.3146 16.1055 13.9636 16.4567 13.9636 16.8882C13.9636 17.3196 14.3146 17.6706 14.7461 17.6706C15.1778 17.6706 15.5288 17.3196 15.5288 16.8882ZM14.3383 16.8882C14.3383 16.6633 14.5214 16.4802 14.7461 16.4802C14.971 16.4802 15.154 16.6633 15.154 16.8882C15.154 17.1128 14.971 17.2959 14.7461 17.2959C14.5214 17.2959 14.3383 17.1128 14.3383 16.8882Z" fill="black" />
  <path d="M18.7134 16.1055C18.2819 16.1055 17.9307 16.4567 17.9307 16.8882C17.9307 17.3196 18.2819 17.6706 18.7134 17.6706C19.1451 17.6706 19.4961 17.3196 19.4961 16.8882C19.4961 16.4567 19.1451 16.1055 18.7134 16.1055ZM18.7134 17.2959C18.4885 17.2959 18.3054 17.1129 18.3054 16.8882C18.3054 16.6633 18.4885 16.4803 18.7134 16.4803C18.9385 16.4803 19.1213 16.6633 19.1213 16.8882C19.1213 17.1129 18.9385 17.2959 18.7134 17.2959Z" fill="black" />
  <path d="M16.446 19.1605C16.5777 19.2355 16.7278 19.2729 16.8951 19.2729C17.1005 19.2729 17.332 19.2167 17.5874 19.1042C17.6822 19.0626 17.7253 18.952 17.6834 18.8572C17.642 18.7624 17.5319 18.7196 17.4366 18.761C17.0936 18.9123 16.8158 18.9377 16.6332 18.8365C16.414 18.7139 16.3702 18.4321 16.3686 18.4215C16.3554 18.3189 16.2625 18.2451 16.1594 18.2597C16.0568 18.2726 15.9839 18.3662 15.9968 18.4686C15.9994 18.4879 16.0599 18.9417 16.446 19.1605Z" fill="black" />
  <path
    d="M18.9537 20.1797H14.7649C14.7086 20.1797 14.655 20.2049 14.6195 20.2489C14.584 20.2929 14.5701 20.3503 14.5816 20.4056C14.7068 21.0041 14.9183 21.5265 15.1893 21.9446C15.19 21.9456 15.19 21.9465 15.1905 21.9472C15.1909 21.9477 15.1914 21.9479 15.1919 21.9484C15.6292 22.6212 16.2211 23.0216 16.8592 23.0216C17.4984 23.0216 18.0915 22.62 18.5288 21.9451C18.5295 21.9441 18.5305 21.9441 18.5309 21.9432C18.5319 21.942 18.5319 21.9406 18.5326 21.9394C18.802 21.5221 19.0123 21.0015 19.1367 20.4053C19.1482 20.35 19.1344 20.2926 19.0988 20.2486C19.0635 20.2051 19.0101 20.1797 18.9537 20.1797ZM16.8594 22.6471C16.3941 22.6471 15.957 22.3632 15.606 21.8863C15.984 21.6673 17.0152 21.2099 18.1122 21.8867C17.7614 22.3634 17.3245 22.6471 16.8594 22.6471Z"
    fill="black" />
  <path
    d="M28.6186 24.4988C28.6692 24.4614 28.6977 24.4014 28.6946 24.3386C28.6671 23.7944 28.6153 23.1994 28.5316 22.4659C28.0208 17.9953 27.0617 14.6853 25.5134 12.0492C24.3118 10.0027 22.8139 8.70097 21.0619 8.18037C20.0729 7.88654 19.0318 7.78749 18.0143 7.86536C19.5804 8.16179 21.6295 8.99647 23.0223 11.2453C23.0766 11.3335 23.0495 11.4488 22.9616 11.5034C22.9307 11.5224 22.8969 11.5316 22.8632 11.5316C22.8004 11.5316 22.7392 11.5001 22.7037 11.4432C20.9252 8.57068 18.0143 8.12482 16.6155 8.08815C15.5081 8.36128 14.4753 8.85464 13.6267 9.54911C13.5983 9.5724 13.5714 9.59852 13.5435 9.62252C15.5272 8.83909 18.6721 8.34693 21.315 11.3145C21.3837 11.3921 21.3769 11.5102 21.2997 11.5792C21.264 11.6109 21.2195 11.6267 21.1751 11.6267C21.1235 11.6267 21.0722 11.6055 21.0351 11.5641C18.0899 8.2571 14.5584 9.43693 12.8431 10.3321C12.3994 10.8626 12.0334 11.4776 11.7577 12.1448C12.6034 11.4945 13.9632 10.7962 16.0855 10.502C16.1873 10.4881 16.2826 10.5591 16.2967 10.6619C16.3111 10.7645 16.2395 10.8588 16.137 10.8732C13.6127 11.223 12.2129 12.1777 11.4991 12.8755C11.2302 13.7732 11.1156 14.735 11.1888 15.6915L9.72878 24.826C9.72548 24.847 9.72572 24.8681 9.72925 24.8886C9.73654 24.9295 9.86969 25.5469 10.87 25.9911L11.6468 21.6924C11.6654 21.5903 11.7635 21.5244 11.8646 21.5414C11.9665 21.5597 12.034 21.6574 12.0157 21.7592L11.2262 26.1272C11.5184 26.2244 11.8653 26.3065 12.282 26.3623L12.5619 23.5989C12.5725 23.4963 12.6629 23.4196 12.7673 23.4316C12.8704 23.442 12.9454 23.5337 12.9348 23.637L12.6549 26.4013C12.9198 26.4246 13.2004 26.4418 13.5154 26.4432C13.4844 26.5608 13.4524 26.6502 13.419 26.6951C13.2821 26.8657 12.0512 27.3769 11.0622 27.7879C8.98743 28.6497 7.99605 29.0924 7.86572 29.4312C7.65281 29.9848 6.67625 34.0502 6.63464 34.2234C6.6104 34.3236 6.67251 34.425 6.7732 34.4492C6.78779 34.453 6.80261 34.4544 6.81696 34.4544C6.90142 34.4544 6.97835 34.3965 6.99905 34.3107C7.00917 34.269 8.01139 30.0967 8.21345 29.5705C8.35625 29.318 10.0711 28.6056 11.2057 28.1344C11.8127 27.8822 12.2945 27.6799 12.6683 27.5136C13.0097 28.0932 14.3942 30.0659 17.4396 30.0659C20.5812 30.0659 22.1987 28.0753 22.5677 27.555C22.8853 27.6618 23.2556 27.7782 23.6954 27.914C25.1779 28.3718 27.2085 28.9988 27.4011 29.5982C27.7707 30.7479 28.149 34.2516 28.153 34.2871C28.1631 34.3831 28.2445 34.4544 28.3391 34.4544C28.3457 34.4544 28.3525 34.4539 28.3593 34.4532C28.4621 34.4422 28.5367 34.3499 28.5256 34.2469C28.5101 34.1017 28.1393 30.6696 27.758 29.4831C27.5237 28.7541 25.9724 28.2245 23.8061 27.5561C22.8865 27.2722 21.742 26.9186 21.63 26.7275C21.57 26.601 21.5204 26.3234 21.4792 25.9641C21.7961 26.058 22.1108 26.1255 22.4219 26.1714C22.7227 24.6201 22.6663 23.5882 22.6656 23.5767C22.6595 23.4734 22.7378 23.3845 22.8413 23.3784C22.9437 23.3718 23.0335 23.4508 23.0396 23.5541C23.0427 23.6024 23.0992 24.6372 22.7957 26.2135C22.9982 26.2318 23.1991 26.2441 23.397 26.2441C23.5153 26.2441 23.6311 26.2372 23.7473 26.2316C24.0016 23.9037 23.6843 21.7541 23.681 21.7313C23.6654 21.6287 23.7358 21.5334 23.8381 21.5179C23.9404 21.5015 24.036 21.5727 24.0513 21.6748C24.0548 21.6981 24.3721 23.8521 24.1263 26.2038C24.5418 26.1629 24.9419 26.0925 25.3197 25.9989C25.5334 22.0176 24.4782 18.3116 24.4669 18.2725C24.4382 18.1732 24.4954 18.0694 24.5949 18.0405C24.6949 18.012 24.7984 18.0694 24.8271 18.1685C24.8382 18.2071 25.8886 21.8968 25.7002 25.8949C26.1182 25.7721 26.5031 25.6286 26.8487 25.4792C27.0646 20.2501 24.502 14.3054 24.4754 14.244C24.434 14.1492 24.4775 14.0386 24.5723 13.9975C24.6681 13.9565 24.778 13.9996 24.8189 14.0941C24.8457 14.1555 27.3801 20.0373 27.2287 25.3064C28.0445 24.9136 28.564 24.539 28.6186 24.4983L28.6186 24.4988ZM21.8197 12.2662C21.9048 12.2077 22.022 12.2295 22.0801 12.3149L22.68 13.1913C22.7384 13.2767 22.7167 13.3934 22.6311 13.4515C22.5988 13.4738 22.5619 13.4844 22.5254 13.4844C22.4657 13.4844 22.4069 13.456 22.3706 13.4028L21.7707 12.5262C21.7124 12.4413 21.7343 12.3244 21.8197 12.2662ZM17.4394 28.5881C15.5787 28.5881 14.1392 27.1535 13.7934 26.7769C13.8412 26.6626 13.884 26.5075 13.9226 26.3261C13.9235 26.324 13.9233 26.3217 13.924 26.3195C14.0802 25.5811 14.1642 24.4133 14.202 23.7357C15.0203 24.5601 16.0446 25.084 17.3315 25.084C18.6929 25.084 19.9127 24.4758 20.9589 23.3055C20.9768 24.2242 21.0384 26.0954 21.2452 26.7602C20.8928 27.1181 19.3293 28.5882 17.4394 28.5882L17.4394 28.5881ZM17.331 24.7092C13.3363 24.7092 12.0097 19.1425 11.5731 15.7608C11.9944 15.2835 14.8563 12.1851 17.727 12.5704C19.3406 12.7866 20.6973 14.0665 21.7567 16.368L22.8647 19.0231C21.9642 21.6333 20.2776 24.7091 17.331 24.7091V24.7092Z"
    fill="black" />
</svg>
