<svg width="36" height="36" viewBox="0 0 36 36" fill="none" xmlns="http://www.w3.org/2000/svg">
  <circle cx="18" cy="18" r="18" fill="#D9D9D9" />
  <path d="M18.9511 18.9609C17.9854 19.9342 16.9131 19.1401 16.868 19.1058C16.7923 19.0482 16.6847 19.0631 16.6276 19.1382C16.57 19.2134 16.5844 19.3211 16.6595 19.3786C16.6679 19.3851 17.201 19.7843 17.889 19.7843C18.2955 19.7843 18.7564 19.645 19.1953 19.2027C19.2619 19.1354 19.2617 19.0265 19.1942 18.9598C19.1269 18.8932 19.018 18.8936 18.9511 18.9609Z" fill="black" />
  <path
    d="M25.7292 25.4981C25.4333 25.3312 25.1294 25.1709 24.8251 25.0107C24.5508 24.8662 24.2749 24.7206 24.0032 24.5688C24.6871 24.5093 25.2497 24.2904 25.595 23.9372C25.8057 23.7215 25.9122 23.4735 25.8956 23.2384C25.884 23.0728 25.7671 22.9563 25.6319 22.8213C25.1777 22.368 24.1145 21.3061 25.5907 16.1763C26.2623 13.843 26.1689 11.8385 25.3129 10.218C24.4093 8.50698 22.8132 7.21535 20.9339 6.67446C17.4417 5.66904 12.7143 7.14159 11.2457 10.9362C10.7208 12.2918 10.5821 13.8485 10.8443 15.4377C11.8519 21.5406 10.3832 22.3157 9.7561 22.647C9.54669 22.7576 9.34871 22.862 9.34871 23.1012C9.34871 23.7723 9.75265 24.6026 10.8495 24.9362C10.8025 24.961 10.7555 24.9858 10.7087 25.0106C10.4042 25.1711 10.1005 25.3311 9.80465 25.498C7.7207 26.6738 6.75 28.3978 6.75 30.9235C6.75 31.0184 6.82677 31.0952 6.92167 31.0952C7.01656 31.0952 7.09334 31.0184 7.09334 30.9235C7.09334 28.5348 8.00861 26.9059 9.9733 25.7974C10.2664 25.632 10.5672 25.4735 10.8687 25.3147C11.3447 25.0639 11.8259 24.8101 12.2833 24.5261C13.0717 25.1618 16.9951 28.2881 17.9185 28.2881C18.8418 28.2881 22.5003 25.1789 23.2551 24.5286C23.7112 24.8116 24.1909 25.0646 24.6656 25.3147C24.9671 25.4737 25.2679 25.6322 25.561 25.7974C27.5257 26.9059 28.441 28.5348 28.441 30.9235C28.441 31.0184 28.5177 31.0952 28.6126 31.0952C28.7075 31.0952 28.7843 31.0184 28.7843 30.9235C28.7843 28.3981 27.8136 26.6741 25.7297 25.4983L25.7292 25.4981ZM12.295 13.3895C12.2764 13.3895 12.2572 13.3865 12.2387 13.38C12.1492 13.349 12.1017 13.2513 12.1328 13.1615C12.7862 11.2775 14.7535 10.4011 15.2785 10.1971C15.2302 9.60918 15.2394 9.0398 15.4176 8.82283C15.4859 8.73937 15.5759 8.69559 15.6777 8.69559C16.2101 8.69559 17.7642 9.46979 18.2434 9.97275C18.7226 9.46983 20.2762 8.69559 20.809 8.69559C20.9108 8.69559 21.0007 8.73958 21.0691 8.82283C21.2474 9.04 21.2565 9.61067 21.2079 10.1994C21.7126 10.4065 23.5832 11.281 24.3883 13.1499C24.4258 13.237 24.3857 13.3382 24.2986 13.3755C24.2764 13.3852 24.2535 13.3897 24.2306 13.3897C24.1642 13.3897 24.1008 13.3509 24.073 13.2858C23.371 11.6566 21.7454 10.8139 21.1725 10.5593C21.1089 11.1063 21.0134 11.6092 20.9774 11.7906C20.9672 11.841 20.9351 11.8844 20.8896 11.9085C20.8644 11.9219 20.8368 11.9286 20.8089 11.9286C20.7865 11.9286 20.7639 11.9243 20.7427 11.9152C19.777 11.5121 18.6616 10.9928 18.2432 10.5936C17.8248 10.9928 16.7092 11.5121 15.7435 11.9152C15.7224 11.9241 15.6999 11.9286 15.6775 11.9286C15.6497 11.9286 15.6221 11.9219 15.5968 11.9085C15.5513 11.8842 15.5192 11.8408 15.5091 11.7906C15.4728 11.6088 15.3771 11.1037 15.3135 10.555C14.7273 10.8015 13.0237 11.6411 12.4572 13.2741C12.4327 13.3451 12.3662 13.3895 12.2951 13.3895L12.295 13.3895ZM17.9175 25.7107C17.4584 25.7107 15.3205 24.14 13.9847 23.0774C14.2476 22.7444 14.471 22.369 14.6403 21.937C14.732 21.7026 14.807 21.4559 14.8741 21.2048C15.6451 22.0299 16.6218 22.5534 17.8621 22.5534C18.9909 22.5534 19.9314 22.1182 20.7162 21.4166C20.7695 21.5939 20.8268 21.769 20.8926 21.9372C21.0628 22.3716 21.2875 22.7487 21.5521 23.083C20.3346 24.1435 18.3737 25.7107 17.9175 25.7107ZM20.7116 20.9482C20.687 20.9637 20.6661 20.9833 20.6523 21.0079C19.8908 21.7465 18.9717 22.2096 17.8619 22.2096C16.6346 22.2096 15.6811 21.6411 14.9388 20.7591C14.9295 20.7422 14.917 20.728 14.9026 20.7153C13.7429 19.3081 13.1074 17.1299 12.7606 15.1684C12.9381 14.8231 14.256 12.5612 18.2432 12.5612C22.253 12.5612 23.327 14.7938 23.4743 15.1548C22.96 17.2331 22.105 19.5549 20.7117 20.9485L20.7116 20.9482Z"
    fill="black" />
  <path d="M17.8533 10.4838H16.8326C16.7377 10.4838 16.661 10.407 16.661 10.3121C16.661 10.2172 16.7377 10.1404 16.8326 10.1404H17.9494C17.526 9.77662 16.1527 9.03906 15.6776 9.03906C15.5221 9.15983 15.5801 10.2918 15.8063 11.5162C16.6157 11.1692 17.46 10.7521 17.8534 10.4838L17.8533 10.4838Z" fill="black" />
  <path d="M19.9171 10.3119C19.9171 10.4068 19.8403 10.4836 19.7454 10.4836H18.6139C18.9958 10.7374 19.8561 11.1625 20.6806 11.5157C20.9066 10.2914 20.964 9.15916 20.7988 9.03516C20.3403 9.03796 19.0056 9.75222 18.5613 10.14H19.7455C19.8404 10.1402 19.9171 10.217 19.9171 10.3119Z" fill="black" />
  <path d="M17.2196 16.181C17.2196 16.2759 17.2963 16.3527 17.3912 16.3527C17.4861 16.3527 17.5629 16.2759 17.5629 16.181C17.5629 15.6848 17.1592 15.2812 16.6629 15.2812C16.1667 15.2812 15.7632 15.6848 15.7632 16.181C15.7632 16.2759 15.84 16.3527 15.9349 16.3527C16.0297 16.3527 16.1065 16.2759 16.1065 16.181C16.1065 15.8743 16.356 15.6248 16.6627 15.6248C16.9698 15.6248 17.2196 15.8743 17.2196 16.181Z" fill="black" />
  <path d="M19.5728 15.2812C19.0766 15.2812 18.6729 15.6848 18.6729 16.181C18.6729 16.2759 18.7496 16.3527 18.8445 16.3527C18.9394 16.3527 19.0162 16.2759 19.0162 16.181C19.0162 15.8743 19.2657 15.6248 19.5726 15.6248C19.8793 15.6248 20.1288 15.8743 20.1288 16.181C20.1288 16.2759 20.2056 16.3527 20.3004 16.3527C20.3953 16.3527 20.4721 16.2759 20.4721 16.181C20.4725 15.6848 20.0691 15.2812 19.5728 15.2812Z" fill="black" />
  <path d="M18.139 17.8956C18.1536 17.8956 18.169 17.8948 18.1849 17.8933C18.2794 17.8842 18.34 17.8036 18.3309 17.7091C18.3219 17.6149 18.2283 17.5499 18.1351 17.5581C18.1176 17.532 18.1211 17.4264 18.142 17.3494C18.1666 17.2582 18.1129 17.1637 18.0217 17.1387C17.9309 17.1145 17.8362 17.1671 17.8107 17.2582C17.7952 17.3144 17.7249 17.6039 17.8716 17.7785C17.9097 17.8241 17.9932 17.8956 18.139 17.8956Z" fill="black" />
</svg>
