<svg width="36" height="36" viewBox="0 0 36 36" fill="none" xmlns="http://www.w3.org/2000/svg">
  <circle cx="18" cy="18" r="18" fill="#B4B4B4" />
  <path
    d="M29.4622 26.1007C29.2429 22.456 26.7243 22.2861 23.8079 22.0899C23.4074 22.0627 22.9957 22.0351 22.5772 21.998C21.7285 21.9225 21.0992 21.664 20.7069 21.2301C20.1585 20.6233 20.1759 19.7897 20.2495 19.2937C20.7644 19.0907 21.075 18.839 21.1921 18.5258C21.2484 18.3757 21.3042 18.2101 21.359 18.038C21.764 17.8942 23.3299 17.2389 24.4824 15.37C25.3805 13.9141 26.2925 10.2067 24.4467 7.82692C23.1595 6.16664 20.8183 5.45911 17.4802 5.72111C13.728 6.0167 11.5544 6.80184 11.0195 8.0543C10.5266 9.20884 11.5967 10.3354 11.8824 10.6082C11.7297 11.4333 10.5957 17.9649 12.5368 19.7369C12.8015 19.9783 13.1131 20.1213 13.4637 20.1723C13.4483 21.118 13.2483 21.7662 12.9037 21.9547C12.6791 22.0777 12.1053 22.2044 11.4411 22.3513C9.67814 22.7411 7.01458 23.3304 6.58663 24.7996C6.02948 26.7139 5.75366 30.3386 5.7421 30.4921C5.73533 30.5831 5.81576 30.6617 5.92177 30.6676C5.92588 30.668 5.92998 30.668 5.93409 30.668C6.0348 30.668 6.11957 30.601 6.12609 30.5134C6.12874 30.4761 6.41131 26.7656 6.95999 24.8799C7.3319 23.6011 9.86237 23.0416 11.5367 22.6716C11.5886 22.6602 11.6382 22.6492 11.6886 22.638C12.0422 23.1317 13.6134 25.0296 16.886 25.0667C16.9131 25.0672 16.9394 25.0672 16.966 25.0672C20.2246 25.0672 21.7381 22.8163 22.0622 22.2608C22.2141 22.2886 22.3706 22.3123 22.537 22.327C22.9589 22.3648 23.3736 22.3926 23.7774 22.4195C26.7372 22.6189 28.8755 22.7632 29.0776 26.118C29.315 30.0568 29.3561 30.4995 29.3578 30.5163C29.366 30.6028 29.4503 30.6679 29.549 30.6679C29.5544 30.6679 29.5599 30.6675 29.5652 30.6673C29.6712 30.6598 29.7497 30.5802 29.741 30.4891C29.7398 30.4712 29.6981 30.0164 29.4619 26.1007L29.4622 26.1007ZM12.817 19.5103C11.1163 17.9579 12.0169 12.0856 12.234 10.8217C12.6796 11.0306 13.6623 11.41 14.8802 11.3832C16.2495 11.3513 17.8067 10.9001 18.2787 10.7537L19.0507 11.6824C19.0959 11.7359 19.171 11.7614 19.2488 11.7475L20.6466 11.4843L21.3426 13.1528C21.3711 13.2219 21.4486 13.2673 21.5353 13.2619C22.2357 13.2254 22.6984 13.3177 22.9491 13.5441C23.1565 13.7311 23.2309 14.0249 23.1768 14.442C23.066 15.2999 21.7606 15.5113 21.7474 15.5134C21.6689 15.5256 21.6068 15.5783 21.5923 15.6457C21.5884 15.6631 21.2037 17.4153 20.8262 18.4253C20.7342 18.6709 20.4463 18.8744 19.9466 19.048C18.8577 19.4266 13.9119 19.8592 13.9119 19.8592C13.4734 19.8972 13.1159 19.7835 12.817 19.5106L12.817 19.5103ZM17.0406 23.3701C16.9757 23.3718 16.9119 23.3724 16.8491 23.3724C14.6191 23.3724 13.5712 22.45 13.2681 22.1214C13.6376 21.8046 13.831 21.1552 13.8477 20.1917C13.8822 20.19 13.9163 20.19 13.9516 20.1869C13.9516 20.1869 18.6826 19.77 19.8465 19.4265C19.7904 19.9853 19.8341 20.8034 20.4029 21.4327C20.4468 21.4815 20.4954 21.5265 20.5442 21.5715C20.3505 21.9399 19.4668 23.3137 17.0406 23.3701Z"
    fill="black" />
  <path d="M15.7016 16.517C15.7644 16.548 15.8313 16.5635 15.9023 16.5635C16.0455 16.5635 16.2044 16.5 16.3771 16.3731C16.458 16.314 16.4671 16.2094 16.3981 16.1401C16.3292 16.0709 16.2075 16.063 16.1269 16.1221C15.9762 16.2325 15.9044 16.236 15.8936 16.2306C15.6902 16.1302 15.7103 15.1167 15.9361 14.0623C15.9552 13.9727 15.8861 13.8864 15.7818 13.8696C15.6755 13.8543 15.5767 13.9126 15.5574 14.0022C15.4154 14.6666 15.1444 16.2412 15.7016 16.517Z" fill="black" />
  <path d="M16.6331 13.7271C16.7244 13.773 16.8427 13.7479 16.8963 13.6688C17.0572 13.434 17.5841 12.8203 18.1502 12.8547C18.5499 12.8721 18.9259 13.205 19.2679 13.8446C19.3002 13.9049 19.3696 13.9408 19.4425 13.9408C19.4695 13.9408 19.4966 13.936 19.5229 13.9257C19.6195 13.8875 19.6615 13.7896 19.6171 13.7066C19.2106 12.9468 18.7238 12.5489 18.1695 12.5247C18.1519 12.5236 18.1343 12.5234 18.1166 12.5234C17.2455 12.5234 16.5925 13.4604 16.5647 13.501C16.5108 13.5797 16.5413 13.6811 16.6331 13.7271Z" fill="black" />
  <path d="M17.4949 13.9168C17.4949 14.0081 17.5808 14.0819 17.6871 14.0819C17.7934 14.0819 17.8794 14.0081 17.8794 13.9168C17.8794 13.8239 17.9677 13.7484 18.0759 13.7484C18.1841 13.7484 18.272 13.8239 18.272 13.9168C18.272 14.0081 18.358 14.0819 18.4643 14.0819C18.5705 14.0819 18.6565 14.0081 18.6565 13.9168C18.6565 13.642 18.3959 13.418 18.0757 13.418C17.7557 13.4182 17.4949 13.642 17.4949 13.9168Z" fill="black" />
  <path d="M15.0781 13.9583C15.1104 14.0187 15.1798 14.0546 15.2527 14.0546C15.2797 14.0546 15.3068 14.0498 15.3331 14.0394C15.4297 14.0015 15.4717 13.9034 15.4273 13.8204C15.0208 13.0602 14.534 12.6623 13.9797 12.638C13.0927 12.5961 12.4029 13.5727 12.3749 13.6144C12.3208 13.6932 12.3513 13.7945 12.443 13.8405C12.5343 13.8863 12.6527 13.8608 12.7063 13.782C12.8671 13.5472 13.4144 12.9345 13.9601 12.9679C14.3603 12.9855 14.7364 13.3186 15.0781 13.9583Z" fill="black" />
  <path d="M13.6899 14.0301C13.6899 13.9372 13.7778 13.8617 13.886 13.8617C13.9942 13.8617 14.0821 13.9372 14.0821 14.0301C14.0821 14.1214 14.1681 14.1952 14.2743 14.1952C14.3806 14.1952 14.4666 14.1214 14.4666 14.0301C14.4666 13.7553 14.206 13.5312 13.8857 13.5312C13.5658 13.5312 13.3049 13.7553 13.3049 14.0301C13.3049 14.1214 13.3909 14.1952 13.4972 14.1952C13.6037 14.1954 13.6899 14.1214 13.6899 14.0301Z" fill="black" />
  <path d="M13.7514 18.2428C13.7688 18.2347 15.5419 17.4314 18.4342 17.828C18.5402 17.8408 18.6383 17.7804 18.6547 17.6908C18.6711 17.6006 18.5999 17.516 18.495 17.5015C15.4728 17.0893 13.6444 17.9174 13.5681 17.9526C13.4749 17.996 13.4401 18.0962 13.4909 18.1766C13.5254 18.2318 13.5916 18.2631 13.6599 18.2631C13.6911 18.2627 13.7222 18.2563 13.7514 18.2428Z" fill="black" />
</svg>
