<svg width="36" height="36" viewBox="0 0 36 36" fill="none" xmlns="http://www.w3.org/2000/svg">
  <circle cx="18" cy="18" r="18" fill="#D9D9D9" />
  <path
    d="M22.2252 25.9645C21.8034 25.9216 21.5127 25.7277 21.3141 25.4536C21.3115 25.4497 21.3095 25.4456 21.3065 25.4419C20.9101 24.8836 20.8907 24.0015 20.9442 23.3616C21.7363 22.9937 22.3152 22.5615 22.5101 22.1634C22.6792 21.8177 22.8431 20.3831 22.9822 18.7238C23.1532 18.5148 23.8291 17.6192 23.9762 16.355C23.9962 16.182 23.996 16.0308 23.9857 15.89C24.1927 15.4763 25.9073 11.8868 24.3713 9.36474C23.4159 7.79557 21.4087 7 18.4059 7C15.3198 7 13.2104 7.82533 12.1368 9.45341C10.5555 11.8503 11.754 15.1339 11.9789 15.6965C11.7997 16.0422 11.6751 16.5452 11.7771 17.2592C11.8871 18.0281 12.1006 18.5233 12.4124 18.7316C12.4832 18.7788 12.5487 18.8038 12.6065 18.8178C12.6221 19.0236 12.6387 19.2252 12.6557 19.4237C12.6548 19.4388 12.6566 19.4532 12.6596 19.4681C12.8004 21.1067 12.9725 22.4283 12.9779 22.4617C13.1623 23.5933 13.7772 24.0087 14.8596 24.1616C14.7239 24.9535 14.2913 26.4431 12.9421 26.696C10.0013 27.2473 8.45892 28.4349 8.22666 30.327C8.21501 30.4212 8.28208 30.5068 8.37611 30.5183C8.38323 30.5193 8.39034 30.5195 8.39724 30.5195C8.48286 30.5195 8.55683 30.4559 8.5674 30.3688C8.77594 28.6696 10.1918 27.5865 12.8884 27.0575C13.2057 27.568 14.7022 29.669 17.8338 29.669C21.0073 29.669 22.6345 27.0027 22.956 26.4116C24.7134 26.7148 27.3833 27.6219 27.1401 30.3321C27.1317 30.4268 27.2013 30.5101 27.2958 30.5187C27.3012 30.5191 27.3063 30.5193 27.3113 30.5193C27.3993 30.5193 27.4741 30.4523 27.4823 30.363C27.7927 26.9091 23.9094 26.1364 22.2258 25.9645L22.2252 25.9645ZM12.1169 17.2104C11.9892 16.3163 12.2562 15.8164 12.4803 15.5641C12.4663 16.4414 12.5105 17.4539 12.578 18.429C12.4276 18.309 12.2271 17.9831 12.1169 17.2104ZM23.2207 15.3648C23.2966 15.365 23.3949 15.3812 23.4743 15.4499C23.6296 15.5841 23.685 15.8832 23.6347 16.3154C23.5506 17.0389 23.2713 17.6402 23.0374 18.0353C23.1072 17.1324 23.1693 16.2005 23.2207 15.3648ZM14.3766 20.6602L12.9854 19.3502C12.9683 19.1319 12.9325 18.607 12.9313 18.6034C12.8521 17.4168 12.8051 16.197 12.8284 15.2392C12.8355 15.2144 12.8355 15.1885 12.8308 15.1627C12.8579 14.2228 12.9554 13.5506 13.1631 13.4454C13.1663 13.4436 13.1709 13.4428 13.176 13.4428C13.2064 13.4428 13.2647 13.4751 13.3419 13.5534C14.1008 14.3255 14.9339 14.7171 15.8177 14.7176H15.8188C16.9038 14.7176 18.0405 14.1221 19.1967 12.9478C19.8823 12.2514 20.5914 11.9031 21.3143 11.9208C22.2 11.9389 22.8505 12.5061 23.0271 12.6773C22.9576 14.0757 22.8054 16.7126 22.6257 18.8382L20.7956 20.3802C20.5336 20.0129 19.7574 19.2631 17.7858 19.2631C15.7236 19.2629 14.7064 20.2547 14.3766 20.6602ZM19.0925 20.9737C18.8613 21.6477 18.2284 22.1001 17.5169 22.1001C16.8056 22.1001 16.1724 21.6477 15.9413 20.9737C15.9234 20.9213 15.9318 20.8633 15.9641 20.8182C15.9963 20.7732 16.0482 20.7462 16.1039 20.7462H18.9301C18.9855 20.7462 19.0375 20.7729 19.0699 20.8182C19.1018 20.8633 19.1104 20.9211 19.0925 20.9737ZM17.5497 27.4217C15.5755 27.4217 14.781 26.2204 14.5992 25.8883C14.9583 25.3112 15.1254 24.6485 15.2009 24.2003C15.6831 24.2428 16.2423 24.2502 16.8867 24.2502C18.2077 24.2502 19.5424 23.9426 20.5892 23.5156C20.5402 24.3791 20.6722 25.0656 20.9666 25.5435C20.7039 25.9209 19.5359 27.4217 17.5496 27.4217L17.5497 27.4217Z"
    fill="black" />
  <path d="M17.5174 21.7567C17.9976 21.7567 18.4328 21.4968 18.6651 21.0898H16.3694C16.6019 21.4966 17.0373 21.7567 17.5174 21.7567Z" fill="black" />
  <path d="M20.1841 17.2297C20.5522 17.2297 20.8518 16.9302 20.8518 16.562C20.8518 16.1939 20.5524 15.8945 20.1841 15.8945C19.8159 15.8945 19.5164 16.1939 19.5164 16.562C19.5161 16.9302 19.8159 17.2297 20.1841 17.2297ZM20.1841 16.2379C20.3626 16.2379 20.5082 16.3832 20.5082 16.562C20.5082 16.7408 20.3628 16.8864 20.1841 16.8864C20.0053 16.8864 19.8597 16.741 19.8597 16.562C19.8597 16.3832 20.0053 16.2379 20.1841 16.2379Z" fill="black" />
  <path d="M14.7856 15.9492C14.4175 15.9492 14.1179 16.2488 14.1179 16.6169C14.1179 16.9851 14.4175 17.2846 14.7856 17.2846C15.1538 17.2846 15.4533 16.9853 15.4533 16.6169C15.4533 16.2488 15.1538 15.9492 14.7856 15.9492ZM14.7856 16.9411C14.6068 16.9411 14.4615 16.7957 14.4615 16.6169C14.4615 16.4381 14.6068 16.2928 14.7856 16.2928C14.9642 16.2928 15.1098 16.4381 15.1098 16.6169C15.1098 16.7957 14.9642 16.9411 14.7856 16.9411Z" fill="black" />
  <path d="M18.0972 18.6476C18.08 18.5544 17.9905 18.494 17.8967 18.5107C17.6722 18.5521 17.5141 18.5225 17.4272 18.4207C17.2147 18.1712 17.348 17.4884 17.482 17.1168C17.5141 17.0275 17.4677 16.9292 17.3787 16.8969C17.2898 16.8649 17.191 16.9109 17.1589 16.9999C17.1164 17.1173 16.7558 18.1617 17.1654 18.6431C17.2954 18.796 17.4796 18.873 17.714 18.873C17.7908 18.873 17.873 18.8648 17.9605 18.8482C18.0535 18.8307 18.1149 18.741 18.0972 18.6476Z" fill="black" />
</svg>
