<svg width="40" height="26" viewBox="0 0 40 26" fill="none" xmlns="http://www.w3.org/2000/svg">
  <path d="M19.9781 1C26.5445 1 31.8764 6.33192 31.8764 12.8983V17.1617H8.07983V12.8983C8.07983 6.33192 13.4118 1 19.9781 1Z" fill="white" stroke="black" stroke-width="0.5" stroke-miterlimit="10" />
  <path d="M19.978 1.79883C26.062 1.79883 31.0023 6.73916 31.0023 12.8232V17.1644H8.95626V12.8232C8.95626 6.73656 13.894 1.79883 19.978 1.79883Z" fill="black" stroke="black" stroke-width="0.5" stroke-miterlimit="10" />
  <path d="M28.741 12.3442H11.4511C4.24159 12.3442 1.5082 16.6362 1.5082 16.6362H38.6813C38.6813 16.6362 35.9505 12.3442 28.7384 12.3442H28.741Z" fill="white" stroke="black" stroke-width="0.5" stroke-miterlimit="10" />
  <path d="M20.0949 18.8848H8.65821C8.65821 18.8848 8.6634 18.9755 8.68933 19.1363C8.87087 20.2878 10.1546 24.9999 18.7411 24.9999H21.446C30.0326 24.9999 31.3163 20.2878 31.4978 19.1363C31.5264 18.9755 31.5289 18.8848 31.5289 18.8848H20.0923H20.0949Z" fill="white" stroke="black" stroke-width="0.5" stroke-miterlimit="10" />
  <path d="M20.0948 18.8848H14.3765C14.3765 18.8848 14.3765 18.9755 14.392 19.1363C14.4828 20.2878 15.126 24.9999 19.4205 24.9999H20.7717C25.0663 24.9999 25.7068 20.2878 25.8002 19.1363C25.8132 18.9755 25.8157 18.8848 25.8157 18.8848H20.0974H20.0948Z" fill="white" stroke="black" stroke-width="0.5" stroke-miterlimit="10" />
  <path d="M20.0947 17.6504H1.5082C1.5082 17.6504 2.73745 21.696 12.0968 21.9294C12.3743 21.9398 12.6648 21.9424 12.9578 21.9424H27.229C27.5247 21.9424 27.8125 21.9398 28.09 21.9294C37.4494 21.696 38.6787 17.6504 38.6787 17.6504H20.0947Z" fill="white" stroke="black" stroke-width="0.5" stroke-miterlimit="10" />
  <path d="M38.6813 16.6362H1.5083C1.22562 16.6362 1 16.8644 1 17.1419C1 17.4194 1.22821 17.6502 1.5083 17.6502H38.6813C38.964 17.6502 39.1896 17.422 39.1896 17.1419C39.1896 16.8619 38.9614 16.6362 38.6813 16.6362Z" fill="#BC9BFF" stroke="black" stroke-width="0.5" stroke-miterlimit="10" />
  <path d="M24.8952 12.3442H15.1209C11.0467 12.3442 9.50108 16.6362 9.50108 16.6362H30.5124C30.5124 16.6362 28.9693 12.3442 24.8926 12.3442H24.8952Z" fill="white" stroke="black" stroke-width="0.5" stroke-miterlimit="10" />
  <path d="M15.1209 21.9424H24.8926C28.9667 21.9424 30.5124 17.6504 30.5124 17.6504H9.50108C9.50108 17.6504 11.0441 21.9424 15.1209 21.9424Z" fill="white" stroke="black" stroke-width="0.5" stroke-miterlimit="10" />
  <path d="M20.0949 12.3442V24.9998" stroke="black" stroke-width="0.5" stroke-miterlimit="10" />
  <path d="M32.1981 11.3589H7.99436C7.29156 11.3589 6.72362 11.849 6.72362 12.4559C6.72362 13.0627 7.29156 13.5529 7.99436 13.5529H32.1981C32.9009 13.5529 33.4688 13.0627 33.4688 12.4559C33.4688 11.849 32.9009 11.3589 32.1981 11.3589Z" fill="#BC9BFF" stroke="black" stroke-width="0.5" stroke-miterlimit="10" />
  <path d="M23.6996 9.42676H16.4901C16.2409 9.42676 16.0389 9.62821 16.0389 9.8767C16.0389 10.1252 16.2409 10.3266 16.4901 10.3266H23.6996C23.9488 10.3266 24.1509 10.1252 24.1509 9.8767C24.1509 9.62821 23.9488 9.42676 23.6996 9.42676Z" fill="#BC9BFF" stroke="black" stroke-width="0.5" stroke-miterlimit="10" />
  <path d="M20.6602 11.3587H19.5295L16.809 10.3291H17.9397L20.6602 11.3587Z" fill="white" stroke="black" stroke-width="0.5" stroke-miterlimit="10" />
  <path d="M19.5295 11.3587H20.6602L23.3832 10.3291H22.2525L19.5295 11.3587Z" fill="white" stroke="black" stroke-width="0.5" stroke-miterlimit="10" />
  <path d="M20.6602 10.3291H19.5295V11.3587H20.6602V10.3291Z" fill="#BC9BFF" stroke="black" stroke-width="0.5" stroke-miterlimit="10" />
</svg>