<svg width="48" height="48" viewBox="0 0 48 48" fill="none" xmlns="http://www.w3.org/2000/svg">
  <path d="M0 8C0 3.58172 3.58172 0 8 0H48V48H8C3.58172 48 0 44.4183 0 40V8Z" fill="#BC9BFF" fill-opacity="0.5" />
  <path d="M23.9781 12C30.5445 12 35.8764 17.3319 35.8764 23.8983V28.1617H12.0798V23.8983C12.0798 17.3319 17.4118 12 23.9781 12Z" fill="white" stroke="black" stroke-width="0.5" stroke-miterlimit="10" />
  <path d="M23.978 12.7988C30.062 12.7988 35.0023 17.7392 35.0023 23.8232V28.1644H12.9563V23.8232C12.9563 17.7366 17.894 12.7988 23.978 12.7988Z" fill="black" stroke="black" stroke-width="0.5" stroke-miterlimit="10" />
  <path d="M32.741 23.3442H15.4511C8.2416 23.3442 5.50821 27.6362 5.50821 27.6362H42.6813C42.6813 27.6362 39.9505 23.3442 32.7384 23.3442H32.741Z" fill="white" stroke="black" stroke-width="0.5" stroke-miterlimit="10" />
  <path d="M24.0949 29.8848H12.6582C12.6582 29.8848 12.6634 29.9755 12.6893 30.1363C12.8709 31.2878 14.1546 35.9999 22.7411 35.9999H25.446C34.0326 35.9999 35.3163 31.2878 35.4978 30.1363C35.5263 29.9755 35.5289 29.8848 35.5289 29.8848H24.0923H24.0949Z" fill="white" stroke="black" stroke-width="0.5" stroke-miterlimit="10" />
  <path d="M24.0948 29.8848H18.3765C18.3765 29.8848 18.3765 29.9755 18.3921 30.1363C18.4828 31.2878 19.126 35.9999 23.4206 35.9999H24.7717C29.0663 35.9999 29.7068 31.2878 29.8002 30.1363C29.8132 29.9755 29.8158 29.8848 29.8158 29.8848H24.0974H24.0948Z" fill="white" stroke="black" stroke-width="0.5" stroke-miterlimit="10" />
  <path d="M24.0947 28.6504H5.50821C5.50821 28.6504 6.73746 32.696 16.0969 32.9294C16.3743 32.9398 16.6648 32.9424 16.9578 32.9424H31.229C31.5247 32.9424 31.8125 32.9398 32.09 32.9294C41.4494 32.696 42.6787 28.6504 42.6787 28.6504H24.0947Z" fill="white" stroke="black" stroke-width="0.5" stroke-miterlimit="10" />
  <path d="M42.6813 27.6362H5.5083C5.22562 27.6362 5 27.8644 5 28.1419C5 28.4194 5.22821 28.6502 5.5083 28.6502H42.6813C42.964 28.6502 43.1896 28.422 43.1896 28.1419C43.1896 27.8619 42.9614 27.6362 42.6813 27.6362Z" fill="#BC9BFF" stroke="black" stroke-width="0.5" stroke-miterlimit="10" />
  <path d="M28.8952 23.3442H19.1209C15.0467 23.3442 13.5011 27.6362 13.5011 27.6362H34.5124C34.5124 27.6362 32.9693 23.3442 28.8926 23.3442H28.8952Z" fill="white" stroke="black" stroke-width="0.5" stroke-miterlimit="10" />
  <path d="M19.1209 32.9424H28.8926C32.9667 32.9424 34.5124 28.6504 34.5124 28.6504H13.5011C13.5011 28.6504 15.0441 32.9424 19.1209 32.9424Z" fill="white" stroke="black" stroke-width="0.5" stroke-miterlimit="10" />
  <path d="M24.0949 23.3442V35.9998" stroke="black" stroke-width="0.5" stroke-miterlimit="10" />
  <path d="M36.1981 22.3589H11.9943C11.2915 22.3589 10.7236 22.849 10.7236 23.4559C10.7236 24.0627 11.2915 24.5529 11.9943 24.5529H36.1981C36.9009 24.5529 37.4688 24.0627 37.4688 23.4559C37.4688 22.849 36.9009 22.3589 36.1981 22.3589Z" fill="#BC9BFF" stroke="black" stroke-width="0.5" stroke-miterlimit="10" />
  <path d="M27.6996 20.4268H20.4901C20.2409 20.4268 20.0388 20.6282 20.0388 20.8767C20.0388 21.1252 20.2409 21.3266 20.4901 21.3266H27.6996C27.9488 21.3266 28.1508 21.1252 28.1508 20.8767C28.1508 20.6282 27.9488 20.4268 27.6996 20.4268Z" fill="#BC9BFF" stroke="black" stroke-width="0.5" stroke-miterlimit="10" />
  <path d="M24.6601 22.3587H23.5294L20.809 21.3291H21.9397L24.6601 22.3587Z" fill="white" stroke="black" stroke-width="0.5" stroke-miterlimit="10" />
  <path d="M23.5295 22.3587H24.6602L27.3832 21.3291H26.2525L23.5295 22.3587Z" fill="white" stroke="black" stroke-width="0.5" stroke-miterlimit="10" />
  <path d="M24.6602 21.3291H23.5295V22.3587H24.6602V21.3291Z" fill="#BC9BFF" stroke="black" stroke-width="0.5" stroke-miterlimit="10" />
</svg>