<svg width="25" height="24" viewBox="0 0 25 24" fill="none" xmlns="http://www.w3.org/2000/svg">
<path d="M10.5501 6.74009C10.6171 6.81232 10.6692 6.89703 10.7034 6.98939C10.7377 7.08175 10.7534 7.17995 10.7497 7.27838C10.7459 7.37681 10.7229 7.47355 10.6818 7.56307C10.6407 7.65258 10.5823 7.73313 10.5101 7.80009L7.6021 10.5001L10.5101 13.2001C10.5823 13.2671 10.6407 13.3476 10.6818 13.4371C10.7229 13.5266 10.7459 13.6234 10.7496 13.7218C10.7533 13.8202 10.7376 13.9184 10.7034 14.0108C10.6692 14.1032 10.6171 14.1879 10.5501 14.2601C10.4831 14.3323 10.4026 14.3907 10.3131 14.4317C10.2235 14.4728 10.1268 14.4959 10.0284 14.4996C9.92995 14.5033 9.83175 14.4876 9.7394 14.4534C9.64704 14.4192 9.56233 14.3671 9.4901 14.3001L5.9901 11.0501C5.91437 10.9799 5.85396 10.8948 5.81264 10.8002C5.77133 10.7055 5.75 10.6034 5.75 10.5001C5.75 10.3968 5.77133 10.2947 5.81264 10.2C5.85396 10.1054 5.91437 10.0203 5.9901 9.95009L9.4901 6.70009C9.56232 6.63311 9.64703 6.58101 9.73939 6.54677C9.83175 6.51253 9.92995 6.49682 10.0284 6.50053C10.1268 6.50425 10.2236 6.52732 10.3131 6.56842C10.4026 6.60952 10.4831 6.66786 10.5501 6.74009ZM13.9901 7.80009C13.8442 7.66483 13.7581 7.47717 13.7506 7.27838C13.7431 7.07959 13.8148 6.88596 13.9501 6.74009C14.0854 6.59422 14.273 6.50806 14.4718 6.50056C14.6706 6.49306 14.8642 6.56483 15.0101 6.70009L18.5101 9.95009C18.5858 10.0203 18.6462 10.1054 18.6876 10.2C18.7289 10.2947 18.7502 10.3968 18.7502 10.5001C18.7502 10.6034 18.7289 10.7055 18.6876 10.8002C18.6462 10.8948 18.5858 10.9799 18.5101 11.0501L15.0101 14.3001C14.8642 14.4354 14.6706 14.5071 14.4718 14.4996C14.273 14.4921 14.0854 14.406 13.9501 14.2601C13.8148 14.1142 13.7431 13.9206 13.7506 13.7218C13.7581 13.523 13.8442 13.3354 13.9901 13.2001L16.8981 10.5001L13.9901 7.80009Z" fill="#EDEDED"/>
<path d="M1.75 4.25C1.75 3.284 2.534 2.5 3.5 2.5H21C21.966 2.5 22.75 3.284 22.75 4.25V16.75C22.75 17.2141 22.5656 17.6592 22.2374 17.9874C21.9092 18.3156 21.4641 18.5 21 18.5H11.31L7.737 22.073C7.53305 22.2762 7.27352 22.4144 6.99112 22.4703C6.70872 22.5262 6.41609 22.4973 6.15011 22.3871C5.88414 22.277 5.65673 22.0905 5.49655 21.8513C5.33636 21.6121 5.25058 21.3309 5.25 21.043V18.5H3.5C3.03587 18.5 2.59075 18.3156 2.26256 17.9874C1.93437 17.6592 1.75 17.2141 1.75 16.75V4.25ZM3.5 4C3.4337 4 3.37011 4.02634 3.32322 4.07322C3.27634 4.12011 3.25 4.1837 3.25 4.25V16.75C3.25 16.888 3.362 17 3.5 17H6C6.19891 17 6.38968 17.079 6.53033 17.2197C6.67098 17.3603 6.75 17.5511 6.75 17.75V20.94L10.47 17.22C10.5395 17.1503 10.6222 17.095 10.7131 17.0572C10.804 17.0195 10.9015 17 11 17H21C21.0663 17 21.1299 16.9737 21.1768 16.9268C21.2237 16.8799 21.25 16.8163 21.25 16.75V4.25C21.25 4.1837 21.2237 4.12011 21.1768 4.07322C21.1299 4.02634 21.0663 4 21 4H3.5Z" fill="#EDEDED"/>
</svg>
