<svg width="25" height="24" viewBox="0 0 25 24" fill="none" xmlns="http://www.w3.org/2000/svg">
<path d="M5.125 13.5H3.625C3.42609 13.5 3.23532 13.579 3.09467 13.7197C2.95402 13.8603 2.875 14.0511 2.875 14.25V19.5C2.875 19.6989 2.95402 19.8897 3.09467 20.0303C3.23532 20.171 3.42609 20.25 3.625 20.25H5.125C6.02011 20.25 6.87855 19.8944 7.51149 19.2615C8.14442 18.6285 8.5 17.7701 8.5 16.875C8.5 15.9799 8.14442 15.1215 7.51149 14.4885C6.87855 13.8556 6.02011 13.5 5.125 13.5ZM5.125 18.75H4.375V15H5.125C5.62228 15 6.09919 15.1975 6.45083 15.5492C6.80246 15.9008 7 16.3777 7 16.875C7 17.3723 6.80246 17.8492 6.45083 18.2008C6.09919 18.5525 5.62228 18.75 5.125 18.75ZM21.0184 18.2897C21.1621 18.4272 21.2453 18.6161 21.2497 18.815C21.2541 19.0138 21.1794 19.2063 21.0419 19.35C20.7807 19.6311 20.4649 19.8559 20.1138 20.0107C19.7627 20.1655 19.3837 20.2469 19 20.25C17.3453 20.25 16 18.7359 16 16.875C16 15.0141 17.3453 13.5 19 13.5C19.3837 13.5031 19.7627 13.5845 20.1138 13.7393C20.4649 13.8941 20.7807 14.1189 21.0419 14.4C21.1764 14.5443 21.2486 14.7357 21.243 14.9329C21.2374 15.13 21.1543 15.317 21.0118 15.4534C20.8693 15.5897 20.6788 15.6644 20.4816 15.6613C20.2844 15.6583 20.0963 15.5776 19.9581 15.4369C19.8364 15.3029 19.6887 15.1951 19.524 15.12C19.3592 15.0449 19.181 15.0041 19 15C18.1731 15 17.5 15.8438 17.5 16.875C17.5 17.9062 18.1731 18.75 19 18.75C19.181 18.7459 19.3592 18.7051 19.524 18.63C19.6887 18.5549 19.8364 18.4471 19.9581 18.3131C20.0956 18.1694 20.2846 18.0862 20.4834 18.0818C20.6823 18.0774 20.8747 18.1522 21.0184 18.2897ZM12.25 13.5C10.5953 13.5 9.25 15.0141 9.25 16.875C9.25 18.7359 10.5953 20.25 12.25 20.25C13.9047 20.25 15.25 18.7359 15.25 16.875C15.25 15.0141 13.9047 13.5 12.25 13.5ZM12.25 18.75C11.4231 18.75 10.75 17.9062 10.75 16.875C10.75 15.8438 11.4231 15 12.25 15C13.0769 15 13.75 15.8438 13.75 16.875C13.75 17.9062 13.0769 18.75 12.25 18.75ZM4.75 11.25C4.94891 11.25 5.13968 11.171 5.28033 11.0303C5.42098 10.8897 5.5 10.6989 5.5 10.5V3.75H13.75V8.25C13.75 8.44891 13.829 8.63968 13.9697 8.78033C14.1103 8.92098 14.3011 9 14.5 9H19V10.5C19 10.6989 19.079 10.8897 19.2197 11.0303C19.3603 11.171 19.5511 11.25 19.75 11.25C19.9489 11.25 20.1397 11.171 20.2803 11.0303C20.421 10.8897 20.5 10.6989 20.5 10.5V8.25C20.5001 8.15148 20.4807 8.05391 20.4431 7.96286C20.4055 7.87182 20.3503 7.78908 20.2806 7.71938L15.0306 2.46938C14.9609 2.39975 14.8782 2.34454 14.7871 2.3069C14.6961 2.26926 14.5985 2.24992 14.5 2.25H5.5C5.10218 2.25 4.72064 2.40804 4.43934 2.68934C4.15804 2.97064 4 3.35218 4 3.75V10.5C4 10.6989 4.07902 10.8897 4.21967 11.0303C4.36032 11.171 4.55109 11.25 4.75 11.25ZM15.25 4.81031L17.9397 7.5H15.25V4.81031Z" fill="#EDEDED"/>
</svg>
