<svg width="20" height="20" viewBox="0 0 20 20" fill="none" xmlns="http://www.w3.org/2000/svg">
<g clip-path="url(#clip0_740_9615)">
<path d="M10.1593 4.87851L17.9279 2.98991C18.6443 2.81575 19.1284 3.70305 18.5942 4.2112L12.9258 9.60359C12.8218 9.70257 12.7497 9.83041 12.7188 9.97067L11.1761 16.9888C11.0054 17.7656 9.88665 17.7327 9.76185 16.9472L8.58765 9.55566C8.55977 9.38016 8.46798 9.22117 8.32994 9.10928L2.26558 4.19382C1.65817 3.70148 2.16065 2.73002 2.91347 2.94126L9.79469 4.87212C9.91366 4.9055 10.0392 4.9077 10.1593 4.87851Z" fill="#F2F2F2"/>
<path d="M5.76999 10.7189C5.84919 10.779 5.90005 10.8691 5.9105 10.9679L6.46154 16.1779C6.50244 16.5645 5.98618 16.7325 5.79177 16.3957L0.871316 7.87327C0.674937 7.53313 1.08759 7.16911 1.40057 7.40639L5.76999 10.7189Z" fill="#F2F2F2"/>
</g>
<defs>
<clipPath id="clip0_740_9615">
<rect width="20" height="20" fill="white"/>
</clipPath>
</defs>
</svg>
