<svg width="395" height="377" viewBox="0 0 395 377" fill="none" xmlns="http://www.w3.org/2000/svg">
  <path d="M316.138 161.122C272.989 161.122 238.01 125.269 238.01 81.0413C238.01 36.8137 272.989 0.960083 316.138 0.960083C359.287 0.960083 394.266 36.8137 394.266 81.0413C394.266 125.269 359.287 161.122 316.138 161.122Z" stroke="#CCE9E7" stroke-width="0.8" stroke-miterlimit="10" />
  <path d="M316.141 139.988C284.38 139.988 258.633 113.597 258.633 81.0422C258.633 48.4876 284.38 22.0968 316.141 22.0968C347.901 22.0968 373.648 48.4876 373.648 81.0422C373.648 113.597 347.901 139.988 316.141 139.988Z" stroke="#CCE9E7" stroke-width="0.8" stroke-miterlimit="10" />
  <path d="M328.312 93.709C321.534 100.656 310.545 100.656 303.767 93.7087C296.989 86.761 296.988 75.4968 303.766 68.5493C310.544 61.6019 321.534 61.602 328.312 68.5497C335.09 75.4974 335.09 86.7616 328.312 93.709Z" fill="url(#paint0_linear_5321_24940)" stroke="#FFFAE0" stroke-width="0.8" stroke-miterlimit="10" />
  <path d="M315.904 129.653C289.838 129.653 268.706 107.993 268.706 81.2751C268.706 54.5569 289.838 32.8976 315.904 32.8976C341.97 32.8976 363.102 54.5569 363.102 81.2751C363.102 107.993 341.97 129.653 315.904 129.653Z" stroke="#CCE9E7" stroke-width="0.8" stroke-miterlimit="10" stroke-dasharray="6.48 6.48" />
  <path d="M165.524 375.629C74.6694 375.629 1.01703 299.969 1.01703 206.639C1.01703 113.309 74.6694 37.6495 165.524 37.6495C256.379 37.6495 330.031 113.309 330.031 206.639C330.031 299.969 256.379 375.629 165.524 375.629Z" stroke="#CCE9E7" stroke-width="0.8" stroke-miterlimit="10" stroke-dasharray="6.48 6.48" />
  <path d="M164.762 343.169C91.4189 343.169 31.9622 282.226 31.9622 207.049C31.9622 131.872 91.4189 70.9288 164.762 70.9288C238.106 70.9288 297.562 131.872 297.562 207.049C297.562 282.226 238.106 343.169 164.762 343.169Z" stroke="#CCE9E7" stroke-width="0.8" stroke-miterlimit="10" />
  <path d="M165.387 249.452C142.197 249.452 123.398 230.183 123.398 206.414C123.398 182.645 142.197 163.376 165.387 163.376C188.576 163.376 207.375 182.645 207.375 206.414C207.375 230.183 188.576 249.452 165.387 249.452Z" stroke="#CCE9E7" stroke-width="0.8" stroke-miterlimit="10" />
  <path d="M165.731 325.65C101.691 325.65 49.7755 272.437 49.7755 206.795C49.7755 141.154 101.691 87.9406 165.731 87.9406C229.772 87.9406 281.688 141.154 281.688 206.795C281.688 272.437 229.772 325.65 165.731 325.65Z" stroke="#CCE9E7" stroke-width="0.8" stroke-miterlimit="10" stroke-dasharray="6.48 6.48" />
  <path d="M272.81 274.951C261.15 274.951 251.697 265.263 251.697 253.311C251.697 241.36 261.15 231.671 272.81 231.671C284.47 231.671 293.922 241.36 293.922 253.311C293.922 265.263 284.47 274.951 272.81 274.951Z" stroke="#CCE9E7" stroke-width="0.8" stroke-miterlimit="10" />
  <path d="M272.809 257.64C270.477 257.64 268.586 255.702 268.586 253.312C268.586 250.921 270.477 248.984 272.809 248.984C275.141 248.984 277.031 250.921 277.031 253.312C277.031 255.702 275.141 257.64 272.809 257.64Z" fill="#0B0B0B" stroke="#CCE9E7" stroke-width="0.8" stroke-miterlimit="10" />
  <path d="M272.656 290.019C252.791 290.019 236.687 273.512 236.687 253.151C236.687 232.789 252.791 216.282 272.656 216.282C292.521 216.282 308.625 232.789 308.625 253.151C308.625 273.512 292.521 290.019 272.656 290.019Z" stroke="#CCE9E7" stroke-width="0.8" stroke-miterlimit="10" stroke-dasharray="6.48 6.48" />
  <defs>
    <linearGradient id="paint0_linear_5321_24940" x1="328.312" y1="68.5497" x2="303.16" y2="93.0879" gradientUnits="userSpaceOnUse">
      <stop stop-color="white" />
      <stop offset="1" stop-color="#55F1E5" />
    </linearGradient>
  </defs>
</svg>