<svg width="473" height="485" viewBox="0 0 473 485" fill="none" xmlns="http://www.w3.org/2000/svg">
  <path d="M188.774 217.462L163.904 204.799C161.953 208.619 160.313 212.625 158.984 216.715L185.536 225.309C186.408 222.611 187.487 219.974 188.774 217.462Z" fill="#CCE9E7" />
  <path d="M209.88 195.145L223.644 218.873C225.658 217.71 227.817 216.818 230.038 216.216L222.917 189.727C224.724 189.249 226.571 188.834 228.439 188.543L224.059 160.975C219.824 161.639 215.61 162.656 211.541 163.985L220.053 190.1C217.333 190.993 214.697 192.093 212.164 193.38L199.667 168.946C195.868 170.898 192.173 173.161 188.727 175.693L205.168 198.217C206.684 197.117 208.261 196.1 209.88 195.145Z" fill="#CCE9E7" />
  <path d="M283.806 214.805L260.078 228.589C261.241 230.603 262.154 232.762 262.756 234.983L289.245 227.842C289.743 229.648 290.138 231.495 290.429 233.343L317.997 228.963C317.333 224.728 316.316 220.514 314.966 216.445L288.872 224.998C287.979 222.278 286.879 219.642 285.592 217.109L310.025 204.57C308.074 200.771 305.811 197.076 303.279 193.63L280.755 210.092C281.834 211.608 282.851 213.185 283.806 214.805Z" fill="#CCE9E7" />
  <path d="M274.13 168.822C270.311 166.871 266.304 165.231 262.214 163.902L253.641 190.454C256.319 191.326 258.955 192.405 261.488 193.692L274.13 168.822Z" fill="#CCE9E7" />
  <path d="M264.211 194.668L250.281 218.853C252.295 220.015 254.163 221.447 255.803 223.087L294.873 183.873C291.842 180.842 288.541 178.039 285.095 175.527L268.986 197.761C267.449 196.64 265.872 195.602 264.211 194.668Z" fill="#CCE9E7" />
  <path d="M189.729 214.722L213.893 228.672C215.055 226.658 216.488 224.79 218.128 223.129L178.955 184.039C175.924 187.07 173.121 190.371 170.609 193.817L192.822 209.947C191.722 211.483 190.684 213.082 189.729 214.722Z" fill="#CCE9E7" />
  <path d="M245.462 188.066L249.676 160.934C245.503 160.29 241.248 159.958 236.992 159.958H236.93V215.303H236.992C239.317 215.303 241.642 215.594 243.863 216.196L251.025 189.229C249.199 188.731 247.351 188.357 245.462 188.066Z" fill="#CCE9E7" />
  <path d="M211.253 235.086L184.287 227.903C183.809 229.73 183.415 231.599 183.124 233.467L155.991 229.232C155.348 233.405 155.016 237.702 155.016 241.958H210.36C210.36 239.612 210.672 237.307 211.253 235.086Z" fill="#CCE9E7" />
  <path d="M285.258 266.455L310.128 279.118C312.079 275.298 313.719 271.292 315.048 267.202L288.496 258.608C287.624 261.306 286.545 263.943 285.258 266.455Z" fill="#CCE9E7" />
  <path d="M264.126 288.75L250.363 265.022C248.349 266.184 246.19 267.077 243.969 267.679L251.089 294.168C249.283 294.645 247.436 295.061 245.567 295.351L249.947 322.92C254.182 322.256 258.397 321.238 262.465 319.91L253.954 293.794C256.674 292.902 259.31 291.801 261.843 290.514L274.361 314.948C278.16 312.997 281.855 310.734 285.301 308.201L268.859 285.657C267.344 286.798 265.766 287.816 264.126 288.75Z" fill="#CCE9E7" />
  <path d="M190.222 269.111L213.95 255.306C212.788 253.292 211.874 251.133 211.272 248.912L184.783 256.053C184.285 254.247 183.89 252.4 183.6 250.552L156.031 254.932C156.696 259.167 157.713 263.382 159.062 267.45L185.157 258.918C186.049 261.617 187.15 264.274 188.437 266.807L164.003 279.346C165.954 283.145 168.217 286.84 170.75 290.286L193.274 273.824C192.194 272.308 191.177 270.73 190.222 269.111Z" fill="#CCE9E7" />
  <path d="M199.898 315.094C203.718 317.045 207.725 318.685 211.814 320.014L220.388 293.462C217.71 292.59 215.074 291.511 212.541 290.224L199.898 315.094Z" fill="#CCE9E7" />
  <path d="M209.802 289.249L223.732 265.064C221.718 263.902 219.85 262.469 218.21 260.829L179.141 300.044C182.172 303.075 185.472 305.877 188.918 308.389L205.028 286.156C206.564 287.256 208.162 288.294 209.802 289.249Z" fill="#CCE9E7" />
  <path d="M284.29 269.195L260.126 255.244C258.963 257.258 257.531 259.126 255.891 260.787L295.085 299.877C298.115 296.846 300.918 293.546 303.43 290.099L281.217 273.969C282.317 272.412 283.355 270.835 284.29 269.195Z" fill="#CCE9E7" />
  <path d="M230.146 267.721L222.984 294.687C224.811 295.165 226.68 295.559 228.548 295.85L224.334 322.983C228.506 323.626 232.762 323.958 237.018 323.958H237.08V268.613H237.018C234.693 268.613 232.368 268.302 230.146 267.721Z" fill="#CCE9E7" />
  <path d="M263.674 241.958C263.674 244.304 263.383 246.608 262.781 248.83L289.748 256.012C290.225 254.185 290.62 252.317 290.91 250.449L318.043 254.684C318.687 250.511 319.019 246.214 319.019 241.958H263.674Z" fill="#CCE9E7" />
  <path d="M236.521 1.00003C106.446 1.00003 0.999664 109.083 0.999664 242.41C0.999664 375.737 106.446 483.819 236.521 483.819C366.596 483.819 472.043 375.737 472.043 242.41C472.043 109.083 366.596 1.00003 236.521 1.00003Z" stroke="#CCE9E7" stroke-width="0.5" stroke-miterlimit="10" stroke-dasharray="12 12" />
  <path d="M236.519 74.5242C146.061 74.5242 72.7302 149.688 72.7302 242.408C72.7302 335.128 146.061 410.292 236.519 410.292C326.978 410.292 400.309 335.128 400.309 242.408C400.309 149.688 326.978 74.5242 236.519 74.5242Z" stroke="#CCE9E7" stroke-width="0.8" stroke-miterlimit="10" stroke-dasharray="6.48 6.48" />
  <path d="M236.523 92.4975C155.749 92.4975 90.2682 159.615 90.2682 242.408C90.2682 325.202 155.749 392.319 236.523 392.319C317.297 392.319 382.777 325.202 382.777 242.408C382.777 159.615 317.297 92.4975 236.523 92.4975Z" stroke="#CCE9E7" stroke-width="0.8" stroke-miterlimit="10" />
  <path d="M236.518 111.288C165.869 111.288 108.596 169.993 108.596 242.409C108.596 314.826 165.869 373.53 236.518 373.53C307.168 373.53 364.441 314.826 364.441 242.409C364.441 169.993 307.168 111.288 236.518 111.288Z" stroke="#CCE9E7" stroke-width="0.8" stroke-miterlimit="10" stroke-dasharray="6.48 6.48" />
  <path d="M148.11 303.558C179.903 303.558 205.676 329.976 205.676 362.564C205.676 395.152 179.903 421.569 148.11 421.569C116.316 421.569 90.543 395.152 90.543 362.564C90.543 329.976 116.316 303.558 148.11 303.558Z" stroke="#CCE9E7" stroke-width="0.8" stroke-miterlimit="10" />
  <path d="M148.09 357.983C150.524 357.983 152.497 360.005 152.497 362.5C152.497 364.994 150.524 367.017 148.09 367.017C145.657 367.017 143.684 364.994 143.684 362.5C143.684 360.005 145.657 357.983 148.09 357.983Z" fill="#EDEDED" stroke="#CCE9E7" stroke-width="0.8" stroke-miterlimit="10" />
  <path d="M148.152 256.371C205.3 256.371 251.628 303.857 251.628 362.434C251.628 421.011 205.3 468.497 148.152 468.497C91.0035 468.497 44.6758 421.011 44.6758 362.434C44.6758 303.857 91.0035 256.371 148.152 256.371Z" stroke="#CCE9E7" stroke-width="0.8" stroke-miterlimit="10" stroke-dasharray="6.48 6.48" />
</svg>