<svg width="92" height="68" viewBox="0 0 92 68" fill="none" xmlns="http://www.w3.org/2000/svg">
  <path d="M90.9992 2.28247H1.98047V67.1209H90.9992V2.28247Z" fill="#0B0B0B" stroke="#55F1E5" stroke-miterlimit="10" stroke-linecap="round" stroke-dasharray="8 8" />
  <path d="M89.3683 0.878906H1V65.5896H89.3683V0.878906Z" fill="#0B0B0B" stroke="#55F1E5" stroke-miterlimit="10" />
  <path d="M89.3683 0.878906H1V11.4535H89.3683V0.878906Z" fill="#202020" stroke="#55F1E5" stroke-miterlimit="10" />
  <path d="M6.7001 9.14972C8.34882 9.14972 9.68536 7.81317 9.68536 6.16446C9.68536 4.51575 8.34882 3.1792 6.7001 3.1792C5.05139 3.1792 3.71484 4.51575 3.71484 6.16446C3.71484 7.81317 5.05139 9.14972 6.7001 9.14972Z" fill="#202020" stroke="#55F1E5" stroke-miterlimit="10" />
  <path d="M23.286 9.14972C24.9348 9.14972 26.2713 7.81317 26.2713 6.16446C26.2713 4.51575 24.9348 3.1792 23.286 3.1792C21.6373 3.1792 20.3008 4.51575 20.3008 6.16446C20.3008 7.81317 21.6373 9.14972 23.286 9.14972Z" fill="#202020" stroke="#55F1E5" stroke-miterlimit="10" />
  <path d="M14.9931 9.14972C16.6418 9.14972 17.9783 7.81317 17.9783 6.16446C17.9783 4.51575 16.6418 3.1792 14.9931 3.1792C13.3444 3.1792 12.0078 4.51575 12.0078 6.16446C12.0078 7.81317 13.3444 9.14972 14.9931 9.14972Z" fill="#202020" stroke="#55F1E5" stroke-miterlimit="10" />
  <path d="M50.7088 20.6338H10.6602V24.2089H50.7088V20.6338Z" fill="#55F1E5" />
  <path d="M50.7088 35.884H10.6602V39.4591H50.7088V35.884Z" fill="#55F1E5" />
  <path d="M50.7088 28.2595H10.6602V31.8346H50.7088V28.2595Z" fill="#55F1E5" />
</svg>