<svg xmlns="http://www.w3.org/2000/svg" width="33" height="25" viewBox="0 0 33 25" fill="none">
  <path d="M13.1214 14.0096H30.2779C31.536 14.0096 31.787 13.309 31.787 12.4528C31.787 11.5966 31.536 10.896 30.2779 10.896H13.1214C11.8633 10.896 11.6123 11.5966 11.6123 12.4528C11.6123 13.309 11.8633 14.0096 13.1214 14.0096Z" fill="#676767"/>
  <path d="M19.1214 3.11357H30.5591C31.8172 3.11357 32.0682 2.41302 32.0682 1.55679C32.0682 0.700554 31.8172 0 30.5591 0H19.1214C17.8633 0 17.6123 0.700554 17.6123 1.55679C17.6123 2.41302 17.8633 3.11357 19.1214 3.11357Z" fill="#676767"/>
  <path d="M1.50913 24.3333H30.1032C31.3613 24.3333 31.6123 23.6327 31.6123 22.7765C31.6123 21.9203 31.3613 21.2197 30.1032 21.2197H1.50913C0.250992 21.2197 0 21.9203 0 22.7765C0 23.6327 0.250992 24.3333 1.50913 24.3333Z" fill="#676767"/>
</svg>