<svg width="91" height="91" viewBox="0 0 91 91" fill="none" xmlns="http://www.w3.org/2000/svg">
  <path d="M42.7255 88.7384C19.1289 87.4892 1.01831 67.4527 2.27447 43.9858M47.2745 3.75707C70.8711 5.00632 88.9817 25.0428 87.7255 48.5097" stroke="#55F1E5" stroke-linecap="round" stroke-linejoin="round" stroke-dasharray="6 6" />
  <path d="M45.0029 83.0264C65.4282 83.0264 81.9862 66.5594 81.9862 46.2463C81.9862 25.9333 65.4282 9.46631 45.0029 9.46631C24.5775 9.46631 8.01953 25.9333 8.01953 46.2463C8.01953 66.5594 24.5775 83.0264 45.0029 83.0264Z" stroke="#55F1E5" stroke-linecap="round" stroke-linejoin="round" />
  <path d="M23.483 16.3374L41.0335 30.1803L37.3579 41.1731L48.3893 54.2238L46.3823 70.2927H39.3648L35.9339 60.3221L23.483 60.654L8.01953 50.2719" stroke="#55F1E5" stroke-linecap="round" stroke-linejoin="round" />
  <path d="M72.3162 21.4546L60.0878 28.7433V41.17L53.0703 44.6971V50.2688H66.4379L80.2994 57.261" stroke="#55F1E5" stroke-linecap="round" stroke-linejoin="round" />
  <path d="M11.3543 2.82555C6.08564 6.22873 4.58601 13.2298 8.008 18.4696C13.3657 26.6788 26.0258 28.8827 28.7402 29.458C28.7402 29.458 32.447 14.3627 27.0848 6.1535C23.6673 0.913746 16.6231 -0.577635 11.3543 2.82555ZM20.8727 17.403C18.0426 19.2307 14.2646 18.4297 12.4268 15.6151C10.589 12.8005 11.3944 9.04332 14.2245 7.21561C17.0547 5.38789 20.8327 6.1889 22.6705 9.0035C24.5083 11.8181 23.7029 15.5753 20.8727 17.403Z" fill="#55F1E5" stroke="#55F1E5" stroke-miterlimit="10" />
  <path d="M81.2562 13.6258C75.1998 11.9706 68.9388 15.5066 67.2745 21.5296C64.6624 30.9647 71.4174 41.8381 72.788 44.2411C72.788 44.2411 86.5961 36.9657 89.2038 27.5306C90.868 21.5075 87.3125 15.2809 81.2562 13.6258ZM76.6194 30.385C73.3665 29.4955 71.4575 26.1542 72.3519 22.9192C73.2463 19.6842 76.606 17.7857 79.8589 18.6752C83.1118 19.5647 85.0208 22.906 84.1264 26.141C83.232 29.376 79.8723 31.2745 76.6194 30.385Z" fill="#202020" stroke="#55F1E5" stroke-miterlimit="10" />
  <path d="M48.5586 29.618C42.4043 28.3656 36.3969 32.3132 35.1376 38.4336C33.1663 48.0236 40.6333 58.4234 42.164 60.7246C42.164 60.7246 55.4515 52.5508 57.4228 42.9608C58.6822 36.8404 54.7128 30.866 48.5586 29.6136V29.618ZM45.0609 46.6472C41.7591 45.9746 39.6276 42.7705 40.304 39.4824C40.9804 36.1943 44.2021 34.0789 47.5084 34.7516C50.8147 35.4243 52.9418 38.6283 52.2654 41.9164C51.589 45.2001 48.3672 47.3199 45.0609 46.6472Z" fill="#202020" stroke="#55F1E5" stroke-miterlimit="10" />
</svg>