<svg width="92" height="169" viewBox="0 0 92 169" fill="none" xmlns="http://www.w3.org/2000/svg">
  <g clip-path="url(#clip0_6011_7133)">
    <path d="M41.0312 133.283L32.2314 131.072V130.58L41.0312 132.8V133.283Z" fill="#55F1E5" />
    <path d="M41.0312 129.856L32.2314 127.645V127.152L41.0312 129.372V129.856Z" fill="#55F1E5" />
    <path d="M41.0312 126.418L32.2314 124.207V123.715L41.0312 125.935V126.418Z" fill="#55F1E5" />
    <path d="M41.0312 122.982L32.2314 120.771V120.278L41.0312 122.498V122.982Z" fill="#55F1E5" />
    <path d="M41.0312 119.544L32.2314 117.333V116.841L41.0312 119.061V119.544Z" fill="#55F1E5" />
    <path d="M41.0312 116.116L32.2314 113.905V113.413L41.0312 115.633V116.116Z" fill="#55F1E5" />
    <path d="M41.0312 112.68L32.2314 110.469V109.977L41.0312 112.197V112.68Z" fill="#55F1E5" />
    <path d="M41.0312 109.242L32.2314 107.031V106.539L41.0312 108.759V109.242Z" fill="#55F1E5" />
    <path d="M41.0312 105.815L32.2314 103.604V103.111L41.0312 105.331V105.815Z" fill="#55F1E5" />
    <path d="M41.0312 102.378L32.2314 100.167V99.6748L41.0312 101.895V102.378Z" fill="#55F1E5" />
    <path d="M41.0312 98.9405L32.2314 96.7296V96.2373L41.0312 98.4574V98.9405Z" fill="#55F1E5" />
    <path d="M41.0312 95.5127L32.2314 93.3019V92.8096L41.0312 95.0297V95.5127Z" fill="#55F1E5" />
    <path
      d="M43.3886 117.918H43.3701C41.9097 117.918 40.4492 117.9 39.0165 117.872C38.9518 117.872 38.9056 117.816 38.9056 117.751C38.9056 117.686 38.961 117.64 39.0165 117.64C40.44 117.667 41.9004 117.686 43.3609 117.686C43.4256 117.686 43.4903 117.742 43.4903 117.797C43.4903 117.853 43.4533 117.909 43.3886 117.909V117.918ZM52.1237 117.723C52.059 117.723 52.0128 117.677 52.0128 117.612C52.0128 117.547 52.059 117.491 52.1237 117.491C58.6403 117.194 64.6393 116.571 69.4829 115.689C69.5568 115.67 69.603 115.717 69.6215 115.782C69.6308 115.847 69.5938 115.902 69.5291 115.921C64.6763 116.813 58.668 117.435 52.1422 117.732L52.1237 117.723ZM30.2907 117.472C23.3581 116.989 17.3776 116.125 12.9869 114.992C12.9222 114.974 12.8853 114.909 12.9038 114.853C12.9222 114.788 12.9777 114.751 13.0424 114.769C17.4146 115.902 23.3858 116.757 30.3092 117.24C30.3739 117.24 30.4201 117.296 30.4201 117.361C30.4201 117.426 30.3646 117.472 30.3092 117.472H30.2907ZM77.9221 113.608C77.9221 113.608 77.839 113.58 77.8205 113.543C77.7927 113.487 77.8205 113.413 77.8759 113.385C79.8263 112.53 80.8523 111.592 80.8523 110.682V110.617C80.8523 110.552 80.8985 110.496 80.9632 110.496C81.0095 110.496 81.0834 110.543 81.0834 110.608V110.682C81.0834 111.713 80.0389 112.688 77.9684 113.599C77.9499 113.599 77.9406 113.608 77.9221 113.608ZM5.77706 110.831C5.71235 110.831 5.66614 110.775 5.66614 110.719V110.682C5.66614 109.66 6.7014 108.685 8.75345 107.774C8.80891 107.746 8.88286 107.774 8.91059 107.83C8.93832 107.886 8.91059 107.96 8.85513 107.979C6.92325 108.833 5.90647 109.762 5.90647 110.673V110.71C5.90647 110.775 5.85101 110.821 5.79555 110.821L5.77706 110.831ZM73.7071 106.595C73.7071 106.595 73.6886 106.595 73.6794 106.595C69.298 105.461 63.3267 104.616 56.4126 104.124C56.3479 104.124 56.3017 104.068 56.3017 104.003C56.3017 103.938 56.3572 103.891 56.4126 103.891C63.3452 104.374 69.3257 105.229 73.7164 106.362C73.7811 106.381 73.8181 106.446 73.7996 106.502C73.7903 106.557 73.7349 106.585 73.6886 106.585L73.7071 106.595ZM17.2112 105.694C17.1557 105.694 17.1095 105.656 17.1003 105.601C17.091 105.536 17.128 105.48 17.1927 105.461C22.0455 104.57 28.0538 103.947 34.5796 103.65C34.6351 103.65 34.6998 103.696 34.6998 103.761C34.6998 103.826 34.6536 103.882 34.5889 103.882C28.0722 104.179 22.0732 104.802 17.2297 105.694H17.2112ZM47.6961 103.734C46.2633 103.706 44.8121 103.687 43.3794 103.687H43.3239C43.2592 103.687 43.213 103.631 43.213 103.576C43.213 103.52 43.2685 103.464 43.3239 103.464H43.3794C44.8121 103.464 46.2633 103.483 47.6961 103.511C47.7608 103.511 47.807 103.566 47.807 103.631C47.807 103.696 47.7515 103.743 47.6961 103.743V103.734Z"
      fill="#55F1E5" />
    <path d="M64.298 110.533H63.8358V161.113H64.298V110.533Z" fill="#55F1E5" />
    <path d="M64.1869 166.436V168.767H63.9651V166.436H61.6727V166.203H63.9651V163.872H64.1869V166.203H66.4701V166.436H64.1869Z" fill="#55F1E5" />
    <path d="M64.4177 169H63.7337V166.668H61.4413V165.971H63.7337V163.64H64.4177V165.971H66.6916V166.668H64.4177V169Z" fill="#55F1E5" />
    <path d="M58.1692 91.3047H57.707V133.134H58.1692V91.3047Z" fill="#55F1E5" />
    <path d="M57.938 134.788C58.8977 134.788 59.6757 134.006 59.6757 133.042C59.6757 132.077 58.8977 131.295 57.938 131.295C56.9782 131.295 56.2002 132.077 56.2002 133.042C56.2002 134.006 56.9782 134.788 57.938 134.788Z" fill="#55F1E5" />
    <path d="M23.7744 106.817H23.3123V150.561H23.7744V106.817Z" fill="#55F1E5" />
    <path d="M21.8057 150.468C21.8057 151.434 22.5821 152.214 23.5434 152.214C24.5047 152.214 25.2812 151.434 25.2812 150.468C25.2812 149.502 24.5047 148.722 23.5434 148.722C22.5821 148.722 21.8057 149.502 21.8057 150.468Z" fill="#55F1E5" />
    <path
      d="M43.398 125.954H43.3703C40.3015 125.954 37.2974 125.833 34.4411 125.582L34.5151 124.653C37.3436 124.895 40.32 125.016 43.3611 125.016L43.3888 125.945L43.398 125.954ZM52.3549 125.582L52.2717 124.653L53.1591 124.57L53.2515 125.499L52.3549 125.582ZM25.5582 124.31C25.2624 124.245 24.9666 124.18 24.6801 124.105L24.8927 123.204C25.17 123.269 25.4565 123.334 25.7523 123.399L25.5582 124.31ZM62.1252 124.096L61.9127 123.195C66.2848 122.145 68.9007 120.724 68.9007 119.414H69.825C69.825 121.755 65.6378 123.26 62.1252 124.105V124.096ZM16.9248 119.451V119.405C16.9248 117.064 21.0936 115.568 24.5969 114.723L24.8095 115.624C20.4558 116.674 17.8491 118.086 17.8491 119.405L16.9248 119.451ZM61.8849 115.615C61.6076 115.55 61.3211 115.485 61.0253 115.42L61.2194 114.509C61.5152 114.574 61.811 114.639 62.0975 114.714L61.8849 115.615ZM33.5538 114.24L33.4613 113.311L34.3579 113.228L34.4411 114.156L33.5538 114.24ZM52.2532 114.156C49.4155 113.915 46.4299 113.794 43.3795 113.794L43.3148 112.865H43.3795C46.4576 112.865 49.471 112.986 52.3364 113.237L52.2625 114.166L52.2532 114.156Z"
      fill="#55F1E5" />
    <path
      d="M45.9589 22.285H45.9497C42.6036 22.285 39.3314 22.1085 36.4936 21.7834C36.4289 21.7834 36.3827 21.7183 36.392 21.6533C36.392 21.5883 36.4567 21.5418 36.5214 21.5511C39.3499 21.8763 42.6128 22.0528 45.9497 22.0528C46.0144 22.0528 46.0698 22.1085 46.0698 22.1642C46.0698 22.22 46.0236 22.2757 45.9589 22.2757V22.285ZM55.415 21.7834C55.3595 21.7834 55.304 21.7369 55.304 21.6812C55.304 21.6162 55.341 21.5604 55.4057 21.5511C63.54 20.6036 63.9559 19.043 63.9559 18.7458V18.6993C63.9559 18.6343 64.0021 18.5786 64.0668 18.5786C64.1408 18.5786 64.187 18.625 64.187 18.69C64.187 18.7086 64.187 18.7272 64.187 18.7458C64.187 20.5665 58.0678 21.4768 55.4335 21.7834C55.4335 21.7834 55.4335 21.7834 55.4242 21.7834H55.415ZM27.814 18.8665C27.7493 18.8665 27.7031 18.8294 27.7031 18.7644C27.7031 16.9158 33.8038 16.0054 36.4289 15.6989C36.4936 15.6989 36.5491 15.736 36.5583 15.8011C36.5676 15.8661 36.5214 15.9218 36.4567 15.9311C28.3409 16.8786 27.9342 18.4392 27.9342 18.7365C27.9342 18.8015 27.8788 18.8665 27.8233 18.8665H27.814ZM55.3595 15.9218C55.3595 15.9218 55.3595 15.9218 55.3503 15.9218C52.5218 15.5967 49.2681 15.4202 45.9404 15.4202H45.9035C45.8388 15.4202 45.7925 15.3645 45.7925 15.3087C45.7925 15.253 45.848 15.1973 45.9035 15.1973H45.9404C49.2773 15.1973 52.5403 15.3738 55.378 15.6989C55.4427 15.6989 55.4889 15.7639 55.4797 15.8289C55.4797 15.8847 55.4242 15.9311 55.3688 15.9311L55.3595 15.9218Z"
      fill="#55F1E5" />
    <path
      d="M89.3098 96.1531C88.9771 96.1531 88.6351 96.0973 88.3023 95.9766L69.9448 89.5112L70.102 89.0746L88.4594 95.54C88.746 95.6422 89.0325 95.6886 89.3191 95.6886C90.6594 95.6886 91.556 94.6018 91.556 93.5799C91.556 93.0133 91.2972 92.5024 90.8073 92.0937L84.9469 87.1796L85.2427 86.8266L91.1031 91.7407C91.861 92.3723 92.0182 93.0969 92.0182 93.5892C92.0182 94.9826 90.7795 96.1624 89.3191 96.1624L89.3098 96.1531ZM6.39614 95.3542L6.23901 94.9176L10.2137 93.5149L10.3708 93.9515L6.39614 95.3542ZM0.471097 93.3013L0.0458984 93.1341C0.18455 92.7718 0.415636 92.4467 0.739157 92.168L25.0771 70.3381L25.3822 70.6818L1.03495 92.5117C0.776131 92.7439 0.582018 93.0133 0.461853 93.3013H0.471097ZM18.3294 91.1554L18.1723 90.7188L45.4959 81.0951C46.1245 80.8722 46.8177 80.8815 47.4278 81.0951L50.2008 82.0705L50.0437 82.5071L47.2707 81.5317C46.753 81.3459 46.1707 81.3459 45.6438 81.5317L18.3202 91.1554H18.3294ZM61.9862 86.7152L58.0115 85.3125L58.1687 84.8759L62.1434 86.2786L61.9862 86.7152ZM78.4673 81.7547L75.2321 79.0422L75.5279 78.6892L78.7631 81.4017L78.4673 81.7547ZM68.7617 73.6173L59.5367 65.8793C59.13 65.5356 58.8434 65.099 58.714 64.6067L53.5285 44.8762L53.9722 44.7554L59.1577 64.4859C59.2594 64.8853 59.4905 65.2476 59.8232 65.5263L69.0482 73.2643L68.7524 73.6173H68.7617ZM31.5106 64.7274L31.2795 64.6903L31.0577 64.6159V64.5788L32.3517 60.5565L32.7954 60.6959L31.5106 64.7274ZM35.3743 52.6328L34.9307 52.4934L43.6287 25.2479C43.98 24.1518 45.006 23.4365 46.2354 23.4365C47.0488 23.4365 47.8068 23.7524 48.3152 24.3097L47.9732 24.6256C47.5572 24.1704 46.9194 23.901 46.2354 23.901C45.4497 23.901 44.4144 24.2911 44.0632 25.3873L35.3651 52.6328H35.3743ZM51.3932 36.6923L50.321 32.5958L50.7647 32.475L51.8369 36.5716L51.3932 36.6923Z"
      fill="#55F1E5" />
    <path
      d="M73.106 99.042H54.8503V98.5776H73.106C73.7623 98.5776 74.1228 98.0945 74.1228 97.6486C74.1228 97.2864 73.901 96.9798 73.522 96.8312L58.8804 90.8582L59.056 90.4309L73.6976 96.4039C74.2522 96.6268 74.585 97.1006 74.585 97.6579C74.585 98.336 74.0674 99.0513 73.106 99.0513V99.042ZM45.5236 99.042H40.8649V98.5776H45.5236V99.042ZM31.529 99.042H18.2924C17.3311 99.042 16.8135 98.3268 16.8135 97.6486C16.8135 97.082 17.1555 96.6082 17.7286 96.3853L37.1398 88.8795L37.3062 89.3161L17.895 96.8219C17.5067 96.9705 17.2756 97.2771 17.2756 97.6486C17.2756 98.0945 17.6361 98.5776 18.2924 98.5776H31.529V99.042ZM50.247 87.3282L46.8639 85.9441C46.6051 85.8419 46.3001 85.8327 46.0505 85.9441L45.9396 85.7398L45.8564 85.5261H45.8841C46.2446 85.3682 46.6698 85.3775 47.0395 85.5261L50.4226 86.9102L50.247 87.3375V87.3282Z"
      fill="#55F1E5" />
    <path d="M54.4998 12.4755L46.4487 5.88006C46.3655 5.81504 46.2731 5.78717 46.1807 5.78717V0.232178C46.3101 0.232178 46.4302 0.287913 46.5134 0.399385L55.1006 11.8995C55.3964 12.2897 54.8787 12.782 54.4998 12.4755Z" fill="#55F1E5" />
    <path d="M54.7582 12.8006C54.6196 12.8006 54.4717 12.7542 54.3515 12.652L46.3005 6.05662C46.2635 6.02875 46.2265 6.01946 46.1803 6.01946H45.9492V0H46.1803C46.3837 0 46.5778 0.0928929 46.6979 0.2601L55.2851 11.7602C55.4885 12.0296 55.4607 12.3733 55.2204 12.6149C55.091 12.7449 54.9246 12.8099 54.7675 12.8099L54.7582 12.8006ZM54.6381 12.2897C54.7675 12.3919 54.8691 12.2897 54.8876 12.2711C54.9246 12.234 54.9986 12.1411 54.9061 12.0296L46.4114 0.65025V5.59215C46.4761 5.62002 46.5316 5.64789 46.587 5.69433L54.6381 12.2897Z" fill="#55F1E5" />
    <path d="M37.6027 12.8006C37.4455 12.8006 37.2792 12.7356 37.1498 12.6056C36.9094 12.3733 36.8817 12.0203 37.0851 11.7509L45.663 0.2601C45.7831 0.0928929 45.9772 0 46.1806 0H46.4117V6.01946H46.1806C46.1806 6.01946 46.1067 6.01946 46.0697 6.05662L38.0002 12.6613C37.88 12.7635 37.7321 12.8099 37.5934 12.8099L37.6027 12.8006ZM45.9495 0.65025L37.4548 12.0389C37.3624 12.1597 37.4455 12.2526 37.4733 12.2804C37.501 12.3083 37.6027 12.3919 37.7136 12.2897L45.7739 5.69433C45.8201 5.64789 45.8848 5.62002 45.9495 5.59215V0.65025Z" fill="#55F1E5" />
    <path d="M48.1122 24.4124L51.0608 69.1403" stroke="#55F1E5" stroke-width="0.910448" stroke-miterlimit="10" stroke-linecap="round" />
    <path d="M54.4258 72.7908L89.8004 93.4594" stroke="#55F1E5" stroke-width="0.910448" stroke-miterlimit="10" stroke-linecap="round" />
    <path d="M0.231445 93.2737L42.8715 71.7969" stroke="#55F1E5" stroke-width="0.910448" stroke-miterlimit="10" stroke-linecap="round" />
  </g>
  <defs>
    <clipPath id="clip0_6011_7133">
      <rect width="92" height="169" fill="white" />
    </clipPath>
  </defs>
</svg>
