<svg width="92" height="72" viewBox="0 0 92 72" fill="none" xmlns="http://www.w3.org/2000/svg">
  <path d="M90.9992 1.0354H1.98047V65.8739H90.9992V1.0354Z" fill="#0B0B0B" stroke="#55F1E5" stroke-miterlimit="10" stroke-linecap="round" stroke-dasharray="8 8" />
  <path d="M89.3683 6.25415H1V70.9648H89.3683V6.25415Z" fill="#0B0B0B" stroke="#55F1E5" stroke-miterlimit="10" />
  <path d="M89.3683 6.25415H1V16.8287H89.3683V6.25415Z" fill="#202020" stroke="#55F1E5" stroke-miterlimit="10" />
  <path d="M6.7001 14.525C8.34882 14.525 9.68536 13.1884 9.68536 11.5397C9.68536 9.89099 8.34882 8.55444 6.7001 8.55444C5.05139 8.55444 3.71484 9.89099 3.71484 11.5397C3.71484 13.1884 5.05139 14.525 6.7001 14.525Z" fill="#202020" stroke="#55F1E5" stroke-miterlimit="10" />
  <path d="M23.286 14.525C24.9348 14.525 26.2713 13.1884 26.2713 11.5397C26.2713 9.89099 24.9348 8.55444 23.286 8.55444C21.6373 8.55444 20.3008 9.89099 20.3008 11.5397C20.3008 13.1884 21.6373 14.525 23.286 14.525Z" fill="#202020" stroke="#55F1E5" stroke-miterlimit="10" />
  <path d="M14.9931 14.525C16.6418 14.525 17.9783 13.1884 17.9783 11.5397C17.9783 9.89099 16.6418 8.55444 14.9931 8.55444C13.3444 8.55444 12.0078 9.89099 12.0078 11.5397C12.0078 13.1884 13.3444 14.525 14.9931 14.525Z" fill="#202020" stroke="#55F1E5" stroke-miterlimit="10" />
  <path d="M61 42.5357L45.5 27.0002L30 42.5357H39.4012V59.0002H51.5988V42.5357H61Z" fill="#55F1E5" stroke="black" stroke-miterlimit="10" stroke-linecap="round" />
</svg>