<svg width="92" height="84" viewBox="0 0 92 84" fill="none" xmlns="http://www.w3.org/2000/svg">
  <path
    d="M91.002 69.1743L86.257 69.8624L70.17 72.1738C70.17 72.1738 65.2016 59.876 53.2893 61.3757C48.5913 61.9638 46.3218 64.2164 45.3104 66.7689C43.67 70.9034 45.3163 75.8261 45.3163 75.8261L41.1241 76.3907L24.261 78.6726C24.261 78.6726 12.4897 45.6314 6.28069 28.5227C3.93467 22.0592 4.20514 17.6541 5.63979 14.6605C8.00345 9.72017 13.5304 8.57332 15.7118 8.26749L66.5775 1.28638L74.1918 22.5944C74.1918 22.5944 71.9516 22.8179 69.782 24.1647C68.4531 24.9939 67.1478 26.2349 66.3952 28.1051C66.1542 28.6992 65.9719 29.352 65.866 30.0754C65.6309 31.5398 65.7014 33.2866 66.213 35.3686C69.4703 48.8368 83.1114 47.4547 83.1114 47.4547L91.002 69.1743Z"
    fill="url(#paint0_linear_5321_23491)" stroke="#55F1E5" stroke-linecap="round" stroke-linejoin="round" />
  <path d="M70.1682 72.1739L66.6344 76.2026C66.6344 76.2026 61.6661 63.9166 49.7537 65.4045C47.931 65.628 46.4669 66.1103 45.3086 66.769C46.3199 64.2165 48.5895 61.964 53.2874 61.3758C65.1998 59.8761 70.1682 72.1739 70.1682 72.1739Z" fill="#0B0B0B" stroke="#55F1E5" stroke-linecap="round" stroke-linejoin="round" />
  <path d="M5.63193 14.6539C5.92592 14.0423 6.26694 13.4836 6.64325 12.9836L3.90328 16.1066C3.68573 16.3301 3.47994 16.5654 3.28003 16.8183L3.18008 16.93C0.904614 19.8883 -0.112583 24.6933 2.74497 32.5508C8.95987 49.6595 20.7252 82.7124 20.7252 82.7124L24.2531 78.6779C24.2531 78.6779 12.4877 45.6308 6.2787 28.5221C3.93268 22.0585 4.20315 17.6534 5.63781 14.6598L5.63193 14.6539Z" fill="#0B0B0B" stroke="#55F1E5" stroke-linecap="round" stroke-linejoin="round" />
  <path d="M90.9985 69.1743L87.4706 73.203L66.6328 76.2025L70.1665 72.1738L86.2535 69.8624L90.9985 69.1743Z" fill="#202020" stroke="#55F1E5" stroke-linecap="round" stroke-linejoin="round" />
  <path d="M45.3137 75.8264L41.78 79.861L20.7305 82.7134L24.2583 78.6788L41.1214 76.3969L45.3137 75.8264Z" fill="#202020" stroke="#55F1E5" stroke-linecap="round" stroke-linejoin="round" />
  <defs>
    <linearGradient id="paint0_linear_5321_23491" x1="7.80692" y1="11.9479" x2="90.9612" y2="70.8373" gradientUnits="userSpaceOnUse">
      <stop stop-color="#303030" />
      <stop offset="1" />
    </linearGradient>
  </defs>
</svg>