<svg width="92" height="92" viewBox="0 0 92 92" fill="none" xmlns="http://www.w3.org/2000/svg">
  <path d="M55.247 78.6939C53.3412 75.4117 50.2145 72.4168 45.1379 72.0853C33.5096 71.3283 30.4934 82.606 30.4934 82.606L28.4219 77.6827C28.4219 77.6827 31.438 66.405 43.0663 67.162C50.7393 67.6593 53.9489 74.2623 55.247 78.6939Z" fill="#202020" stroke="#55F1E5" stroke-linecap="round" stroke-linejoin="round" />
  <path d="M30.4919 82.6057L8.74342 78.7876L6.67188 73.8643L9.72672 74.4058L28.4204 77.6824L30.4919 82.6057Z" fill="#202020" stroke="#55F1E5" stroke-linecap="round" stroke-linejoin="round" />
  <path d="M90.009 40.208L78.5575 90.9992L58.1348 87.6121C58.1348 87.6121 57.936 85.5123 57.0742 82.8545L76.486 86.0759L87.9375 35.2847C88.5065 32.7761 88.8766 29.3778 88.164 26.0735C88.0038 25.3165 87.7828 24.5595 87.5011 23.8191L89.418 28.3611V28.3722C91.1249 32.4224 90.7327 37.0197 90.009 40.2025V40.208Z" fill="#202020" stroke="#55F1E5" stroke-linecap="round" stroke-linejoin="round" />
  <path d="M11.4693 52.4256L10.613 56.2714C8.25974 55.1607 5.13308 53.0721 3.76863 49.4417H3.7631L2.14453 45.5352C4.8624 50.9005 11.4748 52.4256 11.4748 52.4256H11.4693Z" fill="black" stroke="#55F1E5" stroke-linecap="round" stroke-linejoin="round" />
  <path
    d="M87.9385 35.2853L76.487 86.0765L57.0753 82.8551L56.0754 82.6893C56.0754 82.6893 55.9152 80.9819 55.2468 78.6943C53.9541 74.2628 50.7391 67.6597 43.0661 67.1624C31.4378 66.4054 28.4216 77.6831 28.4216 77.6831L9.72798 74.4009L6.67314 73.865L10.6118 56.2659L11.4681 52.4201C11.4681 52.4201 4.85571 50.9006 2.13784 45.5297C2.13231 45.5187 2.12678 45.5021 2.11573 45.491C1.89477 45.0545 1.70143 44.5904 1.54675 44.1041C1.54123 44.0986 1.54123 44.0931 1.54123 44.0931C0.878334 42.0597 0.751278 39.5676 1.57437 36.5341C4.60159 25.3724 17.1414 27.1792 17.1414 27.1792L21.8092 5.646L75.3435 15.0561C82.2376 16.2662 85.7289 19.6036 87.3419 23.4384L87.4856 23.792C87.4856 23.792 87.4911 23.8141 87.4966 23.8197C87.7839 24.5546 87.9993 25.3116 88.1595 26.0741C88.8721 29.3839 88.5075 32.7767 87.933 35.2853H87.9385Z"
    fill="url(#paint0_linear_5321_23503)" stroke="#55F1E5" stroke-linecap="round" stroke-linejoin="round" />
  <path d="M56.0703 82.6895L58.1419 87.6128L78.559 90.9999L76.4875 86.0766L56.0703 82.6895Z" fill="#202020" stroke="#55F1E5" stroke-linecap="round" stroke-linejoin="round" />
  <path d="M47.3695 55.2299C58.8068 52.6915 66.8297 45.004 65.2893 38.0594C63.7488 31.1148 53.2283 27.5428 41.791 30.0812C30.3538 32.6195 22.3308 40.307 23.8713 47.2516C25.4117 54.1962 35.9322 57.7682 47.3695 55.2299Z" fill="url(#paint1_linear_5321_23503)" stroke="#55F1E5" stroke-linecap="round" stroke-linejoin="round" />
  <path d="M37.4705 1.42965L33.6036 2.369L34.2665 2.99339C28.7369 6.4082 22.4891 13.4091 24.1021 20.0675C26.2786 29.0466 38.0727 35.9867 43.7294 39.9375L43.8012 44.463L47.6681 43.5236C47.6681 43.5236 58.9096 26.6926 55.5731 12.9284C53.5623 4.64001 45.7512 -0.576145 37.465 1.42965H37.4705ZM30.4217 18.5314C29.0076 12.6908 32.5927 6.81157 38.4317 5.39149C39.3432 5.17047 41.5418 4.76158 42.4367 4.77263L42.7903 5.03786L48.6237 12.1217L50.3473 20.6145L48.6514 24.4714C47.541 25.2781 44.9723 26.1953 43.5526 26.5379C37.7136 27.9525 31.8359 24.3664 30.4162 18.5258L30.4217 18.5314Z" fill="black"
    stroke="#55F1E5" stroke-linecap="round" stroke-linejoin="round" />
  <path d="M33.6029 2.36878C25.3167 4.3801 20.229 12.7237 22.2398 21.0121C25.5763 34.7764 43.8059 44.4572 43.8059 44.4572C43.8059 44.4572 55.5779 27.4992 52.2413 13.7349C50.2305 5.44654 41.8891 0.357465 33.6029 2.36878ZM39.6905 27.4826C33.8515 28.8971 27.9738 25.311 26.5541 19.4705C25.1344 13.6299 28.7251 7.75071 34.5641 6.33063C40.4031 4.91608 46.2807 8.50219 47.7004 14.3427C49.1146 20.1833 45.5295 26.0625 39.6905 27.4826Z" fill="url(#paint2_linear_5321_23503)" stroke="#55F1E5" stroke-linecap="round" stroke-linejoin="round" />
  <path d="M37.3218 21.7743C40.4185 21.7743 42.9288 19.2633 42.9288 16.1658C42.9288 13.0684 40.4185 10.5574 37.3218 10.5574C34.2252 10.5574 31.7148 13.0684 31.7148 16.1658C31.7148 19.2633 34.2252 21.7743 37.3218 21.7743Z" fill="#202020" stroke="#55F1E5" stroke-linecap="round" stroke-linejoin="round" />
  <defs>
    <linearGradient id="paint0_linear_5321_23503" x1="44.712" y1="45.7763" x2="67.797" y2="86.0983" gradientUnits="userSpaceOnUse">
      <stop stop-color="#464646" />
      <stop offset="0.99" />
    </linearGradient>
    <linearGradient id="paint1_linear_5321_23503" x1="23.8713" y1="47.2519" x2="65.2904" y2="38.0644" gradientUnits="userSpaceOnUse">
      <stop stop-color="#1F1F1F" />
      <stop offset="0.99" />
    </linearGradient>
    <linearGradient id="paint2_linear_5321_23503" x1="37.8732" y1="11.4373" x2="42.7997" y2="44.3929" gradientUnits="userSpaceOnUse">
      <stop stop-color="#494949" />
      <stop offset="0.99" />
    </linearGradient>
  </defs>
</svg>