<svg width="24" height="24" viewBox="0 0 24 24" fill="none" xmlns="http://www.w3.org/2000/svg">
  <path d="M4.93982 8.41469L1.30032 6.56152C1.01475 7.12051 0.774753 7.70684 0.580322 8.30532L4.46589 9.56304C4.59349 9.16811 4.75146 8.78228 4.93982 8.41469Z" fill="white" />
  <path d="M8.0288 5.14858L10.043 8.62098C10.3377 8.45086 10.6536 8.32022 10.9787 8.23212L9.93665 4.35567C10.201 4.28579 10.4713 4.22503 10.7448 4.1825L10.1037 0.148071C9.48399 0.245286 8.86728 0.394147 8.27184 0.588578L9.51741 4.41035C9.11944 4.54098 8.73361 4.702 8.36298 4.89035L6.53412 1.31465C5.97817 1.60022 5.43741 1.93136 4.93311 2.302L7.33918 5.5982C7.56095 5.43719 7.79184 5.28833 8.0288 5.14858Z" fill="white" />
  <path d="M18.8484 8.02622L15.376 10.0434C15.5461 10.3381 15.6798 10.6541 15.7679 10.9791L19.6443 9.93407C19.7172 10.1984 19.775 10.4688 19.8175 10.7391L23.8519 10.0981C23.7547 9.47838 23.6058 8.86167 23.4084 8.26622L19.5896 9.51787C19.459 9.11989 19.298 8.73407 19.1096 8.36344L22.6853 6.5285C22.3998 5.97255 22.0686 5.43179 21.698 4.92749L18.4018 7.3366C18.5598 7.55838 18.7086 7.78926 18.8484 8.02622Z" fill="white" />
  <path d="M17.4322 1.29751C16.8732 1.01194 16.2869 0.771945 15.6884 0.577515L14.4337 4.46308C14.8256 4.59068 15.2114 4.74865 15.5821 4.93701L17.4322 1.29751Z" fill="white" />
  <path d="M15.98 5.07909L13.9415 8.61833C14.2362 8.78846 14.5096 8.99808 14.7496 9.23808L20.4671 3.49934C20.0236 3.0558 19.5405 2.64567 19.0362 2.27808L16.6787 5.53175C16.4539 5.3677 16.223 5.2158 15.98 5.07909Z" fill="white" />
  <path d="M5.07886 8.0132L8.61506 10.0547C8.78519 9.76003 8.99481 9.48662 9.23481 9.24358L3.50215 3.52307C3.05861 3.96662 2.64848 4.44965 2.28088 4.95396L5.53152 7.31446C5.3705 7.53927 5.21861 7.7732 5.07886 8.0132Z" fill="white" />
  <path d="M13.2374 4.11342L13.8541 0.142784C13.2435 0.048607 12.6207 0 11.9979 0H11.9888V8.09924H11.9979C12.3381 8.09924 12.6784 8.14177 13.0035 8.22987L14.0516 4.28355C13.7842 4.21063 13.5138 4.15595 13.2374 4.11342Z" fill="white" />
  <path d="M8.22987 10.9943L4.28355 9.94312C4.21367 10.2105 4.15595 10.4839 4.11342 10.7573L0.142784 10.1375C0.048607 10.7482 0 11.377 0 11.9998H8.09924C8.09924 11.6565 8.14481 11.3193 8.22987 10.9943Z" fill="white" />
  <path d="M19.0603 15.5849L22.6998 17.438C22.9854 16.8791 23.2254 16.2927 23.4198 15.6942L19.5342 14.4365C19.4066 14.8315 19.2487 15.2173 19.0603 15.5849Z" fill="white" />
  <path d="M15.9679 18.8484L13.9538 15.376C13.6591 15.5461 13.3431 15.6767 13.0181 15.7648L14.0601 19.6413C13.7958 19.7112 13.5254 19.7719 13.252 19.8145L13.893 23.8489C14.5127 23.7517 15.1295 23.6028 15.7249 23.4084L14.4793 19.5866C14.8773 19.456 15.2631 19.295 15.6338 19.1066L17.4657 22.6823C18.0216 22.3967 18.5624 22.0656 19.0667 21.695L16.6606 18.3957C16.4388 18.5628 16.2079 18.7117 15.9679 18.8484Z" fill="white" />
  <path d="M5.15162 15.974L8.62402 13.9538C8.45389 13.6591 8.32022 13.3431 8.23212 13.0181L4.35567 14.0631C4.28275 13.7988 4.22503 13.5284 4.1825 13.2581L0.148071 13.8991C0.245287 14.5188 0.394147 15.1355 0.591616 15.731L4.41035 14.4824C4.54098 14.8773 4.702 15.2662 4.89035 15.6368L1.31465 17.4717C1.60022 18.0277 1.93136 18.5684 2.302 19.0728L5.5982 16.6636C5.44022 16.4419 5.29136 16.211 5.15162 15.974Z" fill="white" />
  <path d="M6.56812 22.7026C7.1271 22.9882 7.71343 23.2282 8.31191 23.4226L9.5666 19.537C9.1747 19.4094 8.78887 19.2515 8.41824 19.0631L6.56812 22.7026Z" fill="white" />
  <path d="M8.01773 18.9208L10.0562 15.3816C9.76153 15.2115 9.48811 15.0018 9.24811 14.7618L3.53064 20.5006C3.97418 20.9441 4.45722 21.3542 4.96153 21.7218L7.31899 18.4682C7.5438 18.6292 7.77773 18.7811 8.01773 18.9208Z" fill="white" />
  <path d="M18.9178 15.9859L15.3816 13.9443C15.2115 14.239 15.0018 14.5124 14.7618 14.7555L20.4975 20.476C20.9411 20.0324 21.3512 19.5494 21.7188 19.0451L18.4682 16.6846C18.6292 16.4567 18.7811 16.2259 18.9178 15.9859Z" fill="white" />
  <path d="M10.994 15.7706L9.94592 19.717C10.2133 19.7868 10.4867 19.8446 10.7601 19.8871L10.1434 23.8577C10.754 23.9519 11.3768 24.0005 11.9996 24.0005H12.0087V15.9013H11.9996C11.6593 15.9013 11.3191 15.8557 10.994 15.7706Z" fill="white" />
  <path d="M15.9013 12C15.9013 12.3433 15.8587 12.6805 15.7706 13.0056L19.717 14.0567C19.7868 13.7894 19.8446 13.5159 19.8871 13.2425L23.8577 13.8623C23.9519 13.2516 24.0005 12.6228 24.0005 12H15.9013Z" fill="white" />
</svg>
