<svg width="1248" height="80" viewBox="0 0 1248 80" fill="none" xmlns="http://www.w3.org/2000/svg">
  <g filter="url(#filter0_d_5321_23442)">
    <rect x="8" y="28" width="244.8" height="15" rx="1" fill="#65B3AE" />
    <rect x="8.5" y="28.5" width="243.8" height="14" rx="0.5" stroke="#65B3AE" />
  </g>
  <rect x="256.801" y="28" width="244.8" height="15" rx="1" fill="#202020" />
  <rect x="505.602" y="28" width="244.8" height="15" rx="1" fill="#202020" />
  <rect x="754.398" y="28" width="244.8" height="15" rx="1" fill="#202020" />
  <rect x="1003.2" y="28" width="244.8" height="15" rx="1" fill="#202020" />
  <g filter="url(#filter1_d_5321_23442)">
    <rect x="257" y="28" width="130" height="15" rx="1" fill="#65B3AE" />
    <rect x="257.5" y="28.5" width="129" height="14" rx="0.5" stroke="#65B3AE" />
  </g>
  <path
    d="M231.507 76H230.067V68.208H227.795V66.976C229.747 66.976 230.179 66.48 230.179 65.12H231.507V76ZM238.161 76.176C235.473 76.176 234.049 74.224 234.049 70.544C234.049 66.88 235.473 64.928 238.161 64.928C240.849 64.928 242.273 66.88 242.273 70.544C242.273 74.224 240.849 76.176 238.161 76.176ZM238.161 74.896C239.985 74.896 240.881 73.456 240.881 70.544C240.881 67.648 239.985 66.208 238.161 66.208C236.337 66.208 235.425 67.648 235.425 70.544C235.425 73.456 236.337 74.896 238.161 74.896ZM247.911 76.176C245.223 76.176 243.799 74.224 243.799 70.544C243.799 66.88 245.223 64.928 247.911 64.928C250.599 64.928 252.023 66.88 252.023 70.544C252.023 74.224 250.599 76.176 247.911 76.176ZM247.911 74.896C249.735 74.896 250.631 73.456 250.631 70.544C250.631 67.648 249.735 66.208 247.911 66.208C246.087 66.208 245.175 67.648 245.175 70.544C245.175 73.456 246.087 74.896 247.911 74.896Z"
    fill="white" />
  <path d="M13.005 76.176C10.317 76.176 8.893 74.224 8.893 70.544C8.893 66.88 10.317 64.928 13.005 64.928C15.693 64.928 17.117 66.88 17.117 70.544C17.117 74.224 15.693 76.176 13.005 76.176ZM13.005 74.896C14.829 74.896 15.725 73.456 15.725 70.544C15.725 67.648 14.829 66.208 13.005 66.208C11.181 66.208 10.269 67.648 10.269 70.544C10.269 73.456 11.181 74.896 13.005 74.896Z" fill="white" />
  <path
    d="M361.55 14H360.11V6.208H357.838V4.976C359.79 4.976 360.222 4.48 360.222 3.12H361.55V14ZM367.997 14.176C365.949 14.176 364.445 12.944 364.333 11.184H365.805C365.869 12.24 366.781 12.88 368.029 12.88C369.517 12.88 370.429 11.888 370.429 10.32C370.429 8.784 369.581 7.824 368.221 7.824C367.021 7.824 366.317 8.24 365.885 9.216H364.541V3.12H371.165V4.416H365.869V7.776C366.429 7.008 367.341 6.64 368.413 6.64C370.509 6.64 371.821 8.064 371.821 10.272C371.821 12.512 370.333 14.176 367.997 14.176ZM377.423 14.176C374.735 14.176 373.311 12.224 373.311 8.544C373.311 4.88 374.735 2.928 377.423 2.928C380.111 2.928 381.535 4.88 381.535 8.544C381.535 12.224 380.111 14.176 377.423 14.176ZM377.423 12.896C379.247 12.896 380.143 11.456 380.143 8.544C380.143 5.648 379.247 4.208 377.423 4.208C375.599 4.208 374.687 5.648 374.687 8.544C374.687 11.456 375.599 12.896 377.423 12.896Z"
    fill="white" />
  <path
    d="M480.069 76H472.661C472.661 73.584 473.429 72.208 475.365 71.2L477.029 70.32C478.021 69.808 478.533 69.056 478.533 68.048C478.533 66.96 477.749 66.224 476.629 66.224C475.237 66.224 474.405 67.136 474.405 68.736H472.901C472.901 66.432 474.357 64.944 476.629 64.944C478.741 64.944 480.069 66.112 480.069 67.984C480.069 69.36 479.317 70.512 477.941 71.264L476.293 72.144C474.949 72.864 474.501 73.456 474.357 74.688H480.069V76ZM485.568 76.176C482.88 76.176 481.456 74.224 481.456 70.544C481.456 66.88 482.88 64.928 485.568 64.928C488.256 64.928 489.68 66.88 489.68 70.544C489.68 74.224 488.256 76.176 485.568 76.176ZM485.568 74.896C487.392 74.896 488.288 73.456 488.288 70.544C488.288 67.648 487.392 66.208 485.568 66.208C483.744 66.208 482.832 67.648 482.832 70.544C482.832 73.456 483.744 74.896 485.568 74.896ZM495.318 76.176C492.63 76.176 491.206 74.224 491.206 70.544C491.206 66.88 492.63 64.928 495.318 64.928C498.006 64.928 499.43 66.88 499.43 70.544C499.43 74.224 498.006 76.176 495.318 76.176ZM495.318 74.896C497.142 74.896 498.038 73.456 498.038 70.544C498.038 67.648 497.142 66.208 495.318 66.208C493.494 66.208 492.582 67.648 492.582 70.544C492.582 73.456 493.494 74.896 495.318 74.896Z"
    fill="white" />
  <path
    d="M724.254 76.176C721.822 76.176 720.366 74.832 720.366 72.576H721.838C721.838 74.064 722.75 74.944 724.254 74.944C725.582 74.944 726.478 74.144 726.478 72.96C726.478 71.68 725.662 70.96 724.174 70.96H723.374V69.712H724.19C725.502 69.712 726.222 69.072 726.222 67.888C726.222 66.864 725.406 66.16 724.222 66.16C722.894 66.16 722.046 66.944 722.046 68.208H720.622C720.622 66.224 722.03 64.944 724.222 64.944C726.302 64.944 727.71 66.112 727.71 67.888C727.71 69.12 727.006 69.968 725.71 70.304C727.022 70.48 727.95 71.568 727.95 72.96C727.95 74.864 726.43 76.176 724.254 76.176ZM733.638 76.176C730.95 76.176 729.526 74.224 729.526 70.544C729.526 66.88 730.95 64.928 733.638 64.928C736.326 64.928 737.75 66.88 737.75 70.544C737.75 74.224 736.326 76.176 733.638 76.176ZM733.638 74.896C735.462 74.896 736.358 73.456 736.358 70.544C736.358 67.648 735.462 66.208 733.638 66.208C731.814 66.208 730.902 67.648 730.902 70.544C730.902 73.456 731.814 74.896 733.638 74.896ZM743.388 76.176C740.7 76.176 739.276 74.224 739.276 70.544C739.276 66.88 740.7 64.928 743.388 64.928C746.076 64.928 747.5 66.88 747.5 70.544C747.5 74.224 746.076 76.176 743.388 76.176ZM743.388 74.896C745.212 74.896 746.108 73.456 746.108 70.544C746.108 67.648 745.212 66.208 743.388 66.208C741.564 66.208 740.652 67.648 740.652 70.544C740.652 73.456 741.564 74.896 743.388 74.896Z"
    fill="white" />
  <path
    d="M974.965 71.168H976.661V72.48H974.965V76H973.525V72.48H969.141V65.12H970.581V71.168H973.525V67.952H974.965V71.168ZM982.168 76.176C979.48 76.176 978.056 74.224 978.056 70.544C978.056 66.88 979.48 64.928 982.168 64.928C984.856 64.928 986.28 66.88 986.28 70.544C986.28 74.224 984.856 76.176 982.168 76.176ZM982.168 74.896C983.992 74.896 984.888 73.456 984.888 70.544C984.888 67.648 983.992 66.208 982.168 66.208C980.344 66.208 979.432 67.648 979.432 70.544C979.432 73.456 980.344 74.896 982.168 74.896ZM991.918 76.176C989.23 76.176 987.806 74.224 987.806 70.544C987.806 66.88 989.23 64.928 991.918 64.928C994.606 64.928 996.03 66.88 996.03 70.544C996.03 74.224 994.606 76.176 991.918 76.176ZM991.918 74.896C993.742 74.896 994.638 73.456 994.638 70.544C994.638 67.648 993.742 66.208 991.918 66.208C990.094 66.208 989.182 67.648 989.182 70.544C989.182 73.456 990.094 74.896 991.918 74.896Z"
    fill="white" />
  <path
    d="M1221.87 76.176C1219.82 76.176 1218.31 74.944 1218.2 73.184H1219.67C1219.74 74.24 1220.65 74.88 1221.9 74.88C1223.39 74.88 1224.3 73.888 1224.3 72.32C1224.3 70.784 1223.45 69.824 1222.09 69.824C1220.89 69.824 1220.19 70.24 1219.75 71.216H1218.41V65.12H1225.03V66.416H1219.74V69.776C1220.3 69.008 1221.21 68.64 1222.28 68.64C1224.38 68.64 1225.69 70.064 1225.69 72.272C1225.69 74.512 1224.2 76.176 1221.87 76.176ZM1231.29 76.176C1228.61 76.176 1227.18 74.224 1227.18 70.544C1227.18 66.88 1228.61 64.928 1231.29 64.928C1233.98 64.928 1235.41 66.88 1235.41 70.544C1235.41 74.224 1233.98 76.176 1231.29 76.176ZM1231.29 74.896C1233.12 74.896 1234.01 73.456 1234.01 70.544C1234.01 67.648 1233.12 66.208 1231.29 66.208C1229.47 66.208 1228.56 67.648 1228.56 70.544C1228.56 73.456 1229.47 74.896 1231.29 74.896ZM1241.04 76.176C1238.36 76.176 1236.93 74.224 1236.93 70.544C1236.93 66.88 1238.36 64.928 1241.04 64.928C1243.73 64.928 1245.16 66.88 1245.16 70.544C1245.16 74.224 1243.73 76.176 1241.04 76.176ZM1241.04 74.896C1242.87 74.896 1243.76 73.456 1243.76 70.544C1243.76 67.648 1242.87 66.208 1241.04 66.208C1239.22 66.208 1238.31 67.648 1238.31 70.544C1238.31 73.456 1239.22 74.896 1241.04 74.896Z"
    fill="white" />
  <line x1="386.609" y1="43" x2="386.609" y2="2.18557e-08" stroke="#65B3AE" />
  <defs>
    <filter id="filter0_d_5321_23442" x="0" y="20" width="260.801" height="31" filterUnits="userSpaceOnUse" color-interpolation-filters="sRGB">
      <feFlood flood-opacity="0" result="BackgroundImageFix" />
      <feColorMatrix in="SourceAlpha" type="matrix" values="0 0 0 0 0 0 0 0 0 0 0 0 0 0 0 0 0 0 127 0" result="hardAlpha" />
      <feOffset />
      <feGaussianBlur stdDeviation="4" />
      <feComposite in2="hardAlpha" operator="out" />
      <feColorMatrix type="matrix" values="0 0 0 0 0.396078 0 0 0 0 0.701961 0 0 0 0 0.682353 0 0 0 1 0" />
      <feBlend mode="normal" in2="BackgroundImageFix" result="effect1_dropShadow_5321_23442" />
      <feBlend mode="normal" in="SourceGraphic" in2="effect1_dropShadow_5321_23442" result="shape" />
    </filter>
    <filter id="filter1_d_5321_23442" x="249" y="20" width="146" height="31" filterUnits="userSpaceOnUse" color-interpolation-filters="sRGB">
      <feFlood flood-opacity="0" result="BackgroundImageFix" />
      <feColorMatrix in="SourceAlpha" type="matrix" values="0 0 0 0 0 0 0 0 0 0 0 0 0 0 0 0 0 0 127 0" result="hardAlpha" />
      <feOffset />
      <feGaussianBlur stdDeviation="4" />
      <feComposite in2="hardAlpha" operator="out" />
      <feColorMatrix type="matrix" values="0 0 0 0 0.396078 0 0 0 0 0.701961 0 0 0 0 0.682353 0 0 0 1 0" />
      <feBlend mode="normal" in2="BackgroundImageFix" result="effect1_dropShadow_5321_23442" />
      <feBlend mode="normal" in="SourceGraphic" in2="effect1_dropShadow_5321_23442" result="shape" />
    </filter>
  </defs>
</svg>