<svg width="1288" height="82" viewBox="0 0 1288 82" fill="none" xmlns="http://www.w3.org/2000/svg">
  <g filter="url(#filter0_d_6011_7204)">
    <rect x="8" y="28" width="250" height="15" rx="1" fill="#5FA9A4" />
  </g>
  <rect x="265" y="28" width="252" height="15" rx="1" fill="#CCE9E7" />
  <g filter="url(#filter1_d_6011_7204)">
    <rect x="265" y="28" width="133" height="15" rx="1" fill="#5FA9A4" />
  </g>
  <rect x="522" y="28" width="252" height="15" rx="1" fill="#CCE9E7" />
  <rect x="779" y="28" width="252" height="15" rx="1" fill="#CCE9E7" />
  <rect x="1038" y="28" width="250" height="15" rx="1" fill="#CCE9E7" />
  <path d="M12.9395 66.4144L9.30006 64.5613C9.0145 65.1203 8.7745 65.7066 8.58008 66.305L12.4656 67.5627C12.5932 67.1678 12.7511 66.782 12.9395 66.4144Z" fill="white" />
  <path d="M16.0292 63.1488L18.0434 66.6212C18.338 66.4511 18.654 66.3204 18.979 66.2323L17.937 62.3559C18.2013 62.2861 18.4717 62.2253 18.7451 62.1828L18.1041 58.1484C17.4844 58.2457 16.8677 58.3945 16.2723 58.5889L17.5178 62.4106C17.1198 62.5413 16.734 62.7023 16.3634 62.8906L14.5346 59.315C13.9786 59.6006 13.4379 59.9317 12.9336 60.3023L15.3396 63.5985C15.5614 63.4374 15.7923 63.2886 16.0292 63.1488Z" fill="white" />
  <path d="M26.8486 66.0264L23.3762 68.0436C23.5463 68.3383 23.68 68.6542 23.7681 68.9793L27.6445 67.9342C27.7174 68.1985 27.7751 68.4689 27.8176 68.7393L31.852 68.0983C31.7548 67.4785 31.6059 66.8618 31.4085 66.2664L27.5898 67.518C27.4592 67.1201 27.2982 66.7342 27.1098 66.3636L30.6854 64.5287C30.3999 63.9728 30.0687 63.432 29.6981 62.9277L26.402 65.3368C26.56 65.5586 26.7088 65.7894 26.8486 66.0264Z" fill="white" />
  <path d="M25.432 59.2981C24.873 59.0125 24.2867 58.7726 23.6883 58.5781L22.4336 62.4636C22.8255 62.5912 23.2113 62.7492 23.5819 62.9375L25.432 59.2981Z" fill="white" />
  <path d="M23.9798 63.0793L21.9414 66.6184C22.2361 66.7886 22.5095 66.9982 22.7495 67.2382L28.4668 61.4996C28.0233 61.056 27.5403 60.6459 27.036 60.2783L24.6786 63.5319C24.4538 63.3679 24.2229 63.216 23.9798 63.0793Z" fill="white" />
  <path d="M13.0792 66.0135L16.6153 68.0549C16.7854 67.7603 16.995 67.4869 17.235 67.2438L11.5025 61.5234C11.059 61.967 10.6488 62.45 10.2812 62.9543L13.5318 65.3148C13.3708 65.5396 13.2189 65.7735 13.0792 66.0135Z" fill="white" />
  <path d="M21.2369 62.1133L21.8536 58.1428C21.2429 58.0486 20.6202 58 19.9974 58H19.9883V66.0991H19.9974C20.3376 66.0991 20.6779 66.1416 21.0029 66.2297L22.051 62.2835C21.7837 62.2105 21.5133 62.1559 21.2369 62.1133Z" fill="white" />
  <path d="M16.2297 68.9945L12.2835 67.9434C12.2136 68.2107 12.1559 68.4841 12.1133 68.7575L8.14278 68.1378C8.04861 68.7484 8 69.3773 8 70H16.0991C16.0991 69.6567 16.1446 69.3195 16.2297 68.9945Z" fill="white" />
  <path d="M27.0605 73.5846L30.7 75.4377C30.9855 74.8788 31.2255 74.2924 31.42 73.694L27.5345 72.4363C27.4069 72.8312 27.2489 73.217 27.0605 73.5846Z" fill="white" />
  <path d="M23.9681 76.8486L21.954 73.3762C21.6593 73.5463 21.3434 73.677 21.0183 73.7651L22.0603 77.6414C21.796 77.7113 21.5256 77.7721 21.2522 77.8146L21.8932 81.849C22.513 81.7517 23.1297 81.6029 23.7251 81.4085L22.4795 77.5868C22.8775 77.4561 23.2633 77.2951 23.634 77.1068L25.4658 80.6824C26.0218 80.3968 26.5625 80.0657 27.0668 79.6951L24.6608 76.3959C24.439 76.563 24.2081 76.7118 23.9681 76.8486Z" fill="white" />
  <path d="M13.1519 73.9744L16.6242 71.9542C16.4541 71.6596 16.3204 71.3436 16.2323 71.0186L12.3559 72.0636C12.283 71.7993 12.2253 71.5289 12.1828 71.2585L8.14844 71.8995C8.24565 72.5193 8.39451 73.136 8.59197 73.7314L12.4106 72.4828C12.5413 72.8778 12.7023 73.2666 12.8906 73.6372L9.315 75.4721C9.60056 76.0281 9.93169 76.5688 10.3023 77.0731L13.5985 74.664C13.4405 74.4423 13.2916 74.2114 13.1519 73.9744Z" fill="white" />
  <path d="M14.5684 80.7019C15.1273 80.9875 15.7137 81.2275 16.3121 81.4219L17.5668 77.5364C17.1749 77.4088 16.7891 77.2509 16.4184 77.0625L14.5684 80.7019Z" fill="white" />
  <path d="M16.0182 76.9206L18.0567 73.3815C17.762 73.2113 17.4886 73.0017 17.2486 72.7617L11.5312 78.5003C11.9748 78.9439 12.4578 79.354 12.9621 79.7216L15.3195 76.468C15.5443 76.629 15.7782 76.7809 16.0182 76.9206Z" fill="white" />
  <path d="M26.9176 73.9858L23.3815 71.9443C23.2113 72.239 23.0017 72.5124 22.7617 72.7555L28.4973 78.4758C28.9408 78.0323 29.3509 77.5493 29.7185 77.045L26.468 74.6845C26.629 74.4567 26.7809 74.2258 26.9176 73.9858Z" fill="white" />
  <path d="M18.9934 73.7695L17.9453 77.7158C18.2126 77.7856 18.4861 77.8434 18.7595 77.8859L18.1428 81.8565C18.7534 81.9506 19.3762 81.9992 19.9989 81.9992H20.0081V73.9002H19.9989C19.6587 73.9002 19.3184 73.8546 18.9934 73.7695Z" fill="white" />
  <path d="M23.9002 70C23.9002 70.3433 23.8576 70.6805 23.7695 71.0055L27.7158 72.0567C27.7856 71.7893 27.8434 71.5159 27.8859 71.2425L31.8565 71.8622C31.9506 71.2516 31.9992 70.6228 31.9992 70H23.9002Z" fill="white" />
  <path
    d="M232.46 76V66.72L230.652 67.136V65.888L233.132 64.8H234.22V76H232.46ZM240.975 76.192C239.962 76.192 239.087 75.952 238.351 75.472C237.626 74.9813 237.066 74.304 236.671 73.44C236.287 72.5653 236.095 71.552 236.095 70.4C236.095 69.248 236.287 68.24 236.671 67.376C237.066 66.5013 237.626 65.824 238.351 65.344C239.087 64.8533 239.962 64.608 240.975 64.608C241.989 64.608 242.858 64.8533 243.583 65.344C244.309 65.824 244.863 66.5013 245.247 67.376C245.642 68.24 245.839 69.248 245.839 70.4C245.839 71.552 245.642 72.5653 245.247 73.44C244.863 74.304 244.309 74.9813 243.583 75.472C242.858 75.952 241.989 76.192 240.975 76.192ZM240.975 74.672C241.583 74.672 242.122 74.5013 242.591 74.16C243.071 73.8187 243.445 73.328 243.711 72.688C243.978 72.048 244.111 71.2853 244.111 70.4C244.111 69.5147 243.978 68.752 243.711 68.112C243.445 67.472 243.071 66.9813 242.591 66.64C242.122 66.2987 241.583 66.128 240.975 66.128C240.357 66.128 239.813 66.2987 239.343 66.64C238.874 66.9813 238.506 67.472 238.239 68.112C237.973 68.752 237.839 69.5147 237.839 70.4C237.839 71.2853 237.973 72.048 238.239 72.688C238.506 73.328 238.874 73.8187 239.343 74.16C239.813 74.5013 240.357 74.672 240.975 74.672ZM252.21 76.192C251.196 76.192 250.322 75.952 249.586 75.472C248.86 74.9813 248.3 74.304 247.906 73.44C247.522 72.5653 247.33 71.552 247.33 70.4C247.33 69.248 247.522 68.24 247.906 67.376C248.3 66.5013 248.86 65.824 249.586 65.344C250.322 64.8533 251.196 64.608 252.21 64.608C253.223 64.608 254.092 64.8533 254.818 65.344C255.543 65.824 256.098 66.5013 256.482 67.376C256.876 68.24 257.074 69.248 257.074 70.4C257.074 71.552 256.876 72.5653 256.482 73.44C256.098 74.304 255.543 74.9813 254.818 75.472C254.092 75.952 253.223 76.192 252.21 76.192ZM252.21 74.672C252.818 74.672 253.356 74.5013 253.826 74.16C254.306 73.8187 254.679 73.328 254.946 72.688C255.212 72.048 255.346 71.2853 255.346 70.4C255.346 69.5147 255.212 68.752 254.946 68.112C254.679 67.472 254.306 66.9813 253.826 66.64C253.356 66.2987 252.818 66.128 252.21 66.128C251.591 66.128 251.047 66.2987 250.578 66.64C250.108 66.9813 249.74 67.472 249.474 68.112C249.207 68.752 249.074 69.5147 249.074 70.4C249.074 71.2853 249.207 72.048 249.474 72.688C249.74 73.328 250.108 73.8187 250.578 74.16C251.047 74.5013 251.591 74.672 252.21 74.672Z"
    fill="white" />
  <path
    d="M369.647 14V4.72L367.839 5.136V3.888L370.319 2.8H371.407V14H369.647ZM377.587 14.192C376.798 14.192 376.115 14.0533 375.539 13.776C374.963 13.488 374.504 13.0987 374.163 12.608C373.832 12.1067 373.63 11.5413 373.555 10.912H375.219C375.326 11.4453 375.592 11.888 376.019 12.24C376.446 12.5813 376.974 12.752 377.603 12.752C378.072 12.752 378.478 12.64 378.819 12.416C379.16 12.1813 379.427 11.872 379.619 11.488C379.811 11.104 379.907 10.672 379.907 10.192C379.907 9.43467 379.694 8.832 379.267 8.384C378.84 7.92533 378.302 7.696 377.651 7.696C377.096 7.696 376.622 7.82933 376.227 8.096C375.832 8.352 375.544 8.67733 375.363 9.072H373.747L374.707 2.8H380.755V4.288H375.987L375.411 7.28C375.656 7.00267 375.992 6.77333 376.419 6.592C376.856 6.4 377.347 6.304 377.891 6.304C378.648 6.304 379.299 6.48 379.843 6.832C380.387 7.17333 380.803 7.63733 381.091 8.224C381.39 8.81067 381.539 9.46133 381.539 10.176C381.539 10.9227 381.379 11.6 381.059 12.208C380.739 12.816 380.28 13.3013 379.683 13.664C379.096 14.016 378.398 14.192 377.587 14.192ZM388.022 14.192C387.009 14.192 386.134 13.952 385.398 13.472C384.673 12.9813 384.113 12.304 383.718 11.44C383.334 10.5653 383.142 9.552 383.142 8.4C383.142 7.248 383.334 6.24 383.718 5.376C384.113 4.50133 384.673 3.824 385.398 3.344C386.134 2.85333 387.009 2.608 388.022 2.608C389.036 2.608 389.905 2.85333 390.63 3.344C391.356 3.824 391.91 4.50133 392.294 5.376C392.689 6.24 392.886 7.248 392.886 8.4C392.886 9.552 392.689 10.5653 392.294 11.44C391.91 12.304 391.356 12.9813 390.63 13.472C389.905 13.952 389.036 14.192 388.022 14.192ZM388.022 12.672C388.63 12.672 389.169 12.5013 389.638 12.16C390.118 11.8187 390.492 11.328 390.758 10.688C391.025 10.048 391.158 9.28533 391.158 8.4C391.158 7.51467 391.025 6.752 390.758 6.112C390.492 5.472 390.118 4.98133 389.638 4.64C389.169 4.29867 388.63 4.128 388.022 4.128C387.404 4.128 386.86 4.29867 386.39 4.64C385.921 4.98133 385.553 5.472 385.286 6.112C385.02 6.752 384.886 7.51467 384.886 8.4C384.886 9.28533 385.02 10.048 385.286 10.688C385.553 11.328 385.921 11.8187 386.39 12.16C386.86 12.5013 387.404 12.672 388.022 12.672Z"
    fill="white" />
  <path
    d="M486.162 76V74.784C486.887 74.208 487.581 73.6267 488.242 73.04C488.903 72.4533 489.49 71.8773 490.002 71.312C490.525 70.736 490.935 70.176 491.234 69.632C491.533 69.0773 491.682 68.544 491.682 68.032C491.682 67.6907 491.623 67.3707 491.506 67.072C491.389 66.7627 491.197 66.5173 490.93 66.336C490.663 66.144 490.306 66.048 489.858 66.048C489.186 66.048 488.679 66.2613 488.338 66.688C488.007 67.1147 487.847 67.6267 487.858 68.224H486.21C486.221 67.4347 486.386 66.7733 486.706 66.24C487.037 65.7067 487.474 65.3013 488.018 65.024C488.573 64.7467 489.197 64.608 489.89 64.608C490.946 64.608 491.789 64.9067 492.418 65.504C493.058 66.0907 493.378 66.912 493.378 67.968C493.378 68.5973 493.223 69.2213 492.914 69.84C492.615 70.4587 492.221 71.056 491.73 71.632C491.25 72.1973 490.733 72.7307 490.178 73.232C489.623 73.7333 489.095 74.1867 488.594 74.592H493.714V76H486.162ZM499.897 76.192C498.884 76.192 498.009 75.952 497.273 75.472C496.548 74.9813 495.988 74.304 495.593 73.44C495.209 72.5653 495.017 71.552 495.017 70.4C495.017 69.248 495.209 68.24 495.593 67.376C495.988 66.5013 496.548 65.824 497.273 65.344C498.009 64.8533 498.884 64.608 499.897 64.608C500.911 64.608 501.78 64.8533 502.505 65.344C503.231 65.824 503.785 66.5013 504.169 67.376C504.564 68.24 504.761 69.248 504.761 70.4C504.761 71.552 504.564 72.5653 504.169 73.44C503.785 74.304 503.231 74.9813 502.505 75.472C501.78 75.952 500.911 76.192 499.897 76.192ZM499.897 74.672C500.505 74.672 501.044 74.5013 501.513 74.16C501.993 73.8187 502.367 73.328 502.633 72.688C502.9 72.048 503.033 71.2853 503.033 70.4C503.033 69.5147 502.9 68.752 502.633 68.112C502.367 67.472 501.993 66.9813 501.513 66.64C501.044 66.2987 500.505 66.128 499.897 66.128C499.279 66.128 498.735 66.2987 498.265 66.64C497.796 66.9813 497.428 67.472 497.161 68.112C496.895 68.752 496.761 69.5147 496.761 70.4C496.761 71.2853 496.895 72.048 497.161 72.688C497.428 73.328 497.796 73.8187 498.265 74.16C498.735 74.5013 499.279 74.672 499.897 74.672ZM511.132 76.192C510.118 76.192 509.244 75.952 508.508 75.472C507.782 74.9813 507.222 74.304 506.828 73.44C506.444 72.5653 506.252 71.552 506.252 70.4C506.252 69.248 506.444 68.24 506.828 67.376C507.222 66.5013 507.782 65.824 508.508 65.344C509.244 64.8533 510.118 64.608 511.132 64.608C512.145 64.608 513.014 64.8533 513.74 65.344C514.465 65.824 515.02 66.5013 515.404 67.376C515.798 68.24 515.996 69.248 515.996 70.4C515.996 71.552 515.798 72.5653 515.404 73.44C515.02 74.304 514.465 74.9813 513.74 75.472C513.014 75.952 512.145 76.192 511.132 76.192ZM511.132 74.672C511.74 74.672 512.278 74.5013 512.748 74.16C513.228 73.8187 513.601 73.328 513.868 72.688C514.134 72.048 514.268 71.2853 514.268 70.4C514.268 69.5147 514.134 68.752 513.868 68.112C513.601 67.472 513.228 66.9813 512.748 66.64C512.278 66.2987 511.74 66.128 511.132 66.128C510.513 66.128 509.969 66.2987 509.5 66.64C509.03 66.9813 508.662 67.472 508.396 68.112C508.129 68.752 507.996 69.5147 507.996 70.4C507.996 71.2853 508.129 72.048 508.396 72.688C508.662 73.328 509.03 73.8187 509.5 74.16C509.969 74.5013 510.513 74.672 511.132 74.672Z"
    fill="white" />
  <path
    d="M746.751 76.192C746.026 76.192 745.365 76.064 744.767 75.808C744.181 75.5413 743.711 75.1413 743.359 74.608C743.007 74.0747 742.821 73.408 742.799 72.608H744.479C744.501 73.2053 744.703 73.712 745.087 74.128C745.482 74.5333 746.037 74.736 746.751 74.736C747.434 74.736 747.957 74.5493 748.319 74.176C748.682 73.792 748.863 73.3173 748.863 72.752C748.863 72.0693 748.618 71.5627 748.127 71.232C747.647 70.9013 747.055 70.736 746.351 70.736H745.519V69.328H746.367C746.997 69.328 747.503 69.1787 747.887 68.88C748.282 68.5813 748.479 68.16 748.479 67.616C748.479 67.1573 748.325 66.784 748.015 66.496C747.717 66.208 747.29 66.064 746.735 66.064C746.159 66.064 745.706 66.2347 745.375 66.576C745.045 66.9067 744.863 67.3227 744.831 67.824H743.151C743.173 67.1733 743.333 66.608 743.631 66.128C743.941 65.648 744.362 65.2747 744.895 65.008C745.429 64.7413 746.042 64.608 746.735 64.608C747.482 64.608 748.106 64.7413 748.607 65.008C749.119 65.264 749.503 65.616 749.759 66.064C750.026 66.5013 750.159 66.9813 750.159 67.504C750.159 68.1013 749.994 68.624 749.663 69.072C749.333 69.52 748.89 69.8187 748.335 69.968C748.975 70.1067 749.503 70.4213 749.919 70.912C750.335 71.392 750.543 72.016 750.543 72.784C750.543 73.4027 750.399 73.9733 750.111 74.496C749.823 75.008 749.397 75.4187 748.831 75.728C748.266 76.0373 747.573 76.192 746.751 76.192ZM757.116 76.192C756.103 76.192 755.228 75.952 754.492 75.472C753.767 74.9813 753.207 74.304 752.812 73.44C752.428 72.5653 752.236 71.552 752.236 70.4C752.236 69.248 752.428 68.24 752.812 67.376C753.207 66.5013 753.767 65.824 754.492 65.344C755.228 64.8533 756.103 64.608 757.116 64.608C758.129 64.608 758.999 64.8533 759.724 65.344C760.449 65.824 761.004 66.5013 761.388 67.376C761.783 68.24 761.98 69.248 761.98 70.4C761.98 71.552 761.783 72.5653 761.388 73.44C761.004 74.304 760.449 74.9813 759.724 75.472C758.999 75.952 758.129 76.192 757.116 76.192ZM757.116 74.672C757.724 74.672 758.263 74.5013 758.732 74.16C759.212 73.8187 759.585 73.328 759.852 72.688C760.119 72.048 760.252 71.2853 760.252 70.4C760.252 69.5147 760.119 68.752 759.852 68.112C759.585 67.472 759.212 66.9813 758.732 66.64C758.263 66.2987 757.724 66.128 757.116 66.128C756.497 66.128 755.953 66.2987 755.484 66.64C755.015 66.9813 754.647 67.472 754.38 68.112C754.113 68.752 753.98 69.5147 753.98 70.4C753.98 71.2853 754.113 72.048 754.38 72.688C754.647 73.328 755.015 73.8187 755.484 74.16C755.953 74.5013 756.497 74.672 757.116 74.672ZM768.35 76.192C767.337 76.192 766.462 75.952 765.726 75.472C765.001 74.9813 764.441 74.304 764.046 73.44C763.662 72.5653 763.47 71.552 763.47 70.4C763.47 69.248 763.662 68.24 764.046 67.376C764.441 66.5013 765.001 65.824 765.726 65.344C766.462 64.8533 767.337 64.608 768.35 64.608C769.364 64.608 770.233 64.8533 770.958 65.344C771.684 65.824 772.238 66.5013 772.622 67.376C773.017 68.24 773.214 69.248 773.214 70.4C773.214 71.552 773.017 72.5653 772.622 73.44C772.238 74.304 771.684 74.9813 770.958 75.472C770.233 75.952 769.364 76.192 768.35 76.192ZM768.35 74.672C768.958 74.672 769.497 74.5013 769.966 74.16C770.446 73.8187 770.82 73.328 771.086 72.688C771.353 72.048 771.486 71.2853 771.486 70.4C771.486 69.5147 771.353 68.752 771.086 68.112C770.82 67.472 770.446 66.9813 769.966 66.64C769.497 66.2987 768.958 66.128 768.35 66.128C767.732 66.128 767.188 66.2987 766.718 66.64C766.249 66.9813 765.881 67.472 765.614 68.112C765.348 68.752 765.214 69.5147 765.214 70.4C765.214 71.2853 765.348 72.048 765.614 72.688C765.881 73.328 766.249 73.8187 766.718 74.16C767.188 74.5013 767.732 74.672 768.35 74.672Z"
    fill="white" />
  <path
    d="M1004.52 76V73.76H998.905V72.416L1004.25 64.8H1006.2V72.288H1007.77V73.76H1006.2V76H1004.52ZM1000.75 72.288H1004.62V66.672L1000.75 72.288ZM1013.87 76.192C1012.85 76.192 1011.98 75.952 1011.24 75.472C1010.52 74.9813 1009.96 74.304 1009.56 73.44C1009.18 72.5653 1008.99 71.552 1008.99 70.4C1008.99 69.248 1009.18 68.24 1009.56 67.376C1009.96 66.5013 1010.52 65.824 1011.24 65.344C1011.98 64.8533 1012.85 64.608 1013.87 64.608C1014.88 64.608 1015.75 64.8533 1016.47 65.344C1017.2 65.824 1017.75 66.5013 1018.14 67.376C1018.53 68.24 1018.73 69.248 1018.73 70.4C1018.73 71.552 1018.53 72.5653 1018.14 73.44C1017.75 74.304 1017.2 74.9813 1016.47 75.472C1015.75 75.952 1014.88 76.192 1013.87 76.192ZM1013.87 74.672C1014.47 74.672 1015.01 74.5013 1015.48 74.16C1015.96 73.8187 1016.34 73.328 1016.6 72.688C1016.87 72.048 1017 71.2853 1017 70.4C1017 69.5147 1016.87 68.752 1016.6 68.112C1016.34 67.472 1015.96 66.9813 1015.48 66.64C1015.01 66.2987 1014.47 66.128 1013.87 66.128C1013.25 66.128 1012.7 66.2987 1012.23 66.64C1011.76 66.9813 1011.4 67.472 1011.13 68.112C1010.86 68.752 1010.73 69.5147 1010.73 70.4C1010.73 71.2853 1010.86 72.048 1011.13 72.688C1011.4 73.328 1011.76 73.8187 1012.23 74.16C1012.7 74.5013 1013.25 74.672 1013.87 74.672ZM1025.1 76.192C1024.09 76.192 1023.21 75.952 1022.48 75.472C1021.75 74.9813 1021.19 74.304 1020.8 73.44C1020.41 72.5653 1020.22 71.552 1020.22 70.4C1020.22 69.248 1020.41 68.24 1020.8 67.376C1021.19 66.5013 1021.75 65.824 1022.48 65.344C1023.21 64.8533 1024.09 64.608 1025.1 64.608C1026.11 64.608 1026.98 64.8533 1027.71 65.344C1028.43 65.824 1028.99 66.5013 1029.37 67.376C1029.77 68.24 1029.96 69.248 1029.96 70.4C1029.96 71.552 1029.77 72.5653 1029.37 73.44C1028.99 74.304 1028.43 74.9813 1027.71 75.472C1026.98 75.952 1026.11 76.192 1025.1 76.192ZM1025.1 74.672C1025.71 74.672 1026.25 74.5013 1026.72 74.16C1027.2 73.8187 1027.57 73.328 1027.84 72.688C1028.1 72.048 1028.24 71.2853 1028.24 70.4C1028.24 69.5147 1028.1 68.752 1027.84 68.112C1027.57 67.472 1027.2 66.9813 1026.72 66.64C1026.25 66.2987 1025.71 66.128 1025.1 66.128C1024.48 66.128 1023.94 66.2987 1023.47 66.64C1023 66.9813 1022.63 67.472 1022.36 68.112C1022.1 68.752 1021.96 69.5147 1021.96 70.4C1021.96 71.2853 1022.1 72.048 1022.36 72.688C1022.63 73.328 1023 73.8187 1023.47 74.16C1023.94 74.5013 1024.48 74.672 1025.1 74.672Z"
    fill="white" />
  <path
    d="M1260.38 76.192C1259.59 76.192 1258.9 76.0533 1258.33 75.776C1257.75 75.488 1257.29 75.0987 1256.95 74.608C1256.62 74.1067 1256.42 73.5413 1256.34 72.912H1258.01C1258.11 73.4453 1258.38 73.888 1258.81 74.24C1259.23 74.5813 1259.76 74.752 1260.39 74.752C1260.86 74.752 1261.27 74.64 1261.61 74.416C1261.95 74.1813 1262.22 73.872 1262.41 73.488C1262.6 73.104 1262.7 72.672 1262.7 72.192C1262.7 71.4347 1262.48 70.832 1262.06 70.384C1261.63 69.9253 1261.09 69.696 1260.44 69.696C1259.89 69.696 1259.41 69.8293 1259.02 70.096C1258.62 70.352 1258.33 70.6773 1258.15 71.072H1256.54L1257.5 64.8H1263.54V66.288H1258.78L1258.2 69.28C1258.45 69.0027 1258.78 68.7733 1259.21 68.592C1259.65 68.4 1260.14 68.304 1260.68 68.304C1261.44 68.304 1262.09 68.48 1262.63 68.832C1263.18 69.1733 1263.59 69.6373 1263.88 70.224C1264.18 70.8107 1264.33 71.4613 1264.33 72.176C1264.33 72.9227 1264.17 73.6 1263.85 74.208C1263.53 74.816 1263.07 75.3013 1262.47 75.664C1261.89 76.016 1261.19 76.192 1260.38 76.192ZM1270.81 76.192C1269.8 76.192 1268.92 75.952 1268.19 75.472C1267.46 74.9813 1266.9 74.304 1266.51 73.44C1266.12 72.5653 1265.93 71.552 1265.93 70.4C1265.93 69.248 1266.12 68.24 1266.51 67.376C1266.9 66.5013 1267.46 65.824 1268.19 65.344C1268.92 64.8533 1269.8 64.608 1270.81 64.608C1271.82 64.608 1272.69 64.8533 1273.42 65.344C1274.14 65.824 1274.7 66.5013 1275.08 67.376C1275.48 68.24 1275.68 69.248 1275.68 70.4C1275.68 71.552 1275.48 72.5653 1275.08 73.44C1274.7 74.304 1274.14 74.9813 1273.42 75.472C1272.69 75.952 1271.82 76.192 1270.81 76.192ZM1270.81 74.672C1271.42 74.672 1271.96 74.5013 1272.43 74.16C1272.91 73.8187 1273.28 73.328 1273.55 72.688C1273.81 72.048 1273.95 71.2853 1273.95 70.4C1273.95 69.5147 1273.81 68.752 1273.55 68.112C1273.28 67.472 1272.91 66.9813 1272.43 66.64C1271.96 66.2987 1271.42 66.128 1270.81 66.128C1270.19 66.128 1269.65 66.2987 1269.18 66.64C1268.71 66.9813 1268.34 67.472 1268.08 68.112C1267.81 68.752 1267.68 69.5147 1267.68 70.4C1267.68 71.2853 1267.81 72.048 1268.08 72.688C1268.34 73.328 1268.71 73.8187 1269.18 74.16C1269.65 74.5013 1270.19 74.672 1270.81 74.672ZM1282.05 76.192C1281.03 76.192 1280.16 75.952 1279.42 75.472C1278.7 74.9813 1278.14 74.304 1277.74 73.44C1277.36 72.5653 1277.17 71.552 1277.17 70.4C1277.17 69.248 1277.36 68.24 1277.74 67.376C1278.14 66.5013 1278.7 65.824 1279.42 65.344C1280.16 64.8533 1281.03 64.608 1282.05 64.608C1283.06 64.608 1283.93 64.8533 1284.65 65.344C1285.38 65.824 1285.93 66.5013 1286.32 67.376C1286.71 68.24 1286.91 69.248 1286.91 70.4C1286.91 71.552 1286.71 72.5653 1286.32 73.44C1285.93 74.304 1285.38 74.9813 1284.65 75.472C1283.93 75.952 1283.06 76.192 1282.05 76.192ZM1282.05 74.672C1282.65 74.672 1283.19 74.5013 1283.66 74.16C1284.14 73.8187 1284.52 73.328 1284.78 72.688C1285.05 72.048 1285.18 71.2853 1285.18 70.4C1285.18 69.5147 1285.05 68.752 1284.78 68.112C1284.52 67.472 1284.14 66.9813 1283.66 66.64C1283.19 66.2987 1282.65 66.128 1282.05 66.128C1281.43 66.128 1280.88 66.2987 1280.41 66.64C1279.94 66.9813 1279.58 67.472 1279.31 68.112C1279.04 68.752 1278.91 69.5147 1278.91 70.4C1278.91 71.2853 1279.04 72.048 1279.31 72.688C1279.58 73.328 1279.94 73.8187 1280.41 74.16C1280.88 74.5013 1281.43 74.672 1282.05 74.672Z"
    fill="white" />
  <line x1="397.5" y1="43" x2="397.5" y2="2.18557e-08" stroke="#55F1E5" />
  <defs>
    <filter id="filter0_d_6011_7204" x="0" y="20" width="266" height="31" filterUnits="userSpaceOnUse" color-interpolation-filters="sRGB">
      <feFlood flood-opacity="0" result="BackgroundImageFix" />
      <feColorMatrix in="SourceAlpha" type="matrix" values="0 0 0 0 0 0 0 0 0 0 0 0 0 0 0 0 0 0 127 0" result="hardAlpha" />
      <feOffset />
      <feGaussianBlur stdDeviation="4" />
      <feComposite in2="hardAlpha" operator="out" />
      <feColorMatrix type="matrix" values="0 0 0 0 0.372549 0 0 0 0 0.662745 0 0 0 0 0.643137 0 0 0 1 0" />
      <feBlend mode="normal" in2="BackgroundImageFix" result="effect1_dropShadow_6011_7204" />
      <feBlend mode="normal" in="SourceGraphic" in2="effect1_dropShadow_6011_7204" result="shape" />
    </filter>
    <filter id="filter1_d_6011_7204" x="257" y="20" width="149" height="31" filterUnits="userSpaceOnUse" color-interpolation-filters="sRGB">
      <feFlood flood-opacity="0" result="BackgroundImageFix" />
      <feColorMatrix in="SourceAlpha" type="matrix" values="0 0 0 0 0 0 0 0 0 0 0 0 0 0 0 0 0 0 127 0" result="hardAlpha" />
      <feOffset />
      <feGaussianBlur stdDeviation="4" />
      <feComposite in2="hardAlpha" operator="out" />
      <feColorMatrix type="matrix" values="0 0 0 0 0.372549 0 0 0 0 0.662745 0 0 0 0 0.643137 0 0 0 1 0" />
      <feBlend mode="normal" in2="BackgroundImageFix" result="effect1_dropShadow_6011_7204" />
      <feBlend mode="normal" in="SourceGraphic" in2="effect1_dropShadow_6011_7204" result="shape" />
    </filter>
  </defs>
</svg>
