<svg width="358" height="36" viewBox="0 0 358 36" fill="none" xmlns="http://www.w3.org/2000/svg">
  <g filter="url(#filter0_d_6277_19106)">
    <rect x="8" y="13" width="68.4" height="7" rx="1" fill="#65B3AE" />
  </g>
  <rect x="78.3984" y="13" width="68.4" height="7" rx="1" fill="#202020" />
  <rect x="148.801" y="13" width="68.4" height="7" rx="1" fill="#202020" />
  <rect x="219.199" y="13" width="68.4" height="7" rx="1" fill="#202020" />
  <rect x="289.602" y="13" width="68.4" height="7" rx="1" fill="#202020" />
  <g filter="url(#filter1_d_6277_19106)">
    <rect x="78" y="13" width="36" height="7" rx="1" fill="#65B3AE" />
  </g>
  <path d="M68.4681 30.1571H69.4381V31.1871H68.4681V33.2871H67.3281V31.1871H64.6381V26.4871H65.7781V30.1571H67.3281V28.2571H68.4681V30.1571ZM72.8989 33.4071C71.1889 33.4071 70.2889 32.1871 70.2889 29.8871C70.2889 27.5871 71.1889 26.3671 72.8989 26.3671C74.6089 26.3671 75.5089 27.5871 75.5089 29.8871C75.5089 32.1871 74.6089 33.4071 72.8989 33.4071ZM72.8989 32.4071C73.9189 32.4071 74.4189 31.5771 74.4189 29.8871C74.4189 28.1971 73.9189 27.3671 72.8989 27.3671C71.8789 27.3671 71.3789 28.1971 71.3789 29.8871C71.3789 31.5771 71.8789 32.4071 72.8989 32.4071Z" fill="white" />
  <path d="M11.4985 33.4071C9.78848 33.4071 8.88848 32.1871 8.88848 29.8871C8.88848 27.5871 9.78848 26.3671 11.4985 26.3671C13.2085 26.3671 14.1085 27.5871 14.1085 29.8871C14.1085 32.1871 13.2085 33.4071 11.4985 33.4071ZM11.4985 32.4071C12.5185 32.4071 13.0185 31.5771 13.0185 29.8871C13.0185 28.1971 12.5185 27.3671 11.4985 27.3671C10.4785 27.3671 9.97848 28.1971 9.97848 29.8871C9.97848 31.5771 10.4785 32.4071 11.4985 32.4071Z" fill="white" />
  <path
    d="M101.937 4.22C103.477 4.22 104.397 5.3 104.397 6.67C104.397 8.04 103.477 9.12 101.937 9.12C100.397 9.12 99.4771 8.04 99.4771 6.67C99.4771 6.07 99.6571 5.52 99.9871 5.09L102.127 2.2H103.497L101.917 4.22H101.937ZM101.937 8.15C102.817 8.15 103.307 7.52 103.307 6.67C103.307 5.82 102.817 5.19 101.937 5.19C101.057 5.19 100.567 5.82 100.567 6.67C100.567 7.52 101.057 8.15 101.937 8.15ZM107.86 9.12C106.15 9.12 105.25 7.9 105.25 5.6C105.25 3.3 106.15 2.08 107.86 2.08C109.57 2.08 110.47 3.3 110.47 5.6C110.47 7.9 109.57 9.12 107.86 9.12ZM107.86 8.12C108.88 8.12 109.38 7.29 109.38 5.6C109.38 3.91 108.88 3.08 107.86 3.08C106.84 3.08 106.34 3.91 106.34 5.6C106.34 7.29 106.84 8.12 107.86 8.12Z"
    fill="white" />
  <path
    d="M137.439 33.4071C135.949 33.4071 134.989 32.6171 134.989 31.3871C134.989 30.5871 135.369 29.9971 136.049 29.7571C135.459 29.5171 135.089 28.8971 135.089 28.1871C135.089 27.1071 136.049 26.3671 137.439 26.3671C138.829 26.3671 139.789 27.1071 139.789 28.1871C139.789 28.8971 139.399 29.5171 138.809 29.7571C139.489 29.9971 139.889 30.5871 139.889 31.3871C139.889 32.6171 138.929 33.4071 137.439 33.4071ZM137.439 29.2971C138.159 29.2971 138.609 28.8971 138.609 28.2971C138.609 27.6671 138.159 27.2871 137.439 27.2871C136.719 27.2871 136.269 27.6671 136.269 28.2971C136.269 28.8971 136.759 29.2971 137.439 29.2971ZM137.439 32.4371C138.209 32.4371 138.719 31.9971 138.719 31.3171C138.719 30.6371 138.209 30.1971 137.439 30.1971C136.709 30.1971 136.159 30.6371 136.159 31.3171C136.159 31.9971 136.669 32.4371 137.439 32.4371ZM143.448 33.4071C141.738 33.4071 140.838 32.1871 140.838 29.8871C140.838 27.5871 141.738 26.3671 143.448 26.3671C145.158 26.3671 146.058 27.5871 146.058 29.8871C146.058 32.1871 145.158 33.4071 143.448 33.4071ZM143.448 32.4071C144.468 32.4071 144.968 31.5771 144.968 29.8871C144.968 28.1971 144.468 27.3671 143.448 27.3671C142.428 27.3671 141.928 28.1971 141.928 29.8871C141.928 31.5771 142.428 32.4071 143.448 32.4071Z"
    fill="white" />
  <path
    d="M203.508 33H202.368V28.32H200.928V27.36C202.198 27.36 202.468 27.04 202.468 26.2H203.508V33ZM209.792 33H205.062C205.062 31.5 205.562 30.58 206.742 29.93L207.742 29.38C208.302 29.07 208.592 28.64 208.592 28.09C208.592 27.49 208.182 27.08 207.592 27.08C206.832 27.08 206.402 27.59 206.402 28.51H205.212C205.212 27.03 206.142 26.08 207.592 26.08C208.962 26.08 209.812 26.83 209.812 28.03C209.812 28.86 209.322 29.63 208.482 30.11L207.502 30.67C206.752 31.1 206.542 31.35 206.422 31.97H209.792V33ZM213.228 33.12C211.518 33.12 210.618 31.9 210.618 29.6C210.618 27.3 211.518 26.08 213.228 26.08C214.938 26.08 215.838 27.3 215.838 29.6C215.838 31.9 214.938 33.12 213.228 33.12ZM213.228 32.12C214.248 32.12 214.748 31.29 214.748 29.6C214.748 27.91 214.248 27.08 213.228 27.08C212.208 27.08 211.708 27.91 211.708 29.6C211.708 31.29 212.208 32.12 213.228 32.12Z"
    fill="white" />
  <path
    d="M272.921 33.2871H271.781V28.6071H270.341V27.6471C271.611 27.6471 271.881 27.3271 271.881 26.4871H272.921V33.2871ZM276.836 28.5071C278.376 28.5071 279.296 29.5871 279.296 30.9571C279.296 32.3271 278.376 33.4071 276.836 33.4071C275.296 33.4071 274.376 32.3271 274.376 30.9571C274.376 30.3571 274.556 29.8071 274.886 29.3771L277.026 26.4871H278.396L276.816 28.5071H276.836ZM276.836 32.4371C277.716 32.4371 278.206 31.8071 278.206 30.9571C278.206 30.1071 277.716 29.4771 276.836 29.4771C275.956 29.4771 275.466 30.1071 275.466 30.9571C275.466 31.8071 275.956 32.4371 276.836 32.4371ZM282.758 33.4071C281.048 33.4071 280.148 32.1871 280.148 29.8871C280.148 27.5871 281.048 26.3671 282.758 26.3671C284.468 26.3671 285.368 27.5871 285.368 29.8871C285.368 32.1871 284.468 33.4071 282.758 33.4071ZM282.758 32.4071C283.778 32.4071 284.278 31.5771 284.278 29.8871C284.278 28.1971 283.778 27.3671 282.758 27.3671C281.738 27.3671 281.238 28.1971 281.238 29.8871C281.238 31.5771 281.738 32.4071 282.758 32.4071Z"
    fill="white" />
  <path
    d="M344.398 33.2871H339.668C339.668 31.7871 340.168 30.8671 341.348 30.2171L342.348 29.6671C342.908 29.3571 343.198 28.9271 343.198 28.3771C343.198 27.7771 342.788 27.3671 342.198 27.3671C341.438 27.3671 341.008 27.8771 341.008 28.7971H339.818C339.818 27.3171 340.748 26.3671 342.198 26.3671C343.568 26.3671 344.418 27.1171 344.418 28.3171C344.418 29.1471 343.928 29.9171 343.088 30.3971L342.108 30.9571C341.358 31.3871 341.148 31.6371 341.028 32.2571H344.398V33.2871ZM347.833 33.4071C346.123 33.4071 345.223 32.1871 345.223 29.8871C345.223 27.5871 346.123 26.3671 347.833 26.3671C349.543 26.3671 350.443 27.5871 350.443 29.8871C350.443 32.1871 349.543 33.4071 347.833 33.4071ZM347.833 32.4071C348.853 32.4071 349.353 31.5771 349.353 29.8871C349.353 28.1971 348.853 27.3671 347.833 27.3671C346.813 27.3671 346.313 28.1971 346.313 29.8871C346.313 31.5771 346.813 32.4071 347.833 32.4071ZM353.956 33.4071C352.246 33.4071 351.346 32.1871 351.346 29.8871C351.346 27.5871 352.246 26.3671 353.956 26.3671C355.666 26.3671 356.566 27.5871 356.566 29.8871C356.566 32.1871 355.666 33.4071 353.956 33.4071ZM353.956 32.4071C354.976 32.4071 355.476 31.5771 355.476 29.8871C355.476 28.1971 354.976 27.3671 353.956 27.3671C352.936 27.3671 352.436 28.1971 352.436 29.8871C352.436 31.5771 352.936 32.4071 353.956 32.4071Z"
    fill="white" />
  <line x1="113.5" y1="20" x2="113.5" y2="2" stroke="#65B3AE" />
  <defs>
    <filter id="filter0_d_6277_19106" x="0" y="5" width="84.3984" height="23" filterUnits="userSpaceOnUse" color-interpolation-filters="sRGB">
      <feFlood flood-opacity="0" result="BackgroundImageFix" />
      <feColorMatrix in="SourceAlpha" type="matrix" values="0 0 0 0 0 0 0 0 0 0 0 0 0 0 0 0 0 0 127 0" result="hardAlpha" />
      <feOffset />
      <feGaussianBlur stdDeviation="4" />
      <feComposite in2="hardAlpha" operator="out" />
      <feColorMatrix type="matrix" values="0 0 0 0 0.396078 0 0 0 0 0.701961 0 0 0 0 0.682353 0 0 0 1 0" />
      <feBlend mode="normal" in2="BackgroundImageFix" result="effect1_dropShadow_6277_19106" />
      <feBlend mode="normal" in="SourceGraphic" in2="effect1_dropShadow_6277_19106" result="shape" />
    </filter>
    <filter id="filter1_d_6277_19106" x="70" y="5" width="52" height="23" filterUnits="userSpaceOnUse" color-interpolation-filters="sRGB">
      <feFlood flood-opacity="0" result="BackgroundImageFix" />
      <feColorMatrix in="SourceAlpha" type="matrix" values="0 0 0 0 0 0 0 0 0 0 0 0 0 0 0 0 0 0 127 0" result="hardAlpha" />
      <feOffset />
      <feGaussianBlur stdDeviation="4" />
      <feComposite in2="hardAlpha" operator="out" />
      <feColorMatrix type="matrix" values="0 0 0 0 0.396078 0 0 0 0 0.701961 0 0 0 0 0.682353 0 0 0 1 0" />
      <feBlend mode="normal" in2="BackgroundImageFix" result="effect1_dropShadow_6277_19106" />
      <feBlend mode="normal" in="SourceGraphic" in2="effect1_dropShadow_6277_19106" result="shape" />
    </filter>
  </defs>
</svg>