<svg width="1248" height="80" viewBox="0 0 1248 80" fill="none" xmlns="http://www.w3.org/2000/svg">
  <g filter="url(#filter0_d_6277_17337)">
    <rect x="8" y="28" width="244.8" height="15" rx="1" fill="#65B3AE" />
    <rect x="8.5" y="28.5" width="243.8" height="14" rx="0.5" stroke="#65B3AE" />
  </g>
  <rect x="256.801" y="28" width="244.8" height="15" rx="1" fill="#202020" />
  <rect x="505.602" y="28" width="244.8" height="15" rx="1" fill="#202020" />
  <rect x="754.398" y="28" width="244.8" height="15" rx="1" fill="#202020" />
  <rect x="1003.2" y="28" width="244.8" height="15" rx="1" fill="#202020" />
  <g filter="url(#filter1_d_6277_17337)">
    <rect x="257" y="28" width="130" height="15" rx="1" fill="#65B3AE" />
    <rect x="257.5" y="28.5" width="129" height="14" rx="0.5" stroke="#65B3AE" />
  </g>
  <path d="M240.895 71.168H242.591V72.48H240.895V76H239.455V72.48H235.071V65.12H236.511V71.168H239.455V67.952H240.895V71.168ZM248.099 76.176C245.411 76.176 243.987 74.224 243.987 70.544C243.987 66.88 245.411 64.928 248.099 64.928C250.787 64.928 252.211 66.88 252.211 70.544C252.211 74.224 250.787 76.176 248.099 76.176ZM248.099 74.896C249.923 74.896 250.819 73.456 250.819 70.544C250.819 67.648 249.923 66.208 248.099 66.208C246.275 66.208 245.363 67.648 245.363 70.544C245.363 73.456 246.275 74.896 248.099 74.896Z" fill="white" />
  <path d="M13.005 76.176C10.317 76.176 8.893 74.224 8.893 70.544C8.893 66.88 10.317 64.928 13.005 64.928C15.693 64.928 17.117 66.88 17.117 70.544C17.117 74.224 15.693 76.176 13.005 76.176ZM13.005 74.896C14.829 74.896 15.725 73.456 15.725 70.544C15.725 67.648 14.829 66.208 13.005 66.208C11.181 66.208 10.269 67.648 10.269 70.544C10.269 73.456 11.181 74.896 13.005 74.896Z" fill="white" />
  <path
    d="M367.606 6.432C370.006 6.432 371.446 8.16 371.446 10.32C371.446 12.464 370.006 14.192 367.606 14.192C365.222 14.192 363.766 12.464 363.766 10.32C363.766 9.36 364.054 8.496 364.582 7.824L367.894 3.12H369.638L367.206 6.448C367.334 6.432 367.462 6.432 367.606 6.432ZM367.606 12.944C369.158 12.944 370.07 11.792 370.07 10.32C370.07 8.832 369.158 7.68 367.606 7.68C366.054 7.68 365.158 8.832 365.158 10.32C365.158 11.792 366.054 12.944 367.606 12.944ZM377.052 14.176C374.364 14.176 372.94 12.224 372.94 8.544C372.94 4.88 374.364 2.928 377.052 2.928C379.74 2.928 381.164 4.88 381.164 8.544C381.164 12.224 379.74 14.176 377.052 14.176ZM377.052 12.896C378.876 12.896 379.772 11.456 379.772 8.544C379.772 5.648 378.876 4.208 377.052 4.208C375.228 4.208 374.316 5.648 374.316 8.544C374.316 11.456 375.228 12.896 377.052 12.896Z"
    fill="white" />
  <path
    d="M487.624 76.176C485.304 76.176 483.8 74.944 483.8 73.024C483.8 71.68 484.504 70.704 485.72 70.368C484.632 70.032 483.96 69.024 483.96 67.824C483.96 66.112 485.448 64.944 487.624 64.944C489.8 64.944 491.288 66.112 491.288 67.824C491.288 69.024 490.6 70.032 489.512 70.368C490.728 70.704 491.448 71.68 491.448 73.024C491.448 74.944 489.944 76.176 487.624 76.176ZM487.624 69.776C488.968 69.776 489.8 69.056 489.8 67.968C489.8 66.832 488.952 66.128 487.624 66.128C486.296 66.128 485.448 66.832 485.448 67.968C485.448 69.056 486.344 69.776 487.624 69.776ZM487.624 74.944C489.032 74.944 489.976 74.144 489.976 72.928C489.976 71.712 489.048 70.928 487.624 70.928C486.264 70.928 485.288 71.712 485.288 72.928C485.288 74.144 486.216 74.944 487.624 74.944ZM497.13 76.176C494.442 76.176 493.018 74.224 493.018 70.544C493.018 66.88 494.442 64.928 497.13 64.928C499.818 64.928 501.242 66.88 501.242 70.544C501.242 74.224 499.818 76.176 497.13 76.176ZM497.13 74.896C498.954 74.896 499.85 73.456 499.85 70.544C499.85 67.648 498.954 66.208 497.13 66.208C495.306 66.208 494.394 67.648 494.394 70.544C494.394 73.456 495.306 74.896 497.13 74.896Z"
    fill="white" />
  <path
    d="M725.944 76H724.504V68.208H722.232V66.976C724.184 66.976 724.616 66.48 724.616 65.12H725.944V76ZM735.975 76H728.567C728.567 73.584 729.335 72.208 731.271 71.2L732.935 70.32C733.927 69.808 734.439 69.056 734.439 68.048C734.439 66.96 733.655 66.224 732.535 66.224C731.143 66.224 730.311 67.136 730.311 68.736H728.807C728.807 66.432 730.263 64.944 732.535 64.944C734.647 64.944 735.975 66.112 735.975 67.984C735.975 69.36 735.223 70.512 733.847 71.264L732.199 72.144C730.855 72.864 730.407 73.456 730.263 74.688H735.975V76ZM741.474 76.176C738.786 76.176 737.362 74.224 737.362 70.544C737.362 66.88 738.786 64.928 741.474 64.928C744.162 64.928 745.586 66.88 745.586 70.544C745.586 74.224 744.162 76.176 741.474 76.176ZM741.474 74.896C743.298 74.896 744.194 73.456 744.194 70.544C744.194 67.648 743.298 66.208 741.474 66.208C739.65 66.208 738.738 67.648 738.738 70.544C738.738 73.456 739.65 74.896 741.474 74.896Z"
    fill="white" />
  <path
    d="M974.279 76H972.839V68.208H970.567V66.976C972.519 66.976 972.951 66.48 972.951 65.12H974.279V76ZM980.582 68.432C982.982 68.432 984.422 70.16 984.422 72.32C984.422 74.464 982.982 76.192 980.582 76.192C978.198 76.192 976.742 74.464 976.742 72.32C976.742 71.36 977.03 70.496 977.558 69.824L980.87 65.12H982.614L980.182 68.448C980.31 68.432 980.438 68.432 980.582 68.432ZM980.582 74.944C982.134 74.944 983.046 73.792 983.046 72.32C983.046 70.832 982.134 69.68 980.582 69.68C979.03 69.68 978.134 70.832 978.134 72.32C978.134 73.792 979.03 74.944 980.582 74.944ZM990.028 76.176C987.34 76.176 985.916 74.224 985.916 70.544C985.916 66.88 987.34 64.928 990.028 64.928C992.716 64.928 994.14 66.88 994.14 70.544C994.14 74.224 992.716 76.176 990.028 76.176ZM990.028 74.896C991.852 74.896 992.748 73.456 992.748 70.544C992.748 67.648 991.852 66.208 990.028 66.208C988.204 66.208 987.292 67.648 987.292 70.544C987.292 73.456 988.204 74.896 990.028 74.896Z"
    fill="white" />
  <path
    d="M1225.62 76H1218.21C1218.21 73.584 1218.98 72.208 1220.92 71.2L1222.58 70.32C1223.57 69.808 1224.09 69.056 1224.09 68.048C1224.09 66.96 1223.3 66.224 1222.18 66.224C1220.79 66.224 1219.96 67.136 1219.96 68.736H1218.45C1218.45 66.432 1219.91 64.944 1222.18 64.944C1224.29 64.944 1225.62 66.112 1225.62 67.984C1225.62 69.36 1224.87 70.512 1223.49 71.264L1221.85 72.144C1220.5 72.864 1220.05 73.456 1219.91 74.688H1225.62V76ZM1231.12 76.176C1228.43 76.176 1227.01 74.224 1227.01 70.544C1227.01 66.88 1228.43 64.928 1231.12 64.928C1233.81 64.928 1235.23 66.88 1235.23 70.544C1235.23 74.224 1233.81 76.176 1231.12 76.176ZM1231.12 74.896C1232.95 74.896 1233.84 73.456 1233.84 70.544C1233.84 67.648 1232.95 66.208 1231.12 66.208C1229.3 66.208 1228.39 67.648 1228.39 70.544C1228.39 73.456 1229.3 74.896 1231.12 74.896ZM1240.87 76.176C1238.18 76.176 1236.76 74.224 1236.76 70.544C1236.76 66.88 1238.18 64.928 1240.87 64.928C1243.56 64.928 1244.98 66.88 1244.98 70.544C1244.98 74.224 1243.56 76.176 1240.87 76.176ZM1240.87 74.896C1242.7 74.896 1243.59 73.456 1243.59 70.544C1243.59 67.648 1242.7 66.208 1240.87 66.208C1239.05 66.208 1238.14 67.648 1238.14 70.544C1238.14 73.456 1239.05 74.896 1240.87 74.896Z"
    fill="white" />
  <line x1="386.609" y1="43" x2="386.609" y2="2.18557e-08" stroke="#65B3AE" />
  <defs>
    <filter id="filter0_d_6277_17337" x="0" y="20" width="260.801" height="31" filterUnits="userSpaceOnUse" color-interpolation-filters="sRGB">
      <feFlood flood-opacity="0" result="BackgroundImageFix" />
      <feColorMatrix in="SourceAlpha" type="matrix" values="0 0 0 0 0 0 0 0 0 0 0 0 0 0 0 0 0 0 127 0" result="hardAlpha" />
      <feOffset />
      <feGaussianBlur stdDeviation="4" />
      <feComposite in2="hardAlpha" operator="out" />
      <feColorMatrix type="matrix" values="0 0 0 0 0.396078 0 0 0 0 0.701961 0 0 0 0 0.682353 0 0 0 1 0" />
      <feBlend mode="normal" in2="BackgroundImageFix" result="effect1_dropShadow_6277_17337" />
      <feBlend mode="normal" in="SourceGraphic" in2="effect1_dropShadow_6277_17337" result="shape" />
    </filter>
    <filter id="filter1_d_6277_17337" x="249" y="20" width="146" height="31" filterUnits="userSpaceOnUse" color-interpolation-filters="sRGB">
      <feFlood flood-opacity="0" result="BackgroundImageFix" />
      <feColorMatrix in="SourceAlpha" type="matrix" values="0 0 0 0 0 0 0 0 0 0 0 0 0 0 0 0 0 0 127 0" result="hardAlpha" />
      <feOffset />
      <feGaussianBlur stdDeviation="4" />
      <feComposite in2="hardAlpha" operator="out" />
      <feColorMatrix type="matrix" values="0 0 0 0 0.396078 0 0 0 0 0.701961 0 0 0 0 0.682353 0 0 0 1 0" />
      <feBlend mode="normal" in2="BackgroundImageFix" result="effect1_dropShadow_6277_17337" />
      <feBlend mode="normal" in="SourceGraphic" in2="effect1_dropShadow_6277_17337" result="shape" />
    </filter>
  </defs>
</svg>