<svg width="358" height="36" viewBox="0 0 358 36" fill="none" xmlns="http://www.w3.org/2000/svg">
  <g filter="url(#filter0_d_5321_25175)">
    <rect x="8" y="13" width="68.4" height="7" rx="1" fill="#65B3AE" />
  </g>
  <rect x="78.3984" y="13" width="68.4" height="7" rx="1" fill="#202020" />
  <rect x="148.801" y="13" width="68.4" height="7" rx="1" fill="#202020" />
  <rect x="219.199" y="13" width="68.4" height="7" rx="1" fill="#202020" />
  <rect x="289.602" y="13" width="68.4" height="7" rx="1" fill="#202020" />
  <g filter="url(#filter1_d_5321_25175)">
    <rect x="78" y="13" width="36" height="7" rx="1" fill="#65B3AE" />
  </g>
  <path
    d="M62.3058 33.2871H61.1658V28.6071H59.7258V27.6471C60.9958 27.6471 61.2658 27.3271 61.2658 26.4871H62.3058V33.2871ZM66.4202 33.4071C64.7102 33.4071 63.8102 32.1871 63.8102 29.8871C63.8102 27.5871 64.7102 26.3671 66.4202 26.3671C68.1302 26.3671 69.0302 27.5871 69.0302 29.8871C69.0302 32.1871 68.1302 33.4071 66.4202 33.4071ZM66.4202 32.4071C67.4402 32.4071 67.9402 31.5771 67.9402 29.8871C67.9402 28.1971 67.4402 27.3671 66.4202 27.3671C65.4002 27.3671 64.9002 28.1971 64.9002 29.8871C64.9002 31.5771 65.4002 32.4071 66.4202 32.4071ZM72.5433 33.4071C70.8333 33.4071 69.9333 32.1871 69.9333 29.8871C69.9333 27.5871 70.8333 26.3671 72.5433 26.3671C74.2533 26.3671 75.1533 27.5871 75.1533 29.8871C75.1533 32.1871 74.2533 33.4071 72.5433 33.4071ZM72.5433 32.4071C73.5633 32.4071 74.0633 31.5771 74.0633 29.8871C74.0633 28.1971 73.5633 27.3671 72.5433 27.3671C71.5233 27.3671 71.0233 28.1971 71.0233 29.8871C71.0233 31.5771 71.5233 32.4071 72.5433 32.4071Z"
    fill="white" />
  <path d="M11.4985 33.4071C9.78848 33.4071 8.88848 32.1871 8.88848 29.8871C8.88848 27.5871 9.78848 26.3671 11.4985 26.3671C13.2085 26.3671 14.1085 27.5871 14.1085 29.8871C14.1085 32.1871 13.2085 33.4071 11.4985 33.4071ZM11.4985 32.4071C12.5185 32.4071 13.0185 31.5771 13.0185 29.8871C13.0185 28.1971 12.5185 27.3671 11.4985 27.3671C10.4785 27.3671 9.97848 28.1971 9.97848 29.8871C9.97848 31.5771 10.4785 32.4071 11.4985 32.4071Z" fill="white" />
  <path
    d="M97.9757 9H96.8357V4.32H95.3957V3.36C96.6657 3.36 96.9357 3.04 96.9357 2.2H97.9757V9ZM101.97 9.12C100.7 9.12 99.7101 8.32 99.6301 7.18H100.79C100.83 7.78 101.36 8.1 101.99 8.1C102.83 8.1 103.32 7.54 103.32 6.7C103.32 5.86 102.86 5.31 102.12 5.31C101.47 5.31 101.05 5.53 100.8 6.1H99.7501V2.2H104.02V3.22H100.79V4.98C101.17 4.54 101.72 4.38 102.28 4.38C103.59 4.38 104.42 5.3 104.42 6.66C104.42 8.02 103.48 9.12 101.97 9.12ZM107.93 9.12C106.22 9.12 105.32 7.9 105.32 5.6C105.32 3.3 106.22 2.08 107.93 2.08C109.64 2.08 110.54 3.3 110.54 5.6C110.54 7.9 109.64 9.12 107.93 9.12ZM107.93 8.12C108.95 8.12 109.45 7.29 109.45 5.6C109.45 3.91 108.95 3.08 107.93 3.08C106.91 3.08 106.41 3.91 106.41 5.6C106.41 7.29 106.91 8.12 107.93 8.12Z"
    fill="white" />
  <path
    d="M133.739 33.2871H129.009C129.009 31.7871 129.509 30.8671 130.689 30.2171L131.689 29.6671C132.249 29.3571 132.539 28.9271 132.539 28.3771C132.539 27.7771 132.129 27.3671 131.539 27.3671C130.779 27.3671 130.349 27.8771 130.349 28.7971H129.159C129.159 27.3171 130.089 26.3671 131.539 26.3671C132.909 26.3671 133.759 27.1171 133.759 28.3171C133.759 29.1471 133.269 29.9171 132.429 30.3971L131.449 30.9571C130.699 31.3871 130.489 31.6371 130.369 32.2571H133.739V33.2871ZM137.174 33.4071C135.464 33.4071 134.564 32.1871 134.564 29.8871C134.564 27.5871 135.464 26.3671 137.174 26.3671C138.884 26.3671 139.784 27.5871 139.784 29.8871C139.784 32.1871 138.884 33.4071 137.174 33.4071ZM137.174 32.4071C138.194 32.4071 138.694 31.5771 138.694 29.8871C138.694 28.1971 138.194 27.3671 137.174 27.3671C136.154 27.3671 135.654 28.1971 135.654 29.8871C135.654 31.5771 136.154 32.4071 137.174 32.4071ZM143.297 33.4071C141.587 33.4071 140.687 32.1871 140.687 29.8871C140.687 27.5871 141.587 26.3671 143.297 26.3671C145.007 26.3671 145.907 27.5871 145.907 29.8871C145.907 32.1871 145.007 33.4071 143.297 33.4071ZM143.297 32.4071C144.317 32.4071 144.817 31.5771 144.817 29.8871C144.817 28.1971 144.317 27.3671 143.297 27.3671C142.277 27.3671 141.777 28.1971 141.777 29.8871C141.777 31.5771 142.277 32.4071 143.297 32.4071Z"
    fill="white" />
  <path
    d="M201.32 33.4071C199.73 33.4071 198.8 32.5271 198.8 31.0171H199.97C199.97 31.9271 200.46 32.4371 201.32 32.4371C202.03 32.4371 202.51 31.9971 202.51 31.3471C202.51 30.6071 202.08 30.2271 201.23 30.2271H200.75V29.2371H201.24C201.97 29.2371 202.33 28.9071 202.33 28.2371C202.33 27.6971 201.9 27.3171 201.28 27.3171C200.55 27.3171 200.1 27.7571 200.1 28.4971H198.97C198.97 27.1971 199.87 26.3671 201.28 26.3671C202.61 26.3671 203.5 27.1171 203.5 28.2371C203.5 28.9571 203.1 29.4671 202.35 29.7071C203.15 29.8471 203.67 30.4871 203.67 31.3371C203.67 32.5571 202.7 33.4071 201.32 33.4071ZM207.233 33.4071C205.523 33.4071 204.623 32.1871 204.623 29.8871C204.623 27.5871 205.523 26.3671 207.233 26.3671C208.943 26.3671 209.843 27.5871 209.843 29.8871C209.843 32.1871 208.943 33.4071 207.233 33.4071ZM207.233 32.4071C208.253 32.4071 208.753 31.5771 208.753 29.8871C208.753 28.1971 208.253 27.3671 207.233 27.3671C206.213 27.3671 205.713 28.1971 205.713 29.8871C205.713 31.5771 206.213 32.4071 207.233 32.4071ZM213.356 33.4071C211.646 33.4071 210.746 32.1871 210.746 29.8871C210.746 27.5871 211.646 26.3671 213.356 26.3671C215.066 26.3671 215.966 27.5871 215.966 29.8871C215.966 32.1871 215.066 33.4071 213.356 33.4071ZM213.356 32.4071C214.376 32.4071 214.876 31.5771 214.876 29.8871C214.876 28.1971 214.376 27.3671 213.356 27.3671C212.336 27.3671 211.836 28.1971 211.836 29.8871C211.836 31.5771 212.336 32.4071 213.356 32.4071Z"
    fill="white" />
  <path
    d="M273.313 30.1571H274.283V31.1871H273.313V33.2871H272.173V31.1871H269.483V26.4871H270.623V30.1571H272.173V28.2571H273.313V30.1571ZM277.744 33.4071C276.034 33.4071 275.134 32.1871 275.134 29.8871C275.134 27.5871 276.034 26.3671 277.744 26.3671C279.454 26.3671 280.354 27.5871 280.354 29.8871C280.354 32.1871 279.454 33.4071 277.744 33.4071ZM277.744 32.4071C278.764 32.4071 279.264 31.5771 279.264 29.8871C279.264 28.1971 278.764 27.3671 277.744 27.3671C276.724 27.3671 276.224 28.1971 276.224 29.8871C276.224 31.5771 276.724 32.4071 277.744 32.4071ZM283.867 33.4071C282.157 33.4071 281.257 32.1871 281.257 29.8871C281.257 27.5871 282.157 26.3671 283.867 26.3671C285.577 26.3671 286.477 27.5871 286.477 29.8871C286.477 32.1871 285.577 33.4071 283.867 33.4071ZM283.867 32.4071C284.887 32.4071 285.387 31.5771 285.387 29.8871C285.387 28.1971 284.887 27.3671 283.867 27.3671C282.847 27.3671 282.347 28.1971 282.347 29.8871C282.347 31.5771 282.847 32.4071 283.867 32.4071Z"
    fill="white" />
  <path
    d="M341.991 33.4071C340.721 33.4071 339.731 32.6071 339.651 31.4671H340.811C340.851 32.0671 341.381 32.3871 342.011 32.3871C342.851 32.3871 343.341 31.8271 343.341 30.9871C343.341 30.1471 342.881 29.5971 342.141 29.5971C341.491 29.5971 341.071 29.8171 340.821 30.3871H339.771V26.4871H344.041V27.5071H340.811V29.2671C341.191 28.8271 341.741 28.6671 342.301 28.6671C343.611 28.6671 344.441 29.5871 344.441 30.9471C344.441 32.3071 343.501 33.4071 341.991 33.4071ZM347.951 33.4071C346.241 33.4071 345.341 32.1871 345.341 29.8871C345.341 27.5871 346.241 26.3671 347.951 26.3671C349.661 26.3671 350.561 27.5871 350.561 29.8871C350.561 32.1871 349.661 33.4071 347.951 33.4071ZM347.951 32.4071C348.971 32.4071 349.471 31.5771 349.471 29.8871C349.471 28.1971 348.971 27.3671 347.951 27.3671C346.931 27.3671 346.431 28.1971 346.431 29.8871C346.431 31.5771 346.931 32.4071 347.951 32.4071ZM354.074 33.4071C352.364 33.4071 351.464 32.1871 351.464 29.8871C351.464 27.5871 352.364 26.3671 354.074 26.3671C355.784 26.3671 356.684 27.5871 356.684 29.8871C356.684 32.1871 355.784 33.4071 354.074 33.4071ZM354.074 32.4071C355.094 32.4071 355.594 31.5771 355.594 29.8871C355.594 28.1971 355.094 27.3671 354.074 27.3671C353.054 27.3671 352.554 28.1971 352.554 29.8871C352.554 31.5771 353.054 32.4071 354.074 32.4071Z"
    fill="white" />
  <line x1="113.5" y1="20" x2="113.5" y2="2" stroke="#65B3AE" />
  <defs>
    <filter id="filter0_d_5321_25175" x="0" y="5" width="84.3984" height="23" filterUnits="userSpaceOnUse" color-interpolation-filters="sRGB">
      <feFlood flood-opacity="0" result="BackgroundImageFix" />
      <feColorMatrix in="SourceAlpha" type="matrix" values="0 0 0 0 0 0 0 0 0 0 0 0 0 0 0 0 0 0 127 0" result="hardAlpha" />
      <feOffset />
      <feGaussianBlur stdDeviation="4" />
      <feComposite in2="hardAlpha" operator="out" />
      <feColorMatrix type="matrix" values="0 0 0 0 0.396078 0 0 0 0 0.701961 0 0 0 0 0.682353 0 0 0 1 0" />
      <feBlend mode="normal" in2="BackgroundImageFix" result="effect1_dropShadow_5321_25175" />
      <feBlend mode="normal" in="SourceGraphic" in2="effect1_dropShadow_5321_25175" result="shape" />
    </filter>
    <filter id="filter1_d_5321_25175" x="70" y="5" width="52" height="23" filterUnits="userSpaceOnUse" color-interpolation-filters="sRGB">
      <feFlood flood-opacity="0" result="BackgroundImageFix" />
      <feColorMatrix in="SourceAlpha" type="matrix" values="0 0 0 0 0 0 0 0 0 0 0 0 0 0 0 0 0 0 127 0" result="hardAlpha" />
      <feOffset />
      <feGaussianBlur stdDeviation="4" />
      <feComposite in2="hardAlpha" operator="out" />
      <feColorMatrix type="matrix" values="0 0 0 0 0.396078 0 0 0 0 0.701961 0 0 0 0 0.682353 0 0 0 1 0" />
      <feBlend mode="normal" in2="BackgroundImageFix" result="effect1_dropShadow_5321_25175" />
      <feBlend mode="normal" in="SourceGraphic" in2="effect1_dropShadow_5321_25175" result="shape" />
    </filter>
  </defs>
</svg>