<svg width="1026" height="398" viewBox="0 0 1026 398" fill="none" xmlns="http://www.w3.org/2000/svg">
  <path d="M687.236 189.559V281.087C687.236 284.089 684.806 286.519 681.803 286.519H512.238C509.236 286.519 506.799 284.089 506.799 281.087V189.559H687.236Z" fill="#EDEDED" stroke="black" stroke-width="0.7" stroke-miterlimit="10" />
  <path d="M687.236 177.016V189.558H506.799V177.016C506.799 174.014 509.236 171.583 512.238 171.583H681.803C684.806 171.583 687.236 174.014 687.236 177.016Z" fill="url(#paint0_linear_6715_2833)" stroke="black" stroke-width="0.7" stroke-miterlimit="10" />
  <g style="mix-blend-mode:multiply">
    <path d="M687.236 177.016V189.558H506.799V177.016C506.799 174.014 509.236 171.583 512.238 171.583H681.803C684.806 171.583 687.236 174.014 687.236 177.016Z" fill="url(#paint1_linear_6715_2833)" style="mix-blend-mode:multiply" />
    <path d="M687.236 177.016V189.558H506.799V177.016C506.799 174.014 509.236 171.583 512.238 171.583H681.803C684.806 171.583 687.236 174.014 687.236 177.016Z" stroke="black" stroke-width="0.7" stroke-miterlimit="10" />
  </g>
  <path d="M679.699 182.021V273.55C679.699 276.552 677.269 278.982 674.267 278.982H504.701C501.699 278.982 499.262 276.552 499.262 273.55V182.021H679.699Z" fill="white" stroke="black" stroke-width="0.7" stroke-miterlimit="10" />
  <path d="M679.699 169.479V182.021H499.262V169.479C499.262 166.477 501.699 164.046 504.701 164.046H674.267C677.269 164.046 679.699 166.477 679.699 169.479Z" fill="url(#paint2_linear_6715_2833)" stroke="black" stroke-width="0.7" stroke-miterlimit="10" />
  <g style="mix-blend-mode:multiply" opacity="0.5">
    <path d="M679.699 169.479V182.021H499.262V169.479C499.262 166.477 501.699 164.046 504.701 164.046H674.267C677.269 164.046 679.699 166.477 679.699 169.479Z" fill="url(#paint3_linear_6715_2833)" style="mix-blend-mode:multiply" />
    <path d="M679.699 169.479V182.021H499.262V169.479C499.262 166.477 501.699 164.046 504.701 164.046H674.267C677.269 164.046 679.699 166.477 679.699 169.479Z" stroke="black" stroke-width="0.7" stroke-miterlimit="10" />
  </g>
  <path opacity="0.5" d="M679.699 182.021V273.55C679.699 276.552 677.269 278.982 674.267 278.982H504.701C501.699 278.982 499.262 276.552 499.262 273.55V182.021H679.699Z" fill="#EDEDED" stroke="black" stroke-width="0.7" stroke-miterlimit="10" />
  <path d="M1025.64 154.236V245.764C1025.64 248.767 1023.21 251.197 1020.21 251.197H850.64C847.638 251.197 845.201 248.767 845.201 245.764V154.236H1025.64Z" fill="#EDEDED" stroke="black" stroke-width="0.7" stroke-miterlimit="10" />
  <path d="M1025.64 141.694V154.236H845.201V141.694C845.201 138.691 847.638 136.261 850.64 136.261H1020.21C1023.21 136.261 1025.64 138.691 1025.64 141.694Z" fill="white" stroke="black" stroke-width="0.7" stroke-miterlimit="10" />
  <g style="mix-blend-mode:multiply">
    <path d="M1025.64 154.236V245.764C1025.64 248.767 1023.21 251.197 1020.21 251.197H850.64C847.638 251.197 845.201 248.767 845.201 245.764V154.236H1025.64Z" fill="url(#paint4_linear_6715_2833)" style="mix-blend-mode:multiply" />
    <path d="M1025.64 154.236V245.764C1025.64 248.767 1023.21 251.197 1020.21 251.197H850.64C847.638 251.197 845.201 248.767 845.201 245.764V154.236H1025.64Z" stroke="black" stroke-width="0.7" stroke-miterlimit="10" />
  </g>
  <path d="M1018.1 146.699V238.227C1018.1 241.229 1015.67 243.66 1012.67 243.66H843.103C840.101 243.66 837.664 241.229 837.664 238.227V146.699H1018.1Z" fill="#EDEDED" stroke="black" stroke-width="0.7" stroke-miterlimit="10" />
  <g style="mix-blend-mode:multiply" opacity="0.35">
    <path d="M1018.1 146.699V238.227C1018.1 241.229 1015.67 243.66 1012.67 243.66H843.103C840.101 243.66 837.664 241.229 837.664 238.227V146.699H1018.1Z" fill="url(#paint5_linear_6715_2833)" style="mix-blend-mode:multiply" />
    <path d="M1018.1 146.699V238.227C1018.1 241.229 1015.67 243.66 1012.67 243.66H843.103C840.101 243.66 837.664 241.229 837.664 238.227V146.699H1018.1Z" stroke="black" stroke-width="0.7" stroke-miterlimit="10" />
  </g>
  <path d="M1018.1 134.156V146.699H837.664V134.156C837.664 131.154 840.101 128.724 843.103 128.724H1012.67C1015.67 128.724 1018.1 131.154 1018.1 134.156Z" fill="url(#paint6_linear_6715_2833)" stroke="black" stroke-width="0.7" stroke-miterlimit="10" />
  <g style="mix-blend-mode:multiply" opacity="0.5">
    <path d="M1018.1 134.156V146.699H837.664V134.156C837.664 131.154 840.101 128.724 843.103 128.724H1012.67C1015.67 128.724 1018.1 131.154 1018.1 134.156Z" fill="url(#paint7_linear_6715_2833)" style="mix-blend-mode:multiply" />
    <path d="M1018.1 134.156V146.699H837.664V134.156C837.664 131.154 840.101 128.724 843.103 128.724H1012.67C1015.67 128.724 1018.1 131.154 1018.1 134.156Z" stroke="black" stroke-width="0.7" stroke-miterlimit="10" />
  </g>
  <path d="M1010.56 139.162V230.69C1010.56 233.692 1008.13 236.123 1005.13 236.123H835.566C832.564 236.123 830.127 233.692 830.127 230.69V139.162H1010.56Z" fill="white" stroke="black" stroke-width="0.7" stroke-miterlimit="10" />
  <path d="M1010.56 126.62V139.163H830.127V126.62C830.127 123.618 832.564 121.188 835.566 121.188H1005.13C1008.13 121.188 1010.56 123.618 1010.56 126.62Z" fill="url(#paint8_linear_6715_2833)" stroke="black" stroke-width="0.7" stroke-miterlimit="10" />
  <path d="M704.236 294.179C823.105 237.277 898.822 148.019 873.354 94.8149C847.886 41.611 730.877 44.6087 612.007 101.51C493.138 158.412 417.421 247.67 442.889 300.874C468.358 354.078 585.366 351.08 704.236 294.179Z" stroke="black" stroke-width="0.7" stroke-miterlimit="10" />
  <path d="M672.163 174.484V266.012C672.163 269.015 669.732 271.445 666.73 271.445H497.165C494.162 271.445 491.725 269.015 491.725 266.012V174.484H672.163Z" fill="white" stroke="black" stroke-width="0.7" stroke-miterlimit="10" />
  <path d="M672.163 161.943V174.485H491.725V161.943C491.725 158.94 494.162 156.51 497.165 156.51H666.73C669.732 156.51 672.163 158.94 672.163 161.943Z" fill="url(#paint9_linear_6715_2833)" stroke="black" stroke-width="0.7" stroke-miterlimit="10" />
  <path d="M942.903 179.063H845.201V187.228H942.903V179.063Z" fill="url(#paint10_linear_6715_2833)" stroke="black" stroke-width="0.7" stroke-miterlimit="10" />
  <path d="M942.903 207.194H845.201V215.359H942.903V207.194Z" fill="white" stroke="black" stroke-width="0.7" stroke-miterlimit="10" />
  <path d="M942.903 193.126H845.201V201.291H942.903V193.126Z" fill="white" stroke="black" stroke-width="0.7" stroke-miterlimit="10" />
  <path d="M890.146 92.8555V184.384C890.146 187.386 887.715 189.816 884.713 189.816H715.148C712.145 189.816 709.708 187.386 709.708 184.384V92.8555H890.146Z" fill="#EDEDED" stroke="black" stroke-width="0.7" stroke-miterlimit="10" />
  <path d="M890.146 80.3127V92.8551H709.708V80.3127C709.708 77.3105 712.145 74.8799 715.148 74.8799H884.713C887.715 74.8799 890.146 77.3105 890.146 80.3127Z" fill="url(#paint11_linear_6715_2833)" stroke="black" stroke-width="0.7" stroke-miterlimit="10" />
  <g style="mix-blend-mode:multiply">
    <path d="M890.146 80.3127V92.8551H709.708V80.3127C709.708 77.3105 712.145 74.8799 715.148 74.8799H884.713C887.715 74.8799 890.146 77.3105 890.146 80.3127Z" fill="url(#paint12_linear_6715_2833)" style="mix-blend-mode:multiply" />
    <path d="M890.146 80.3127V92.8551H709.708V80.3127C709.708 77.3105 712.145 74.8799 715.148 74.8799H884.713C887.715 74.8799 890.146 77.3105 890.146 80.3127Z" stroke="black" stroke-width="0.7" stroke-miterlimit="10" />
  </g>
  <path d="M882.609 85.3184V176.846C882.609 179.849 880.178 182.279 877.176 182.279H707.611C704.609 182.279 702.172 179.849 702.172 176.846V85.3184H882.609Z" fill="white" stroke="black" stroke-width="0.7" stroke-miterlimit="10" />
  <path d="M882.609 72.7755V85.318H702.172V72.7755C702.172 69.7734 704.609 67.3428 707.611 67.3428H877.176C880.178 67.3428 882.609 69.7734 882.609 72.7755Z" fill="url(#paint13_linear_6715_2833)" stroke="black" stroke-width="0.7" stroke-miterlimit="10" />
  <g style="mix-blend-mode:multiply" opacity="0.5">
    <path d="M882.609 72.7755V85.318H702.172V72.7755C702.172 69.7734 704.609 67.3428 707.611 67.3428H877.176C880.178 67.3428 882.609 69.7734 882.609 72.7755Z" fill="url(#paint14_linear_6715_2833)" style="mix-blend-mode:multiply" />
    <path d="M882.609 72.7755V85.318H702.172V72.7755C702.172 69.7734 704.609 67.3428 707.611 67.3428H877.176C880.178 67.3428 882.609 69.7734 882.609 72.7755Z" stroke="black" stroke-width="0.7" stroke-miterlimit="10" />
  </g>
  <path opacity="0.5" d="M882.609 85.3184V176.846C882.609 179.849 880.178 182.279 877.176 182.279H707.611C704.609 182.279 702.172 179.849 702.172 176.846V85.3184H882.609Z" fill="#EDEDED" stroke="black" stroke-width="0.7" stroke-miterlimit="10" />
  <path d="M875.072 77.7812V169.309C875.072 172.311 872.642 174.742 869.639 174.742H700.074C697.072 174.742 694.635 172.311 694.635 169.309V77.7812H875.072Z" fill="white" stroke="black" stroke-width="0.7" stroke-miterlimit="10" />
  <path d="M875.072 65.2394V77.7819H694.635V65.2394C694.635 62.2373 697.072 59.8066 700.074 59.8066H869.639C872.642 59.8066 875.072 62.2373 875.072 65.2394Z" fill="url(#paint15_linear_6715_2833)" stroke="black" stroke-width="0.7" stroke-miterlimit="10" />
  <path d="M766.36 236.996V328.524C766.36 331.526 763.93 333.957 760.927 333.957H591.362C588.36 333.957 585.923 331.526 585.923 328.524V236.996H766.36Z" fill="#EDEDED" stroke="black" stroke-width="0.7" stroke-miterlimit="10" />
  <path d="M766.36 224.454V236.997H585.923V224.454C585.923 221.452 588.36 219.021 591.362 219.021H760.927C763.93 219.021 766.36 221.452 766.36 224.454Z" fill="url(#paint16_linear_6715_2833)" stroke="black" stroke-width="0.7" stroke-miterlimit="10" />
  <g style="mix-blend-mode:multiply">
    <path d="M766.36 224.454V236.997H585.923V224.454C585.923 221.452 588.36 219.021 591.362 219.021H760.927C763.93 219.021 766.36 221.452 766.36 224.454Z" fill="url(#paint17_linear_6715_2833)" style="mix-blend-mode:multiply" />
    <path d="M766.36 224.454V236.997H585.923V224.454C585.923 221.452 588.36 219.021 591.362 219.021H760.927C763.93 219.021 766.36 221.452 766.36 224.454Z" stroke="black" stroke-width="0.7" stroke-miterlimit="10" />
  </g>
  <path d="M758.823 229.46V320.988C758.823 323.99 756.393 326.421 753.391 326.421H583.825C580.823 326.421 578.386 323.99 578.386 320.988V229.46H758.823Z" fill="white" stroke="black" stroke-width="0.7" stroke-miterlimit="10" />
  <path d="M758.823 216.917V229.46H578.386V216.917C578.386 213.915 580.823 211.484 583.825 211.484H753.391C756.393 211.484 758.823 213.915 758.823 216.917Z" fill="url(#paint18_linear_6715_2833)" stroke="black" stroke-width="0.7" stroke-miterlimit="10" />
  <g style="mix-blend-mode:multiply" opacity="0.5">
    <path d="M758.823 216.917V229.46H578.386V216.917C578.386 213.915 580.823 211.484 583.825 211.484H753.391C756.393 211.484 758.823 213.915 758.823 216.917Z" fill="url(#paint19_linear_6715_2833)" style="mix-blend-mode:multiply" />
    <path d="M758.823 216.917V229.46H578.386V216.917C578.386 213.915 580.823 211.484 583.825 211.484H753.391C756.393 211.484 758.823 213.915 758.823 216.917Z" stroke="black" stroke-width="0.7" stroke-miterlimit="10" />
  </g>
  <path opacity="0.5" d="M758.823 229.46V320.988C758.823 323.99 756.393 326.421 753.391 326.421H583.825C580.823 326.421 578.386 323.99 578.386 320.988V229.46H758.823Z" fill="#EDEDED" stroke="black" stroke-width="0.7" stroke-miterlimit="10" />
  <path d="M552.07 226.018H506.849V234.182H552.07V226.018Z" fill="url(#paint20_linear_6715_2833)" stroke="black" stroke-width="0.7" stroke-miterlimit="10" />
  <path d="M604.501 240.018H506.799V248.182H604.501V240.018Z" fill="#EDEDED" stroke="black" stroke-width="0.7" stroke-miterlimit="10" />
  <path d="M715.348 125.534C743.291 119.027 766.869 122.073 771.46 137.41C777.546 163.525 742.864 195.751 687.236 215.09" stroke="black" stroke-width="0.7" stroke-miterlimit="10" stroke-dasharray="6 6" />
  <path d="M751.287 221.923V313.451C751.287 316.453 748.856 318.884 745.854 318.884H576.289C573.286 318.884 570.849 316.453 570.849 313.451V221.923H751.287Z" fill="white" stroke="black" stroke-width="0.7" stroke-miterlimit="10" />
  <path d="M751.287 209.38V221.923H570.849V209.38C570.849 206.378 573.286 203.947 576.289 203.947H745.854C748.856 203.947 751.287 206.378 751.287 209.38Z" fill="url(#paint21_linear_6715_2833)" stroke="black" stroke-width="0.7" stroke-miterlimit="10" />
  <path d="M663.477 120.283C747.342 88.2449 822.013 88.1444 838.669 122.927C857.656 162.577 794.045 232.549 696.594 279.202C599.144 325.861 504.752 331.539 485.772 291.883C480.722 281.331 481.513 268.638 487.241 254.808" stroke="black" stroke-width="0.7" stroke-miterlimit="10" />
  <path d="M699.402 284.113C702.812 284.113 705.576 281.349 705.576 277.94C705.576 274.53 702.812 271.766 699.402 271.766C695.992 271.766 693.228 274.53 693.228 277.94C693.228 281.349 695.992 284.113 699.402 284.113Z" fill="#EDEDED" stroke="black" stroke-width="0.7" stroke-miterlimit="10" />
  <path d="M699.402 280.841C701.004 280.841 702.303 279.542 702.303 277.94C702.303 276.337 701.004 275.038 699.402 275.038C697.799 275.038 696.5 276.337 696.5 277.94C696.5 279.542 697.799 280.841 699.402 280.841Z" fill="#FFE866" stroke="black" stroke-width="0.7" stroke-miterlimit="10" />
  <path d="M487.517 256.428C489.12 256.428 490.419 255.129 490.419 253.527C490.419 251.924 489.12 250.625 487.517 250.625C485.915 250.625 484.615 251.924 484.615 253.527C484.615 255.129 485.915 256.428 487.517 256.428Z" fill="#FFE866" stroke="black" stroke-width="0.7" stroke-miterlimit="10" />
  <path d="M838.16 122.443C838.854 122.443 839.416 121.881 839.416 121.187C839.416 120.493 838.854 119.931 838.16 119.931C837.467 119.931 836.904 120.493 836.904 121.187C836.904 121.881 837.467 122.443 838.16 122.443Z" fill="#FFE866" stroke="black" stroke-width="0.7" stroke-miterlimit="10" />
  <path d="M841.678 132.687C842.372 132.687 842.934 132.125 842.934 131.431C842.934 130.737 842.372 130.175 841.678 130.175C840.984 130.175 840.422 130.737 840.422 131.431C840.422 132.125 840.984 132.687 841.678 132.687Z" fill="white" stroke="black" stroke-width="0.7" stroke-miterlimit="10" />
  <path d="M841.835 143.389C842.529 143.389 843.091 142.827 843.091 142.133C843.091 141.439 842.529 140.877 841.835 140.877C841.141 140.877 840.579 141.439 840.579 142.133C840.579 142.827 841.141 143.389 841.835 143.389Z" fill="#FFE866" stroke="black" stroke-width="0.7" stroke-miterlimit="10" />
  <path d="M834.819 165.705C835.308 165.705 835.705 165.308 835.705 164.819C835.705 164.33 835.308 163.934 834.819 163.934C834.33 163.934 833.934 164.33 833.934 164.819C833.934 165.308 834.33 165.705 834.819 165.705Z" fill="#FFE866" stroke="black" stroke-width="0.7" stroke-miterlimit="10" />
  <path d="M715.776 270.397C716.265 270.397 716.661 270.001 716.661 269.512C716.661 269.022 716.265 268.626 715.776 268.626C715.287 268.626 714.89 269.022 714.89 269.512C714.89 270.001 715.287 270.397 715.776 270.397Z" fill="black" stroke="black" stroke-width="0.7" stroke-miterlimit="10" />
  <path d="M528.499 200.97C544.031 186.65 562.992 172.418 584.591 159.128C598.044 150.851 612.528 142.943 627.846 135.607C637.412 131.029 646.946 126.846 656.379 123.059" stroke="black" stroke-width="0.7" stroke-miterlimit="10" stroke-dasharray="6 6" />
  <path d="M659.966 121.64C661.14 121.181 662.308 120.729 663.476 120.283" stroke="black" stroke-width="0.7" stroke-miterlimit="10" />
  <path d="M528.763 202.641C529.765 202.641 530.578 201.828 530.578 200.826C530.578 199.823 529.765 199.011 528.763 199.011C527.76 199.011 526.948 199.823 526.948 200.826C526.948 201.828 527.76 202.641 528.763 202.641Z" fill="#FFE866" stroke="black" stroke-width="0.7" stroke-miterlimit="10" />
  <path d="M663.57 122.192C664.573 122.192 665.386 121.379 665.386 120.377C665.386 119.374 664.573 118.562 663.57 118.562C662.568 118.562 661.755 119.374 661.755 120.377C661.755 121.379 662.568 122.192 663.57 122.192Z" fill="#FFE866" stroke="black" stroke-width="0.7" stroke-miterlimit="10" />
  <path d="M797.38 214.882C799.257 214.882 800.778 213.36 800.778 211.484C800.778 209.607 799.257 208.086 797.38 208.086C795.503 208.086 793.982 209.607 793.982 211.484C793.982 213.36 795.503 214.882 797.38 214.882Z" fill="#FFE866" stroke="black" stroke-width="0.7" stroke-miterlimit="10" />
  <path d="M647.536 235.438H585.986V243.603H647.536V235.438Z" fill="url(#paint22_linear_6715_2833)" stroke="black" stroke-width="0.7" stroke-miterlimit="10" />
  <path d="M683.625 263.388H585.923V271.553H683.625V263.388Z" fill="#EDEDED" stroke="black" stroke-width="0.7" stroke-miterlimit="10" />
  <path d="M683.625 249.318H585.923V257.483H683.625V249.318Z" fill="#EDEDED" stroke="black" stroke-width="0.7" stroke-miterlimit="10" />
  <path d="M542.712 145.719L538.253 139.646C548.415 132.178 559.255 124.899 570.46 118.009C579.567 112.407 589.076 106.974 598.717 101.849C605.343 98.3254 612.17 94.8836 619.003 91.6113L622.257 98.407C615.511 101.635 608.785 105.033 602.246 108.506C592.744 113.556 583.373 118.913 574.398 124.434C563.363 131.217 552.698 138.383 542.706 145.726L542.712 145.719Z" fill="url(#paint23_linear_6715_2833)" stroke="black" stroke-width="0.7" stroke-miterlimit="10" />
  <path d="M586.739 48.7146C745.64 -27.3631 904.239 -26.8355 940.975 49.8954C977.71 126.626 878.677 250.5 719.776 326.577C560.875 402.655 402.276 402.127 365.541 325.397" stroke="black" stroke-width="0.7" stroke-miterlimit="10" />
  <path d="M816.228 274.303L811.851 268.173C814.3 266.421 816.756 264.644 819.143 262.879L823.621 268.94C821.203 270.73 818.716 272.532 816.228 274.31V274.303Z" fill="white" stroke="black" stroke-width="0.7" stroke-miterlimit="10" />
  <path d="M778.035 298.678L774.782 293.308C785.786 286.638 796.576 279.623 806.851 272.463L810.444 277.613C800.055 284.855 789.152 291.939 778.035 298.678Z" fill="url(#paint24_linear_6715_2833)" stroke="black" stroke-width="0.7" stroke-miterlimit="10" />
  <path d="M828.275 265.454L823.734 259.437C825.788 257.886 827.841 256.309 829.845 254.758L834.474 260.706C832.445 262.282 830.36 263.884 828.281 265.454H828.275Z" fill="white" stroke="black" stroke-width="0.7" stroke-miterlimit="10" />
  <path d="M739.554 217.991C742.295 217.991 744.516 215.769 744.516 213.029C744.516 210.289 742.295 208.067 739.554 208.067C736.814 208.067 734.593 210.289 734.593 213.029C734.593 215.769 736.814 217.991 739.554 217.991Z" fill="white" stroke="black" stroke-width="0.7" stroke-miterlimit="10" />
  <path d="M709.526 217.991C712.266 217.991 714.488 215.769 714.488 213.029C714.488 210.289 712.266 208.067 709.526 208.067C706.786 208.067 704.564 210.289 704.564 213.029C704.564 215.769 706.786 217.991 709.526 217.991Z" fill="white" stroke="black" stroke-width="0.7" stroke-miterlimit="10" />
  <path d="M724.543 217.991C727.284 217.991 729.505 215.769 729.505 213.029C729.505 210.289 727.284 208.067 724.543 208.067C721.803 208.067 719.582 210.289 719.582 213.029C719.582 215.769 721.803 217.991 724.543 217.991Z" fill="#EDEDED" stroke="black" stroke-width="0.7" stroke-miterlimit="10" />
  <path d="M660.732 170.667C663.472 170.667 665.694 168.445 665.694 165.705C665.694 162.965 663.472 160.743 660.732 160.743C657.992 160.743 655.77 162.965 655.77 165.705C655.77 168.445 657.992 170.667 660.732 170.667Z" fill="white" stroke="black" stroke-width="0.7" stroke-miterlimit="10" />
  <path d="M630.704 170.667C633.444 170.667 635.666 168.445 635.666 165.705C635.666 162.965 633.444 160.743 630.704 160.743C627.964 160.743 625.742 162.965 625.742 165.705C625.742 168.445 627.964 170.667 630.704 170.667Z" fill="white" stroke="black" stroke-width="0.7" stroke-miterlimit="10" />
  <path d="M645.721 170.667C648.461 170.667 650.683 168.445 650.683 165.705C650.683 162.965 648.461 160.743 645.721 160.743C642.981 160.743 640.759 162.965 640.759 165.705C640.759 168.445 642.981 170.667 645.721 170.667Z" fill="#EDEDED" stroke="black" stroke-width="0.7" stroke-miterlimit="10" />
  <path d="M715.116 129.013C716.822 129.013 718.206 127.63 718.206 125.923C718.206 124.216 716.822 122.833 715.116 122.833C713.409 122.833 712.026 124.216 712.026 125.923C712.026 127.63 713.409 129.013 715.116 129.013Z" fill="#FFE865" stroke="black" stroke-width="0.7" stroke-miterlimit="10" />
  <path d="M715.116 126.695C715.543 126.695 715.889 126.35 715.889 125.923C715.889 125.496 715.543 125.15 715.116 125.15C714.689 125.15 714.344 125.496 714.344 125.923C714.344 126.35 714.689 126.695 715.116 126.695Z" fill="white" stroke="black" stroke-width="0.7" stroke-miterlimit="10" />
  <defs>
    <linearGradient id="paint0_linear_6715_2833" x1="506.799" y1="180.571" x2="687.236" y2="180.571" gradientUnits="userSpaceOnUse">
      <stop stop-color="white" />
      <stop offset="1" stop-color="#FFE866" />
    </linearGradient>
    <linearGradient id="paint1_linear_6715_2833" x1="506.799" y1="180.571" x2="687.236" y2="180.571" gradientUnits="userSpaceOnUse">
      <stop stop-color="white" />
      <stop offset="1" stop-color="#FFE866" />
    </linearGradient>
    <linearGradient id="paint2_linear_6715_2833" x1="499.262" y1="173.034" x2="679.699" y2="173.034" gradientUnits="userSpaceOnUse">
      <stop stop-color="white" />
      <stop offset="1" stop-color="#FFE866" />
    </linearGradient>
    <linearGradient id="paint3_linear_6715_2833" x1="499.262" y1="173.034" x2="679.699" y2="173.034" gradientUnits="userSpaceOnUse">
      <stop stop-color="white" />
      <stop offset="1" stop-color="#FFE866" />
    </linearGradient>
    <linearGradient id="paint4_linear_6715_2833" x1="845.201" y1="202.717" x2="1025.64" y2="202.717" gradientUnits="userSpaceOnUse">
      <stop stop-color="white" />
      <stop offset="1" stop-color="#FFE866" />
    </linearGradient>
    <linearGradient id="paint5_linear_6715_2833" x1="837.664" y1="195.18" x2="1018.1" y2="195.18" gradientUnits="userSpaceOnUse">
      <stop stop-color="white" />
      <stop offset="1" stop-color="#FFE866" />
    </linearGradient>
    <linearGradient id="paint6_linear_6715_2833" x1="837.664" y1="137.711" x2="1018.1" y2="137.711" gradientUnits="userSpaceOnUse">
      <stop stop-color="white" />
      <stop offset="1" stop-color="#FFE866" />
    </linearGradient>
    <linearGradient id="paint7_linear_6715_2833" x1="837.664" y1="137.711" x2="1018.1" y2="137.711" gradientUnits="userSpaceOnUse">
      <stop stop-color="white" />
      <stop offset="1" stop-color="#FFE866" />
    </linearGradient>
    <linearGradient id="paint8_linear_6715_2833" x1="828.626" y1="130.175" x2="898.235" y2="130.175" gradientUnits="userSpaceOnUse">
      <stop stop-color="white" />
      <stop offset="1" stop-color="#FFE866" />
    </linearGradient>
    <linearGradient id="paint9_linear_6715_2833" x1="491.725" y1="165.497" x2="672.163" y2="165.497" gradientUnits="userSpaceOnUse">
      <stop stop-color="white" />
      <stop offset="1" stop-color="#FFE866" />
    </linearGradient>
    <linearGradient id="paint10_linear_6715_2833" x1="845.201" y1="183.143" x2="942.903" y2="183.143" gradientUnits="userSpaceOnUse">
      <stop stop-color="white" />
      <stop offset="1" stop-color="#FFE866" />
    </linearGradient>
    <linearGradient id="paint11_linear_6715_2833" x1="709.708" y1="83.8675" x2="890.146" y2="83.8675" gradientUnits="userSpaceOnUse">
      <stop stop-color="white" />
      <stop offset="1" stop-color="#FFE866" />
    </linearGradient>
    <linearGradient id="paint12_linear_6715_2833" x1="709.708" y1="83.8675" x2="890.146" y2="83.8675" gradientUnits="userSpaceOnUse">
      <stop stop-color="white" />
      <stop offset="1" stop-color="#FFE866" />
    </linearGradient>
    <linearGradient id="paint13_linear_6715_2833" x1="702.172" y1="76.3304" x2="882.609" y2="76.3304" gradientUnits="userSpaceOnUse">
      <stop stop-color="white" />
      <stop offset="1" stop-color="#FFE866" />
    </linearGradient>
    <linearGradient id="paint14_linear_6715_2833" x1="702.172" y1="76.3304" x2="882.609" y2="76.3304" gradientUnits="userSpaceOnUse">
      <stop stop-color="white" />
      <stop offset="1" stop-color="#FFE866" />
    </linearGradient>
    <linearGradient id="paint15_linear_6715_2833" x1="694.635" y1="68.7943" x2="875.072" y2="68.7943" gradientUnits="userSpaceOnUse">
      <stop stop-color="white" />
      <stop offset="1" stop-color="#FFE866" />
    </linearGradient>
    <linearGradient id="paint16_linear_6715_2833" x1="585.923" y1="228.009" x2="766.36" y2="228.009" gradientUnits="userSpaceOnUse">
      <stop stop-color="white" />
      <stop offset="1" stop-color="#FFE866" />
    </linearGradient>
    <linearGradient id="paint17_linear_6715_2833" x1="585.923" y1="228.009" x2="766.36" y2="228.009" gradientUnits="userSpaceOnUse">
      <stop stop-color="white" />
      <stop offset="1" stop-color="#FFE866" />
    </linearGradient>
    <linearGradient id="paint18_linear_6715_2833" x1="578.386" y1="220.472" x2="758.823" y2="220.472" gradientUnits="userSpaceOnUse">
      <stop stop-color="white" />
      <stop offset="1" stop-color="#FFE866" />
    </linearGradient>
    <linearGradient id="paint19_linear_6715_2833" x1="578.386" y1="220.472" x2="758.823" y2="220.472" gradientUnits="userSpaceOnUse">
      <stop stop-color="white" />
      <stop offset="1" stop-color="#FFE866" />
    </linearGradient>
    <linearGradient id="paint20_linear_6715_2833" x1="506.849" y1="230.103" x2="552.073" y2="230.103" gradientUnits="userSpaceOnUse">
      <stop stop-color="white" />
      <stop offset="1" stop-color="#FFE866" />
    </linearGradient>
    <linearGradient id="paint21_linear_6715_2833" x1="570.849" y1="212.935" x2="751.287" y2="212.935" gradientUnits="userSpaceOnUse">
      <stop stop-color="white" />
      <stop offset="1" stop-color="#FFE866" />
    </linearGradient>
    <linearGradient id="paint22_linear_6715_2833" x1="585.986" y1="239.518" x2="647.536" y2="239.518" gradientUnits="userSpaceOnUse">
      <stop stop-color="white" />
      <stop offset="1" stop-color="#FFE866" />
    </linearGradient>
    <linearGradient id="paint23_linear_6715_2833" x1="625.397" y1="88.5967" x2="548.773" y2="138.842" gradientUnits="userSpaceOnUse">
      <stop stop-color="#FFE866" />
      <stop offset="1" stop-color="white" />
    </linearGradient>
    <linearGradient id="paint24_linear_6715_2833" x1="774.782" y1="285.571" x2="810.444" y2="285.571" gradientUnits="userSpaceOnUse">
      <stop stop-color="white" />
      <stop offset="1" stop-color="#FFE866" />
    </linearGradient>
  </defs>
</svg>