<svg width="36" height="37" viewBox="0 0 36 37" fill="none" xmlns="http://www.w3.org/2000/svg">
<path d="M16.8808 35.9732C14.6516 35.7895 12.5822 35.1185 10.6977 33.922C7.28623 31.7537 5.14893 28.6784 4.29005 24.7315C3.95385 23.1833 3.94114 21.6124 4.0937 20.0374C4.62343 14.5705 7.14073 10.0459 10.7359 6.03543C12.7079 3.83739 14.9299 1.92329 17.395 0.295944C17.8202 0.0148318 18.2581 -0.136319 18.7398 0.165983C19.1749 0.438619 19.3133 0.844042 19.3133 1.33846C19.3077 4.33605 19.3105 7.33363 19.3105 10.3312C19.3105 10.4668 19.3105 10.6024 19.3105 10.8186C19.4687 10.6844 19.5662 10.6095 19.6552 10.5248C21.178 9.10648 22.6979 7.68538 24.2222 6.26852C24.7533 5.7741 25.3692 5.78681 25.8326 6.31372C28.3273 9.15027 30.288 12.3004 31.4153 15.9294C32.4973 19.4144 32.7459 22.9361 31.517 26.4182C29.6353 31.7494 25.8382 34.901 20.281 35.928C19.9659 35.9859 19.6424 35.9986 19.3161 36C20.312 35.7217 21.1935 35.2584 21.9196 34.5238C22.996 33.4333 23.5286 32.1252 23.5074 30.5882C23.482 28.7193 22.7333 27.1301 21.6229 25.6822C20.8813 24.716 20.0097 23.8797 19.0322 23.1536C18.3358 22.6352 17.9868 22.6196 17.282 23.1239C15.3763 24.4871 13.8337 26.1484 13.1006 28.4298C12.5638 30.1023 12.5412 31.7635 13.4311 33.3443C14.1502 34.6213 15.2294 35.4646 16.6293 35.8969C16.7141 35.9223 16.7974 35.9491 16.8822 35.976L16.8808 35.9732Z" fill="#FAA11C"/>
</svg>
