<svg width="27" height="35" viewBox="0 0 27 35" fill="none" xmlns="http://www.w3.org/2000/svg">
<path d="M14.4216 21.6988L11.2085 19.8438L6.02405 28.8235L7.89681 33.0001L14.4216 21.6988Z" fill="#FDEAAA" stroke="#DADADA" stroke-linecap="square"/>
<path d="M7.99539 17.9887L11.2085 19.8438L6.02405 28.8235L1.47058 29.2899L7.99539 17.9887Z" fill="#FCC409" stroke="#DADADA" stroke-linecap="square"/>
<path d="M12.5784 21.6988L15.7915 19.8438L20.9759 28.8235L19.1032 33.0001L12.5784 21.6988Z" fill="#FCC409" stroke="#DADADA"/>
<path d="M19.0046 17.9887L15.7915 19.8438L20.9759 28.8235L25.5294 29.2899L19.0046 17.9887Z" fill="#FDEAAA" stroke="#DADADA" stroke-linecap="round"/>
<circle cx="13.4957" cy="12.0621" r="11.0621" fill="#FFE866" stroke="#DADADA"/>
<path d="M16.8297 8.48749L16.8298 8.48748C16.5389 8.21372 16.2144 7.97541 15.8632 7.77943C15.1641 7.38939 14.3589 7.16688 13.5012 7.16629L8.84941 7.37982L8.63529 12.0321C8.63622 13.3758 9.18569 14.5956 10.0732 15.4771L10.18 15.5832L10.18 15.5832C10.3658 15.7568 10.5653 15.9159 10.7765 16.0589C11.5522 16.5836 12.4872 16.8903 13.4943 16.891L18.1459 16.6775L18.36 12.0252C18.3591 10.6883 17.8152 9.47411 16.9357 8.59359L16.8297 8.48749Z" fill="#3E3E3E" stroke="#3E3E3E" stroke-width="0.3"/>
<path d="M13.503 15.011C15.1983 15.011 16.4859 13.7825 16.4859 12.0282C16.4859 10.2739 15.1983 9.04531 13.503 9.04531C11.8078 9.04531 10.5202 10.2739 10.5202 12.0282C10.5202 13.7825 11.8078 15.011 13.503 15.011Z" fill="#FFE866" stroke="#3E3E3E" stroke-width="0.3"/>
</svg>
