<svg width="27" height="36" viewBox="0 0 27 36" fill="none" xmlns="http://www.w3.org/2000/svg">
<path d="M14.4512 22.3457L11.1377 20.4326L5.79127 29.6929L7.72254 34L14.4512 22.3457Z" fill="#FDEAAA" stroke="#DADADA" stroke-linecap="square"/>
<path d="M7.8242 18.5196L11.1377 20.4326L5.79127 29.6929L1.09554 30.1739L7.8242 18.5196Z" fill="#FCC409" stroke="#DADADA" stroke-linecap="square"/>
<path d="M12.5488 22.3457L15.8623 20.4326L21.2087 29.6929L19.2775 34L12.5488 22.3457Z" fill="#FCC409" stroke="#DADADA"/>
<path d="M19.1758 18.5196L15.8623 20.4326L21.2087 29.6929L25.9045 30.1739L19.1758 18.5196Z" fill="#FDEAAA" stroke="#DADADA" stroke-linecap="round"/>
<ellipse cx="13.5" cy="12.4077" rx="11.4077" ry="11.4077" fill="#FFD850" stroke="#DADADA"/>
<path d="M16.9394 8.72077L16.9395 8.72065C16.6384 8.43667 16.3023 8.18955 15.9383 7.98647C15.2167 7.58384 14.3855 7.35416 13.5001 7.35357L8.69862 7.57397L8.4776 12.376C8.47853 13.763 9.04571 15.0222 9.96183 15.9321L10.0686 16.0382L10.0685 16.0383C10.2613 16.2187 10.4684 16.3841 10.6878 16.5325C11.4884 17.0742 12.4537 17.3908 13.4933 17.3915L18.2945 17.1711L18.5155 12.3691C18.5146 10.9891 17.9532 9.73573 17.0454 8.82684L16.9394 8.72077Z" fill="#3E3E3E" stroke="#3E3E3E" stroke-width="0.3"/>
<path d="M13.5049 15.4454C15.2505 15.4454 16.5762 14.1805 16.5762 12.374C16.5762 10.5675 15.2505 9.30264 13.5049 9.30264C11.7592 9.30264 10.4335 10.5675 10.4335 12.374C10.4335 14.1805 11.7592 15.4454 13.5049 15.4454Z" fill="#FFD850" stroke="#3E3E3E" stroke-width="0.3"/>
</svg>
