<svg width="1440" height="232" viewBox="0 0 1440 232" fill="none" xmlns="http://www.w3.org/2000/svg">
  <g clip-path="url(#clip0_595_11311)">
    <path d="M1636.78 409.172L1637 153.626C1349.67 54.3855 1041.19 0.492676 720.108 0.492676C399.031 0.492676 90.5602 54.3855 -196.784 153.626L-197 409.172H1636.78Z" fill="#F4F4F4" />
    <path d="M163.555 95.1484C61.0537 117.969 -40.8231 145.96 -140.522 178.929L-160.49 185.577L-140.624 178.637C-41.2943 144.533 60.7099 116.492 163.555 95.1612V95.1484Z" fill="black" />
    <path d="M1629.36 193.205C1467.54 138.141 1300.09 97.0972 1131.13 71.2333L1097.26 66.2158L1131.18 70.9276C1300.35 95.6073 1468 136.689 1629.37 193.205H1629.36Z" fill="black" />
  </g>
  <defs>
    <clipPath id="clip0_595_11311">
      <rect width="1834" height="408.679" fill="white" transform="translate(-197 0.492676)" />
    </clipPath>
  </defs>
</svg>