<svg width="219" height="155" viewBox="0 0 219 155" fill="none" xmlns="http://www.w3.org/2000/svg">
  <g clip-path="url(#clip0_595_11315)">
    <path d="M184.806 148.874C203.403 148.874 218.479 144.941 218.479 140.09C218.479 135.239 203.403 131.306 184.806 131.306C166.209 131.306 151.133 135.239 151.133 140.09C151.133 144.941 166.209 148.874 184.806 148.874Z" fill="#D8D8D8" />
    <path d="M205.049 78.1724H164.485V114.239H205.049V78.1724Z" fill="#FFE866" stroke="black" stroke-width="0.915032" stroke-miterlimit="10" />
    <path d="M202.034 67.6558H167.49C164.586 67.6558 162.231 70.01 162.231 72.914C162.231 75.8181 164.586 78.1723 167.49 78.1723H202.034C204.938 78.1723 207.292 75.8181 207.292 72.914C207.292 70.01 204.938 67.6558 202.034 67.6558Z" fill="#FFE866" stroke="black" stroke-width="0.767786" stroke-miterlimit="10" />
    <path d="M184.769 69.5376C166.66 69.5376 151.977 84.2207 151.977 102.329H162.714C162.714 96.3599 165.088 90.9614 168.934 86.9951V137.425H182.585V116.431C182.585 115.099 183.667 114.028 184.989 114.028C186.321 114.028 187.393 115.109 187.393 116.431V136.924H200.614V87.0051C204.46 90.9714 206.834 96.3799 206.834 102.339H217.57C217.57 84.2308 202.887 69.5476 184.779 69.5476L184.769 69.5376Z" fill="white" stroke="black" stroke-width="1.32786" stroke-miterlimit="10" />
    <path d="M151.967 102.339H162.704V107.707C162.704 110.672 160.3 113.076 157.336 113.076C154.371 113.076 151.967 110.672 151.967 107.707V102.339Z" fill="white" stroke="black" stroke-width="1.32786" stroke-miterlimit="10" />
    <path d="M206.823 102.339H217.56V107.707C217.56 110.672 215.156 113.076 212.192 113.076C209.227 113.076 206.823 110.672 206.823 107.707V102.339Z" fill="white" stroke="black" stroke-width="1.32786" stroke-miterlimit="10" />
    <path d="M166.391 75.166C166.391 75.166 169.636 75.9673 170.657 79.6331C171.368 82.1871 170.587 85.2419 169.045 87.0047" stroke="black" stroke-width="1.32786" stroke-miterlimit="10" />
    <path d="M203.398 75.166C203.398 75.166 200.153 75.9673 199.132 79.6331C198.42 82.1871 199.061 85.2419 200.604 87.0047" stroke="black" stroke-width="1.32786" stroke-miterlimit="10" />
    <path d="M201.986 59.1215C201.986 64.0793 199.893 68.5563 196.548 71.7013C196.548 71.7013 191.61 74.7261 184.699 74.7261C177.788 74.7261 172.92 71.7614 172.92 71.7614C169.535 68.6064 167.412 64.1093 167.412 59.1115C167.412 49.5664 175.154 41.8242 184.699 41.8242C194.244 41.8242 201.986 49.5664 201.986 59.1115V59.1215Z" fill="white" stroke="black" stroke-width="1.32786" stroke-miterlimit="10" />
    <path d="M196.227 59.2713C196.227 62.5765 194.835 65.5612 192.601 67.6545C192.601 67.6545 189.306 69.6677 184.709 69.6677C180.111 69.6677 176.856 67.6946 176.856 67.6946C174.603 65.5913 173.19 62.5966 173.19 59.2613C173.19 52.9013 178.349 47.7432 184.709 47.7432C191.069 47.7432 196.227 52.9013 196.227 59.2613V59.2713Z" fill="black" stroke="black" stroke-width="1.32786" stroke-miterlimit="10" />
    <path d="M193.442 58.1899C193.442 58.3602 193.452 58.5305 193.452 58.7108C193.452 61.2247 192.39 63.4883 190.698 65.0808" stroke="white" stroke-width="1.32786" stroke-linecap="round" stroke-linejoin="round" />
    <path d="M191.799 53.583C192.29 54.2641 192.681 55.0052 192.971 55.8165" stroke="white" stroke-width="1.32786" stroke-linecap="round" stroke-linejoin="round" />
    <path d="M196.556 75.1465C196.556 75.1465 191.619 78.1713 184.708 78.1713C177.797 78.1713 172.929 75.2066 172.929 75.2066" stroke="black" stroke-width="1.32786" stroke-miterlimit="10" />
    <path d="M196.015 84.0005H173.52V106.496H196.015V84.0005Z" stroke="black" stroke-width="1.32786" stroke-miterlimit="10" />
    <path d="M189.245 90.7704C188.103 89.6286 186.511 88.9175 184.768 88.9175L178.689 89.218L178.428 95.2575C178.428 97.0102 179.139 98.5927 180.281 99.7345C181.423 100.876 183.015 101.587 184.758 101.587L190.798 101.327L191.098 95.2475C191.098 93.4947 190.387 91.9122 189.245 90.7704ZM184.808 98.9333C183.807 98.9333 182.895 98.5226 182.234 97.8616C181.573 97.2005 181.163 96.2891 181.163 95.2875C181.163 93.2743 182.795 91.6418 184.808 91.6418C185.81 91.6418 186.721 92.0524 187.382 92.7135C188.043 93.3745 188.454 94.2859 188.454 95.2875C188.454 97.3007 186.821 98.9333 184.808 98.9333Z"
      fill="black" />
    <path d="M174.503 129.432C178.96 129.432 182.575 133.048 182.575 137.505V138.607H166.44V137.505C166.44 133.048 170.056 129.432 174.513 129.432H174.503Z" fill="white" stroke="black" stroke-width="1.32786" stroke-miterlimit="10" />
    <path d="M195.455 129.432C199.912 129.432 203.528 133.048 203.528 137.505V138.607H187.393V137.505C187.393 133.048 191.008 129.432 195.465 129.432H195.455Z" fill="white" stroke="black" stroke-width="1.32786" stroke-miterlimit="10" />
    <path d="M162.834 102.339H151.967V106.185H162.834V102.339Z" fill="#FFE866" stroke="black" stroke-width="1.32786" stroke-miterlimit="10" />
    <path d="M217.56 102.339H206.823V106.185H217.56V102.339Z" fill="#FFE866" stroke="black" stroke-width="1.32786" stroke-miterlimit="10" />
    <path d="M182.574 121.49H168.923V125.727H182.574V121.49Z" fill="#FFE866" stroke="black" stroke-width="0.915032" stroke-miterlimit="10" />
    <path d="M200.612 121.49H187.392V125.727H200.612V121.49Z" fill="#FFE866" stroke="black" stroke-width="0.915032" stroke-miterlimit="10" />
    <path d="M74.4935 154.142C113.391 154.142 144.925 147.787 144.925 139.949C144.925 132.111 113.391 125.757 74.4935 125.757C35.5955 125.757 4.0625 132.111 4.0625 139.949C4.0625 147.787 35.5955 154.142 74.4935 154.142Z" fill="#D8D8D8" />
    <path d="M74.0403 22.7607C99.4003 22.7607 119.993 43.3532 119.993 68.7132V85.1791H28.0879V68.7132C28.0879 43.3532 48.6803 22.7607 74.0403 22.7607Z" fill="white" stroke="black" stroke-width="1.32786" stroke-miterlimit="10" />
    <path d="M74.0397 25.8452C97.5368 25.8452 116.617 44.9253 116.617 68.4223V85.1887H31.4727V68.4223C31.4727 44.9153 50.5427 25.8452 74.0397 25.8452Z" fill="black" stroke="black" stroke-width="1.32786" stroke-miterlimit="10" />
    <path d="M46.9382 103.642L33.5771 132.357H50.5439L61.6314 103.642H46.9382Z" fill="white" stroke="black" stroke-width="1.32786" stroke-miterlimit="10" />
    <path d="M103.207 103.642L116.558 132.357H99.5911L88.5137 103.642H103.207Z" fill="white" stroke="black" stroke-width="1.32786" stroke-miterlimit="10" />
    <path d="M81.6321 105.435H67.3496V132.357H81.6321V105.435Z" fill="white" stroke="black" stroke-width="1.32786" stroke-miterlimit="10" />
    <path d="M53.4882 132.357H27.5674V134.781H53.4882V132.357Z" fill="#FFE866" stroke="black" stroke-width="1.32786" stroke-miterlimit="10" />
    <path d="M87.4521 132.357H61.5312V134.781H87.4521V132.357Z" fill="#FFE866" stroke="black" stroke-width="1.32786" stroke-miterlimit="10" />
    <path d="M122.567 132.357H96.646V134.781H122.567V132.357Z" fill="#FFE866" stroke="black" stroke-width="1.32786" stroke-miterlimit="10" />
    <path d="M107.884 66.5737H41.1085C13.2646 66.5737 2.70801 83.1498 2.70801 83.1498H146.274C146.274 83.1498 135.728 66.5737 107.874 66.5737H107.884Z" fill="white" stroke="black" stroke-width="1.32786" stroke-miterlimit="10" />
    <path d="M74.4919 91.833H30.3223C30.3223 91.833 30.3423 92.1836 30.4425 92.8045C31.1436 97.2515 36.1014 115.45 69.2636 115.45H79.7101C112.872 115.45 117.83 97.2515 118.531 92.8045C118.641 92.1836 118.651 91.833 118.651 91.833H74.4819H74.4919Z" fill="white" stroke="black" stroke-width="1.32786" stroke-miterlimit="10" />
    <path d="M74.4911 91.833H52.4062C52.4062 91.833 52.4063 92.1836 52.4663 92.8045C52.8169 97.2515 55.3008 115.45 71.887 115.45H77.1052C93.6913 115.45 96.1652 97.2515 96.5258 92.8045C96.5759 92.1836 96.5859 91.833 96.5859 91.833H74.5011H74.4911Z" fill="white" stroke="black" stroke-width="1.32786" stroke-miterlimit="10" />
    <path d="M74.4912 87.0659H2.70801C2.70801 87.0659 7.45549 102.691 43.6025 103.592C44.6742 103.632 45.7959 103.642 46.9277 103.642H102.045C103.186 103.642 104.298 103.632 105.37 103.592C141.517 102.691 146.264 87.0659 146.264 87.0659H74.4912Z" fill="white" stroke="black" stroke-width="1.32786" stroke-miterlimit="10" />
    <path d="M146.274 83.1494H2.70821C1.61649 83.1494 0.745117 84.0308 0.745117 85.1025C0.745117 86.1742 1.62651 87.0656 2.70821 87.0656H146.274C147.366 87.0656 148.238 86.1842 148.238 85.1025C148.238 84.0208 147.356 83.1494 146.274 83.1494Z" fill="#FFE866" stroke="black" stroke-width="1.32786" stroke-miterlimit="10" />
    <path d="M93.0308 66.5737H55.2814C39.5466 66.5737 33.5771 83.1498 33.5771 83.1498H114.725C114.725 83.1498 108.766 66.5737 93.0208 66.5737H93.0308Z" fill="white" stroke="black" stroke-width="1.32786" stroke-miterlimit="10" />
    <path d="M55.2814 103.642H93.0208C108.756 103.642 114.725 87.0659 114.725 87.0659H33.5771C33.5771 87.0659 39.5365 103.642 55.2814 103.642Z" fill="white" stroke="black" stroke-width="1.32786" stroke-miterlimit="10" />
    <path d="M74.4912 66.5737V115.451" stroke="black" stroke-width="1.32786" stroke-miterlimit="10" />
    <path d="M121.236 62.7681H27.7583C25.044 62.7681 22.8506 64.6611 22.8506 67.0047C22.8506 69.3484 25.044 71.2414 27.7583 71.2414H121.236C123.95 71.2414 126.143 69.3484 126.143 67.0047C126.143 64.6611 123.95 62.7681 121.236 62.7681Z" fill="#FFE866" stroke="black" stroke-width="1.32786" stroke-miterlimit="10" />
    <path d="M88.4138 55.3057H60.5699C59.6074 55.3057 58.8271 56.0837 58.8271 57.0434C58.8271 58.0031 59.6074 58.7811 60.5699 58.7811H88.4138C89.3763 58.7811 90.1565 58.0031 90.1565 57.0434C90.1565 56.0837 89.3763 55.3057 88.4138 55.3057Z" fill="#FFE866" stroke="black" stroke-width="1.32786" stroke-miterlimit="10" />
    <path d="M76.6742 62.7673H72.3073L61.8008 58.791H66.1677L76.6742 62.7673Z" fill="white" stroke="black" stroke-width="1.32786" stroke-miterlimit="10" />
    <path d="M72.3076 62.7673H76.6745L87.1911 58.791H82.8242L72.3076 62.7673Z" fill="white" stroke="black" stroke-width="1.32786" stroke-miterlimit="10" />
    <path d="M76.6745 58.791H72.3076V62.7673H76.6745V58.791Z" fill="#FFE866" stroke="black" stroke-width="1.32786" stroke-miterlimit="10" />
    <path d="M92.262 38.8962C93.8429 38.1883 94.5505 36.3328 93.8426 34.752C93.1347 33.1711 91.2793 32.4634 89.6984 33.1713C88.1175 33.8792 87.4098 35.7347 88.1177 37.3156C88.8257 38.8964 90.6811 39.6041 92.262 38.8962Z" fill="white" />
    <path d="M97.7918 39.39C96.1019 40.1467 95.7898 42.4084 97.2108 43.5938C100.122 46.0267 102.435 49.0896 103.988 52.5556L105.848 56.7113C106.466 58.0908 108.018 58.897 109.45 58.421C111.097 57.8697 111.864 56.0461 111.177 54.5114L108.938 49.5107C107.494 46.2862 105.333 43.4243 102.613 41.1644L101.028 39.8452C100.122 39.0919 98.8648 38.9199 97.7956 39.3986L97.7918 39.39Z" fill="white" />
  </g>
  <defs>
    <clipPath id="clip0_595_11315">
      <rect width="218.074" height="154.143" fill="white" transform="translate(0.395508)" />
    </clipPath>
  </defs>
</svg>