<svg width="133" height="26" viewBox="0 0 133 26" fill="none" xmlns="http://www.w3.org/2000/svg">
  <path d="M5.66483 22H1.82483V4.96H5.95283L13.2728 15.784V4.96H17.1128V22H13.0568L5.66483 11.08V22ZM27.4846 22H23.5726V8.344H19.2766V4.96H31.7806V8.344H27.4846V22ZM41.0862 22.432C37.7022 22.432 33.7182 20.56 33.7182 14.776V4.96H37.6302V15.064C37.6302 17.8 39.3342 18.856 41.0862 18.856C42.8622 18.856 44.5662 17.8 44.5662 15.064V4.96H48.4782V14.776C48.4782 20.56 44.4942 22.432 41.0862 22.432Z" fill="#131313" />
  <path
    d="M55.9388 12H54.9188V4.9H55.9388V12ZM58.4241 12H57.4241V7.12H58.3441V7.91C58.6541 7.34 59.2441 7 59.9741 7C61.0941 7 61.8641 7.78 61.8641 9.01V12H60.8641V9.15C60.8641 8.31 60.3741 7.87 59.6441 7.87C58.9141 7.87 58.4241 8.31 58.4241 9.15V12ZM64.1761 12H63.1761V7.12H64.0961V7.91C64.4061 7.34 64.9961 7 65.7261 7C66.8461 7 67.6161 7.78 67.6161 9.01V12H66.6161V9.15C66.6161 8.31 66.1261 7.87 65.3961 7.87C64.6661 7.87 64.1761 8.31 64.1761 9.15V12ZM71.218 12.12C69.858 12.12 68.628 11.1 68.628 9.56C68.628 8.02 69.858 7 71.218 7C72.578 7 73.808 8.02 73.808 9.56C73.808 11.1 72.578 12.12 71.218 12.12ZM71.218 11.21C72.108 11.21 72.808 10.52 72.808 9.56C72.808 8.6 72.108 7.91 71.218 7.91C70.328 7.91 69.628 8.6 69.628 9.56C69.628 10.52 70.328 11.21 71.218 11.21ZM77.0791 12H76.1591L74.1491 7.12H75.2191L76.6091 10.72L78.0091 7.12H79.0891L77.0791 12ZM84.8988 12H83.8988L83.6888 11.23C83.2488 11.8 82.5988 12.12 81.9188 12.12C80.6088 12.12 79.4288 11.1 79.4288 9.56C79.4288 8.02 80.6088 7 81.9188 7C82.5988 7 83.2388 7.33 83.6788 7.88V7.12H84.5988V10.9L84.8988 12ZM82.0188 11.2C82.8988 11.2 83.5988 10.51 83.5988 9.56C83.5988 8.61 82.8988 7.92 82.0188 7.92C81.1388 7.92 80.4388 8.61 80.4388 9.56C80.4388 10.51 81.1388 11.2 82.0188 11.2ZM88.4484 12H87.8984C86.8384 12 86.3084 11.42 86.3084 10.42V8.03H85.5984V7.12H86.3284V5.95H87.3084V7.12H88.8584L88.4584 8.03H87.3084V10.35C87.3084 10.81 87.4984 11.09 87.9784 11.09L88.4484 11.05V12ZM90.514 12H89.514V7.12H90.514V12ZM90.514 5.95H89.514V4.9H90.514V5.95ZM94.1673 12.12C92.8073 12.12 91.5773 11.1 91.5773 9.56C91.5773 8.02 92.8073 7 94.1673 7C95.5273 7 96.7573 8.02 96.7573 9.56C96.7573 11.1 95.5273 12.12 94.1673 12.12ZM94.1673 11.21C95.0573 11.21 95.7573 10.52 95.7573 9.56C95.7573 8.6 95.0573 7.91 94.1673 7.91C93.2773 7.91 92.5773 8.6 92.5773 9.56C92.5773 10.52 93.2773 11.21 94.1673 11.21ZM98.8148 12H97.8148V7.12H98.7348V7.91C99.0448 7.34 99.6348 7 100.365 7C101.485 7 102.255 7.78 102.255 9.01V12H101.255V9.15C101.255 8.31 100.765 7.87 100.035 7.87C99.3048 7.87 98.8148 8.31 98.8148 9.15V12ZM111.1 12H110.1L109.89 11.23C109.45 11.8 108.8 12.12 108.12 12.12C106.81 12.12 105.63 11.1 105.63 9.56C105.63 8.02 106.81 7 108.12 7C108.8 7 109.44 7.33 109.88 7.88V7.12H110.8V10.9L111.1 12ZM108.22 11.2C109.1 11.2 109.8 10.51 109.8 9.56C109.8 8.61 109.1 7.92 108.22 7.92C107.34 7.92 106.64 8.61 106.64 9.56C106.64 10.51 107.34 11.2 108.22 11.2ZM113.2 12H112.2V7.12H113.12V7.91C113.43 7.34 114.02 7 114.75 7C115.87 7 116.64 7.78 116.64 9.01V12H115.64V9.15C115.64 8.31 115.15 7.87 114.42 7.87C113.69 7.87 113.2 8.31 113.2 9.15V12ZM122.831 12H121.911V11.23C121.471 11.8 120.821 12.12 120.141 12.12C118.831 12.12 117.651 11.1 117.651 9.56C117.651 8.02 118.831 7 120.141 7C120.781 7 121.391 7.29 121.831 7.8V4.9H122.831V12ZM120.241 11.21C121.111 11.21 121.791 10.56 121.831 9.63V9.49C121.791 8.57 121.111 7.91 120.241 7.91C119.351 7.91 118.651 8.6 118.651 9.56C118.651 10.52 119.351 11.21 120.241 11.21ZM59.0088 22H54.9188V14.9H58.9588V15.86H55.9388V17.92H58.8088V18.88H55.9388V21.04H59.0088V22ZM61.1585 22H60.1585V17.12H61.0785V17.91C61.3885 17.34 61.9785 17 62.7085 17C63.8285 17 64.5985 17.78 64.5985 19.01V22H63.5985V19.15C63.5985 18.31 63.1085 17.87 62.3785 17.87C61.6485 17.87 61.1585 18.31 61.1585 19.15V22ZM68.2921 22H67.7421C66.6821 22 66.1521 21.42 66.1521 20.42V18.03H65.4421V17.12H66.1721V15.95H67.1521V17.12H68.7021L68.3021 18.03H67.1521V20.35C67.1521 20.81 67.3421 21.09 67.8221 21.09L68.2921 21.05V22ZM70.3577 18.82V22H69.3577V17.12H70.2777V17.82C70.5677 17.3 71.0277 17.12 71.6277 17.12H71.9577V18.03H71.7177C71.0077 18.03 70.5777 18.24 70.3577 18.82ZM74.9595 22.12C73.3595 22.12 72.3295 21.06 72.3295 19.56C72.3295 18.06 73.3795 17 74.7395 17C75.9695 17 76.8595 17.8 77.0595 18.98V19.92H73.3495C73.4395 20.8 74.1095 21.27 75.0395 21.27L76.7095 20.64V21.58C76.2695 21.87 75.6495 22.12 74.9595 22.12ZM74.7395 17.87C73.9995 17.87 73.4395 18.28 73.3295 19.06H76.1495C76.0595 18.31 75.4895 17.87 74.7395 17.87ZM79.137 24H78.137V17.12H79.057V17.89C79.487 17.33 80.137 17 80.827 17C82.137 17 83.317 18.02 83.317 19.56C83.317 21.1 82.137 22.12 80.827 22.12C80.177 22.12 79.567 21.83 79.137 21.33V24ZM80.727 21.21C81.617 21.21 82.317 20.52 82.317 19.56C82.317 18.6 81.617 17.91 80.727 17.91C79.857 17.91 79.167 18.57 79.137 19.49V19.56C79.137 20.52 79.837 21.21 80.727 21.21ZM85.3773 18.82V22H84.3773V17.12H85.2973V17.82C85.5873 17.3 86.0473 17.12 86.6473 17.12H86.9773V18.03H86.7373C86.0273 18.03 85.5973 18.24 85.3773 18.82ZM89.979 22.12C88.379 22.12 87.349 21.06 87.349 19.56C87.349 18.06 88.399 17 89.759 17C90.989 17 91.879 17.8 92.079 18.98V19.92H88.369C88.459 20.8 89.129 21.27 90.059 21.27L91.729 20.64V21.58C91.289 21.87 90.669 22.12 89.979 22.12ZM89.759 17.87C89.019 17.87 88.459 18.28 88.349 19.06H91.169C91.079 18.31 90.509 17.87 89.759 17.87ZM94.1566 22H93.1566V17.12H94.0766V17.91C94.3866 17.34 94.9766 17 95.7066 17C96.8266 17 97.5966 17.78 97.5966 19.01V22H96.5966V19.15C96.5966 18.31 96.1066 17.87 95.3766 17.87C94.6466 17.87 94.1566 18.31 94.1566 19.15V22ZM101.249 22.12C99.6485 22.12 98.6185 21.06 98.6185 19.56C98.6185 18.06 99.6685 17 101.029 17C102.259 17 103.149 17.8 103.349 18.98V19.92H99.6385C99.7285 20.8 100.399 21.27 101.329 21.27L102.999 20.64V21.58C102.559 21.87 101.939 22.12 101.249 22.12ZM101.029 17.87C100.289 17.87 99.7285 18.28 99.6185 19.06H102.439C102.349 18.31 101.779 17.87 101.029 17.87ZM106.496 22.12C105.126 22.12 104.376 21.31 104.376 20.11V17.12H105.376V20.01C105.376 20.71 105.706 21.21 106.496 21.21C107.296 21.21 107.626 20.71 107.626 20.01V17.12H108.626V20.11C108.626 21.31 107.866 22.12 106.496 22.12ZM110.934 18.82V22H109.934V17.12H110.854V17.82C111.144 17.3 111.604 17.12 112.204 17.12H112.534V18.03H112.294C111.584 18.03 111.154 18.24 110.934 18.82ZM114.582 22.12C114.082 22.12 113.482 21.94 113.102 21.74V20.78L114.592 21.33H114.662C115.102 21.33 115.372 21.08 115.372 20.69C115.372 19.67 113.112 20.1 113.112 18.33C113.112 17.53 113.772 17 114.682 17C115.182 17 115.712 17.15 116.092 17.35V18.34L114.682 17.83C114.302 17.83 114.072 18.02 114.072 18.33C114.072 19.3 116.342 18.93 116.342 20.65C116.342 21.58 115.662 22.12 114.582 22.12ZM118.395 22H117.395V14.9H118.395V17.78C118.725 17.29 119.265 17 119.945 17C121.065 17 121.835 17.78 121.835 19.01V22H120.835V19.15C120.835 18.31 120.345 17.87 119.615 17.87C118.885 17.87 118.395 18.31 118.395 19.15V22ZM124.147 22H123.147V17.12H124.147V22ZM124.147 15.95H123.147V14.9H124.147V15.95ZM126.51 24H125.51V17.12H126.43V17.89C126.86 17.33 127.51 17 128.2 17C129.51 17 130.69 18.02 130.69 19.56C130.69 21.1 129.51 22.12 128.2 22.12C127.55 22.12 126.94 21.83 126.51 21.33V24ZM128.1 21.21C128.99 21.21 129.69 20.52 129.69 19.56C129.69 18.6 128.99 17.91 128.1 17.91C127.23 17.91 126.54 18.57 126.51 19.49V19.56C126.51 20.52 127.21 21.21 128.1 21.21Z"
    fill="#131313" />
</svg>